<svg version="1.2" xmlns="http://www.w3.org/2000/svg" viewBox="0 0 19 22" width="20" height="23">
	<title>article-svg</title>
	<style>
		.s0 { fill: #000000 } 
	</style>
	<g id="Layer">
		<path id="Layer" class="s0" d="m2.9 8.8c-0.4 0-0.7 0.3-0.7 0.7 0 0.4 0.3 0.7 0.7 0.7h10.7c0.4 0 0.7-0.3 0.7-0.7 0-0.4-0.3-0.7-0.7-0.7z"/>
		<path id="Layer" fill-rule="evenodd" class="s0" d="m2.6 20.4c-0.2 0-0.5-0.2-0.5-0.4v-18c0-0.2 0.3-0.4 0.5-0.4h9.3q0.2 0 0.3 0.1l4.1 4.1q0.1 0.1 0.1 0.3v13.9c0 0.2-0.2 0.4-0.4 0.4 0 0-13.4 0-13.4 0zm0.5-0.9h12.4v-12.9h-3.6c-0.3 0-0.5-0.2-0.5-0.5v-3.6h-8.3zm9.3-13.9h2.4l-2.4-2.4z"/>
		<path id="Layer" class="s0" d="m2.9 11.9c-0.4 0-0.7 0.3-0.7 0.7 0 0.4 0.3 0.7 0.7 0.7h10.7c0.4 0 0.7-0.3 0.7-0.7 0-0.4-0.3-0.7-0.7-0.7z"/>
		<path id="Layer" class="s0" d="m2.9 15c-0.4 0-0.7 0.3-0.7 0.7 0 0.4 0.3 0.7 0.7 0.7h10.7c0.4 0 0.7-0.3 0.7-0.7 0-0.4-0.3-0.7-0.7-0.7z"/>
	</g>
</svg>