<svg width="18" height="18" viewBox="0 0 18 18" fill="none" xmlns="http://www.w3.org/2000/svg">
<path fill-rule="evenodd" clip-rule="evenodd" d="M9 0.875C9 0.875 10.6526 0.875 12.1628 1.51376C12.1628 1.51376 13.621 2.13053 14.7452 3.25476C14.7452 3.25476 15.8695 4.37899 16.4862 5.83719C16.4862 5.83719 17.125 7.34739 17.125 9C17.125 9 17.125 10.6526 16.4862 12.1628C16.4862 12.1628 15.8695 13.621 14.7452 14.7452C14.7452 14.7452 13.621 15.8695 12.1628 16.4862C12.1628 16.4862 10.6526 17.125 9 17.125C9 17.125 7.34739 17.125 5.83719 16.4862C5.83719 16.4862 4.37899 15.8695 3.25476 14.7452C3.25476 14.7452 2.13053 13.621 1.51376 12.1628C1.51376 12.1628 0.875 10.6526 0.875 9C0.875 9 0.875 7.34739 1.51376 5.83719C1.51376 5.83719 2.13053 4.37899 3.25476 3.25476C3.25476 3.25476 4.37899 2.13053 5.83719 1.51376C5.83719 1.51376 7.34739 0.875 9 0.875ZM9 2.125C9 2.125 7.60087 2.125 6.32413 2.66501C6.32413 2.66501 5.09047 3.18681 4.13864 4.13864C4.13864 4.13864 3.18681 5.09047 2.66502 6.32413C2.66502 6.32413 2.125 7.60087 2.125 9C2.125 9 2.125 10.3991 2.66502 11.6759C2.66502 11.6759 3.18681 12.9095 4.13864 13.8614C4.13864 13.8614 5.09047 14.8132 6.32413 15.335C6.32413 15.335 7.60087 15.875 9 15.875C9 15.875 10.3991 15.875 11.6759 15.335C11.6759 15.335 12.9095 14.8132 13.8614 13.8614C13.8614 13.8614 14.8132 12.9095 15.335 11.6759C15.335 11.6759 15.875 10.3991 15.875 9C15.875 9 15.875 7.60087 15.335 6.32413C15.335 6.32413 14.8132 5.09047 13.8614 4.13864C13.8614 4.13864 12.9095 3.18681 11.6759 2.66501C11.6759 2.66501 10.3991 2.125 9 2.125Z" fill="#FF4747"/>
<path d="M8.375 5.25V9.625C8.375 9.97018 8.65482 10.25 9 10.25C9.34518 10.25 9.625 9.97018 9.625 9.625V5.25C9.625 4.90482 9.34518 4.625 9 4.625C8.65482 4.625 8.375 4.90482 8.375 5.25Z" fill="#FF4747"/>
<path d="M9.9375 12.4375C9.9375 12.9553 9.51773 13.375 9 13.375C8.48227 13.375 8.0625 12.9553 8.0625 12.4375C8.0625 11.9197 8.48227 11.5 9 11.5C9.51773 11.5 9.9375 11.9197 9.9375 12.4375Z" fill="#FF4747"/>
</svg>
