<svg width="175" height="41" viewBox="0 0 175 41" fill="none" xmlns="http://www.w3.org/2000/svg">
<path d="M70.8965 15.1045C69.1991 14.054 67.205 13.519 64.9629 13.519C62.9202 13.519 61.1207 13.9811 59.6129 14.8857C58.4068 15.6104 57.4535 16.5636 56.7775 17.726V6.49601C56.7775 5.65461 56.5051 4.97857 55.9653 4.48735C55.4351 4.00099 54.798 3.75781 54.0782 3.75781C53.3584 3.75781 52.7261 4.00099 52.1911 4.48735C51.6513 4.97857 51.3789 5.65461 51.3789 6.49601V34.2865C51.3789 35.1279 51.6513 35.8039 52.1911 36.2952C52.7213 36.7815 53.3584 37.0247 54.0782 37.0247C54.798 37.0247 55.4303 36.7815 55.9653 36.2952C56.5051 35.8039 56.7775 35.1279 56.7775 34.2865V33.2992C57.58 34.413 58.6111 35.3225 59.8561 36.0082C61.3492 36.8253 62.9785 37.2436 64.7051 37.2436C66.9764 37.2436 69.0094 36.728 70.7457 35.7018C72.482 34.6805 73.8389 33.2506 74.7727 31.451C75.7065 29.6612 76.1783 27.6331 76.1783 25.4251C76.1783 23.217 75.7211 21.2278 74.8214 19.4234C73.9167 17.6142 72.5987 16.1599 70.9013 15.1094L70.8965 15.1045ZM63.7129 18.4361C65.0407 18.4361 66.2517 18.7376 67.3169 19.331C68.3771 19.9244 69.2234 20.756 69.8265 21.8017C70.4344 22.8522 70.7408 24.0535 70.7408 25.3813C70.7408 26.7091 70.4344 27.9006 69.8265 28.9366C69.2185 29.9725 68.3771 30.7945 67.3169 31.3878C66.2566 31.9812 65.0456 32.2827 63.7129 32.2827C62.3803 32.2827 61.1888 31.9763 60.1577 31.3684C59.1266 30.7604 58.2998 29.9287 57.7064 28.8977C57.1131 27.8666 56.8164 26.6847 56.8164 25.3862C56.8164 24.0876 57.1179 22.896 57.7113 21.8503C58.3046 20.8047 59.1266 19.9681 60.1625 19.3602C61.1985 18.7522 62.3901 18.4458 63.7178 18.4458L63.7129 18.4361Z" fill="black"/>
<path d="M97.7772 16.3607C95.7053 14.4493 93.0401 13.4766 89.869 13.4766C87.6561 13.4766 85.6377 14.0018 83.8722 15.0378C82.1067 16.0737 80.7109 17.5182 79.7187 19.3275C78.7265 21.1318 78.2256 23.1697 78.2256 25.3826C78.2256 27.7123 78.7411 29.7939 79.7625 31.5691C80.7838 33.3492 82.2186 34.7499 84.0327 35.7274C85.8371 36.705 87.9187 37.1963 90.2143 37.1963C92.1646 37.1963 93.935 36.7877 95.467 35.9852C96.9941 35.1827 98.3025 34.1273 99.3481 32.8482C99.7567 32.3473 99.9609 31.8171 99.9609 31.2773C99.9609 30.6401 99.7226 30.0711 99.246 29.5799C98.7694 29.0887 98.2198 28.8406 97.607 28.8406C96.8677 28.8406 96.25 29.1811 95.7782 29.8425C94.397 31.6907 92.5391 32.6293 90.2532 32.6293C89.0617 32.6293 87.9479 32.3764 86.9411 31.8804C85.9392 31.3843 85.1221 30.6839 84.5191 29.789C83.9597 28.9671 83.6485 28.0333 83.5804 27.007H98.7694C99.6983 27.007 100.399 26.759 100.861 26.2629C101.323 25.7668 101.512 25.0422 101.42 24.1132C101.07 20.8838 99.8442 18.2769 97.7723 16.3704L97.7772 16.3607ZM85.5599 19.5171C86.7125 18.4861 88.1619 17.9656 89.8739 17.9656C91.5858 17.9656 93.113 18.4861 94.2511 19.5171C95.3259 20.4898 95.9631 21.7252 96.143 23.2037H83.6485C83.8333 21.7301 84.4753 20.4898 85.5599 19.522V19.5171Z" fill="black"/>
<path d="M112.179 19.3015C113.273 18.7909 114.48 18.5282 115.754 18.5282C117.198 18.5282 118.55 18.8541 119.766 19.4863C120.17 19.7052 120.559 19.8171 120.914 19.8171C121.503 19.8171 121.989 19.5933 122.368 19.1508C122.733 18.7179 122.923 18.1975 122.923 17.5944C122.923 16.5876 122.417 15.7803 121.425 15.1869C119.533 14.1121 117.378 13.5625 115.024 13.5625C112.991 13.5625 111.046 13.9954 109.241 14.8562C107.427 15.7171 105.939 17.0497 104.816 18.8152C103.692 20.5806 103.123 22.7741 103.123 25.3324C103.123 27.8906 103.692 30.0938 104.816 31.8739C105.939 33.654 107.432 35.0012 109.261 35.8766C111.08 36.7472 113.03 37.1898 115.068 37.1898C117.393 37.1898 119.533 36.6451 121.43 35.5653C121.892 35.2881 122.247 34.9379 122.485 34.5343C122.718 34.1257 122.84 33.6929 122.84 33.2503C122.84 32.6521 122.645 32.1122 122.266 31.655C121.658 30.9255 120.802 30.692 119.732 31.227C118.482 31.8642 117.116 32.19 115.671 32.19C114.397 32.19 113.196 31.9177 112.101 31.3778C111.012 30.8428 110.136 30.0549 109.489 29.0336C108.843 28.0171 108.517 26.7866 108.517 25.381C108.517 23.8879 108.857 22.6136 109.528 21.602C110.204 20.5855 111.094 19.8073 112.184 19.3015H112.179Z" fill="black"/>
<path d="M142.892 14.5598C141.487 13.8449 139.93 13.4801 138.267 13.4801C136.511 13.4801 134.979 13.8449 133.715 14.5647C132.693 15.1483 131.832 15.9557 131.152 16.9722V6.49601C131.152 5.65461 130.879 4.97857 130.339 4.48735C129.809 4.00099 129.172 3.75781 128.452 3.75781C127.732 3.75781 127.1 4.00099 126.565 4.48735C126.025 4.97857 125.753 5.65461 125.753 6.49601V34.2865C125.753 35.1279 126.025 35.8039 126.565 36.2952C127.095 36.7815 127.732 37.0247 128.452 37.0247C129.172 37.0247 129.804 36.7815 130.339 36.2952C130.879 35.8039 131.152 35.1279 131.152 34.2865V24.4378C131.181 22.5021 131.701 20.9652 132.703 19.866C133.695 18.7766 135.076 18.227 136.803 18.227C138.311 18.227 139.58 18.689 140.572 19.6034C141.56 20.5129 142.065 22.0497 142.065 24.18V34.2038C142.065 35.0744 142.347 35.7699 142.897 36.2757C143.442 36.7767 144.084 37.0296 144.804 37.0296C145.523 37.0296 146.165 36.7767 146.71 36.2757C147.265 35.7699 147.542 35.0744 147.542 34.2038V23.4505C147.542 21.2375 147.119 19.3699 146.287 17.8914C145.45 16.408 144.307 15.2894 142.897 14.5696L142.892 14.5598Z" fill="black"/>
<path d="M172.516 19.2788C171.466 17.4696 169.997 16.0348 168.144 15.0135C166.296 13.9921 164.195 13.4766 161.899 13.4766C159.603 13.4766 157.502 13.9921 155.649 15.0135C153.796 16.0348 152.327 17.4696 151.277 19.2788C150.226 21.0881 149.696 23.1259 149.696 25.3388C149.696 27.5518 150.226 29.6237 151.277 31.4183C152.327 33.213 153.796 34.638 155.649 35.6594C157.497 36.6807 159.599 37.1963 161.899 37.1963C164.199 37.1963 166.296 36.6807 168.144 35.6594C169.997 34.638 171.466 33.213 172.516 31.4183C173.567 29.6237 174.097 27.5809 174.097 25.3388C174.097 23.0967 173.567 21.0881 172.516 19.2788ZM165.454 31.3648C164.394 31.9728 163.198 32.2792 161.899 32.2792C160.6 32.2792 159.409 31.9728 158.363 31.3648C157.313 30.7569 156.476 29.9203 155.873 28.8698C155.265 27.8241 154.959 26.6326 154.959 25.334C154.959 24.0354 155.265 22.8487 155.873 21.7982C156.481 20.7525 157.318 19.9111 158.363 19.308C159.409 18.7 160.6 18.3936 161.899 18.3936C163.198 18.3936 164.394 18.7 165.454 19.308C166.515 19.9159 167.351 20.7525 167.944 21.7982C168.538 22.8487 168.839 24.0354 168.839 25.334C168.839 26.6326 168.538 27.8241 167.944 28.8698C167.351 29.9155 166.515 30.752 165.454 31.36V31.3648Z" fill="black"/>
<path d="M40.9611 10.2476C40.9611 4.58636 36.3699 0 30.7135 0H2.43179C1.08944 0 0 1.08944 0 2.43179V38.5682C0 39.9106 1.08944 41 2.43179 41H30.4849C36.0002 41 40.7082 36.7346 40.9514 31.2193C41.1654 26.4384 38.1013 22.3384 33.8165 20.9766C33.5636 28.1115 27.6786 33.8457 20.4805 33.8457C13.2824 33.8457 7.13488 27.8586 7.13488 20.5H13.3262C13.3262 24.4444 16.5362 27.6543 20.4805 27.6543C24.4249 27.6543 27.6349 24.4444 27.6349 20.5H30.7135C36.3747 20.5 40.9611 15.9088 40.9611 10.2524V10.2476Z" fill="#75EF75"/>
<path d="M40.9611 10.2476C40.9611 4.58636 36.3699 0 30.7135 0H2.43179C1.08944 0 0 1.08944 0 2.43179V38.5682C0 39.9106 1.08944 41 2.43179 41H30.4849C36.0002 41 40.7082 36.7346 40.9514 31.2193C41.1654 26.4384 38.1013 22.3384 33.8165 20.9766C33.5636 28.1115 27.6786 33.8457 20.4805 33.8457C13.2824 33.8457 7.13488 27.8586 7.13488 20.5H13.3262C13.3262 24.4444 16.5362 27.6543 20.4805 27.6543C24.4249 27.6543 27.6349 24.4444 27.6349 20.5H30.7135C36.3747 20.5 40.9611 15.9088 40.9611 10.2524V10.2476Z" fill="url(#paint0_radial_1326_203464)"/>
<defs>
<radialGradient id="paint0_radial_1326_203464" cx="0" cy="0" r="1" gradientUnits="userSpaceOnUse" gradientTransform="translate(33.6329 3.28526) rotate(126.387) scale(43.7475 34.9133)">
<stop offset="0.25791" stop-color="#6EF195"/>
<stop offset="1" stop-color="#00E3FD"/>
</radialGradient>
</defs>
</svg>
