<svg width="84" height="40" viewBox="0 0 84 40" fill="none" xmlns="http://www.w3.org/2000/svg">
<rect width="83.4783" height="40" rx="5" fill="#00BF6F"/>
<rect width="83.4783" height="40" rx="5" fill="url(#paint0_linear_267_165732)"/>
<rect width="83.4783" height="40" rx="5" fill="url(#paint1_linear_267_165732)"/>
<rect width="83.4783" height="40" rx="5" fill="url(#paint2_linear_267_165732)"/>
<rect width="83.4783" height="40" rx="5" fill="url(#paint3_linear_267_165732)"/>
<path d="M18.9858 29V11.5455H25.8722C27.196 11.5455 28.3239 11.7983 29.2557 12.304C30.1875 12.804 30.8977 13.5 31.3864 14.392C31.8807 15.2784 32.1278 16.3011 32.1278 17.4602C32.1278 18.6193 31.8778 19.642 31.3778 20.5284C30.8778 21.4148 30.1534 22.1051 29.2045 22.5994C28.2614 23.0937 27.1193 23.3409 25.7784 23.3409H21.3892V20.3835H25.1818C25.892 20.3835 26.4773 20.2614 26.9375 20.017C27.4034 19.767 27.75 19.4233 27.9773 18.9858C28.2102 18.5426 28.3267 18.0341 28.3267 17.4602C28.3267 16.8807 28.2102 16.375 27.9773 15.9432C27.75 15.5057 27.4034 15.1676 26.9375 14.929C26.4716 14.6847 25.8807 14.5625 25.1648 14.5625H22.6761V29H18.9858ZM34.5249 29V11.5455H41.4112C42.7294 11.5455 43.8544 11.7812 44.7862 12.2528C45.7237 12.7187 46.4368 13.3807 46.9254 14.2386C47.4197 15.0909 47.6669 16.0937 47.6669 17.2472C47.6669 18.4062 47.4169 19.4034 46.9169 20.2386C46.4169 21.0682 45.6925 21.7045 44.7436 22.1477C43.8004 22.5909 42.6584 22.8125 41.3175 22.8125H36.7067V19.8466H40.7209C41.4254 19.8466 42.0107 19.75 42.4766 19.5568C42.9425 19.3636 43.2891 19.0739 43.5163 18.6875C43.7493 18.3011 43.8658 17.821 43.8658 17.2472C43.8658 16.6676 43.7493 16.179 43.5163 15.7812C43.2891 15.3835 42.9396 15.0824 42.468 14.8778C42.0021 14.6676 41.4141 14.5625 40.7038 14.5625H38.2152V29H34.5249ZM43.951 21.0568L48.2891 29H44.2152L39.9709 21.0568H43.951ZM66.3146 20.2727C66.3146 22.1761 65.9538 23.7955 65.2322 25.1307C64.5163 26.4659 63.5391 27.4858 62.3004 28.1903C61.0675 28.8892 59.6811 29.2386 58.1413 29.2386C56.5902 29.2386 55.1982 28.8864 53.9652 28.1818C52.7322 27.4773 51.7578 26.4574 51.0419 25.1222C50.326 23.7869 49.968 22.1705 49.968 20.2727C49.968 18.3693 50.326 16.75 51.0419 15.4148C51.7578 14.0795 52.7322 13.0625 53.9652 12.3636C55.1982 11.6591 56.5902 11.3068 58.1413 11.3068C59.6811 11.3068 61.0675 11.6591 62.3004 12.3636C63.5391 13.0625 64.5163 14.0795 65.2322 15.4148C65.9538 16.75 66.3146 18.3693 66.3146 20.2727ZM62.5732 20.2727C62.5732 19.0398 62.3885 18 62.0192 17.1534C61.6555 16.3068 61.1413 15.6648 60.4766 15.2273C59.8118 14.7898 59.0334 14.571 58.1413 14.571C57.2493 14.571 56.4709 14.7898 55.8061 15.2273C55.1413 15.6648 54.6243 16.3068 54.255 17.1534C53.8913 18 53.7095 19.0398 53.7095 20.2727C53.7095 21.5057 53.8913 22.5455 54.255 23.392C54.6243 24.2386 55.1413 24.8807 55.8061 25.3182C56.4709 25.7557 57.2493 25.9744 58.1413 25.9744C59.0334 25.9744 59.8118 25.7557 60.4766 25.3182C61.1413 24.8807 61.6555 24.2386 62.0192 23.392C62.3885 22.5455 62.5732 21.5057 62.5732 20.2727Z" fill="white"/>
<defs>
<linearGradient id="paint0_linear_267_165732" x1="0" y1="47.2024" x2="83.4783" y2="47.2024" gradientUnits="userSpaceOnUse">
<stop stop-color="#FF02F0"/>
<stop offset="1" stop-color="#FFC800"/>
</linearGradient>
<linearGradient id="paint1_linear_267_165732" x1="0" y1="20" x2="83.4783" y2="20" gradientUnits="userSpaceOnUse">
<stop stop-color="#A8EB12"/>
<stop offset="0.239583" stop-color="#1ED78C"/>
<stop offset="0.5" stop-color="#008793"/>
<stop offset="0.713542" stop-color="#03629A"/>
<stop offset="1" stop-color="#002C6D"/>
</linearGradient>
<linearGradient id="paint2_linear_267_165732" x1="0" y1="20" x2="83.4783" y2="20" gradientUnits="userSpaceOnUse">
<stop stop-color="#3BF742"/>
<stop offset="1" stop-color="#076314"/>
</linearGradient>
<linearGradient id="paint3_linear_267_165732" x1="0" y1="20" x2="83.4783" y2="20" gradientUnits="userSpaceOnUse">
<stop stop-color="#73E49A"/>
<stop offset="0.989583" stop-color="#128238"/>
</linearGradient>
</defs>
</svg>
