<svg width="192" height="45" viewBox="0 0 192 45" fill="none" xmlns="http://www.w3.org/2000/svg">
<path d="M77.8123 16.5826C75.9493 15.4296 73.7607 14.8424 71.2999 14.8424C69.0579 14.8424 67.0828 15.3495 65.428 16.3424C64.1041 17.1378 63.0579 18.1841 62.3159 19.4599V7.13424C62.3159 6.21076 62.017 5.46876 61.4244 4.92962C60.8426 4.39581 60.1433 4.12891 59.3533 4.12891C58.5632 4.12891 57.8693 4.39581 57.2821 4.92962C56.6896 5.46876 56.3906 6.21076 56.3906 7.13424V37.636C56.3906 38.5595 56.6896 39.3015 57.2821 39.8406C57.8639 40.3745 58.5632 40.6414 59.3533 40.6414C60.1433 40.6414 60.8372 40.3745 61.4244 39.8406C62.017 39.3015 62.3159 38.5595 62.3159 37.636V36.5524C63.1967 37.7748 64.3283 38.773 65.6949 39.5257C67.3337 40.4225 69.1219 40.8816 71.017 40.8816C73.5098 40.8816 75.7412 40.3157 77.6469 39.1894C79.5525 38.0684 81.0419 36.499 82.0668 34.5239C83.0917 32.5595 83.6095 30.3335 83.6095 27.91C83.6095 25.4866 83.1077 23.3033 82.1202 21.3229C81.1273 19.3371 79.6807 17.741 77.8177 16.588L77.8123 16.5826ZM69.928 20.2392C71.3853 20.2392 72.7145 20.5702 73.8835 21.2214C75.0472 21.8727 75.976 22.7855 76.638 23.9332C77.3052 25.0862 77.6415 26.4047 77.6415 27.862C77.6415 29.3193 77.3052 30.6271 76.638 31.7641C75.9707 32.9011 75.0472 33.8033 73.8835 34.4545C72.7198 35.1058 71.3906 35.4367 69.928 35.4367C68.4654 35.4367 67.1575 35.1004 66.0259 34.4332C64.8942 33.7659 63.9867 32.8531 63.3355 31.7214C62.6842 30.5898 62.3586 29.2926 62.3586 27.8673C62.3586 26.4421 62.6896 25.1342 63.3408 23.9866C63.992 22.8389 64.8942 21.9207 66.0312 21.2535C67.1682 20.5862 68.476 20.2499 69.9333 20.2499L69.928 20.2392Z" fill="black" fill-opacity="0.8"/>
<path d="M107.316 17.9584C105.042 15.8606 102.117 14.793 98.6368 14.793C96.208 14.793 93.9927 15.3695 92.0549 16.5065C90.1172 17.6435 88.5852 19.2289 87.4962 21.2147C86.4072 23.1951 85.8574 25.4318 85.8574 27.8606C85.8574 30.4175 86.4233 32.7022 87.5443 34.6506C88.6653 36.6044 90.24 38.1417 92.2311 39.2147C94.2115 40.2876 96.4962 40.8268 99.0158 40.8268C101.156 40.8268 103.099 40.3784 104.781 39.4976C106.457 38.6168 107.893 37.4584 109.041 36.0545C109.489 35.5047 109.713 34.9229 109.713 34.3303C109.713 33.631 109.452 33.0065 108.929 32.4673C108.405 31.9282 107.802 31.656 107.13 31.656C106.318 31.656 105.64 32.0296 105.123 32.7556C103.607 34.7841 101.567 35.8143 99.0585 35.8143C97.7507 35.8143 96.5282 35.5367 95.4233 34.9923C94.3236 34.4478 93.4268 33.6791 92.7649 32.6969C92.151 31.7947 91.8094 30.7698 91.7346 29.6435H108.405C109.425 29.6435 110.194 29.3713 110.701 28.8268C111.208 28.2823 111.416 27.4869 111.315 26.4673C110.93 22.9229 109.585 20.0617 107.311 17.9691L107.316 17.9584ZM93.9072 21.4229C95.1724 20.2912 96.7631 19.72 98.6421 19.72C100.521 19.72 102.197 20.2912 103.446 21.4229C104.626 22.4905 105.325 23.8463 105.523 25.4691H91.8094C92.0122 23.8517 92.7169 22.4905 93.9072 21.4282V21.4229Z" fill="black" fill-opacity="0.8"/>
<path d="M123.124 21.1817C124.325 20.6212 125.649 20.333 127.048 20.333C128.633 20.333 130.117 20.6906 131.451 21.3846C131.895 21.6248 132.322 21.7476 132.711 21.7476C133.357 21.7476 133.891 21.502 134.307 21.0163C134.708 20.5412 134.916 19.97 134.916 19.3081C134.916 18.2031 134.361 17.317 133.272 16.6657C131.195 15.486 128.83 14.8828 126.247 14.8828C124.016 14.8828 121.88 15.3579 119.9 16.3027C117.909 17.2476 116.275 18.7102 115.042 20.6479C113.809 22.5857 113.185 24.9931 113.185 27.801C113.185 30.6088 113.809 33.0269 115.042 34.9807C116.275 36.9344 117.914 38.4131 119.921 39.3739C121.918 40.3294 124.058 40.8152 126.295 40.8152C128.846 40.8152 131.195 40.2173 133.277 39.0323C133.784 38.728 134.174 38.3437 134.435 37.9006C134.692 37.4522 134.825 36.9771 134.825 36.4914C134.825 35.8348 134.612 35.2422 134.195 34.7405C133.528 33.9398 132.588 33.6835 131.414 34.2707C130.042 34.97 128.542 35.3277 126.957 35.3277C125.558 35.3277 124.24 35.0287 123.039 34.4362C121.843 33.849 120.882 32.9842 120.172 31.8632C119.462 30.7476 119.104 29.397 119.104 27.8543C119.104 26.2156 119.478 24.817 120.215 23.7067C120.957 22.591 121.934 21.7369 123.129 21.1817H123.124Z" fill="black" fill-opacity="0.8"/>
<path d="M156.832 15.9848C155.289 15.2001 153.581 14.7997 151.755 14.7997C149.828 14.7997 148.147 15.2001 146.759 15.9901C145.638 16.6307 144.693 17.5168 143.946 18.6325V7.13424C143.946 6.21076 143.647 5.46876 143.054 4.92962C142.472 4.39581 141.773 4.12891 140.983 4.12891C140.193 4.12891 139.499 4.39581 138.912 4.92962C138.319 5.46876 138.021 6.21076 138.021 7.13424V37.636C138.021 38.5595 138.319 39.3015 138.912 39.8406C139.494 40.3745 140.193 40.6414 140.983 40.6414C141.773 40.6414 142.467 40.3745 143.054 39.8406C143.647 39.3015 143.946 38.5595 143.946 37.636V26.8264C143.978 24.7019 144.549 23.015 145.649 21.8086C146.738 20.6129 148.254 20.0097 150.149 20.0097C151.803 20.0097 153.197 20.5168 154.286 21.5204C155.369 22.5186 155.924 24.2054 155.924 26.5435V37.5453C155.924 38.5008 156.234 39.2641 156.837 39.8193C157.435 40.3691 158.14 40.6467 158.93 40.6467C159.72 40.6467 160.424 40.3691 161.022 39.8193C161.631 39.2641 161.935 38.5008 161.935 37.5453V25.7428C161.935 23.314 161.471 21.2641 160.558 19.6414C159.64 18.0132 158.385 16.7855 156.837 15.9955L156.832 15.9848Z" fill="black" fill-opacity="0.8"/>
<path d="M189.346 21.1613C188.193 19.1755 186.581 17.6008 184.547 16.4798C182.519 15.3588 180.213 14.793 177.693 14.793C175.173 14.793 172.867 15.3588 170.834 16.4798C168.8 17.6008 167.188 19.1755 166.035 21.1613C164.882 23.1471 164.3 25.3837 164.3 27.8125C164.3 30.2414 164.882 32.5154 166.035 34.4851C167.188 36.4549 168.8 38.0189 170.834 39.1399C172.862 40.2609 175.168 40.8268 177.693 40.8268C180.218 40.8268 182.519 40.2609 184.547 39.1399C186.581 38.0189 188.193 36.4549 189.346 34.4851C190.499 32.5154 191.081 30.2734 191.081 27.8125C191.081 25.3517 190.499 23.1471 189.346 21.1613ZM181.595 34.4264C180.431 35.0937 179.118 35.43 177.693 35.43C176.268 35.43 174.96 35.0937 173.812 34.4264C172.659 33.7592 171.741 32.841 171.079 31.688C170.412 30.5403 170.076 29.2325 170.076 27.8072C170.076 26.3819 170.412 25.0794 171.079 23.9264C171.746 22.7787 172.665 21.8552 173.812 21.1933C174.96 20.5261 176.268 20.1898 177.693 20.1898C179.118 20.1898 180.431 20.5261 181.595 21.1933C182.759 21.8606 183.677 22.7787 184.328 23.9264C184.98 25.0794 185.31 26.3819 185.31 27.8072C185.31 29.2325 184.98 30.5403 184.328 31.688C183.677 32.8357 182.759 33.7538 181.595 34.4211V34.4264Z" fill="black" fill-opacity="0.8"/>
<path d="M44.9573 11.2473C44.9573 5.03381 39.9182 0 33.71 0H2.66904C1.19573 0 0 1.19573 0 2.66904V42.331C0 43.8043 1.19573 45 2.66904 45H33.4591C39.5125 45 44.6797 40.3185 44.9466 34.2651C45.1815 29.0178 41.8185 24.5178 37.1157 23.0231C36.8381 30.8541 30.379 37.1477 22.4786 37.1477C14.5783 37.1477 7.83096 30.5765 7.83096 22.5H14.6263C14.6263 26.8292 18.1495 30.3523 22.4786 30.3523C26.8078 30.3523 30.331 26.8292 30.331 22.5H33.71C39.9235 22.5 44.9573 17.4609 44.9573 11.2527V11.2473Z" fill="black" fill-opacity="0.8"/>
</svg>
