<svg width="17" height="17" viewBox="0 0 17 17" fill="none" xmlns="http://www.w3.org/2000/svg">
<path d="M6.85581 9.88127L6.27808 10.5321C5.833 10.9763 5.26622 11.2787 4.64935 11.401C4.03247 11.5233 3.39319 11.46 2.81229 11.2191C2.23139 10.9782 1.73493 10.5705 1.38566 10.0475C1.03639 9.52453 0.849976 8.90976 0.849976 8.28088C0.849976 7.652 1.03639 7.03724 1.38566 6.51427C1.73493 5.9913 2.23139 5.5836 2.81229 5.34268C3.39319 5.10177 4.03247 5.03845 4.64935 5.16074C5.26622 5.28302 5.833 5.58542 6.27808 6.02971L10.2757 10.5321C10.7208 10.9763 11.2876 11.2787 11.9045 11.401C12.5213 11.5233 13.1606 11.46 13.7415 11.2191C14.3224 10.9782 14.8189 10.5705 15.1681 10.0475C15.5174 9.52453 15.7038 8.90976 15.7038 8.28088C15.7038 7.652 15.5174 7.03724 15.1681 6.51427C14.8189 5.9913 14.3224 5.5836 13.7415 5.34268C13.1606 5.10177 12.5213 5.03845 11.9045 5.16074C11.2876 5.28302 10.7208 5.58542 10.2757 6.02971L9.698 6.68049" stroke="#1C1C1C" stroke-width="1.2" stroke-linecap="round" stroke-linejoin="round"/>
</svg>
