<svg width="16" height="16" viewBox="0 0 16 16" fill="none" xmlns="http://www.w3.org/2000/svg">
<path d="M14 3.5H10C9.46957 3.5 8.96085 3.71069 8.58578 4.08582C8.21072 4.46082 8 4.9696 8 5.5C8 4.9696 7.78928 4.46082 7.41422 4.08582C7.03915 3.71069 6.53043 3.5 6 3.5H2C1.8674 3.5 1.7402 3.55273 1.64645 3.64648C1.55267 3.74023 1.5 3.86743 1.5 4V12C1.5 12.1326 1.55267 12.2598 1.64645 12.3535C1.7402 12.4473 1.8674 12.5 2 12.5H6C6.53043 12.5 7.03915 12.7107 7.41422 13.0858C7.78928 13.4608 8 13.9696 8 14.5C8 13.9696 8.21072 13.4608 8.58578 13.0858C8.96085 12.7107 9.46957 12.5 10 12.5H14C14.1326 12.5 14.2598 12.4473 14.3535 12.3535C14.4473 12.2598 14.5 12.1326 14.5 12V4C14.5 3.86743 14.4473 3.74023 14.3535 3.64648C14.2598 3.55273 14.1326 3.5 14 3.5Z" fill="black" fill-opacity="0.1"/>
<path d="M8.23223 12.7322C7.5 13.4645 7.5 14.5 7.5 14.5C7.5 14.7761 7.72386 15 8 15C8.27614 15 8.5 14.7761 8.5 14.5C8.5 13.8787 8.93934 13.4393 8.93934 13.4393C9.37868 13 10 13 10 13H14C14.4142 13 14.7071 12.7071 14.7071 12.7071C15 12.4142 15 12 15 12V4C15 3.58579 14.7071 3.29289 14.7071 3.29289C14.4142 3 14 3 14 3H10C8.96447 3 8.23223 3.73223 8.23223 3.73223C7.5 4.46447 7.5 5.5 7.5 5.5C7.5 5.77614 7.72386 6 8 6C8.13261 6 8.25979 5.94732 8.35355 5.85355C8.44732 5.75979 8.5 5.63261 8.5 5.5C8.5 4.87868 8.93934 4.43934 8.93934 4.43934C9.37868 4 10 4 10 4H14V12H10C8.96447 12 8.23223 12.7322 8.23223 12.7322Z" fill="#1C1C1C"/>
<path fill-rule="evenodd" clip-rule="evenodd" d="M1 4C1 4 1 3.58579 1.29289 3.29289C1.29289 3.29289 1.58579 3 2 3H6C6 3 7.03553 3 7.76777 3.73223C7.76777 3.73223 8.5 4.46447 8.5 5.5V14.5C8.5 14.7761 8.27614 15 8 15C7.72386 15 7.5 14.7761 7.5 14.5C7.5 14.5 7.5 13.8787 7.06066 13.4393C7.06066 13.4393 6.62132 13 6 13H2C2 13 1.58579 13 1.29289 12.7071C1.29289 12.7071 1 12.4142 1 12V4ZM7.5 5.5V12.4967C7.5 12.4967 6.85287 12 6 12H2V4H6C6 4 6.62132 4 7.06066 4.43934C7.06066 4.43934 7.5 4.87868 7.5 5.5Z" fill="#1C1C1C"/>
</svg>
