<svg width="21" height="20" viewBox="0 0 21 20" fill="none" xmlns="http://www.w3.org/2000/svg">
<path d="M12.4694 15.0283L16.4069 17.5283C16.9147 17.8487 17.5397 17.3721 17.3912 16.7862L16.2506 12.3018C16.2198 12.1775 16.2247 12.047 16.2648 11.9254C16.3048 11.8037 16.3785 11.6959 16.4772 11.6143L20.0084 8.66896C20.4694 8.28615 20.235 7.51271 19.6334 7.47365L15.024 7.17678C14.8983 7.16946 14.7774 7.12566 14.6761 7.05074C14.5748 6.97582 14.4975 6.87302 14.4537 6.7549L12.735 2.42678C12.6895 2.3017 12.6066 2.19365 12.4976 2.1173C12.3886 2.04095 12.2587 2 12.1256 2C11.9925 2 11.8626 2.04095 11.7536 2.1173C11.6446 2.19365 11.5617 2.3017 11.5162 2.42678L9.79748 6.7549C9.75368 6.87302 9.67641 6.97582 9.57513 7.05074C9.47385 7.12566 9.35294 7.16946 9.22717 7.17678L4.61779 7.47365C4.01623 7.51271 3.78186 8.28615 4.24279 8.66896L7.77404 11.6143C7.87274 11.6959 7.94638 11.8037 7.98646 11.9254C8.02655 12.047 8.03145 12.1775 8.00061 12.3018L6.94592 16.458C6.76623 17.1612 7.51623 17.7315 8.11779 17.3487L11.7819 15.0283C11.8846 14.963 12.0038 14.9283 12.1256 14.9283C12.2474 14.9283 12.3666 14.963 12.4694 15.0283V15.0283Z" stroke="#1C1C1C" stroke-width="1.2" stroke-linecap="round" stroke-linejoin="round"/>
</svg>
