<svg width="21" height="21" viewBox="0 0 21 21" fill="none" xmlns="http://www.w3.org/2000/svg">
<path fill-rule="evenodd" clip-rule="evenodd" d="M13.625 3V2.375C13.625 2.02982 13.9048 1.75 14.25 1.75C14.5952 1.75 14.875 2.02982 14.875 2.375V3H16.75C16.75 3 17.2678 3 17.6339 3.36612C17.6339 3.36612 18 3.73223 18 4.25V16.75C18 16.75 18 17.2678 17.6339 17.6339C17.6339 17.6339 17.2678 18 16.75 18H4.25C4.25 18 3.73223 18 3.36612 17.6339C3.36612 17.6339 3 17.2678 3 16.75V4.25C3 4.25 3 3.73223 3.36612 3.36612C3.36612 3.36612 3.73223 3 4.25 3H6.125V2.375C6.125 2.02982 6.40482 1.75 6.75 1.75C7.09518 1.75 7.375 2.02982 7.375 2.375V3H13.625ZM4.25 8V16.75H16.75V8H4.25ZM16.75 6.75H4.25V4.25H6.125V4.875C6.125 5.22018 6.40482 5.5 6.75 5.5C7.09518 5.5 7.375 5.22018 7.375 4.875V4.25H13.625V4.875C13.625 5.22018 13.9048 5.5 14.25 5.5C14.5952 5.5 14.875 5.22018 14.875 4.875V4.25H16.75V6.75Z" fill="black" />
</svg>
