<svg width="48" height="48" viewBox="0 0 48 48" fill="none" xmlns="http://www.w3.org/2000/svg">
<rect width="48" height="48" rx="24" fill="black" fill-opacity="0.4"/>
<path fill-rule="evenodd" clip-rule="evenodd" d="M36.1213 34.1213C36.1213 34.1213 35.2426 35 34 35H14C14 35 12.7574 35 11.8787 34.1213C11.8787 34.1213 11 33.2426 11 32V18C11 18 11 16.7574 11.8787 15.8787C11.8787 15.8787 12.7574 15 14 15H17.4648L19.1679 12.4453C19.3534 12.1671 19.6656 12 20 12H28C28.3344 12 28.6466 12.1671 28.8321 12.4453L30.5352 15H34C34 15 35.2426 15 36.1213 15.8787C36.1213 15.8787 37 16.7574 37 18V32C37 32 37 33.2426 36.1213 34.1213ZM34.7071 32.7071C34.7071 32.7071 35 32.4142 35 32V18C35 18 35 17.5858 34.7071 17.2929C34.7071 17.2929 34.4142 17 34 17H30C29.6656 17 29.3534 16.8329 29.1679 16.5547L27.4648 14H20.5352L18.8321 16.5547C18.6466 16.8329 18.3344 17 18 17H14C14 17 13.5858 17 13.2929 17.2929C13.2929 17.2929 13 17.5858 13 18V32C13 32 13 32.4142 13.2929 32.7071C13.2929 32.7071 13.5858 33 14 33H34C34 33 34.4142 33 34.7071 32.7071Z" fill="white"/>
<path fill-rule="evenodd" clip-rule="evenodd" d="M24 19C24 19 26.2782 19 27.8891 20.6109C27.8891 20.6109 29.5 22.2218 29.5 24.5C29.5 24.5 29.5 26.7782 27.8891 28.3891C27.8891 28.3891 26.2782 30 24 30C24 30 21.7218 30 20.1109 28.3891C20.1109 28.3891 18.5 26.7782 18.5 24.5C18.5 24.5 18.5 22.2218 20.1109 20.6109C20.1109 20.6109 21.7218 19 24 19ZM24 21C24 21 22.5503 21 21.5251 22.0251C21.5251 22.0251 20.5 23.0503 20.5 24.5C20.5 24.5 20.5 25.9497 21.5251 26.9749C21.5251 26.9749 22.5503 28 24 28C24 28 25.4497 28 26.4749 26.9749C26.4749 26.9749 27.5 25.9497 27.5 24.5C27.5 24.5 27.5 23.0503 26.4749 22.0251C26.4749 22.0251 25.4497 21 24 21Z" fill="white"/>
</svg>
