<svg width="16" height="16" viewBox="0 0 16 16" fill="none" xmlns="http://www.w3.org/2000/svg">
<path d="M10.2438 5.00586C10.4153 5.48514 10.502 5.9906 10.5001 6.4996C10.5001 7.69308 10.026 8.83768 9.18207 9.68159C8.33817 10.5255 7.19357 10.9996 6.00009 10.9996H5.75635C6.06659 11.8771 6.64133 12.6369 7.40137 13.1742C8.16141 13.7114 9.06934 13.9998 10.0001 13.9996H14.1251C14.2245 13.9996 14.3199 13.9601 14.3903 13.8898C14.4606 13.8194 14.5001 13.7241 14.5001 13.6246V9.4996C14.5017 8.34782 14.061 7.23939 13.269 6.40315C12.4769 5.56692 11.394 5.06673 10.2438 5.00586Z" fill="black" fill-opacity="0.1"/>
<path fill-rule="evenodd" clip-rule="evenodd" d="M7.91342 1.8806C7.91342 1.8806 6.99456 1.5 6 1.5H5.99964C5.99964 1.5 5.00527 1.50007 4.08658 1.8806C4.08658 1.8806 3.16773 2.2612 2.46447 2.96447C2.46447 2.96447 1.7612 3.66773 1.3806 4.58658C1.3806 4.58658 1 5.50544 1 6.5V10.625C1 10.625 1 10.9874 1.25628 11.2437C1.25628 11.2437 1.51256 11.5 1.875 11.5H6C6 11.5 6.99456 11.5 7.91342 11.1194C7.91342 11.1194 8.83227 10.7388 9.53553 10.0355C9.53553 10.0355 10.2388 9.33227 10.6194 8.41342C10.6194 8.41342 11 7.49456 11 6.5C11 6.5 11 5.50544 10.6194 4.58658C10.6194 4.58658 10.2388 3.66773 9.53553 2.96447C9.53553 2.96447 8.83227 2.2612 7.91342 1.8806ZM10 6.5C10 6.5 10 5.70435 9.69552 4.96927C9.69552 4.96927 9.39104 4.23418 8.82843 3.67157C8.82843 3.67157 8.26582 3.10896 7.53073 2.80448C7.53073 2.80448 6.7958 2.50006 6.00033 2.5L6 2.5C6 2.5 5.20435 2.5 4.46927 2.80448C4.46927 2.80448 3.73418 3.10896 3.17157 3.67157C3.17157 3.67157 2.60896 4.23418 2.30448 4.96927C2.30448 4.96927 2 5.70435 2 6.5L2 10.5H6C6 10.5 6.79565 10.5 7.53073 10.1955C7.53073 10.1955 8.26582 9.89104 8.82843 9.32843C8.82843 9.32843 9.39104 8.76582 9.69552 8.03073C9.69552 8.03073 10 7.29565 10 6.5Z" fill="#1C1C1C"/>
<path d="M10.2703 4.50656C10.2615 4.50609 10.2527 4.50586 10.2438 4.50586C10.2222 4.50586 10.2005 4.50727 10.179 4.51009C9.93996 4.54136 9.75729 4.73872 9.74455 4.97943C9.74408 4.98823 9.74385 4.99705 9.74385 5.00586C9.74385 5.01313 9.74401 5.02041 9.74432 5.02767C9.74938 5.14352 9.79455 5.25402 9.8721 5.34023C9.96078 5.43883 10.085 5.49815 10.2174 5.50516C11.8096 5.58942 12.9059 6.74698 12.9059 6.74698C14.0023 7.90455 14.0001 9.49891 14.0001 9.49891V13.4996H10.0001C8.72835 13.4999 7.68999 12.7659 7.68999 12.7659C6.65178 12.0319 6.22788 10.8333 6.22788 10.8333L6.22775 10.8329C6.15712 10.6332 5.96824 10.4996 5.75635 10.4996L5.75022 10.4996C5.6955 10.5003 5.64127 10.51 5.58968 10.5282C5.46466 10.5724 5.36231 10.6645 5.30516 10.7841C5.27303 10.8514 5.25635 10.925 5.25635 10.9996L5.25647 11.0105C5.25762 11.0636 5.26723 11.1162 5.28494 11.1663C5.81478 12.6649 7.11274 13.5824 7.11274 13.5824C8.4107 14.5 10.0001 14.4996 10.0001 14.4996H14.1251C14.4875 14.4996 14.7438 14.2433 14.7438 14.2433C15.0001 13.987 15.0001 13.6246 15.0001 13.6246V9.50031C15.0014 8.54036 14.6468 7.64832 14.6468 7.64832C14.2921 6.75628 13.632 6.05932 13.632 6.05932C12.9718 5.36236 12.1004 4.95983 12.1004 4.95983C11.229 4.55737 10.2706 4.50658 10.2706 4.50658L10.2703 4.50656Z" fill="#1C1C1C"/>
</svg>
