<svg width="20" height="20" viewBox="0 0 20 20" fill="none" xmlns="http://www.w3.org/2000/svg">
<path d="M6.25 17.8125C6.76777 17.8125 7.1875 17.3928 7.1875 16.875C7.1875 16.3572 6.76777 15.9375 6.25 15.9375C5.73223 15.9375 5.3125 16.3572 5.3125 16.875C5.3125 17.3928 5.73223 17.8125 6.25 17.8125Z" fill="#1C1C1C"/>
<path d="M14.375 17.8125C14.8928 17.8125 15.3125 17.3928 15.3125 16.875C15.3125 16.3572 14.8928 15.9375 14.375 15.9375C13.8572 15.9375 13.4375 16.3572 13.4375 16.875C13.4375 17.3928 13.8572 17.8125 14.375 17.8125Z" fill="#1C1C1C"/>
<path d="M3.30469 5.625H17.3203L15.2578 12.8437C15.1842 13.1057 15.0266 13.3363 14.8093 13.5C14.5919 13.6638 14.3268 13.7516 14.0547 13.75H6.57031C6.29819 13.7516 6.03308 13.6638 5.81572 13.5C5.59836 13.3363 5.44078 13.1057 5.36719 12.8437L2.53906 2.95313C2.50169 2.82246 2.42275 2.70754 2.3142 2.62578C2.20565 2.54401 2.0734 2.49986 1.9375 2.5H0.625" stroke="#1C1C1C" stroke-width="1.2" stroke-linecap="round" stroke-linejoin="round"/>
</svg>
