<svg width="32" height="32" viewBox="0 0 32 32" fill="none" xmlns="http://www.w3.org/2000/svg">
<path d="M11.1909 15.777C11.0048 15.5992 10.7574 15.5 10.5 15.5C10.4998 15.5 10.4773 15.5003 10.4773 15.5003C10.2122 15.5063 9.96027 15.6174 9.77704 15.8091C9.59923 15.9952 9.5 16.2426 9.5 16.5L9.50026 16.5227C9.50627 16.7878 9.61737 17.0397 9.80911 17.223L13.4716 20.723C13.8579 21.0921 14.4662 21.0924 14.8528 20.7236L22.19 13.7238C22.3819 13.5407 22.4935 13.2887 22.4997 13.0235C22.5001 13.0075 22.5001 12.9915 22.4997 12.9755C22.4936 12.727 22.3952 12.4896 22.2236 12.3097C22.0348 12.1119 21.7734 12 21.5 12L21.4718 12.0004C21.2245 12.0074 20.9887 12.1057 20.8097 12.2764L14.1631 18.6174L11.1909 15.777Z" fill="black" fill-opacity="0.8"/>
<path fill-rule="evenodd" clip-rule="evenodd" d="M16 3C16 3 18.6442 3 21.0605 4.02201C21.0605 4.02201 23.3936 5.00884 25.1924 6.80761C25.1924 6.80761 26.9912 8.60638 27.978 10.9395C27.978 10.9395 29 13.3558 29 16C29 16 29 18.6442 27.978 21.0605C27.978 21.0605 26.9912 23.3936 25.1924 25.1924C25.1924 25.1924 23.3936 26.9912 21.0605 27.978C21.0605 27.978 18.6442 29 16 29C16 29 13.3558 29 10.9395 27.978C10.9395 27.978 8.60638 26.9912 6.80761 25.1924C6.80761 25.1924 5.00884 23.3936 4.02202 21.0605C4.02202 21.0605 3 18.6442 3 16C3 16 3 13.3558 4.02202 10.9395C4.02202 10.9395 5.00885 8.60638 6.80761 6.80761C6.80761 6.80761 8.60638 5.00884 10.9395 4.02201C10.9395 4.02201 13.3558 3 16 3ZM16 5C16 5 13.7614 5 11.7186 5.86402C11.7186 5.86402 9.74476 6.69889 8.22183 8.22182C8.22183 8.22182 6.6989 9.74476 5.86402 11.7186C5.86402 11.7186 5 13.7614 5 16C5 16 5 18.2386 5.86402 20.2814C5.86402 20.2814 6.69889 22.2552 8.22183 23.7782C8.22183 23.7782 9.74476 25.3011 11.7186 26.136C11.7186 26.136 13.7614 27 16 27C16 27 18.2386 27 20.2814 26.136C20.2814 26.136 22.2552 25.3011 23.7782 23.7782C23.7782 23.7782 25.3011 22.2552 26.136 20.2814C26.136 20.2814 27 18.2386 27 16C27 16 27 13.7614 26.136 11.7186C26.136 11.7186 25.3011 9.74476 23.7782 8.22183C23.7782 8.22183 22.2552 6.69889 20.2814 5.86402C20.2814 5.86402 18.2386 5 16 5Z" fill="black" fill-opacity="0.8"/>
</svg>
