<svg width="60" height="60" viewBox="0 0 60 60" fill="none" xmlns="http://www.w3.org/2000/svg">
<rect width="60" height="60" rx="30" fill="#FFE999"/>
<path fill-rule="evenodd" clip-rule="evenodd" d="M30 17C30 17 32.6442 17 35.0605 18.022C35.0605 18.022 37.3936 19.0088 39.1924 20.8076C39.1924 20.8076 40.9912 22.6064 41.978 24.9395C41.978 24.9395 43 27.3558 43 30C43 30 43 32.6442 41.978 35.0605C41.978 35.0605 40.9912 37.3936 39.1924 39.1924C39.1924 39.1924 37.3936 40.9912 35.0605 41.978C35.0605 41.978 32.6442 43 30 43C30 43 27.3558 43 24.9395 41.978C24.9395 41.978 22.6064 40.9912 20.8076 39.1924C20.8076 39.1924 19.0088 37.3936 18.022 35.0605C18.022 35.0605 17 32.6442 17 30C17 30 17 27.3558 18.022 24.9395C18.022 24.9395 19.0088 22.6064 20.8076 20.8076C20.8076 20.8076 22.6064 19.0088 24.9395 18.022C24.9395 18.022 27.3558 17 30 17ZM30 19C30 19 27.7614 19 25.7186 19.864C25.7186 19.864 23.7448 20.6989 22.2218 22.2218C22.2218 22.2218 20.6989 23.7448 19.864 25.7186C19.864 25.7186 19 27.7614 19 30C19 30 19 32.2386 19.864 34.2814C19.864 34.2814 20.6989 36.2552 22.2218 37.7782C22.2218 37.7782 23.7448 39.3011 25.7186 40.136C25.7186 40.136 27.7614 41 30 41C30 41 32.2386 41 34.2814 40.136C34.2814 40.136 36.2552 39.3011 37.7782 37.7782C37.7782 37.7782 39.3011 36.2552 40.136 34.2814C40.136 34.2814 41 32.2386 41 30C41 30 41 27.7614 40.136 25.7186C40.136 25.7186 39.3011 23.7448 37.7782 22.2218C37.7782 22.2218 36.2552 20.6989 34.2814 19.864C34.2814 19.864 32.2386 19 30 19Z" fill="#1C1C1C"/>
<path d="M30 31H37C37.5523 31 38 30.5523 38 30C38 29.4477 37.5523 29 37 29H31V23C31 22.4477 30.5523 22 30 22C29.4477 22 29 22.4477 29 23V30C29 30.5523 29.4477 31 30 31Z" fill="#1C1C1C"/>
</svg>
