<?xml version="1.0" standalone="no"?>
<!DOCTYPE svg PUBLIC "-//W3C//DTD SVG 20010904//EN"
 "http://www.w3.org/TR/2001/REC-SVG-20010904/DTD/svg10.dtd">
<svg version="1.0" xmlns="http://www.w3.org/2000/svg"
 width="506.000000pt" height="360.000000pt" viewBox="0 0 506.000000 360.000000"
 preserveAspectRatio="xMidYMid meet">

<g transform="translate(0.000000,360.000000) scale(0.100000,-0.100000)"
fill="#000000" stroke="none">
<path d="M1311 3010 c-28 -34 -51 -65 -51 -69 0 -6 435 -441 935 -934 l210
-207 -210 -207 c-500 -493 -935 -928 -935 -934 0 -4 23 -35 52 -69 l51 -62
151 149 c83 81 302 297 486 480 364 360 518 508 530 508 11 0 124 -109 684
-662 366 -362 482 -471 492 -462 7 5 32 35 56 66 l43 56 -575 569 -575 568
575 568 575 569 -43 56 c-24 31 -49 61 -57 67 -10 8 -119 -95 -486 -457 -261
-258 -523 -515 -582 -573 l-107 -104 -78 74 c-42 41 -234 230 -427 420 -192
190 -420 414 -506 498 l-156 153 -52 -61z"/>
</g>
</svg>
