<svg width="8" height="8" viewBox="0 0 8 8" fill="none" xmlns="http://www.w3.org/2000/svg">
<path d="M1.17191 0.462853C0.976651 0.267591 0.660068 0.267591 0.464806 0.462853C0.269544 0.658115 0.269544 0.974698 0.464806 1.16996L3.29325 3.99841L0.464844 6.82681C0.269582 7.02208 0.269581 7.33866 0.464844 7.53392C0.660106 7.72918 0.976688 7.72918 1.17195 7.53392L4.00036 4.70551L6.82877 7.53392C7.02403 7.72918 7.34061 7.72918 7.53587 7.53392C7.73114 7.33866 7.73114 7.02208 7.53587 6.82681L4.70747 3.99841L7.53591 1.16996C7.73117 0.974698 7.73117 0.658116 7.53591 0.462854C7.34065 0.267591 7.02407 0.267591 6.8288 0.462854L4.00036 3.2913L1.17191 0.462853Z" fill="black" fill-opacity="0.2"/>
</svg>
