<svg width="60" height="60" viewBox="0 0 60 60" fill="none" xmlns="http://www.w3.org/2000/svg">
<rect width="60" height="60" rx="30" fill="#FFE999"/>
<path d="M18 24H42V21C42 20.7349 41.8946 20.4805 41.7071 20.293C41.5196 20.1055 41.2652 20 41 20H19C18.7348 20 18.4804 20.1055 18.2929 20.293C18.1054 20.4805 18 20.7349 18 21V24Z" fill="black" fill-opacity="0.8"/>
<path fill-rule="evenodd" clip-rule="evenodd" d="M17 21C17 21 17 20.1716 17.5858 19.5858C17.5858 19.5858 18.1716 19 19 19H41C41 19 41.8284 19 42.4142 19.5858C42.4142 19.5858 43 20.1716 43 21V39C43 39 43 39.8284 42.4142 40.4142C42.4142 40.4142 41.8284 41 41 41H19C19 41 18.1716 41 17.5858 40.4142C17.5858 40.4142 17 39.8284 17 39V21ZM19 21V39H41V21H19Z" fill="#1C1C1C"/>
<path d="M18 25H42C42.5523 25 43 24.5523 43 24C43 23.4477 42.5523 23 42 23H18C17.4477 23 17 23.4477 17 24C17 24.5523 17.4477 25 18 25Z" fill="#1C1C1C"/>
<path d="M27.1716 30.8284C26 29.6569 26 28 26 28C26 27.4477 25.5523 27 25 27C24.4477 27 24 27.4477 24 28C24 30.4853 25.7574 32.2426 25.7574 32.2426C27.5147 34 30 34 30 34C32.4853 34 34.2426 32.2426 34.2426 32.2426C36 30.4853 36 28 36 28C36 27.4477 35.5523 27 35 27C34.4477 27 34 27.4477 34 28C34 29.6569 32.8284 30.8284 32.8284 30.8284C31.6569 32 30 32 30 32C28.3431 32 27.1716 30.8284 27.1716 30.8284Z" fill="#1C1C1C"/>
</svg>
