<svg width="186" height="200" viewBox="0 0 186 200" fill="none" xmlns="http://www.w3.org/2000/svg">
<path opacity="0.52" d="M29.7225 35.4909C29.7225 35.4909 36.3335 35.4909 37.7796 34.8711V36.937C37.7796 36.937 27.7826 38.0506 28.8961 36.937C29.1027 36.7304 29.7225 35.4909 29.7225 35.4909Z" fill="#454545"/>
<path opacity="0.58" d="M30.5488 35.9046L34.6373 31.6426L36.1268 32.3925L36.1847 35.1009L35.0939 36.1112L30.5488 35.9046Z" fill="#FFA272"/>
<g opacity="0.21">
<path d="M180.518 119.324C181.841 107.794 179.322 96.1494 173.352 86.1969C172.05 84.04 170.534 81.9225 168.393 80.5837C166.412 79.3442 164.055 78.8732 161.766 78.4269C156.967 77.491 152.033 76.5531 147.222 77.4187C144.069 77.9869 141.109 79.307 138.233 80.7242C131.269 84.1405 124.609 88.1429 118.323 92.688L116.245 93.5826C117.522 98.3569 120.79 102.297 123.383 106.501C127.331 112.908 129.806 120.112 130.63 127.592C130.952 130.542 130.899 133.856 128.884 136.035C126.069 139.087 121.086 138.333 117.272 139.975L129.149 142.146C130.182 142.334 131.285 142.56 131.707 143.785C131.816 144.124 131.856 144.481 131.824 144.836C131.793 145.191 131.691 145.536 131.525 145.851C130.845 147.191 129.484 147.888 128.182 148.536C125.457 149.879 122.695 151.222 119.9 152.499C122.668 153.206 125.383 154.107 128.025 155.195C134.13 157.651 140.007 160.723 146.325 162.632C146.738 162.756 147.151 162.874 147.565 162.985C148.246 163.167 149.953 164.481 149.742 163.812C149.492 163.016 147.337 159.86 148.036 159.459C150.102 158.261 146.567 140.347 146.633 129.805C146.577 129.757 146.533 129.696 146.504 129.629C146.476 129.561 146.463 129.487 146.468 129.414C146.705 120.557 143.464 110.68 147.804 102.35C148.955 100.144 151.089 97.0946 153.849 96.8757C155.899 96.7145 157.429 98.3528 158.446 99.9332C161.144 104.135 162.078 109.356 163.084 114.163C163.635 116.795 165.53 123.803 165.356 129.073C165.819 129.083 166.284 129.098 166.757 129.114C170.8 129.257 178.465 128.001 181.134 124.962C182.764 123.113 180.233 121.743 180.518 119.324Z" fill="#FFA272"/>
</g>
<g opacity="0.21">
<path d="M146.813 191.708C139.704 188.848 132.692 185.681 125.689 182.572C118.144 179.223 110.657 175.664 103.625 171.325C100.371 169.313 97.5632 166.34 93.8714 165.107C92.1298 164.524 90.5142 164.912 88.7995 165.361C87.4122 165.719 86.003 165.986 84.5809 166.16C81.672 166.53 78.693 166.66 75.778 166.315C74.6956 166.196 73.6246 165.988 72.5758 165.695C72.3845 170.709 72.5336 175.73 73.022 180.723C73.2286 182.841 73.5116 185 74.4516 186.908C75.9081 189.867 78.7901 191.889 81.7981 193.228C85.9547 195.075 90.4956 195.844 94.987 196.56C108.804 198.769 122.784 200.651 136.75 199.783C141.47 199.492 146.222 198.872 150.649 197.209C152.403 196.55 154.128 195.707 155.475 194.406C152.5 193.827 149.561 192.811 146.813 191.708Z" fill="#FFA272"/>
</g>
<path d="M74.8087 95.8815L72.8477 95.9609L73.467 111.249L75.428 111.169L74.8087 95.8815Z" fill="#454545"/>
<path d="M134.385 48.9426C134.672 48.7608 134.961 48.5935 135.251 48.4323C135.758 48.1007 136.3 47.8237 136.866 47.606L136.963 47.5605C137.432 47.3415 137.849 47.0916 137.79 46.4904C137.769 46.2994 137.698 46.1174 137.584 45.9628C137.47 45.8082 137.317 45.6866 137.141 45.6103C136.573 45.383 135.792 45.9098 135.282 46.1578C134.595 46.5006 133.944 46.9117 133.34 47.3849C132.501 48.033 131.746 48.7824 131.092 49.6161C131.437 50.9011 133.815 49.3 134.385 48.9426Z" fill="#454545"/>
<path d="M106.575 37.132C106.391 37.1146 106.206 37.1422 106.036 37.2124C105.866 37.2826 105.715 37.3933 105.597 37.5349C105.425 37.7581 105.286 38.0052 105.184 38.2683C104.804 39.1484 104.423 40.0285 104.04 40.9085C103.676 41.7349 103.226 42.5613 102.893 43.3877C102.728 43.8008 102.687 44.4041 103.069 44.7202C104.556 45.9287 105.56 42.332 105.909 41.5324L106.942 39.1422C107.039 38.9232 107.479 38.2621 107.434 38.0142C107.36 37.5679 107.087 37.1837 106.575 37.132Z" fill="#454545"/>
<path d="M111.658 52.2746C112.007 51.7746 112.517 50.1239 111.323 50.3326C111.141 50.3736 110.966 50.4433 110.806 50.5392C108.46 51.7953 106.195 52.8881 103.518 53.2249C102.3 53.401 101.063 53.401 99.8446 53.2249C99.8446 53.2249 99.7062 53.9066 99.6979 53.9748C99.6504 54.324 99.6194 54.6111 99.9582 54.8508C100.263 55.0257 100.611 55.1122 100.962 55.1008C104.734 55.3228 108.479 54.3357 111.651 52.2828L111.658 52.2746Z" fill="#454545"/>
<path d="M116.36 39.4171C116.63 38.1039 116.074 36.8802 115.118 36.6839C114.163 36.4875 113.169 37.393 112.9 38.7062C112.63 40.0194 113.186 41.2431 114.141 41.4395C115.097 41.6358 116.09 40.7304 116.36 39.4171Z" fill="#454545"/>
<path d="M103.344 37.7628C103.613 36.4496 103.057 35.2259 102.102 35.0296C101.146 34.8332 100.153 35.7387 99.8831 37.0519C99.6133 38.3651 100.169 39.5888 101.125 39.7852C102.08 39.9815 103.074 39.0761 103.344 37.7628Z" fill="#454545"/>
<path d="M105.39 154.771L103.103 149.84L104.883 149.014L105.266 149.838L106.511 149.171L109.342 154.468L105.39 154.771Z" fill="#454545"/>
<path d="M69.2339 164.472L67.2725 164.541L68.099 188.093L70.0604 188.024L69.2339 164.472Z" fill="#454545"/>
<path d="M134.27 153.289C133.361 152.396 131.738 152.367 129.182 153.202C129.188 152.695 129.006 152.205 128.67 151.826C127.771 150.811 125.996 150.714 123.092 151.522L123.618 153.412C126.651 152.572 127.201 153.121 127.207 153.127C127.234 153.223 127.23 153.325 127.195 153.419L127.133 153.551L127.122 153.731C126.955 156.371 124.399 160.61 120.111 165.362C116.518 169.343 112.084 173.227 108.246 175.789C108.693 175.033 109.18 174.302 109.704 173.599C109.661 173.599 109.618 173.592 109.576 173.58L109.461 173.533C109.416 173.505 109.377 173.471 109.343 173.431C108.806 173.285 108.269 173.132 107.746 172.938C106.92 174.088 105.823 175.83 105.203 177.602C102.191 179.146 100.98 178.877 100.658 178.735C99.6454 178.297 99.4182 177.718 99.3417 177.319C99.1248 176.241 99.7405 174.561 101.075 172.588C101.646 171.751 102.266 170.95 102.934 170.188C102.492 169.939 102.076 169.645 101.695 169.31C101.542 169.248 101.389 169.19 101.234 169.136C99.7714 170.826 96.8027 174.702 97.406 177.706C97.5836 178.588 98.1538 179.794 99.8665 180.534C100.33 180.727 100.829 180.821 101.331 180.811C102.282 180.811 103.412 180.535 104.723 179.984C104.71 180.416 104.759 180.846 104.87 181.263C105.108 182.131 105.759 183.294 107.519 183.916C107.893 184.044 108.286 184.106 108.682 184.102C110.394 184.102 112.688 183.085 115.522 181.067C123.267 175.551 134.704 162.412 134.81 155.418C134.909 155.005 135.027 154.032 134.27 153.289ZM132.903 154.981L132.851 155.117V155.297C132.868 157.941 130.612 162.348 126.653 167.384C122.988 172.057 118.286 176.681 114.38 179.47C110.206 182.441 108.57 182.209 108.167 182.067C107.134 181.701 106.866 181.139 106.758 180.749C106.633 180.151 106.66 179.53 106.837 178.945C107.228 178.73 107.63 178.496 108.041 178.243C116.014 173.359 128.052 161.375 129.017 154.348L129.325 155.222C132.293 154.173 132.88 154.683 132.886 154.687C132.923 154.781 132.929 154.883 132.903 154.981Z" fill="#454545"/>
<path d="M108.48 33.4575C108.347 33.4599 108.217 33.4209 108.108 33.346C107.993 33.2578 107.902 33.1422 107.843 33.0097C107.784 32.8773 107.76 32.7322 107.771 32.5878C107.796 32.1271 108.185 31.3482 108.697 31.2904C108.883 31.2718 109.226 31.3172 109.445 31.8275C109.53 32.0097 109.568 32.2109 109.553 32.4116C109.539 32.6124 109.473 32.8061 109.362 32.9741C109.261 33.1156 109.129 33.2325 108.976 33.3161C108.823 33.3998 108.654 33.4481 108.48 33.4575Z" fill="#454545"/>
<path d="M152.438 98.2946L155.331 93.543L158.43 97.8814L155.951 101.807L152.438 98.2946Z" fill="#FFA272"/>
<path d="M165.454 97.4684L168.346 92.7168L171.445 97.0552L168.966 100.981L165.454 97.4684Z" fill="#FFA272"/>
<path d="M147.273 121.64L150.166 116.889L153.265 121.227L150.786 125.152L147.273 121.64Z" fill="#FFA272"/>
<path d="M139.217 101.394L142.109 96.6426L145.208 100.981L142.729 104.906L139.217 101.394Z" fill="#FFA272"/>
<path d="M123.31 102.22L126.202 97.4688L129.301 101.807L126.822 105.732L123.31 102.22Z" fill="#FFA272"/>
<path d="M109.261 100.775L112.153 96.0234L115.252 100.362L112.773 104.287L109.261 100.775Z" fill="#FFA272"/>
<path d="M94.3857 98.9157L97.278 94.1641L100.377 98.5025L97.8978 102.428L94.3857 98.9157Z" fill="#FFA272"/>
<path d="M80.3379 94.5759L83.2302 89.8242L86.3291 94.1627L83.85 98.0879L80.3379 94.5759Z" fill="#FFA272"/>
<path d="M86.9492 86.3122L89.8415 81.5605L92.9404 85.899L90.4613 89.8243L86.9492 86.3122Z" fill="#FFA272"/>
<path d="M87.1553 108.625L90.0476 103.873L93.1465 108.211L90.6674 112.137L87.1553 108.625Z" fill="#FFA272"/>
<path d="M101.823 114.822L104.716 110.07L107.814 114.409L105.335 118.334L101.823 114.822Z" fill="#FFA272"/>
<path d="M116.698 115.029L119.591 110.277L122.689 114.616L120.21 118.541L116.698 115.029Z" fill="#FFA272"/>
<path d="M134.465 115.029L137.357 110.277L140.456 114.616L137.977 118.541L134.465 115.029Z" fill="#FFA272"/>
<path d="M126.614 126.392L129.507 121.641L132.605 125.979L130.126 129.904L126.614 126.392Z" fill="#FFA272"/>
<path d="M146.359 128.949C146.361 128.366 146.543 127.797 146.882 127.321L144.589 124.119L141.696 128.871L145.208 132.383L146.628 130.133C146.453 129.763 146.361 129.359 146.359 128.949Z" fill="#FFA272"/>
<path d="M135.085 137.341L137.977 132.59L141.076 136.928L138.597 140.854L135.085 137.341Z" fill="#FFA272"/>
<path d="M116.491 134.037L119.384 129.285L122.482 133.624L120.003 137.549L116.491 134.037Z" fill="#FFA272"/>
<path d="M102.236 134.037L105.129 129.285L108.228 133.624L105.748 137.549L102.236 134.037Z" fill="#FFA272"/>
<path d="M94.1794 119.16L91.8057 123.059C92.1004 123.449 92.2948 123.906 92.3717 124.389C92.3841 124.406 92.3945 124.424 92.4069 124.443C92.5993 124.723 92.7206 125.047 92.7601 125.385L94.7992 127.424L97.2783 123.499L94.1794 119.16Z" fill="#FFA272"/>
<path d="M77.8237 109.885L79.9248 106.559L76.8259 102.221L73.9336 106.972L76.9932 110.032C77.2701 109.98 77.5469 109.933 77.8237 109.885Z" fill="#FFA272"/>
<path d="M65.8304 91.2442L64.4297 93.5435L67.9418 97.0556L70.4209 93.1304L68.2847 90.1348C67.4262 90.4077 66.6025 90.7801 65.8304 91.2442Z" fill="#FFA272"/>
<path d="M67.1884 111.488L69.3887 108.004L66.2898 103.666L63.3975 108.418L66.4612 111.481C66.7029 111.486 66.9447 111.49 67.1884 111.488Z" fill="#FFA272"/>
<path d="M52.8613 103.666L55.7536 98.9141L58.8525 103.253L56.3734 107.178L52.8613 103.666Z" fill="#FFA272"/>
<path d="M139.217 152.836L142.109 148.084L145.208 152.422L142.729 156.348L139.217 152.836Z" fill="#FFA272"/>
<path d="M77.0322 175.767L79.9245 171.016L83.0234 175.354L80.5443 179.279L77.0322 175.767Z" fill="#FFA272"/>
<path d="M93.9727 182.379L96.865 177.627L99.9639 181.965L97.4847 185.891L93.9727 182.379Z" fill="#FFA272"/>
<path d="M78.8916 189.609L81.7839 184.857L84.8828 189.196L82.4037 193.121L78.8916 189.609Z" fill="#FFA272"/>
<path d="M104.716 191.056L107.608 186.305L110.707 190.643L108.228 194.568L104.716 191.056Z" fill="#FFA272"/>
<path d="M122.19 181.477L120.004 185.065L123.516 188.577L125.995 184.652L124.419 182.445C123.696 182.079 122.951 181.755 122.19 181.477Z" fill="#FFA272"/>
<path d="M131.573 194.568L134.466 189.816L137.564 194.155L135.085 198.08L131.573 194.568Z" fill="#FFA272"/>
<path d="M156.664 193.052C156.383 192.949 156.1 192.858 155.813 192.771L154.092 195.6L157.604 199.112L160.083 195.187L159.129 193.844C158.306 193.625 157.488 193.358 156.664 193.052Z" fill="#FFA272"/>
<path d="M158.43 121.226L161.322 116.475L164.421 120.813L161.942 124.738L158.43 121.226Z" fill="#FFA272"/>
<path d="M167.313 120.814L170.206 116.062L173.305 120.401L170.826 124.326L167.313 120.814Z" fill="#FFA272"/>
<path d="M181.395 119.126L178.469 115.029L175.577 119.781L179.089 123.293L181.395 119.643V119.126Z" fill="#FFA272"/>
<path d="M149.547 87.7594L152.439 83.0078L155.538 87.3463L153.059 91.2715L149.547 87.7594Z" fill="#FFA272"/>
<path d="M170.619 84.0049C169.844 83.2277 169.027 82.4932 168.173 81.8047L166.693 84.2466L170.205 87.7587L171.699 85.3932C171.38 84.8998 171.019 84.4353 170.619 84.0049Z" fill="#FFA272"/>
<path d="M147.894 109.244L150.786 104.492L153.885 108.831L151.406 112.756L147.894 109.244Z" fill="#FFA272"/>
<path d="M171.858 106.353L174.751 101.602L177.85 105.94L175.37 109.865L171.858 106.353Z" fill="#FFA272"/>
<path d="M159.256 107.591L162.148 102.84L165.247 107.178L162.768 111.104L159.256 107.591Z" fill="#FFA272"/>
<path d="M159.463 88.7927L162.355 84.041L165.454 88.3795L162.975 92.3047L159.463 88.7927Z" fill="#FFA272"/>
<path d="M24.6758 117.525L84.47 110.484L101.121 144.485L131.528 142.089L131.78 146.845L106.964 152.733L47.903 158.207L24.6758 117.525Z" fill="#5EB5E6"/>
<path d="M30.3421 36.5238L24.9707 35.2842L23.1113 33.8381L27.0366 26.1941C27.0366 26.1941 22.9047 19.3766 24.1443 19.17C25.3839 18.9634 26.83 14.6249 26.83 14.6249L30.5487 11.526L34.6805 10.9062L39.4322 13.7986L41.7047 18.9634L40.4651 23.715L39.4322 25.1612C39.4322 25.1612 43.1508 30.1194 43.3574 30.9458C43.564 31.7721 44.1838 34.6644 44.1838 34.6644L38.1926 35.6974L35.3189 31.7556L29.7223 35.904" fill="#FFA272"/>
<path opacity="0.4" d="M52.4482 45.2004L55.7537 40.0356L55.1339 37.5565L54.5142 33.218L56.3735 30.9455L58.0263 30.5323L61.3317 30.1191L64.4306 32.8048L64.3872 36.2591L63.6043 40.0356L66.7032 44.1675L65.8768 45.6136L59.8856 47.0598H56.9933L52.4482 45.2004Z" fill="#89DA3E"/>
<path opacity="0.5" d="M49.349 70.611L46.8699 67.9253L48.6259 64.5062L51.8281 64L54.7659 64.7127L54.7204 67.9253L54.1523 69.8301L55.7534 70.8176L57.8193 75.156L55.3402 75.7758L49.9688 76.3956L45.8369 74.7428L47.1922 72.0819L49.349 70.611Z" fill="#EDE793"/>
<path opacity="0.39" d="M69.3887 16.2769C70.215 16.6901 72.0744 12.7648 72.0744 12.7648L73.1073 10.6989L72.0744 9.25277L71.5517 6.56706L72.281 4.08794L73.1073 2.64179L75.7931 1.40224C75.7931 1.40224 76.6194 0.369273 78.6854 0.989051C80.7513 1.60883 82.6106 4.08794 82.6106 4.08794C82.6106 4.08794 83.2304 6.77365 83.2304 7.39343C83.2304 8.01321 81.5777 10.4923 81.5777 10.4923C81.7302 11.1421 82.0934 11.7232 82.6106 12.1451C83.437 12.7648 84.8831 16.6901 84.8831 16.6901L80.1315 17.7231L75.7931 18.3429L69.3887 16.2769Z" fill="#0447F6"/>
<path opacity="0.39" d="M3.89806 39.8295C3.89806 39.8295 3.07169 38.1767 3.07169 37.1437C3.07169 36.1108 2.77213 33.1896 2.77213 33.1896C2.77213 33.1896 3.07375 31.136 3.80509 30.9377C4.53643 30.7394 5.11489 30.7311 5.6479 30.5245C6.22878 30.347 6.82099 30.209 7.42047 30.1113L10.5194 30.5245C10.5194 30.5245 11.3953 29.8841 12.4035 31.134C13.4117 32.3838 13.8145 35.2844 13.8145 35.2844C13.8134 35.9782 13.7442 36.6701 13.6079 37.3503C13.4013 38.1767 13.1947 39.8295 13.1947 39.8295L12.3684 40.4492L14.2277 42.7218L15.2607 45.2009V46.0272C15.2607 46.0272 13.6079 46.647 12.7816 46.647C11.9552 46.647 10.3024 46.8536 10.3024 46.8536C10.3024 46.8536 8.6497 47.2668 7.41014 47.2668C6.17058 47.2668 4.51784 47.68 4.31125 47.0602C4.10465 46.4404 2.36307 45.8806 2.36307 45.8806C2.36307 45.8806 1.41895 45.6141 1.41895 44.9943C1.41895 44.3745 2.15855 41.9987 2.15855 41.9987L2.98492 40.7715L3.89806 39.8295Z" fill="#0447F6"/>
<path d="M102.443 70.1995L99.5508 76.3973C99.5508 76.3973 112.153 77.6368 123.929 66.0676C135.705 54.4984 123.102 65.6544 123.102 65.6544L101.437 69.8317" fill="#454545"/>
<path d="M16.3911 45.7998C16.1718 44.6542 15.7913 43.5455 15.261 42.5067C14.7608 41.5022 14.0671 40.6063 13.2199 39.8705C14.0243 38.9098 14.5358 37.7382 14.6936 36.4951C14.8514 35.252 14.6487 33.9898 14.1098 32.8585C13.5709 31.7273 12.7184 30.7746 11.6536 30.1139C10.5889 29.4532 9.35681 29.1123 8.1039 29.1316C6.85099 29.151 5.63 29.5298 4.58619 30.2231C3.54238 30.9164 2.71968 31.8949 2.21595 33.0422C1.71223 34.1896 1.54867 35.4575 1.74476 36.6951C1.94084 37.9327 2.4883 39.088 3.32201 40.0234C1.87586 41.2423 0.813976 43.0521 0.171472 45.4279L0 46.0477L0.514416 46.4485C0.650767 46.5559 2.94395 48.2871 7.68732 48.2871C9.85035 48.2871 12.5257 47.9277 15.7444 46.8864L16.5481 46.6261L16.3911 45.7998ZM8.19761 31.1007C9.10307 31.1007 9.9882 31.3692 10.7411 31.8722C11.4939 32.3753 12.0807 33.0903 12.4272 33.9268C12.7737 34.7634 12.8644 35.6839 12.6877 36.5719C12.5111 37.46 12.0751 38.2757 11.4348 38.916C10.7946 39.5562 9.97881 39.9923 9.09075 40.1689C8.20268 40.3456 7.28218 40.2549 6.44564 39.9084C5.60911 39.5619 4.8941 38.9751 4.39106 38.2222C3.88801 37.4694 3.61951 36.5842 3.61951 35.6788C3.6206 34.4649 4.10329 33.3011 4.96161 32.4428C5.81993 31.5845 6.98375 31.1018 8.19761 31.1007ZM2.27046 45.2296C2.85511 43.457 3.71661 42.141 4.86113 41.3043C5.90098 41.923 7.09244 42.2402 8.30227 42.2205C9.5121 42.2008 10.6926 41.845 11.7118 41.1927C13.193 42.2918 13.9347 44.2069 14.2528 45.2998C7.51378 47.2686 3.63397 45.9113 2.27046 45.2296Z" fill="#454545"/>
<path d="M68.0395 45.3868C67.8202 44.2412 67.4397 43.1325 66.9095 42.0937C66.4104 41.0884 65.7166 40.1924 64.8683 39.4576C65.6729 38.497 66.1847 37.3255 66.3427 36.0824C66.5008 34.8394 66.2984 33.5771 65.7597 32.4457C65.221 31.3143 64.3687 30.3615 63.3041 29.7006C62.2395 29.0397 61.0075 28.6985 59.7546 28.7176C58.5017 28.7366 57.2806 29.1152 56.2367 29.8083C55.1927 30.5013 54.3698 31.4797 53.8658 32.6269C53.3619 33.7742 53.198 35.042 53.3939 36.2797C53.5897 37.5174 54.1369 38.6727 54.9704 39.6084C53.5243 40.8293 52.4624 42.6391 51.8199 45.0149L51.6484 45.6347L52.1629 46.0355C52.2992 46.1429 54.5924 47.8741 59.3358 47.8741C61.4988 47.8741 64.1742 47.5147 67.3826 46.4734L68.1862 46.2131L68.0395 45.3868ZM59.846 30.6877C60.7515 30.6877 61.6366 30.9562 62.3895 31.4592C63.1424 31.9623 63.7291 32.6773 64.0757 33.5138C64.4222 34.3504 64.5128 35.2709 64.3362 36.1589C64.1595 37.047 63.7235 37.8627 63.0832 38.503C62.443 39.1432 61.6273 39.5793 60.7392 39.7559C59.8511 39.9326 58.9306 39.8419 58.0941 39.4954C57.2575 39.1489 56.5425 38.5621 56.0395 37.8092C55.5364 37.0564 55.2679 36.1712 55.2679 35.2658C55.269 34.0519 55.7517 32.8881 56.61 32.0298C57.4684 31.1715 58.6322 30.6888 59.846 30.6877ZM53.9189 44.8166C54.5035 43.044 55.365 41.728 56.5096 40.8913C57.5487 41.5097 58.7393 41.827 59.9483 41.8077C61.1574 41.7883 62.3373 41.4331 63.3561 40.7818C64.8394 41.8809 65.5831 43.7939 65.9013 44.8868C59.1622 46.8556 55.2824 45.4983 53.9189 44.8166Z" fill="#454545"/>
<path d="M57.9201 75.113C57.8973 74.9705 57.4594 72.4872 55.7694 70.9027C56.3205 70.1635 56.6537 69.2848 56.7312 68.3661C56.8086 67.4474 56.6273 66.5253 56.2078 65.7043C55.7882 64.8833 55.1471 64.1962 54.3572 63.7208C53.5672 63.2453 52.66 63.0006 51.7381 63.0142C50.8162 63.0278 49.9165 63.2993 49.141 63.7979C48.3654 64.2965 47.745 65.0022 47.3499 65.8352C46.9547 66.6683 46.8008 67.5953 46.9053 68.5113C47.0099 69.4274 47.3689 70.2958 47.9416 71.0183C46.9748 71.917 46.262 73.1896 45.8199 74.8197L45.6484 75.4498L46.1629 75.8506C46.262 75.9291 47.9664 77.2141 51.4537 77.2141C53.4281 77.1843 55.3857 76.8448 57.2548 76.208L58.0585 75.9477L57.9201 75.113ZM51.809 64.99C52.3975 64.9896 52.9729 65.1637 53.4624 65.4903C53.9519 65.817 54.3335 66.2815 54.559 66.825C54.7845 67.3686 54.8437 67.9668 54.7291 68.544C54.6146 69.1212 54.3314 69.6515 53.9154 70.0678C53.4995 70.484 52.9694 70.7676 52.3922 70.8825C51.8151 70.9975 51.2168 70.9387 50.6731 70.7136C50.1294 70.4885 49.6647 70.1072 49.3377 69.6179C49.0107 69.1286 48.8362 68.5534 48.8362 67.9649C48.8351 67.1752 49.1476 66.4173 49.7051 65.8579C50.2625 65.2985 51.0193 64.9833 51.809 64.9817V64.99ZM47.9416 74.6151C48.2316 73.7226 48.7577 72.9252 49.4642 72.3075C50.207 72.7106 51.0412 72.9153 51.8862 72.9019C52.7312 72.8885 53.5585 72.6575 54.2882 72.231C55.0753 72.8901 55.5277 73.9024 55.7632 74.6151C51.5487 75.7803 49.0056 75.0717 47.9416 74.6069V74.6151Z" fill="#454545"/>
<path d="M85.6001 16.6704C85.3807 15.5248 85.0003 14.4161 84.47 13.3773C83.969 12.3733 83.2738 11.4787 82.4247 10.7453C83.2304 9.7852 83.7433 8.61386 83.9023 7.37066C84.0613 6.12746 83.8598 4.86474 83.3218 3.73278C82.7837 2.60082 81.9318 1.64728 80.8673 0.985644C79.8028 0.324009 78.5707 -0.0178605 77.3175 0.000718959C76.0643 0.0192984 74.8428 0.397545 73.7984 1.09044C72.754 1.78334 71.9307 2.76172 71.4265 3.90913C70.9222 5.05655 70.7582 6.32469 70.954 7.56263C71.1499 8.80057 71.6972 9.95619 72.531 10.892C71.0848 12.1129 70.023 13.9227 69.3805 16.2985L69.209 16.9183L69.7234 17.3191C69.8598 17.4265 72.1529 19.1577 76.8963 19.1577C79.0593 19.1577 81.7347 18.7983 84.9431 17.757L85.7467 17.4967L85.6001 16.6704ZM77.4066 1.97127C78.3121 1.97127 79.1972 2.23977 79.95 2.74282C80.7029 3.24587 81.2897 3.96087 81.6362 4.79741C81.9827 5.63395 82.0734 6.55445 81.8967 7.44251C81.7201 8.33058 81.2841 9.14632 80.6438 9.78657C80.0035 10.4268 79.1878 10.8629 78.2997 11.0395C77.4117 11.2161 76.4912 11.1255 75.6546 10.779C74.8181 10.4325 74.1031 9.84569 73.6 9.09283C73.097 8.33996 72.8285 7.45483 72.8285 6.54937C72.8296 5.33552 73.3123 4.1717 74.1706 3.31337C75.0289 2.45505 76.1927 1.97237 77.4066 1.97127ZM71.4794 16.1002C72.0641 14.3276 72.9256 13.0116 74.0701 12.1749C75.11 12.7936 76.3014 13.1108 77.5113 13.0911C78.7211 13.0714 79.9016 12.7156 80.9207 12.0633C82.402 13.1645 83.1437 15.0775 83.4618 16.1704C76.7228 18.1392 72.843 16.7819 71.4794 16.1002Z" fill="#454545"/>
<path d="M184.712 140.846C184.427 138.352 184.132 135.551 183.847 132.84C183.537 129.907 183.227 126.874 182.907 124.192C182.159 117.738 181.44 112.536 180.634 107.822L180.411 106.485C179.068 98.4797 177.682 90.2036 172.166 83.7414C171.43 82.8718 170.617 82.0704 169.737 81.347L170.594 81.4709L168.584 80.4917C167.558 79.7928 166.437 79.2458 165.256 78.8678L164.948 78.717C164.333 78.4472 163.684 78.265 163.018 78.1758C161.286 77.5503 159.695 76.5861 158.339 75.3392C154.288 71.6061 152.618 65.4744 153.511 57.6053C153.648 56.374 153.786 55.184 153.924 54.0354C154.988 45.0135 155.758 38.4955 153.792 32.9381C151.715 27.0647 146.768 22.8316 137.217 18.7844C120.295 11.6053 110.292 16.3363 107.009 18.4807L106.775 18.5613L106.796 18.6212C106.454 18.8491 106.125 19.0975 105.813 19.365C105.469 19.5082 105.112 19.6148 104.747 19.6831C104.461 19.7426 104.18 19.8185 103.904 19.9104C101.984 20.622 100.119 21.4748 98.3257 22.4618C92.5886 25.6123 88.2687 29.8062 85.835 34.5867C83.7939 38.5946 82.323 44.6602 83.6162 49.1742C84.1059 50.8724 85.269 52.176 86.8205 52.7483C87.521 53.0078 88.2702 53.1093 89.0145 53.0458C88.2475 55.9303 87.6501 58.8572 87.2254 61.8115C87.1477 62.8245 87.2738 63.8428 87.5964 64.8062C87.9189 65.7696 88.4313 66.6586 89.1033 67.4205C91.1796 69.7777 94.6979 70.9739 99.5611 70.9739C99.7863 70.9739 100.018 70.9739 100.249 70.9636L97.7947 79.4835C96.0469 78.7666 92.4956 77.5704 89.531 78.2274C86.24 78.9587 78.6126 80.6549 39.5025 108.832C39.4322 105.94 39.3496 102.457 39.2731 98.7751C41.6221 96.8642 43.3802 94.916 44.126 93.0918C44.3636 92.7447 44.8305 91.877 44.3966 90.9081C43.843 89.6685 42.1799 89.0487 39.1616 88.9475L39.112 90.4081C39.0913 89.1851 39.0727 87.9724 39.0562 86.7886C40.6821 85.2846 41.8886 83.7785 42.4733 82.3489C42.7108 82.0019 43.1777 81.1342 42.7439 80.1652C42.2873 79.1467 41.0767 78.5456 38.9798 78.3059C38.9798 75.5066 39.0025 73.2816 39.0748 72.009C39.3992 66.3566 38.3703 46.0278 37.8766 36.8882C40.0849 36.5194 42.2624 35.9849 44.3904 35.2891L45.1962 35.0288L45.0577 34.2024C44.7326 32.5488 44.1762 30.9493 43.405 29.4508C42.5104 27.7216 41.3969 26.3519 40.0995 25.3747C41.3358 24.0489 42.155 22.3888 42.4551 20.601C42.7551 18.8132 42.5228 16.9766 41.7871 15.3198C41.0514 13.663 39.8447 12.2592 38.3172 11.2829C36.7897 10.3066 35.0089 9.80113 33.1963 9.82924C31.3837 9.85735 29.6194 10.4179 28.1229 11.441C26.6264 12.4642 25.4638 13.9048 24.7798 15.5836C24.0958 17.2624 23.9206 19.1053 24.2759 20.8829C24.6313 22.6606 25.5016 24.2945 26.7784 25.5813C24.5059 27.327 22.8407 30.0437 21.8532 33.6901L21.6818 34.3099L22.1962 34.7107C22.3552 34.8346 24.5493 36.4894 29.0282 37.1133C27.7886 40.958 27.6709 46.6538 28.6729 54.149C28.6253 54.1345 28.5799 54.118 28.5324 54.1056C26.3817 53.5024 24.7311 54.8122 24.667 54.8617C24.3406 55.1221 24.0266 55.392 23.725 55.6716C21.4111 54.8989 18.3535 54.4176 15.7649 55.8555C14.4897 56.5881 13.4564 57.6774 12.7921 58.9895C12.2281 59.0163 8.62715 59.3014 6.29058 62.295C4.30729 64.8298 3.83833 68.4927 4.90228 73.2072C5.93524 77.8163 7.81111 80.6239 10.4534 81.5494C10.8359 81.6826 11.2313 81.7754 11.6331 81.8262C11.5711 83.1464 11.4678 85.4623 11.3645 88.4827C9.45559 89.6644 5.48487 92.4637 5.16672 95.5068C5.07169 96.4014 5.25555 97.7236 6.66865 98.9425C7.43511 99.6056 8.61888 99.9383 10.2035 99.9383C10.4886 99.9383 10.7881 99.9259 11.098 99.9031C11.098 100.11 11.098 100.335 11.098 100.552C9.20561 101.977 7.06118 104.052 6.82773 106.25C6.73269 107.144 6.91656 108.466 8.32965 109.685C8.96183 110.233 9.88117 110.551 11.0711 110.646C11.2282 130.816 12.6351 145.42 15.2629 154.059C16.2153 157.195 18.0457 159.088 20.7046 159.687C21.3196 159.825 21.948 159.894 22.5784 159.894C27.361 159.894 34.1827 156.466 42.9381 149.678L47.9914 158.204L55.877 157.766C65.0725 165.488 74.4704 167.269 80.7942 167.391C86.6945 167.502 90.9916 166.255 92.3427 165.804L114.275 177.993C121.939 182.076 129.827 185.724 137.901 188.922C150.199 193.742 160.101 196.153 167.483 196.153C170.474 196.153 173.05 195.755 175.209 194.959C178.622 193.698 180.969 191.428 182.186 188.213C184.066 183.255 184.781 178.503 185.285 172.925C186.206 162.307 186.035 152.419 184.712 140.846ZM11.0484 108.671C10.1518 108.574 9.75308 108.324 9.60227 108.194C8.7759 107.473 8.72838 106.853 8.7759 106.45C8.87506 105.52 9.68077 104.353 11.067 103.112C11.0464 104.913 11.0422 106.772 11.0484 108.671ZM11.1249 97.9281C8.95563 98.1058 8.17471 97.6451 7.94746 97.4509C7.12109 96.7299 7.07357 96.1101 7.12109 95.7072C7.23678 94.6143 8.32759 93.1951 10.1911 91.7117C10.5671 91.4122 10.9431 91.1374 11.2943 90.8854C11.2282 93.0071 11.1703 95.3746 11.129 97.9281H11.1249ZM90.5908 66.15C90.0938 65.597 89.7115 64.9509 89.4661 64.2491C89.2207 63.5473 89.1171 62.8037 89.1612 62.0615C89.4243 60.2407 89.7541 58.431 90.1508 56.6322C90.8184 53.6121 91.6726 50.6363 92.7084 47.7219C93.2483 46.2069 93.8364 44.7084 94.4727 43.2264C95.5955 40.6148 96.8682 38.0701 98.2843 35.6052C99.0956 34.1921 99.9557 32.8086 100.865 31.4548C103.049 28.1691 105.54 25.0972 108.302 22.28C109.674 25.3573 111.296 28.3167 113.153 31.1283C118.285 38.8281 124.282 43.2739 130.585 44.09L128.313 47.5897C128.318 47.736 128.344 47.8808 128.391 48.0194C128.426 48.1512 128.49 48.2739 128.577 48.3789C128.68 48.5048 128.809 48.607 128.955 48.6784L129.021 48.7073C129.049 48.7184 129.077 48.7274 129.106 48.7342L129.176 48.7507H129.209L130.666 47.4926C131.876 46.4451 135.593 43.7946 138.21 44.0941C138.604 44.1334 138.984 44.2583 139.324 44.4599C139.664 44.6615 139.956 44.9351 140.179 45.2614C141.276 46.7695 140.285 49.6639 137.82 52.1409C135.304 54.6717 131.271 56.531 127.916 54.4403C127.6 54.7354 127.359 55.1025 127.216 55.5104C127.009 56.2852 127.592 56.5682 128.185 56.8202C126.837 59.0435 125.693 61.3841 124.767 63.8134C118.799 65.807 107.905 69.0113 99.5508 69.0113C95.297 69.0113 92.2828 68.0486 90.5908 66.15ZM97.9765 81.7168L99.0301 82.2436L102.307 70.881C107.058 70.5587 112.812 69.4348 119.454 67.5362C121.086 67.0672 122.607 66.5962 123.954 66.1603C121.512 73.8729 121.35 82.1267 123.489 89.9288C119.32 91.6353 114.461 92.8335 109.19 92.662C102.848 92.4555 98.1211 90.7201 95.1421 87.4972C93.2577 85.4293 92.105 82.7995 91.8614 80.0124C94.8177 80.1632 97.9373 81.6982 97.9765 81.7168ZM89.8987 80.1549C90.1647 83.3788 91.493 86.4233 93.6752 88.8112C97.0221 92.4451 102.22 94.4036 109.124 94.6288C109.484 94.6288 109.841 94.6453 110.196 94.6453C115.287 94.6453 119.975 93.4678 124.038 91.8274C124.37 92.8852 124.751 93.9567 125.181 95.042L125.228 95.1432C125.755 96.0267 126.478 96.7777 127.34 97.3389C128.202 97.9 129.182 98.2563 130.203 98.3805C130.498 98.4154 130.794 98.4327 131.091 98.4322C134.857 98.4322 139.256 95.6576 144.179 90.1685C147.623 86.3279 152.943 81.4916 158.717 80.2871C159.785 80.0533 160.88 79.9705 161.971 80.0413L161.985 80.345C164.824 80.2148 168.071 81.9605 170.674 85.0119C175.839 91.063 177.18 99.0602 178.478 106.807C178.552 107.254 178.626 107.702 178.703 108.146C179.461 112.629 180.149 117.561 180.857 123.608C171.075 128.058 162.4 128.725 156.8 128.487C152.036 128.281 148.643 127.413 147.309 127.014C146.656 116.736 147.146 106.369 151.073 97.2649C151.073 97.0583 151.073 96.8724 151.073 96.6761C151.073 96.5315 151.052 96.3869 151.034 96.2444C151.034 96.2175 151.019 96.1535 151.015 96.1349C151.005 96.0729 150.992 96.0089 150.98 95.9469C150.954 95.8204 150.92 95.6955 150.879 95.5729C150.86 95.5192 150.842 95.4655 150.821 95.4139L150.79 95.3477C150.769 95.3092 150.747 95.2699 150.722 95.23L150.015 94.8891C142.848 109.714 145.088 127.735 147.067 143.643C147.402 146.329 147.718 148.868 147.991 151.392C148.404 155.214 148.833 159.152 149.197 163.09C138.884 159.127 127.327 153.586 122.218 151.062L133.8 148.461V141.872L132.918 142.091L132.88 141.216L101.947 142.488L85.676 108.4L59.6453 111.706C57.4568 108.336 54.997 105.151 52.2906 102.182C80.8479 82.2601 87.2833 80.7375 89.8987 80.1549ZM127.647 143.395L105.05 149.014L102.856 144.416L127.647 143.395ZM50.6605 103.302C53.138 106.014 55.4067 108.911 57.4471 111.966L39.6388 114.222C39.6181 113.41 39.5913 112.392 39.5624 111.21C43.5765 108.316 47.2662 105.682 50.6605 103.302ZM42.5311 91.7324C42.5396 91.7619 42.5437 91.7925 42.5435 91.8233C42.5662 92.4596 41.7915 93.3459 41.4362 93.8314C41.0905 94.3047 40.7115 94.7528 40.302 95.1721C40.114 95.3622 39.2132 95.9696 39.2132 96.2464C39.1781 94.478 39.1451 92.6848 39.1141 90.9143C39.6243 90.9287 42.3245 90.937 42.5311 91.7282V91.7324ZM40.9465 80.971C40.9449 81.0716 40.9101 81.169 40.8474 81.2478L40.7503 81.3531L40.6862 81.5226C40.3887 82.2952 39.8227 83.1464 39.0149 84.0513C39.0004 82.7373 38.988 81.4771 38.9818 80.2913C40.709 80.5164 40.9445 80.9627 40.9465 80.9668V80.971ZM26.0553 19.0675C26.0554 17.5043 26.5584 15.9826 27.49 14.7274C28.4217 13.4721 29.7325 12.55 31.2287 12.0973C32.7249 11.6446 34.3271 11.6853 35.7983 12.2135C37.2696 12.7417 38.5318 13.7293 39.3985 15.0302C40.2651 16.3312 40.6901 17.8765 40.6107 19.4377C40.5313 20.9988 39.9516 22.493 38.9574 23.6993C37.9632 24.9056 36.6073 25.7599 35.09 26.1361C33.5727 26.5122 31.9747 26.3901 30.5322 25.7879L30.5735 25.7735C30.4475 25.7321 30.3235 25.6867 30.2016 25.6392C28.9615 25.0458 27.9143 24.1141 27.1807 22.9513C26.4471 21.7886 26.057 20.4423 26.0553 19.0675ZM23.9501 33.5042C24.8943 30.4383 26.3755 28.2092 28.3609 26.8539C29.8905 27.8348 31.6759 28.3418 33.4928 28.3113C35.3096 28.2808 37.0769 27.7141 38.5728 26.6825C41.3019 28.5211 42.4981 32.0787 42.9236 33.6901C41.2299 34.2079 39.5047 34.6171 37.7588 34.9152C37.6824 33.529 37.6307 32.6427 37.6183 32.4361L37.5811 31.7667L36.9448 31.5601C36.0305 31.3107 35.0684 31.2924 34.1453 31.507C33.2221 31.7216 32.3667 32.1622 31.6561 32.7894C30.886 33.4674 30.2546 34.2883 29.7967 35.2065C26.7536 34.8553 24.822 33.9876 23.9501 33.5042ZM25.8901 56.4029C26.1949 56.1827 26.5448 56.0329 26.9146 55.9643C27.2844 55.8957 27.6647 55.91 28.0283 56.0063C28.9827 56.2831 30.3793 57.3471 31.6726 60.7951C31.9513 60.7485 32.2034 60.6016 32.3812 60.3819C32.7944 59.8592 32.8894 59.1961 32.8378 58.5226C32.3444 57.4306 31.6751 56.4269 30.8565 55.5518C29.7781 48.29 29.0137 37.7269 32.9101 34.3057C33.2878 33.9626 33.7306 33.6988 34.2121 33.5298C34.6937 33.3609 35.2042 33.2904 35.7135 33.3224C35.7549 34.0661 35.8251 35.316 35.9201 36.9191C35.9201 36.9997 35.9201 37.0803 35.9201 37.1588H35.9408C36.4346 46.3315 37.4448 66.4454 37.1328 71.8953C36.9986 74.2464 37.013 79.657 37.0956 85.9292C35.048 87.6468 32.8531 89.1808 30.5363 90.5135C25.4211 93.5277 19.3535 96.1266 14.701 97.2918C14.1287 97.4364 13.606 97.55 13.1247 97.643C13.2569 90.0115 13.5151 84.0905 13.6267 81.7581C14.1045 81.6718 14.5739 81.5439 15.0295 81.3759C15.2998 81.7 15.6046 81.9937 15.9385 82.2518C16.6541 82.8121 17.5356 83.1188 18.4444 83.1236C18.7332 83.1234 19.0212 83.0937 19.3039 83.0348C20.2799 82.8483 21.2218 82.5139 22.097 82.0432C22.911 82.6919 23.7022 83.0245 24.4646 83.0245C24.8358 83.0232 25.2028 82.9459 25.543 82.7972C26.7123 82.2911 27.5428 80.9668 28.146 79.2852C28.9414 79.2418 32.1953 78.8472 35.2281 75.4384C35.3887 75.0055 35.4996 74.5556 35.5586 74.0976C35.6633 73.4293 35.5465 72.7451 35.226 72.1494C33.0278 75.6739 30.4702 76.7978 29.0447 77.1572L29.7885 69.3625L33.9203 63.7845C33.9845 63.4628 34.0253 63.1369 34.0422 62.8094C34.0525 62.5889 34.0463 62.3679 34.0236 62.1483C34.0236 62.1276 34.0133 62.0739 34.0112 62.0574C34.0009 62.0057 33.9906 61.9582 33.9782 61.9086C33.9658 61.859 33.9575 61.826 33.9451 61.7867L33.9121 61.6917C33.8997 61.669 33.8687 61.6049 33.8625 61.5905L33.41 61.2579L33.3666 61.2455L29.9289 65.8752C29.9517 65.1707 29.9661 64.5303 29.9744 63.9725C29.9387 63.9276 29.9133 63.8754 29.9 63.8196C29.8614 63.6542 29.8145 63.4907 29.7595 63.33C29.7347 63.2556 29.7058 63.1812 29.6769 63.1089C29.6769 63.0924 29.6604 63.0697 29.6562 63.0614C29.6356 63.0139 29.6149 62.9684 29.5922 62.923C29.5171 62.7687 29.4329 62.619 29.3402 62.4747C29.2968 62.4065 29.2493 62.3383 29.2017 62.2681L29.1852 62.2474L29.1604 62.2144L29.086 62.1297C28.9932 62.0244 28.8938 61.9251 28.7885 61.8322L28.018 61.8446C28.018 61.888 28.0841 66.4268 27.6461 71.1123C26.8652 79.4546 25.2269 80.785 24.7414 80.9958C24.2187 81.2209 23.5225 80.7416 22.9916 80.2499C21.7333 77.4367 20.8979 74.4529 20.5124 71.3954C19.7522 64.896 21.5619 59.851 25.8901 56.4029ZM16.7173 57.5784C18.3949 56.6405 20.436 56.8017 22.2086 57.2706C19.1345 60.979 17.8825 65.8938 18.5725 71.6846C18.953 74.6954 19.744 77.6398 20.9236 80.4359C20.277 80.7524 19.5914 80.9816 18.8845 81.1176C18.575 81.1872 18.2537 81.1852 17.9451 81.1118C17.6365 81.0384 17.3487 80.8956 17.1037 80.6941C14.3498 78.5993 13.2404 70.7033 13.04 67.7903C13.0441 62.3735 14.2816 58.9399 16.7173 57.5784ZM11.0959 79.6839C9.13743 79.0001 7.69955 76.6718 6.81739 72.7816C5.89392 68.6911 6.23274 65.5798 7.8235 63.5304C9.06306 61.9293 10.8439 61.326 11.9347 61.0988C11.3645 62.943 11.0787 65.1879 11.0773 67.8337V67.8998C11.2337 69.8818 11.5159 71.8519 11.9223 73.7981C12.4388 76.2358 13.0923 78.2019 13.8829 79.6963C12.9763 79.9861 12.0017 79.9846 11.0959 79.6921V79.6839ZM13.071 99.6408C13.7238 99.5251 14.4186 99.3756 15.1555 99.1925C21.6012 97.5769 31.0797 93.1517 37.108 88.4248C37.1556 91.5134 37.2175 94.7321 37.2816 97.8413C35.6469 99.0805 33.9387 100.22 32.1663 101.252C27.0511 104.266 20.9835 106.865 16.331 108.03C15.2459 108.318 14.1411 108.525 13.0255 108.65C13.0131 105.508 13.0317 102.479 13.071 99.649V99.6408ZM21.1281 157.757C19.182 157.317 17.8742 155.917 17.1305 153.473C14.0647 143.381 13.1577 125.907 13.0379 110.609C14.311 110.483 15.5722 110.257 16.8103 109.935C22.7664 108.442 31.3131 104.551 37.3332 100.238C37.4655 106.31 37.6039 111.691 37.6782 114.462L23.1589 116.302L41.9237 147.955C30.214 157.09 24.1898 158.456 21.126 157.766L21.1281 157.757ZM56.503 155.704L56.4699 155.743L49.0656 156.156L26.3714 117.881L38.1472 116.387L39.6822 116.346C39.6822 116.333 39.6822 116.28 39.6822 116.195L84.5129 110.514L103.968 151.287L131.831 144.372V146.886L104.166 153.101L56.5422 155.747L56.503 155.704ZM183.314 172.725C182.832 178.154 182.142 182.745 180.343 187.499C179.32 190.197 177.416 192.027 174.521 193.097C157.678 199.32 115.642 176.475 115.215 176.245L92.4997 163.635L92.07 163.8C92.0266 163.817 87.4733 165.534 80.821 165.414C75.1955 165.308 67.0124 163.811 58.8065 157.586L69.4832 156.993C77.5114 161.891 85.5024 161.926 85.5024 161.926C85.5024 161.926 89.4277 159.654 84.8827 159.654C81.6247 159.654 75.6087 157.85 72.4602 156.828L104.356 155.055H104.439L119.173 151.75C121.131 152.733 128.327 156.309 136.556 159.96C139.487 161.259 142.435 162.521 145.41 163.72C148.79 165.083 152.205 166.379 155.682 167.476C158.554 168.382 161.326 169.227 164.192 169.128C164.848 169.108 165.501 169.035 166.146 168.911C166.609 168.689 167.057 168.436 167.487 168.155C167.661 168.046 167.81 167.9 167.921 167.726C168.033 167.553 168.104 167.357 168.131 167.153C168.168 166.8 168.109 166.443 167.962 166.12C167.2 166.426 165.514 166.978 164.018 167.432C160.808 167.075 156.236 165.693 151.232 163.848C150.85 159.58 150.385 155.305 149.937 151.169C149.66 148.63 149.344 146.085 149.009 143.391C148.435 138.761 147.838 133.948 147.46 129.095C150.459 129.873 153.534 130.324 156.63 130.44C157.311 130.471 158.032 130.487 158.793 130.487C164.46 130.487 172.34 129.522 181.105 125.649C181.37 128 181.64 130.553 181.903 133.039C182.188 135.753 182.485 138.561 182.771 141.063C184.07 152.504 184.239 162.269 183.312 172.733L183.314 172.725Z" fill="#454545"/>
<path d="M102.03 142.506L103.102 149.84L45.5537 153.141L47.192 156.827L106.963 153.961" fill="#454545"/>
<path d="M64.6367 135.482C67.9455 135.482 70.6279 133.771 70.6279 131.66C70.6279 129.549 67.9455 127.838 64.6367 127.838C61.3279 127.838 58.6455 129.549 58.6455 131.66C58.6455 133.771 61.3279 135.482 64.6367 135.482Z" fill="#454545"/>
</svg>
