<svg width="24" height="24" viewBox="0 0 24 24" fill="none" xmlns="http://www.w3.org/2000/svg">
<path d="M23.6383 14.9029C22.0356 21.3315 15.5244 25.2438 9.09503 23.6407C2.66833 22.0381 -1.24401 15.5265 0.359382 9.09837C1.96137 2.66903 8.47253 -1.24361 14.8999 0.359081C21.3289 1.96177 25.241 8.47405 23.6381 14.903L23.6382 14.9029H23.6383Z" fill="#27AE60"/>
<path d="M12 5.5V18.5" stroke="white" stroke-width="1.2" stroke-linecap="round" stroke-linejoin="round"/>
<path d="M15.5 9.5C15.5 9.1717 15.4353 8.84661 15.3097 8.54329C15.1841 8.23998 14.9999 7.96438 14.7678 7.73223C14.5356 7.50009 14.26 7.31594 13.9567 7.1903C13.6534 7.06466 13.3283 7 13 7H10.75C10.087 7 9.45107 7.26339 8.98223 7.73223C8.51339 8.20107 8.25 8.83696 8.25 9.5C8.25 10.163 8.51339 10.7989 8.98223 11.2678C9.45107 11.7366 10.087 12 10.75 12H13.5C14.163 12 14.7989 12.2634 15.2678 12.7322C15.7366 13.2011 16 13.837 16 14.5C16 15.163 15.7366 15.7989 15.2678 16.2678C14.7989 16.7366 14.163 17 13.5 17H10.5C9.83696 17 9.20107 16.7366 8.73223 16.2678C8.26339 15.7989 8 15.163 8 14.5" stroke="white" stroke-width="1.2" stroke-linecap="round" stroke-linejoin="round"/>
</svg>
