<svg width="20" height="20" viewBox="0 0 20 20" fill="none" xmlns="http://www.w3.org/2000/svg">
<path d="M9.44512 2.85367L2.05449 16.049C1.99309 16.1601 1.967 16.2874 1.97969 16.4137C1.99239 16.54 2.04327 16.6595 2.12556 16.7562C2.20785 16.8529 2.31764 16.9223 2.44033 16.9551C2.56301 16.9878 2.69276 16.9824 2.81231 16.9396L9.78106 14.4552C9.91636 14.4005 10.0676 14.4005 10.2029 14.4552L17.1717 16.9396C17.2912 16.9824 17.421 16.9878 17.5437 16.9551C17.6663 16.9223 17.7761 16.8529 17.8584 16.7562C17.9407 16.6595 17.9916 16.54 18.0043 16.4137C18.017 16.2874 17.9909 16.1601 17.9295 16.049L10.5389 2.85367C10.4848 2.75599 10.4056 2.67456 10.3094 2.61786C10.2132 2.56116 10.1036 2.53125 9.99199 2.53125C9.88035 2.53125 9.77075 2.56116 9.67457 2.61786C9.5784 2.67456 9.49917 2.75599 9.44512 2.85367Z" stroke="#1C1C1C" stroke-width="1.2" stroke-linecap="round" stroke-linejoin="round"/>
<path d="M9.99219 14.375V9.375" stroke="#1C1C1C" stroke-width="1.2" stroke-linecap="round" stroke-linejoin="round"/>
</svg>
