<svg width="18" height="18" viewBox="0 0 18 18" fill="none" xmlns="http://www.w3.org/2000/svg">
<path fill-rule="evenodd" clip-rule="evenodd" d="M1.6875 13.5V3.9375C1.6875 3.62684 1.93934 3.375 2.25 3.375H15.75C16.0607 3.375 16.3125 3.62684 16.3125 3.9375V13.5C16.3125 13.5 16.3125 13.966 15.983 14.2955C15.983 14.2955 15.6535 14.625 15.1875 14.625H2.8125C2.8125 14.625 2.34651 14.625 2.01701 14.2955C2.01701 14.2955 1.6875 13.966 1.6875 13.5ZM2.8125 13.5H15.1875V4.5H2.8125V13.5Z" fill="black" fill-opacity="0.4"/>
<path d="M2.6301 3.52285C2.52635 3.42775 2.39073 3.375 2.25 3.375C2.24185 3.375 2.23371 3.37518 2.22557 3.37553C2.07652 3.38201 1.93616 3.44743 1.83535 3.5574C1.74025 3.66115 1.6875 3.79677 1.6875 3.9375C1.6875 3.94565 1.68768 3.95379 1.68803 3.96193C1.69451 4.11098 1.75993 4.25134 1.8699 4.35215L8.6199 10.5396C8.83496 10.7368 9.16504 10.7368 9.3801 10.5396L16.1297 4.35249C16.2459 4.24595 16.3125 4.09517 16.3125 3.9375L16.3125 3.93282C16.3113 3.79371 16.2587 3.65996 16.1646 3.5574C16.0638 3.44743 15.9235 3.38201 15.7744 3.37553C15.7663 3.37518 15.7581 3.375 15.75 3.375L15.7474 3.37501C15.6076 3.37565 15.473 3.42836 15.3699 3.52285L9 9.36193L2.6301 3.52285Z" fill="black" fill-opacity="0.4"/>
</svg>
