<svg width="12" height="12" viewBox="0 0 12 12" fill="none" xmlns="http://www.w3.org/2000/svg">
<path fill-rule="evenodd" clip-rule="evenodd" d="M11.5927 6.1523C11.5927 6.1523 11.488 6.38791 11.2744 6.72715C11.2744 6.72715 10.8535 7.39557 10.2964 7.95266C10.2964 7.95266 8.49908 9.75 6 9.75C6 9.75 3.50092 9.75 1.70359 7.95266C1.70359 7.95266 1.14649 7.39557 0.725631 6.72715C0.725631 6.72715 0.512032 6.3879 0.407321 6.1523C0.364226 6.05534 0.364226 5.94466 0.407321 5.8477C0.407321 5.8477 0.512032 5.6121 0.725631 5.27285C0.725631 5.27285 1.14649 4.60443 1.70359 4.04734C1.70359 4.04734 3.50092 2.25 6 2.25C6 2.25 8.49907 2.25 10.2964 4.04734C10.2964 4.04734 10.8535 4.60443 11.2744 5.27285C11.2744 5.27285 11.488 5.61209 11.5927 5.8477C11.6358 5.94466 11.6358 6.05534 11.5927 6.1523ZM10.6397 6.32754C10.6397 6.32754 10.7562 6.14244 10.8322 6C10.8322 6 10.7562 5.85756 10.6397 5.67246C10.6397 5.67246 10.2637 5.07525 9.76608 4.57766C9.76608 4.57766 8.18842 3 6 3C6 3 3.81158 3 2.23392 4.57766C2.23392 4.57766 1.73633 5.07525 1.36031 5.67246C1.36031 5.67246 1.24376 5.85756 1.16779 6C1.16779 6 1.24376 6.14244 1.36031 6.32754C1.36031 6.32754 1.73633 6.92475 2.23392 7.42234C2.23392 7.42234 3.81158 9 6 9C6 9 8.18842 9 9.76608 7.42234C9.76608 7.42234 10.2637 6.92475 10.6397 6.32754Z" fill="black" fill-opacity="0.4"/>
<path fill-rule="evenodd" clip-rule="evenodd" d="M6 3.75C6 3.75 6.93198 3.75 7.59099 4.40901C7.59099 4.40901 8.25 5.06802 8.25 6C8.25 6 8.25 6.93198 7.59099 7.59099C7.59099 7.59099 6.93198 8.25 6 8.25C6 8.25 5.06802 8.25 4.40901 7.59099C4.40901 7.59099 3.75 6.93198 3.75 6C3.75 6 3.75 5.06802 4.40901 4.40901C4.40901 4.40901 5.06802 3.75 6 3.75ZM6 4.5C6 4.5 5.37868 4.5 4.93934 4.93934C4.93934 4.93934 4.5 5.37868 4.5 6C4.5 6 4.5 6.62132 4.93934 7.06066C4.93934 7.06066 5.37868 7.5 6 7.5C6 7.5 6.62132 7.5 7.06066 7.06066C7.06066 7.06066 7.5 6.62132 7.5 6C7.5 6 7.5 5.37868 7.06066 4.93934C7.06066 4.93934 6.62132 4.5 6 4.5Z" fill="black" fill-opacity="0.4"/>
</svg>
