<svg width="43" height="43" viewBox="0 0 43 43" fill="none" xmlns="http://www.w3.org/2000/svg">
<circle cx="21.5" cy="21.5" r="21.5" fill="#EBEFF7"/>
<path d="M16.1538 26.9615V20.0385C16.1538 19.7198 15.8955 19.4615 15.5769 19.4615C15.2583 19.4615 15 19.7198 15 20.0385V26.9615C15 27.4395 15.338 27.7774 15.338 27.7774C15.6759 28.1154 16.1538 28.1154 16.1538 28.1154H28.8462C29.3241 28.1154 29.662 27.7774 29.662 27.7774C30 27.4395 30 26.9615 30 26.9615V18.8846C30 18.4067 29.662 18.0687 29.662 18.0687C29.3241 17.7308 28.8462 17.7308 28.8462 17.7308H22.5C22.1814 17.7308 21.9231 17.9891 21.9231 18.3077C21.9231 18.6263 22.1814 18.8846 22.5 18.8846H28.8462V26.9615H16.1538Z" fill="#828282"/>
<path fill-rule="evenodd" clip-rule="evenodd" d="M20.688 20.386C20.688 20.386 20.3819 20.6136 20.0005 20.6154L19.9976 20.6154H15.5769C15.2583 20.6154 15 20.3571 15 20.0385V17.1538C15 17.1538 15 16.6759 15.338 16.338C15.338 16.338 15.6759 16 16.1538 16L20 16C20 16 20.3817 16.0016 20.6897 16.2306L22.8459 17.846C22.8898 17.8789 22.9288 17.9179 22.9617 17.9618C23.0535 18.0842 23.0928 18.2381 23.0711 18.3896C23.0494 18.541 22.9684 18.6777 22.8459 18.7694L20.688 20.386ZM19.9955 19.4615C19.9955 19.4615 19.9977 19.4615 19.9995 19.4601L21.5378 18.3077L19.9978 17.154C19.9978 17.154 19.9976 17.1539 19.9952 17.1538L16.1538 17.1538V19.4615H19.9955Z" fill="#828282"/>
</svg>
