<svg width="26" height="21" viewBox="0 0 26 21" fill="none" xmlns="http://www.w3.org/2000/svg">
<path d="M2 19V7C2 6.44772 1.55228 6 1 6C0.447715 6 0 6.44772 0 7V19C0 19.8284 0.585787 20.4142 0.585787 20.4142C1.17157 21 2 21 2 21H24C24.8284 21 25.4142 20.4142 25.4142 20.4142C26 19.8284 26 19 26 19V5C26 4.17157 25.4142 3.58579 25.4142 3.58579C24.8284 3 24 3 24 3H13C12.4477 3 12 3.44772 12 4C12 4.55228 12.4477 5 13 5H24V19H2Z" fill="#2F80ED"/>
<path fill-rule="evenodd" clip-rule="evenodd" d="M9.85921 7.60246C9.85921 7.60246 9.32865 7.99698 8.6676 7.99999L8.6625 8H1C0.447715 8 0 7.55228 0 7V2C0 2 0 1.17157 0.585787 0.585787C0.585787 0.585787 1.17157 0 2 0L8.66661 8.46386e-06C8.66661 8.46386e-06 9.32826 0.00272942 9.86207 0.399679L13.5996 3.19968C13.6757 3.25671 13.7433 3.32431 13.8003 3.40043C13.9593 3.61269 14.0275 3.87942 13.9899 4.14195C13.9522 4.40448 13.8118 4.6413 13.5996 4.80032L9.85921 7.60246ZM8.65882 6C8.65882 6 8.66267 5.99986 8.66579 5.99754L11.3321 4L8.66293 2.00032C8.66293 2.00032 8.6625 2.00001 8.65839 1.99999L2 2V6H8.65882Z" fill="#2F80ED"/>
</svg>
