<svg width="32" height="32" viewBox="0 0 32 32" fill="none" xmlns="http://www.w3.org/2000/svg">
<g clip-path="url(#clip0_267_149226)">
<path d="M16.0008 6.18677C19.0053 6.18677 21.032 7.48457 22.1876 8.56903L26.7032 4.16007C23.9299 1.58225 20.3209 0 16.0008 0C9.74296 0 4.33843 3.59117 1.70728 8.81792L6.88069 12.8358C8.17849 8.97793 11.7697 6.18677 16.0008 6.18677Z" fill="#EA4335"/>
<path d="M31.3603 16.3551C31.3603 15.0396 31.2536 14.0796 31.0225 13.084H16V19.0219H24.8179C24.6401 20.4974 23.6801 22.7197 21.5468 24.2131L26.5957 28.1242C29.618 25.3331 31.3603 21.2263 31.3603 16.3551Z" fill="#4285F4"/>
<path d="M6.89691 19.1632C6.55913 18.1677 6.36357 17.101 6.36357 15.9987C6.36357 14.8965 6.55913 13.8298 6.87914 12.8342L1.70572 8.81641C0.621256 10.9853 -0.000976562 13.4209 -0.000976562 15.9987C-0.000976562 18.5766 0.621256 21.0122 1.70572 23.1811L6.89691 19.1632Z" fill="#FBBC05"/>
<path d="M16.0011 31.9998C20.3212 31.9998 23.9479 30.5776 26.5969 28.1242L21.5479 24.213C20.1968 25.1553 18.3834 25.8131 16.0011 25.8131C11.77 25.8131 8.17878 23.0219 6.89876 19.1641L1.72534 23.1819C4.3565 28.4087 9.74325 31.9998 16.0011 31.9998Z" fill="#34A853"/>
</g>
<defs>
<clipPath id="clip0_267_149226">
<rect width="32" height="32" fill="white"/>
</clipPath>
</defs>
</svg>
