<svg width="18" height="18" viewBox="0 0 18 18" fill="none" xmlns="http://www.w3.org/2000/svg">
<path fill-rule="evenodd" clip-rule="evenodd" d="M9 1.6875C9 1.6875 10.4873 1.6875 11.8465 2.26238C11.8465 2.26238 13.1589 2.81747 14.1707 3.82928C14.1707 3.82928 15.1825 4.84109 15.7376 6.15347C15.7376 6.15347 16.3125 7.51265 16.3125 9C16.3125 9 16.3125 10.4873 15.7376 11.8465C15.7376 11.8465 15.1825 13.1589 14.1707 14.1707C14.1707 14.1707 13.1589 15.1825 11.8465 15.7376C11.8465 15.7376 10.4873 16.3125 9 16.3125C9 16.3125 7.51265 16.3125 6.15347 15.7376C6.15347 15.7376 4.84109 15.1825 3.82928 14.1707C3.82928 14.1707 2.81747 13.1589 2.26238 11.8465C2.26238 11.8465 1.6875 10.4873 1.6875 9C1.6875 9 1.6875 7.51265 2.26238 6.15347C2.26238 6.15347 2.81748 4.84109 3.82928 3.82928C3.82928 3.82928 4.84109 2.81747 6.15347 2.26238C6.15347 2.26238 7.51265 1.6875 9 1.6875ZM9 2.8125C9 2.8125 7.74078 2.8125 6.59172 3.29851C6.59172 3.29851 5.48143 3.76813 4.62478 4.62478C4.62478 4.62478 3.76813 5.48143 3.29851 6.59172C3.29851 6.59172 2.8125 7.74078 2.8125 9C2.8125 9 2.8125 10.2592 3.29851 11.4083C3.29851 11.4083 3.76813 12.5186 4.62478 13.3752C4.62478 13.3752 5.48143 14.2319 6.59172 14.7015C6.59172 14.7015 7.74079 15.1875 9 15.1875C9 15.1875 10.2592 15.1875 11.4083 14.7015C11.4083 14.7015 12.5186 14.2319 13.3752 13.3752C13.3752 13.3752 14.2319 12.5186 14.7015 11.4083C14.7015 11.4083 15.1875 10.2592 15.1875 9C15.1875 9 15.1875 7.74079 14.7015 6.59172C14.7015 6.59172 14.2319 5.48143 13.3752 4.62478C13.3752 4.62478 12.5186 3.76813 11.4083 3.29851C11.4083 3.29851 10.2592 2.8125 9 2.8125Z" fill="black"/>
<path d="M9 12.9375H9.5625C9.87316 12.9375 10.125 12.6857 10.125 12.375C10.125 12.0643 9.87316 11.8125 9.5625 11.8125V8.4375C9.5625 8.12684 9.31066 7.875 9 7.875H8.4375C8.12684 7.875 7.875 8.12684 7.875 8.4375C7.875 8.74816 8.12684 9 8.4375 9V12.375C8.4375 12.6857 8.68934 12.9375 9 12.9375Z" fill="black"/>
<path d="M9.70312 5.90625C9.70312 6.37224 9.32533 6.75 8.85938 6.75C8.39342 6.75 8.01562 6.37224 8.01562 5.90625C8.01562 5.44026 8.39342 5.0625 8.85938 5.0625C9.32533 5.0625 9.70312 5.44026 9.70312 5.90625Z" fill="black" />
</svg>
