<svg width="14" height="14" viewBox="0 0 14 14" fill="none" xmlns="http://www.w3.org/2000/svg">
<path fill-rule="evenodd" clip-rule="evenodd" d="M7 0.5C7 0.5 8.32209 0.5 9.53025 1.01101C9.53025 1.01101 10.6968 1.50442 11.5962 2.40381C11.5962 2.40381 12.4956 3.30319 12.989 4.46975C12.989 4.46975 13.5 5.67791 13.5 7C13.5 7 13.5 8.32208 12.989 9.53025C12.989 9.53025 12.4956 10.6968 11.5962 11.5962C11.5962 11.5962 10.6968 12.4956 9.53025 12.989C9.53025 12.989 8.32208 13.5 7 13.5C7 13.5 5.67791 13.5 4.46975 12.989C4.46975 12.989 3.30319 12.4956 2.40381 11.5962C2.40381 11.5962 1.50442 10.6968 1.01101 9.53025C1.01101 9.53025 0.5 8.32209 0.5 7C0.5 7 0.5 5.67791 1.01101 4.46975C1.01101 4.46975 1.50442 3.30319 2.40381 2.40381C2.40381 2.40381 3.30319 1.50442 4.46975 1.01101C4.46975 1.01101 5.67791 0.5 7 0.5ZM7 1.5C7 1.5 5.8807 1.5 4.85931 1.93201C4.85931 1.93201 3.87238 2.34945 3.11091 3.11091C3.11091 3.11091 2.34945 3.87238 1.93201 4.85931C1.93201 4.85931 1.5 5.8807 1.5 7C1.5 7 1.5 8.1193 1.93201 9.14069C1.93201 9.14069 2.34945 10.1276 3.11091 10.8891C3.11091 10.8891 3.87238 11.6506 4.85931 12.068C4.85931 12.068 5.8807 12.5 7 12.5C7 12.5 8.1193 12.5 9.1407 12.068C9.1407 12.068 10.1276 11.6506 10.8891 10.8891C10.8891 10.8891 11.6506 10.1276 12.068 9.14069C12.068 9.14069 12.5 8.1193 12.5 7C12.5 7 12.5 5.8807 12.068 4.85931C12.068 4.85931 11.6506 3.87238 10.8891 3.11091C10.8891 3.11091 10.1276 2.34945 9.1407 1.93201C9.1407 1.93201 8.1193 1.5 7 1.5Z" fill="#27AE60"/>
<path d="M7 10.5H7.5C7.77614 10.5 8 10.2761 8 10C8 9.72386 7.77614 9.5 7.5 9.5V6.5C7.5 6.22386 7.27614 6 7 6H6.5C6.22386 6 6 6.22386 6 6.5C6 6.77614 6.22386 7 6.5 7V10C6.5 10.2761 6.72386 10.5 7 10.5Z" fill="#27AE60"/>
<path d="M7.625 4.25C7.625 4.66422 7.28918 5 6.875 5C6.46082 5 6.125 4.66422 6.125 4.25C6.125 3.83578 6.46082 3.5 6.875 3.5C7.28918 3.5 7.625 3.83578 7.625 4.25Z" fill="#27AE60"/>
</svg>
