<svg width="18" height="18" viewBox="0 0 18 18" fill="none" xmlns="http://www.w3.org/2000/svg">
<path d="M8.59844 5.02158L9.99063 3.62939C10.5801 3.09215 11.3538 2.80269 12.1512 2.82114C12.9485 2.8396 13.708 3.16457 14.272 3.72851C14.8359 4.29245 15.1609 5.05201 15.1793 5.84933C15.1978 6.64665 14.9083 7.42043 14.3711 8.00986L12.3813 9.99268C12.0945 10.2805 11.7537 10.5089 11.3784 10.6648C11.0032 10.8206 10.6009 10.9008 10.1945 10.9008C9.78821 10.9008 9.38588 10.8206 9.01063 10.6648C8.63538 10.5089 8.29459 10.2805 8.00781 9.99268" stroke="black" stroke-opacity="0.4" stroke-width="1.2" stroke-linecap="round" stroke-linejoin="round"/>
<path d="M9.4001 12.9808L8.00791 14.373C7.41847 14.9103 6.6447 15.1997 5.84737 15.1813C5.05005 15.1628 4.2905 14.8378 3.72656 14.2739C3.16262 13.7099 2.83765 12.9504 2.81919 12.1531C2.80073 11.3558 3.0902 10.582 3.62744 9.99254L5.61728 8.00973C5.90406 7.72188 6.24485 7.49348 6.6201 7.33763C6.99535 7.18179 7.39768 7.10156 7.804 7.10156C8.21033 7.10156 8.61266 7.18179 8.98791 7.33763C9.36316 7.49348 9.70394 7.72188 9.99072 8.00973" stroke="black" stroke-opacity="0.4" stroke-width="1.2" stroke-linecap="round" stroke-linejoin="round"/>
</svg>
