<svg width="111" height="26" viewBox="0 0 111 26" fill="none" xmlns="http://www.w3.org/2000/svg">
<path d="M44.958 9.58026C43.8816 8.91407 42.6171 8.5748 41.1953 8.5748C39.8999 8.5748 38.7588 8.8678 37.8026 9.44147C37.0378 9.90102 36.4332 10.5055 36.0045 11.2427V4.12118C36.0045 3.58761 35.8318 3.15891 35.4895 2.8474C35.1533 2.53898 34.7493 2.38477 34.2928 2.38477C33.8363 2.38477 33.4354 2.53898 33.0961 2.8474C32.7538 3.15891 32.5811 3.58761 32.5811 4.12118V21.7444C32.5811 22.278 32.7538 22.7067 33.0961 23.0182C33.4323 23.3266 33.8363 23.4808 34.2928 23.4808C34.7493 23.4808 35.1502 23.3266 35.4895 23.0182C35.8318 22.7067 36.0045 22.278 36.0045 21.7444V21.1183C36.5134 21.8246 37.1673 22.4014 37.9569 22.8362C38.9037 23.3544 39.9369 23.6196 41.0318 23.6196C42.4722 23.6196 43.7614 23.2927 44.8624 22.6419C45.9635 21.9943 46.824 21.0875 47.4162 19.9463C48.0083 18.8113 48.3075 17.5252 48.3075 16.125C48.3075 14.7247 48.0176 13.4633 47.447 12.319C46.8733 11.1717 46.0375 10.2495 44.9611 9.58334L44.958 9.58026ZM40.4026 11.693C41.2446 11.693 42.0126 11.8842 42.6881 12.2604C43.3604 12.6367 43.8971 13.1641 44.2795 13.8272C44.665 14.4934 44.8593 15.2552 44.8593 16.0972C44.8593 16.9392 44.665 17.6948 44.2795 18.3518C43.894 19.0087 43.3604 19.53 42.6881 19.9062C42.0157 20.2825 41.2477 20.4737 40.4026 20.4737C39.5576 20.4737 38.8019 20.2794 38.1481 19.8939C37.4942 19.5084 36.9699 18.981 36.5936 18.3271C36.2174 17.6733 36.0292 16.9238 36.0292 16.1003C36.0292 15.2768 36.2204 14.5212 36.5967 13.8581C36.973 13.195 37.4942 12.6645 38.1512 12.279C38.8081 11.8934 39.5637 11.6991 40.4057 11.6991L40.4026 11.693Z" fill="black" fill-opacity="0.8"/>
<path d="M62.005 10.3758C60.6911 9.16372 59.001 8.54688 56.9901 8.54688C55.5868 8.54688 54.3068 8.87997 53.1872 9.53691C52.0677 10.1939 51.1825 11.1099 50.5533 12.2572C49.9241 13.4014 49.6064 14.6937 49.6064 16.0971C49.6064 17.5744 49.9334 18.8944 50.5811 20.0202C51.2287 21.149 52.1386 22.0373 53.289 22.6572C54.4333 23.2771 55.7533 23.5886 57.2091 23.5886C58.4458 23.5886 59.5685 23.3296 60.54 22.8207C61.5085 22.3118 62.3381 21.6425 63.0012 20.8313C63.2603 20.5137 63.3898 20.1775 63.3898 19.8351C63.3898 19.4311 63.2387 19.0702 62.9365 18.7587C62.6342 18.4472 62.2857 18.2899 61.8971 18.2899C61.4283 18.2899 61.0366 18.5058 60.7374 18.9253C59.8615 20.0973 58.6833 20.6925 57.2337 20.6925C56.4781 20.6925 55.7718 20.5322 55.1334 20.2176C54.498 19.903 53.9799 19.4589 53.5974 18.8914C53.2427 18.3701 53.0454 17.778 53.0022 17.1272H62.6342C63.2233 17.1272 63.6674 16.9699 63.9604 16.6553C64.2534 16.3407 64.3737 15.8812 64.3151 15.2921C64.093 13.2441 63.3158 11.591 62.0019 10.382L62.005 10.3758ZM54.2575 12.3775C54.9884 11.7236 55.9075 11.3936 56.9932 11.3936C58.0788 11.3936 59.0472 11.7236 59.769 12.3775C60.4506 12.9943 60.8546 13.7777 60.9687 14.7153H53.0454C53.1626 13.7808 53.5697 12.9943 54.2575 12.3806V12.3775Z" fill="black" fill-opacity="0.8"/>
<path d="M71.1383 12.239C71.8323 11.9151 72.5972 11.7486 73.4052 11.7486C74.3212 11.7486 75.1787 11.9552 75.9497 12.3562C76.2057 12.495 76.4524 12.5659 76.6776 12.5659C77.0508 12.5659 77.3592 12.424 77.5998 12.1434C77.8311 11.8689 77.9514 11.5389 77.9514 11.1564C77.9514 10.518 77.6306 10.006 77.0014 9.62974C75.8017 8.94813 74.4354 8.59961 72.9426 8.59961C71.6534 8.59961 70.4197 8.87411 69.2755 9.42001C68.125 9.96592 67.1813 10.811 66.4688 11.9306C65.7564 13.0501 65.3955 14.4411 65.3955 16.0634C65.3955 17.6857 65.7564 19.0829 66.4688 20.2117C67.1813 21.3405 68.1281 22.1949 69.2878 22.75C70.4413 23.3021 71.6781 23.5828 72.9704 23.5828C74.4446 23.5828 75.8017 23.2373 77.0045 22.5526C77.2975 22.3768 77.5227 22.1548 77.6738 21.8988C77.8218 21.6397 77.8989 21.3652 77.8989 21.0845C77.8989 20.7052 77.7756 20.3628 77.535 20.0729C77.1495 19.6103 76.6067 19.4622 75.9281 19.8015C75.1355 20.2055 74.2688 20.4122 73.3528 20.4122C72.5447 20.4122 71.7829 20.2395 71.089 19.8971C70.3981 19.5579 69.843 19.0582 69.4328 18.4105C69.0226 17.7659 68.8159 16.9856 68.8159 16.0943C68.8159 15.1474 69.0318 14.3393 69.4574 13.6978C69.8861 13.0532 70.4506 12.5598 71.1414 12.239H71.1383Z" fill="black" fill-opacity="0.8"/>
<path d="M90.6139 9.23482C89.7226 8.78144 88.7356 8.55013 87.6808 8.55013C86.5674 8.55013 85.5959 8.78144 84.794 9.23791C84.1463 9.60802 83.6004 10.12 83.1686 10.7646V4.12118C83.1686 3.58761 82.9959 3.15891 82.6535 2.8474C82.3174 2.53898 81.9133 2.38477 81.4569 2.38477C81.0004 2.38477 80.5995 2.53898 80.2602 2.8474C79.9178 3.15891 79.7451 3.58761 79.7451 4.12118V21.7444C79.7451 22.278 79.9178 22.7067 80.2602 23.0182C80.5964 23.3266 81.0004 23.4808 81.4569 23.4808C81.9133 23.4808 82.3143 23.3266 82.6535 23.0182C82.9959 22.7067 83.1686 22.278 83.1686 21.7444V15.4989C83.1871 14.2714 83.5171 13.2967 84.1525 12.5997C84.7817 11.9088 85.6576 11.5603 86.7525 11.5603C87.7086 11.5603 88.5136 11.8533 89.1427 12.4332C89.7688 13.0099 90.0896 13.9845 90.0896 15.3354V21.692C90.0896 22.2441 90.2685 22.6851 90.617 23.0059C90.9624 23.3236 91.3696 23.4839 91.826 23.4839C92.2825 23.4839 92.6896 23.3236 93.035 23.0059C93.3866 22.6851 93.5624 22.2441 93.5624 21.692V14.8728C93.5624 13.4695 93.2941 12.2851 92.7667 11.3475C92.2362 10.4068 91.5114 9.69746 90.617 9.24099L90.6139 9.23482Z" fill="black" fill-opacity="0.8"/>
<path d="M109.4 12.2264C108.734 11.079 107.802 10.1692 106.627 9.52149C105.455 8.8738 104.123 8.54688 102.667 8.54688C101.211 8.54688 99.8789 8.8738 98.7038 9.52149C97.5287 10.1692 96.5973 11.079 95.9311 12.2264C95.2649 13.3737 94.9287 14.666 94.9287 16.0693C94.9287 17.4726 95.2649 18.7865 95.9311 19.9246C96.5973 21.0627 97.5287 21.9663 98.7038 22.614C99.8758 23.2617 101.208 23.5886 102.667 23.5886C104.126 23.5886 105.455 23.2617 106.627 22.614C107.802 21.9663 108.734 21.0627 109.4 19.9246C110.066 18.7865 110.402 17.4911 110.402 16.0693C110.402 14.6475 110.066 13.3737 109.4 12.2264ZM104.922 19.8906C104.249 20.2762 103.491 20.4705 102.667 20.4705C101.844 20.4705 101.088 20.2762 100.425 19.8906C99.7586 19.5051 99.2281 18.9746 98.8457 18.3084C98.4601 17.6453 98.2658 16.8897 98.2658 16.0662C98.2658 15.2427 98.4601 14.4902 98.8457 13.824C99.2312 13.1609 99.7617 12.6273 100.425 12.2449C101.088 11.8593 101.844 11.665 102.667 11.665C103.491 11.665 104.249 11.8593 104.922 12.2449C105.594 12.6304 106.124 13.1609 106.501 13.824C106.877 14.4902 107.068 15.2427 107.068 16.0662C107.068 16.8897 106.877 17.6453 106.501 18.3084C106.124 18.9715 105.594 19.502 104.922 19.8876V19.8906Z" fill="black" fill-opacity="0.8"/>
<path d="M25.9753 6.49846C25.9753 2.90842 23.0638 0 19.4769 0H1.54211C0.690866 0 0 0.690866 0 1.54211V24.4579C0 25.3091 0.690866 26 1.54211 26H19.3319C22.8294 26 25.8149 23.2951 25.9692 19.7976C26.1049 16.7658 24.1618 14.1658 21.4446 13.3023C21.2842 17.8268 17.5523 21.4631 12.9877 21.4631C8.42301 21.4631 4.52456 17.6664 4.52456 13H8.45077C8.45077 15.5013 10.4864 17.5369 12.9877 17.5369C15.489 17.5369 17.5246 15.5013 17.5246 13H19.4769C23.0669 13 25.9753 10.0885 25.9753 6.50154V6.49846Z" fill="black" fill-opacity="0.8"/>
</svg>
