<svg xmlns="http://www.w3.org/2000/svg" width="277" height="66" viewBox="0 0 277 66" fill="none">
<path d="M112.8 24.0368C110.099 22.3654 106.926 21.5142 103.359 21.5142C100.109 21.5142 97.2459 22.2493 94.847 23.6886C92.9279 24.8415 91.4112 26.3581 90.3356 28.2075V10.3408C90.3356 9.00213 89.9023 7.92657 89.0433 7.14505C88.1998 6.37127 87.1861 5.98438 86.0408 5.98438C84.8956 5.98438 83.8896 6.37127 83.0384 7.14505C82.1794 7.92657 81.7461 9.00213 81.7461 10.3408V54.5548C81.7461 55.8934 82.1794 56.969 83.0384 57.7505C83.8819 58.5243 84.8956 58.9112 86.0408 58.9112C87.1861 58.9112 88.1921 58.5243 89.0433 57.7505C89.9023 56.969 90.3356 55.8934 90.3356 54.5548V52.984C91.6124 54.756 93.2529 56.203 95.2339 57.294C97.6096 58.5939 100.202 59.2594 102.949 59.2594C106.563 59.2594 109.797 58.4392 112.56 56.8065C115.323 55.1816 117.482 52.9066 118.967 50.0436C120.453 47.1961 121.204 43.9694 121.204 40.4565C121.204 36.9435 120.476 33.7787 119.045 30.908C117.605 28.0295 115.508 25.7159 112.808 24.0445L112.8 24.0368ZM101.37 29.3372C103.483 29.3372 105.41 29.8169 107.104 30.7609C108.791 31.705 110.138 33.0281 111.097 34.6918C112.065 36.3631 112.552 38.2744 112.552 40.3868C112.552 42.4992 112.065 44.395 111.097 46.0432C110.13 47.6913 108.791 48.999 107.104 49.943C105.418 50.8871 103.491 51.3668 101.37 51.3668C99.2501 51.3668 97.3542 50.8793 95.7137 49.9121C94.0732 48.9449 92.7577 47.6217 91.8136 45.9813C90.8695 44.3408 90.3975 42.4606 90.3975 40.3946C90.3975 38.3285 90.8773 36.4328 91.8213 34.7691C92.7654 33.1055 94.0732 31.7746 95.7214 30.8074C97.3697 29.8401 99.2656 29.3527 101.378 29.3527L101.37 29.3372Z" fill="black"/>
<path d="M155.569 26.026C152.272 22.9851 148.032 21.4375 142.986 21.4375C139.465 21.4375 136.254 22.2732 133.445 23.9213C130.636 25.5695 128.415 27.8676 126.837 30.7461C125.258 33.6169 124.461 36.859 124.461 40.3797C124.461 44.0862 125.281 47.398 126.906 50.2223C128.531 53.0543 130.814 55.2828 133.7 56.8381C136.571 58.3934 139.883 59.1749 143.536 59.1749C146.639 59.1749 149.456 58.525 151.893 57.2482C154.323 55.9715 156.405 54.2924 158.068 52.2573C158.718 51.4603 159.043 50.6169 159.043 49.758C159.043 48.7443 158.664 47.839 157.906 47.0575C157.147 46.276 156.273 45.8813 155.298 45.8813C154.122 45.8813 153.139 46.423 152.388 47.4753C150.191 50.4157 147.235 51.9091 143.598 51.9091C141.702 51.9091 139.93 51.5067 138.328 50.7175C136.734 49.9282 135.434 48.814 134.474 47.3902C133.584 46.0825 133.089 44.5969 132.981 42.9642H157.147C158.625 42.9642 159.74 42.5695 160.475 41.7803C161.21 40.991 161.512 39.8381 161.365 38.3602C160.808 33.2222 158.858 29.0747 155.561 26.0415L155.569 26.026ZM136.13 31.0479C137.964 29.4075 140.27 28.5795 142.994 28.5795C145.718 28.5795 148.148 29.4075 149.959 31.0479C151.669 32.5955 152.682 34.5609 152.969 36.9132H133.089C133.383 34.5686 134.405 32.5955 136.13 31.0556V31.0479Z" fill="black"/>
<path d="M178.483 30.701C180.224 29.8885 182.143 29.4706 184.171 29.4706C186.469 29.4706 188.62 29.9891 190.555 30.995C191.197 31.3432 191.816 31.5212 192.381 31.5212C193.317 31.5212 194.091 31.1652 194.695 30.4611C195.275 29.7724 195.577 28.9445 195.577 27.985C195.577 26.3832 194.772 25.0988 193.193 24.1548C190.183 22.4447 186.755 21.5703 183.01 21.5703C179.775 21.5703 176.68 22.259 173.809 23.6286C170.923 24.9982 168.555 27.1183 166.767 29.9272C164.98 32.736 164.074 36.2258 164.074 40.2959C164.074 44.366 164.98 47.8712 166.767 50.7033C168.555 53.5353 170.93 55.6787 173.84 57.0715C176.734 58.4566 179.837 59.1607 183.079 59.1607C186.778 59.1607 190.183 58.2941 193.201 56.5763C193.936 56.1353 194.501 55.5781 194.88 54.9359C195.252 54.2859 195.445 53.5972 195.445 52.8931C195.445 51.9413 195.136 51.0824 194.532 50.3551C193.565 49.1944 192.203 48.823 190.5 49.6741C188.512 50.6878 186.337 51.2062 184.039 51.2062C182.012 51.2062 180.1 50.7729 178.359 49.914C176.626 49.0629 175.233 47.8093 174.204 46.1844C173.174 44.5672 172.656 42.6095 172.656 40.3733C172.656 37.9977 173.198 35.9704 174.266 34.361C175.341 32.7438 176.757 31.5057 178.491 30.701H178.483Z" fill="black"/>
<path d="M227.352 23.1701C225.115 22.0327 222.639 21.4523 219.993 21.4523C217.199 21.4523 214.762 22.0327 212.75 23.1779C211.125 24.1064 209.755 25.3909 208.672 27.0081V10.3408C208.672 9.00213 208.238 7.92657 207.379 7.14505C206.536 6.37127 205.522 5.98438 204.377 5.98438C203.232 5.98438 202.226 6.37127 201.374 7.14505C200.515 7.92657 200.082 9.00213 200.082 10.3408V54.5548C200.082 55.8934 200.515 56.969 201.374 57.7505C202.218 58.5243 203.232 58.9112 204.377 58.9112C205.522 58.9112 206.528 58.5243 207.379 57.7505C208.238 56.969 208.672 55.8934 208.672 54.5548V38.8857C208.718 35.806 209.546 33.3608 211.14 31.6121C212.719 29.8788 214.916 29.0044 217.663 29.0044C220.062 29.0044 222.082 29.7395 223.661 31.1943C225.231 32.6412 226.036 35.0864 226.036 38.4756V54.4233C226.036 55.8083 226.485 56.9148 227.36 57.7196C228.226 58.5166 229.248 58.9189 230.393 58.9189C231.538 58.9189 232.56 58.5166 233.426 57.7196C234.308 56.9148 234.75 55.8083 234.75 54.4233V37.3149C234.75 33.7942 234.076 30.8228 232.753 28.4705C231.422 26.1105 229.604 24.3308 227.36 23.1856L227.352 23.1701Z" fill="black"/>
<path d="M274.484 30.6687C272.812 27.7903 270.475 25.5076 267.527 23.8827C264.587 22.2577 261.244 21.4375 257.591 21.4375C253.939 21.4375 250.596 22.2577 247.647 23.8827C244.699 25.5076 242.362 27.7903 240.691 30.6687C239.019 33.5472 238.176 36.7894 238.176 40.3101C238.176 43.8308 239.019 47.1271 240.691 49.9824C242.362 52.8377 244.699 55.1048 247.647 56.7298C250.588 58.3547 253.931 59.1749 257.591 59.1749C261.251 59.1749 264.587 58.3547 267.527 56.7298C270.475 55.1048 272.812 52.8377 274.484 49.9824C276.155 47.1271 276.999 43.8772 276.999 40.3101C276.999 36.7429 276.155 33.5472 274.484 30.6687ZM263.248 49.8973C261.561 50.8645 259.657 51.352 257.591 51.352C255.525 51.352 253.629 50.8645 251.965 49.8973C250.294 48.93 248.963 47.5991 248.003 45.9278C247.036 44.2641 246.549 42.3684 246.549 40.3024C246.549 38.2363 247.036 36.3483 248.003 34.6769C248.971 33.0133 250.302 31.6747 251.965 30.7152C253.629 29.7479 255.525 29.2605 257.591 29.2605C259.657 29.2605 261.561 29.7479 263.248 30.7152C264.935 31.6824 266.266 33.0133 267.21 34.6769C268.154 36.3483 268.634 38.2363 268.634 40.3024C268.634 42.3684 268.154 44.2641 267.21 45.9278C266.266 47.5914 264.935 48.9223 263.248 49.8895V49.8973Z" fill="black"/>
<path d="M65.1719 16.3036C65.1719 7.29678 57.8669 0 48.8673 0H3.86914C1.73338 0 0 1.73328 0 3.86892V61.3611C0 63.4967 1.73338 65.23 3.86914 65.23H48.5036C57.2788 65.23 64.7695 58.4439 65.1564 49.6692C65.4969 42.0629 60.6218 35.5399 53.8043 33.3733C53.4019 44.7247 44.0386 53.8476 32.5859 53.8476C21.1333 53.8476 11.3521 44.3224 11.3521 32.615H21.2029C21.2029 38.8904 26.3102 43.9974 32.5859 43.9974C38.8617 43.9974 43.969 38.8904 43.969 32.615H48.8673C57.8747 32.615 65.1719 25.3105 65.1719 16.3114V16.3036Z" fill="black"/>
</svg>
