<svg width="15" height="15" viewBox="0 0 15 15" fill="none" xmlns="http://www.w3.org/2000/svg">
<path opacity="0.2" d="M12.6562 12.1875V2.8125C12.6562 2.55362 12.4464 2.34375 12.1875 2.34375L2.8125 2.34375C2.55362 2.34375 2.34375 2.55362 2.34375 2.8125V12.1875C2.34375 12.4464 2.55362 12.6562 2.8125 12.6562H12.1875C12.4464 12.6562 12.6562 12.4464 12.6562 12.1875Z" fill="black"/>
<path d="M12.6562 12.1875V2.8125C12.6562 2.55362 12.4464 2.34375 12.1875 2.34375L2.8125 2.34375C2.55362 2.34375 2.34375 2.55362 2.34375 2.8125V12.1875C2.34375 12.4464 2.55362 12.6562 2.8125 12.6562H12.1875C12.4464 12.6562 12.6562 12.4464 12.6562 12.1875Z" stroke="black" stroke-linecap="round" stroke-linejoin="round"/>
<path d="M7.85742 5.51367L9.84375 7.5L7.85742 9.48633" stroke="black" stroke-linecap="round" stroke-linejoin="round"/>
<path d="M5.15625 7.5H9.84375" stroke="black" stroke-linecap="round" stroke-linejoin="round"/>
</svg>
