<svg width="18" height="14" viewBox="0 0 18 14" fill="none" xmlns="http://www.w3.org/2000/svg">
<path fill-rule="evenodd" clip-rule="evenodd" d="M0.875 12V1.375C0.875 1.02982 1.15482 0.75 1.5 0.75H16.5C16.8452 0.75 17.125 1.02982 17.125 1.375V12C17.125 12 17.125 12.5178 16.7589 12.8839C16.7589 12.8839 16.3928 13.25 15.875 13.25H2.125C2.125 13.25 1.60723 13.25 1.24112 12.8839C1.24112 12.8839 0.875 12.5178 0.875 12ZM2.125 12H15.875V2H2.125V12Z" fill="#FF4747"/>
<path d="M1.92233 0.914279C1.80706 0.808616 1.65637 0.75 1.5 0.75C1.49095 0.75 1.4819 0.750197 1.47285 0.75059C1.30725 0.75779 1.15129 0.830481 1.03928 0.952672C0.933616 1.06794 0.875 1.21863 0.875 1.375C0.875 1.38405 0.875197 1.3931 0.87559 1.40215C0.88279 1.56775 0.955481 1.72371 1.07767 1.83572L8.57767 8.71072C8.81662 8.92976 9.18338 8.92976 9.42233 8.71072L16.9219 1.8361C17.0511 1.71772 17.125 1.55019 17.125 1.375L17.125 1.3698C17.1237 1.21523 17.0652 1.06662 16.9607 0.952672C16.8487 0.830481 16.6928 0.75779 16.5271 0.75059C16.5181 0.750197 16.5091 0.75 16.5 0.75L16.4971 0.750007C16.3417 0.750722 16.1922 0.809286 16.0777 0.914278L9 7.40214L1.92233 0.914279Z" fill="#FF4747"/>
</svg>
