<svg width="30" height="22" viewBox="0 0 30 22" fill="none" xmlns="http://www.w3.org/2000/svg">
<path fill-rule="evenodd" clip-rule="evenodd" d="M15.0001 6.00146C15.0001 6.00146 17.0712 6.00146 18.5357 7.46593C18.5357 7.46593 20.0001 8.9304 20.0001 11.0015C20.0001 11.0015 20.0001 13.0725 18.5357 14.537C18.5357 14.537 17.0712 16.0015 15.0001 16.0015C15.0001 16.0015 12.9291 16.0015 11.4646 14.537C11.4646 14.537 10.0001 13.0725 10.0001 11.0015C10.0001 11.0015 10.0001 8.9304 11.4646 7.46593C11.4646 7.46593 12.9291 6.00146 15.0001 6.00146ZM15.0001 8.00146C15.0001 8.00146 13.7575 8.00146 12.8788 8.88014C12.8788 8.88014 12.0001 9.75882 12.0001 11.0015C12.0001 11.0015 12.0001 12.2441 12.8788 13.1228C12.8788 13.1228 13.7575 14.0015 15.0001 14.0015C15.0001 14.0015 16.2428 14.0015 17.1214 13.1228C17.1214 13.1228 18.0001 12.2441 18.0001 11.0015C18.0001 11.0015 18.0001 9.75882 17.1214 8.88014C17.1214 8.88014 16.2428 8.00146 15.0001 8.00146Z" fill="#1C1C1C"/>
<path d="M9.34433 5.34641C9.53187 5.15888 9.63762 4.90413 9.63762 4.63892C9.63762 4.37389 9.53241 4.1197 9.34511 3.9322C9.15758 3.74466 8.90283 3.63892 8.63762 3.63892C8.37259 3.63892 8.1184 3.74412 7.9309 3.93142C6.54836 5.31244 5.79081 7.11375 5.79081 7.11375C4.99988 8.97521 4.99988 11.0014 4.99988 11.0014C4.99988 13.0276 5.79225 14.8925 5.79225 14.8925C6.54836 16.6904 7.9309 18.0714 7.9309 18.0714C8.1184 18.2587 8.37259 18.3639 8.63762 18.3639C8.90283 18.3638 9.15768 18.2583 9.34511 18.0706C9.53241 17.8831 9.63761 17.6289 9.63762 17.3639C9.63747 17.0987 9.53197 16.8439 9.34433 16.6564C8.23969 15.553 7.63298 14.1104 7.63298 14.1104C6.99988 12.6203 6.99988 11.0014 6.99988 11.0014C6.99988 9.38248 7.63442 7.88908 7.63442 7.88908C8.23969 6.44984 9.34433 5.34641 9.34433 5.34641Z" fill="#1C1C1C"/>
<path d="M22.0697 3.93181C23.452 5.31269 24.208 7.11035 24.208 7.11035C25.0003 8.9752 25.0003 11.0014 25.0003 11.0014C25.0003 13.0276 24.2094 14.8891 24.2094 14.8891C23.4519 16.6904 22.0693 18.0714 22.0693 18.0714C21.8943 18.2462 21.6608 18.3499 21.4138 18.3626C21.3968 18.3635 21.3797 18.3639 21.3626 18.3639C21.0972 18.3639 20.8427 18.2584 20.6551 18.0706C20.4794 17.8947 20.3755 17.6597 20.3637 17.4114C20.363 17.3956 20.3626 17.3797 20.3626 17.3639C20.3628 17.0987 20.4683 16.8438 20.6559 16.6564C21.7605 15.553 22.3658 14.1138 22.3658 14.1138C23.0003 12.6203 23.0003 11.0014 23.0003 11.0014C23.0003 9.38248 22.3672 7.89248 22.3672 7.89248C21.7605 6.44984 20.6559 5.34641 20.6559 5.34641C20.4681 5.15884 20.3626 4.90432 20.3626 4.63892C20.3626 4.37594 20.4662 4.12355 20.6509 3.9364L20.6551 3.9322C20.8207 3.76639 21.0393 3.66402 21.2728 3.64296C21.3024 3.64028 21.3322 3.63893 21.3621 3.63892C21.6228 3.63892 21.8738 3.74075 22.0605 3.92272L22.0697 3.93181Z" fill="#1C1C1C"/>
<path d="M5.8072 1.80867L5.81177 1.80408C5.99651 1.61693 6.1001 1.36454 6.1001 1.10156C6.1001 0.836028 5.99449 0.581397 5.80656 0.393808L5.79799 0.385362C5.61125 0.203398 5.36083 0.101563 5.1001 0.101562C5.07041 0.10159 5.03981 0.10294 5.01024 0.105608C4.7767 0.126677 4.558 0.229146 4.39234 0.395106C2.32494 2.4665 1.17976 5.16043 1.17976 5.16043C0 7.96368 0 11.0016 0 11.0016C0 14.0394 1.1784 16.8395 1.1784 16.8395C2.32458 19.5365 4.39234 21.608 4.39234 21.608C4.5797 21.7957 4.83396 21.9013 5.09918 21.9016C5.11489 21.9016 5.13152 21.9012 5.14721 21.9005C5.39554 21.8887 5.6306 21.7849 5.80655 21.6093C5.99448 21.4217 6.10009 21.1671 6.1001 20.9016C6.1001 20.8846 6.09967 20.8677 6.0988 20.8507C6.08623 20.6037 5.98258 20.3701 5.80785 20.1951C4.01375 18.3977 3.0218 16.0637 3.0218 16.0637C2 13.6357 2 11.0016 2 11.0016C2 8.36739 3.02043 5.9427 3.02043 5.9427C4.01357 3.60585 5.8072 1.80867 5.8072 1.80867Z" fill="#1C1C1C"/>
<path d="M25.6085 0.395718L25.6073 0.394456C25.4199 0.207144 25.166 0.101806 24.9011 0.101563C24.6362 0.101563 24.3812 0.206667 24.1937 0.393806C24.0062 0.581342 23.9001 0.836346 23.9001 1.10156C23.9001 1.36646 24.0053 1.62054 24.1924 1.80802C25.9865 3.60543 26.9784 5.93946 26.9784 5.93946C28.0002 8.36739 28.0002 11.0016 28.0002 11.0016C28.0002 13.6357 26.9798 16.0604 26.9798 16.0604C25.9865 18.3977 24.1924 20.1951 24.1924 20.1951C24.0053 20.3826 23.9001 20.6367 23.9001 20.9016C23.9004 21.1668 24.006 21.422 24.1937 21.6093C24.3812 21.7965 24.6352 21.9016 24.9001 21.9016C25.1654 21.9013 25.4205 21.7957 25.6079 21.608C27.6757 19.5365 28.8205 16.8427 28.8205 16.8427C30.0002 14.0394 30.0002 11.0016 30.0002 11.0016C30.0002 7.96368 28.8218 5.16366 28.8218 5.16366C27.6758 2.46706 25.6085 0.395718 25.6085 0.395718Z" fill="#1C1C1C"/>
</svg>
