<?xml version="1.0" standalone="no"?>
<!DOCTYPE svg PUBLIC "-//W3C//DTD SVG 20010904//EN"
 "http://www.w3.org/TR/2001/REC-SVG-20010904/DTD/svg10.dtd">
<svg version="1.0" xmlns="http://www.w3.org/2000/svg"
 width="360.000000pt" height="360.000000pt" viewBox="0 0 360.000000 360.000000"
 preserveAspectRatio="xMidYMid meet">

<g transform="translate(0.000000,360.000000) scale(0.100000,-0.100000)"
fill="#000000" stroke="none">
<path d="M985 2692 c-54 -18 -75 -50 -75 -112 0 -33 6 -48 29 -71 l29 -29 821
0 c614 0 827 3 846 12 51 23 72 109 39 157 -37 52 -23 51 -876 50 -436 -1
-802 -4 -813 -7z"/>
<path d="M965 2008 c-62 -34 -75 -116 -26 -170 l29 -33 832 0 832 0 29 33 c43
47 41 102 -5 148 l-34 34 -818 0 c-576 -1 -825 -4 -839 -12z"/>
<path d="M974 1336 c-43 -19 -64 -53 -64 -104 0 -35 6 -49 29 -73 l29 -29 829
0 c769 0 830 2 849 18 72 58 53 167 -34 192 -24 6 -314 10 -822 10 -639 -1
-791 -3 -816 -14z"/>
</g>
</svg>
