<svg width="24" height="24" viewBox="0 0 24 24" fill="none" xmlns="http://www.w3.org/2000/svg">
<rect width="24" height="24" rx="8" fill="#E5ECF6"/>
<rect width="24" height="24" rx="8" fill="#FFE999"/>
<path d="M6.36873 16.9937L9.73123 7.73742C9.76001 7.65822 9.80835 7.58757 9.87175 7.53205C9.93515 7.47653 10.0116 7.43793 10.0939 7.41985C10.1762 7.40177 10.2617 7.40478 10.3426 7.42861C10.4234 7.45245 10.4969 7.49633 10.5562 7.55617L16.4437 13.4437C16.5036 13.503 16.5475 13.5765 16.5713 13.6573C16.5951 13.7382 16.5981 13.8237 16.5801 13.906C16.562 13.9883 16.5234 14.0647 16.4679 14.1281C16.4123 14.1916 16.3417 14.2399 16.2625 14.2687L7.00623 17.6312C6.91718 17.6652 6.82017 17.6727 6.72694 17.6529C6.6337 17.633 6.54821 17.5865 6.4808 17.5191C6.41339 17.4517 6.36693 17.3662 6.34704 17.273C6.32716 17.1797 6.33469 17.0827 6.36873 16.9937V16.9937Z" stroke="#1C1C1C" stroke-linecap="round" stroke-linejoin="round"/>
<path d="M14.5 8.5C14.5 8.5 14.5 7 16 7C17.5 7 17.5 5.5 17.5 5.5" stroke="#1C1C1C" stroke-linecap="round" stroke-linejoin="round"/>
<path d="M10.4001 16.3996L7.6001 13.5996" stroke="#1C1C1C" stroke-linecap="round" stroke-linejoin="round"/>
<path d="M13 5V6.5" stroke="#1C1C1C" stroke-linecap="round" stroke-linejoin="round"/>
<path d="M17.5 11L18.5 12" stroke="#1C1C1C" stroke-linecap="round" stroke-linejoin="round"/>
<path d="M17.5 9L19 8.5" stroke="#1C1C1C" stroke-linecap="round" stroke-linejoin="round"/>
<path d="M8.80005 10.2998L13.7 15.1998" stroke="#1C1C1C" stroke-linecap="round" stroke-linejoin="round"/>
</svg>
