<svg width="16" height="16" viewBox="0 0 16 16" fill="none" xmlns="http://www.w3.org/2000/svg">
<path d="M5 13.5H3C2.86743 13.5 2.74023 13.4473 2.64648 13.3536C2.55273 13.2598 2.5 13.1326 2.5 13V3C2.5 2.86737 2.55273 2.74023 2.64648 2.64642C2.74023 2.55267 2.86743 2.5 3 2.5H5V13.5Z" fill="black" fill-opacity="0.1"/>
<path d="M7 7.5H11C11.2761 7.5 11.5 7.27614 11.5 7C11.5 6.72386 11.2761 6.5 11 6.5H7C6.72386 6.5 6.5 6.72386 6.5 7C6.5 7.27614 6.72386 7.5 7 7.5Z" fill="#1C1C1C"/>
<path d="M7 9.5H11C11.2761 9.5 11.5 9.27614 11.5 9C11.5 8.72386 11.2761 8.5 11 8.5H7C6.72386 8.5 6.5 8.72386 6.5 9C6.5 9.27614 6.72386 9.5 7 9.5Z" fill="#1C1C1C"/>
<path fill-rule="evenodd" clip-rule="evenodd" d="M2 3C2 3 2 2.58579 2.29289 2.29289C2.29289 2.29289 2.58579 2 3 2H13C13 2 13.4142 2 13.7071 2.29289C13.7071 2.29289 14 2.58579 14 3V13C14 13 14 13.4142 13.7071 13.7071C13.7071 13.7071 13.4142 14 13 14H3C3 14 2.58579 14 2.29289 13.7071C2.29289 13.7071 2 13.4142 2 13V3ZM3 3V13H13V3H3Z" fill="#1C1C1C"/>
<path d="M4.5 2.5V13.5C4.5 13.7761 4.72386 14 5 14C5.27614 14 5.5 13.7761 5.5 13.5V2.5C5.5 2.22386 5.27614 2 5 2C4.72386 2 4.5 2.22386 4.5 2.5Z" fill="#1C1C1C"/>
</svg>
