<svg width="60" height="60" viewBox="0 0 60 60" fill="none" xmlns="http://www.w3.org/2000/svg">
<rect width="60" height="60" rx="30" fill="#FFE999"/>
<path fill-rule="evenodd" clip-rule="evenodd" d="M17 38V21C17 20.4477 17.4477 20 18 20H42C42.5523 20 43 20.4477 43 21V38C43 38 43 38.8284 42.4142 39.4142C42.4142 39.4142 41.8284 40 41 40H19C19 40 18.1716 40 17.5858 39.4142C17.5858 39.4142 17 38.8284 17 38ZM19 38H41V22H19V38Z" fill="black" fill-opacity="0.8"/>
<path d="M18.6757 20.2628C18.4913 20.0938 18.2502 20 18 20C17.9855 20 17.971 20.0003 17.9566 20.0009C17.6916 20.0125 17.4421 20.1288 17.2628 20.3243C17.0938 20.5087 17 20.7498 17 21C17 21.0145 17.0003 21.029 17.0009 21.0434C17.0125 21.3084 17.1288 21.5579 17.3243 21.7372L29.3243 32.7372C29.7066 33.0876 30.2934 33.0876 30.6757 32.7372L42.6751 21.7378C42.8817 21.5484 43 21.2803 43 21L43 20.9917C42.9979 20.7444 42.9043 20.5066 42.7372 20.3243C42.5579 20.1288 42.3084 20.0125 42.0434 20.0009C42.029 20.0003 42.0145 20 42 20L41.9954 20C41.7468 20.0012 41.5075 20.0949 41.3243 20.2628L30 30.6434L18.6757 20.2628Z" fill="black" fill-opacity="0.8"/>
</svg>
