<svg width="64" height="64" viewBox="0 0 64 64" fill="none" xmlns="http://www.w3.org/2000/svg">
<path d="M55.3999 37.3491C55.8147 35.5288 56.0161 33.6663 56 31.7991C55.8999 18.5742 44.95 7.87402 31.75 7.99902C26.1108 8.05859 20.6726 10.1021 16.3896 13.7708C12.1067 17.4395 9.25244 22.4993 8.32788 28.0625C7.40308 33.6257 8.46704 39.3367 11.3328 44.1938C14.1985 49.0508 18.6831 52.7437 24 54.624C24.9043 54.95 25.874 55.0527 26.8267 54.9238C27.7793 54.7947 28.6868 54.438 29.4719 53.8833C30.2571 53.3289 30.897 52.593 31.3369 51.7383C31.7771 50.8835 32.0046 49.9353 32 48.9741V47.999C31.9966 47.2102 32.1497 46.4285 32.45 45.6992C32.7502 44.9697 33.1921 44.3069 33.75 43.749C34.3076 43.1914 34.9705 42.7495 35.7 42.4492C36.4294 42.1487 37.2112 41.9958 38 41.999H49.5498C50.9072 42 52.2246 41.5405 53.2871 40.696C54.3499 39.8516 55.0945 38.6716 55.3999 37.3491Z" fill="black" fill-opacity="0.1"/>
<path fill-rule="evenodd" clip-rule="evenodd" d="M57.3501 37.7943L57.3488 37.8L57.3483 37.8021C57.3483 37.8021 56.7191 40.5241 54.5319 42.2626C54.5319 42.2626 52.3439 44.0018 49.5488 44H38.0001C38.0001 44 37.1967 43.9966 36.4616 44.2993C36.4616 44.2993 35.7265 44.602 35.1643 45.1642C35.1643 45.1642 34.6021 45.7264 34.2995 46.4615C34.2995 46.4615 33.9968 47.1966 34.0001 47.9916L34.0001 48.975C34.0001 48.975 34.0094 50.9184 33.1153 52.6548C33.1153 52.6548 32.2211 54.3911 30.6258 55.5178C30.6258 55.5178 29.0305 56.6445 27.0951 56.9065C27.0951 56.9065 25.1597 57.1686 23.3223 56.5066C23.3223 56.5066 19.0134 54.9826 15.4761 52.07C15.4761 52.07 11.9389 49.1573 9.61044 45.211C9.61044 45.211 7.28198 41.2647 6.44286 36.7601C6.44286 36.7601 5.60374 32.2555 6.35507 27.7354C6.35507 27.7354 7.10639 23.2154 9.35763 19.2245C9.35763 19.2245 11.6089 15.2336 15.0888 12.2527C15.0888 12.2527 18.5687 9.27182 22.8579 7.66012C22.8579 7.66012 27.1472 6.04843 31.729 6.00011C31.729 6.00011 37.0003 5.95019 41.8578 7.95791C41.8578 7.95791 46.5449 9.89521 50.1875 13.4654C50.1875 13.4654 53.8335 17.0388 55.8585 21.6853C55.8585 21.6853 57.9602 26.5074 58 31.7849C58 31.7849 58.0263 34.8265 57.3501 37.7943ZM54.0002 31.8151C54.0002 31.8151 54.0224 34.3907 53.4514 36.9L53.4501 36.9057C53.4501 36.9057 53.1347 38.2635 52.0429 39.1313C52.0429 39.1313 50.9489 40.0009 49.5514 40H38.0001C38.0001 40 36.4135 39.9933 34.9386 40.6006C34.9386 40.6006 33.4637 41.2079 32.3359 42.3358C32.3359 42.3358 31.208 43.4636 30.6007 44.9385C30.6007 44.9385 29.9934 46.4134 30.0001 48.0084L30.0001 48.975C30.0001 48.975 30.0048 49.958 29.5591 50.8235C29.5591 50.8235 29.1134 51.6889 28.3183 52.2505C28.3183 52.2505 27.5231 52.8121 26.5585 52.9427C26.5585 52.9427 25.5938 53.0733 24.678 52.7434C24.678 52.7434 17.1222 50.0708 13.0555 43.1783C13.0555 43.1783 8.98871 36.2858 10.3009 28.3913C10.3009 28.3913 11.6132 20.4968 17.691 15.2905C17.691 15.2905 23.7688 10.0843 31.7712 9.99989C31.7712 9.99989 36.2245 9.95772 40.3299 11.6546C40.3299 11.6546 44.2995 13.2953 47.3877 16.3221C47.3877 16.3221 50.4776 19.3506 52.1917 23.2834C52.1917 23.2834 53.9664 27.3556 54.0002 31.8151Z" fill="#1C1C1C"/>
<path d="M35 19C35 20.6567 33.6567 22 32 22C30.3433 22 29 20.6567 29 19C29 17.3433 30.3433 16 32 16C33.6567 16 35 17.3433 35 19Z" fill="#1C1C1C"/>
<path d="M23.75 25.5C23.75 27.1567 22.4067 28.5 20.75 28.5C19.0933 28.5 17.75 27.1567 17.75 25.5C17.75 23.8433 19.0933 22.5 20.75 22.5C22.4067 22.5 23.75 23.8433 23.75 25.5Z" fill="#1C1C1C"/>
<path d="M23.75 38.5C23.75 40.1567 22.4067 41.5 20.75 41.5C19.0933 41.5 17.75 40.1567 17.75 38.5C17.75 36.8433 19.0933 35.5 20.75 35.5C22.4067 35.5 23.75 36.8433 23.75 38.5Z" fill="#1C1C1C"/>
<path d="M46.25 25.5C46.25 27.1567 44.9067 28.5 43.25 28.5C41.5933 28.5 40.25 27.1567 40.25 25.5C40.25 23.8433 41.5933 22.5 43.25 22.5C44.9067 22.5 46.25 23.8433 46.25 25.5Z" fill="#1C1C1C"/>
</svg>
