<svg width="200" height="195" viewBox="0 0 200 195" fill="none" xmlns="http://www.w3.org/2000/svg">
<path d="M173.915 51.4255L172.643 47.6104L172.692 43.2887L175.822 41.6758L177.73 41.8877L180.273 43.1594C180.697 43.3714 182.393 45.4909 182.393 45.4909V49.518C182.393 49.9419 181.969 51.6375 181.969 51.6375L183.664 55.8765C183.664 55.8765 184.088 57.1482 183.24 57.3601C182.393 57.5721 177.942 57.996 177.942 57.996C177.942 57.996 174.338 58.2079 174.126 57.996C173.915 57.784 171.371 56.3004 171.371 56.3004C171.371 56.3004 171.795 54.6048 172.007 54.1809C172.219 53.757 173.915 51.4255 173.915 51.4255Z" fill="#5FB6E5"/>
<path d="M131.737 85.5489L164.165 85.125C164.165 85.125 169.676 95.7225 170.524 96.1464C171.134 96.4301 171.774 96.6435 172.432 96.7823C172.432 96.7823 171.372 97.6301 170.736 97.6301C170.1 97.6301 137.884 98.6899 137.884 98.6899C137.884 98.6899 128.346 90.4238 131.737 85.5489Z" fill="#FFA272"/>
<path d="M154.512 67.8369L164.128 60.4844L146.998 60.7514L148.694 67.5339L154.512 67.8369Z" fill="#FFA272"/>
<path d="M168.193 70.5273C168.433 70.6179 168.668 70.7226 168.895 70.841C168.917 70.8544 168.936 70.8726 168.95 70.8944C168.964 70.9161 168.973 70.9407 168.977 70.9664C168.98 70.992 168.977 71.0181 168.969 71.0427C168.961 71.0672 168.947 71.0896 168.929 71.1081C168.193 71.78 167.178 72.0788 166.233 72.3141C165.19 72.5748 164.124 72.738 163.09 73.022C161.879 73.3632 160.703 73.8126 159.499 74.175C158.245 74.5282 156.961 74.7652 155.663 74.8829C153.12 75.1585 150.551 75.1691 147.997 75.345L147.766 75.3641L148.694 80.8854L171.373 80.2495L173.28 71.9834L168.193 70.5273Z" fill="#FFA272"/>
<g opacity="0.47">
<path d="M75.7813 172.662L119.443 163.336L131.524 162.064L147.421 129.636L199.984 123.277L189.387 149.983L184.088 144.049L178.154 145.32L176.882 148.923L174.126 150.619L171.795 154.646L167.98 156.766L167.344 160.581L168.192 162.488L163.4 162.885L167.132 173.51L124.106 179.868L75.3574 176.477L75.7813 172.662Z" fill="#5FB6E5"/>
</g>
<path d="M57.1309 75.5868L69.2121 84.2768L68.1523 129.846C68.1523 129.846 81.9291 122.216 95.7059 121.792C109.483 121.368 97.8254 120.096 97.8254 120.096L78.114 85.3366L82.7769 76.4346L77.0542 72.1956C77.0542 72.1956 65.3969 77.2824 57.9787 70.5L57.1309 75.5868Z" fill="#5FB6E5"/>
<g opacity="0.4">
<path d="M124.688 96.3856L121.674 87.2251C119.823 81.5978 117.943 75.909 114.8 70.8858C111.657 65.8626 107.081 61.4964 101.403 59.8114C93.3253 57.4142 84.3577 60.6994 76.3184 58.1836C76.8376 61.1064 77.359 64.097 76.88 67.0262C76.5791 68.8765 76.9733 70.8413 76.6172 72.325C78.2068 73.283 79.7965 74.2452 81.5811 74.8048C81.6166 74.8158 81.6477 74.8377 81.6702 74.8674C81.6926 74.897 81.7052 74.9329 81.7062 74.9701C81.739 75.6685 81.7113 76.3684 81.6235 77.0621C81.4391 78.5733 81.0533 80.0484 80.6994 81.5257C80.356 82.9543 79.9618 84.4401 80.0275 85.9216C80.0868 87.2654 80.5404 88.5392 81.0745 89.76C81.6532 91.0762 82.2721 92.3734 82.8295 93.7002C83.9401 96.339 84.949 99.0223 86.1783 101.614C86.7629 102.874 87.4189 104.099 88.1431 105.283C88.9506 106.583 89.8514 107.827 90.748 109.065C92.5262 111.515 94.3702 113.922 95.9683 116.495C96.7547 117.767 97.5368 119.052 98.2044 120.385C98.3422 120.658 98.4715 120.936 98.5944 121.218C99.5386 121.338 100.475 121.511 101.401 121.735C102.544 121.994 103.663 122.349 104.747 122.795C105.739 123.238 106.695 123.756 107.609 124.344C108.526 124.918 109.421 125.525 110.345 126.086C111.358 126.701 112.418 127.216 113.478 127.744C115.23 128.619 116.977 129.511 118.653 130.522C117.06 122.619 114.819 114.796 112.589 107.053C116.22 105.037 121.682 107.564 124.459 104.474C126.349 102.365 125.574 99.0753 124.688 96.3856Z" fill="#89DA3E"/>
</g>
<g opacity="0.4">
<path d="M69.4244 120.205C69.2569 115.357 69.1594 110.516 69.2675 105.667C69.3749 100.873 69.6271 96.0839 70.0242 91.3008C70.1662 89.6052 70.357 87.8376 69.825 86.1801C69.3629 84.7367 68.3413 83.6176 67.1798 82.6766C66.3977 82.0407 65.6156 81.4049 64.8484 80.7563C64.0429 80.0653 63.2375 79.3722 62.4067 78.7131C60.7344 77.3905 58.937 76.2121 56.9193 75.483C56.876 75.4697 56.8396 75.4402 56.8175 75.4008C56.7954 75.3613 56.7893 75.3148 56.8006 75.271C57.4364 73.55 58.6891 72.1659 59.5559 70.5742C52.7735 67.4755 46.6418 63.0075 39.5224 60.125L38.2697 60.9113C30.0373 65.0585 23.5327 71.9782 19.9021 80.4511C16.4897 88.5052 15.892 97.4368 15.875 106.173C15.875 113.339 16.2565 120.675 18.9949 127.296C19.351 128.144 19.7855 129.043 20.574 129.53C21.3624 130.018 22.3671 130.009 23.3039 129.98L39.1154 129.48C39.7237 129.46 40.3744 129.454 40.8852 129.787C41.5083 130.194 41.733 130.982 41.9195 131.694C43.1107 136.419 42.1696 142.716 43.3608 147.43C45.972 144.609 51.0482 140.531 54.2402 138.392C53.9053 139.693 53.1275 140.777 52.2648 141.824C53.4602 141.232 54.6747 140.679 55.8108 139.98C56.8302 139.344 57.7544 138.583 58.7039 137.86C59.7043 137.095 60.7068 136.332 61.7221 135.584C64.2782 133.693 66.9318 131.921 69.649 130.257C69.6533 126.913 69.5388 123.558 69.4244 120.205Z" fill="#89DA3E"/>
</g>
<path d="M96.9565 166.504C97.3953 165.145 97.7005 163.748 98.0163 162.362C98.3596 160.879 98.7539 159.412 99.1057 157.932C99.4851 156.341 99.8539 154.736 100.165 153.123C99.7529 152.922 99.3511 152.699 98.9616 152.456C97.9887 151.839 97.054 151.112 96.0134 150.614C93.8727 149.59 92.2682 152.621 91.0622 153.895C90.1423 154.865 88.8939 155.59 87.7748 156.296C86.4226 157.159 85.0343 157.96 83.6566 158.776C82.2789 159.592 80.914 160.421 79.6062 161.341C78.2678 162.315 76.9908 163.371 75.7826 164.503C75.12 165.103 74.4339 165.676 73.7246 166.222C74.3512 166.553 74.9489 166.935 75.5114 167.366C77.4528 168.871 78.9322 171.016 81.1577 172.057C85.1191 173.911 89.6548 171.652 93.6734 169.92C94.4068 169.604 95.1479 169.306 95.8968 169.026C96.3275 168.22 96.6823 167.376 96.9565 166.504Z" fill="#5FB6E5"/>
<g opacity="0.4">
<path d="M120.909 149.808C120.139 149.287 119.468 148.632 118.928 147.875C118.418 148.327 117.962 148.837 117.569 149.395C116.706 150.571 115.873 151.652 114.602 152.419C113.33 153.186 111.94 153.538 110.575 153.983C109.165 154.467 107.688 154.726 106.198 154.751C104.857 154.731 103.53 154.477 102.277 154C101.666 153.778 101.06 153.538 100.469 153.265C100.435 153.441 100.403 153.617 100.369 153.791C99.7587 156.9 98.9236 159.952 98.2114 163.036C97.7664 164.971 97.3043 167.04 96.3887 168.843C100.267 167.424 104.298 166.464 108.4 165.984C108.801 165.783 109.216 165.609 109.621 165.452C112.287 164.422 115.144 164.007 117.938 163.472C118.722 163.324 119.496 163.14 120.288 163.049C121.154 162.936 122.028 162.906 122.899 162.96C123.927 163.036 124.949 163.174 125.96 163.373C125.407 160.978 120.928 151.052 120.909 149.808Z" fill="#89DA3E"/>
</g>
<path d="M39.1678 60.4314L37.5781 59.5836C41.035 53.0725 41.2851 43.3397 41.2873 43.2422L43.0888 43.2803C43.0804 43.6979 42.8303 53.5366 39.1678 60.4314Z" fill="#454545"/>
<path d="M39.1745 32.974C38.846 33.5399 39.5984 33.9553 40.0223 34.269C41.1075 35.0787 42.3856 35.7527 43.138 36.9163C43.5555 37.5384 43.7158 38.298 43.5852 39.0358C43.5513 39.2138 43.3033 39.6568 43.3351 39.803C43.3669 39.9493 43.8289 40.2418 43.971 40.3202L43.9943 40.3329C44.2238 40.2179 44.4289 40.0595 44.5983 39.8666C45.1473 39.2308 45.2766 38.313 44.9777 37.1219C44.3249 34.5106 40.5395 33.3068 39.2021 32.957L39.1745 32.974Z" fill="#454545"/>
<path d="M76.9991 42.1881C77.1925 42.1232 77.3821 42.0475 77.5671 41.9613C78.4318 41.5501 78.5145 40.9016 78.2305 40.2657C70.9055 41.2301 64.7292 37.3578 62.8513 36.0267C62.4672 36.0014 62.0879 36.1243 61.7916 36.3701C61.3486 36.6731 61.1748 36.883 61.4927 37.2687C62.9764 38.3878 68.6016 42.2326 75.8418 42.2326C76.2191 42.2241 76.6069 42.2072 76.9991 42.1881Z" fill="#454545"/>
<path d="M73.7688 24.5234L73.3068 24.6888C72.8829 25.0321 72.6179 25.6044 72.459 26.219C73.4552 29.0465 74.4216 31.9417 74.8138 33.3279C74.9765 33.5352 75.1612 33.7243 75.3648 33.8917L76.5284 34.4724C76.5936 34.4832 76.6595 34.4888 76.7256 34.4894C76.9015 34.0951 76.8994 33.2897 73.7688 24.5234Z" fill="#454545"/>
<path d="M62.9502 29.9657C61.6191 29.9657 60.5742 28.5817 60.5742 26.814C60.5742 25.0463 61.6191 23.6602 62.9502 23.6602C64.2812 23.6602 65.3283 25.0442 65.3283 26.814C65.3283 28.5838 64.2834 29.9657 62.9502 29.9657Z" fill="#454545"/>
<path d="M78.5181 28.9061C77.2315 28.9061 76.2227 27.5687 76.2227 25.8604C76.2227 24.152 77.2315 22.8125 78.5181 22.8125C79.8046 22.8125 80.8156 24.1499 80.8156 25.8604C80.8156 27.5708 79.8089 28.9061 78.5181 28.9061Z" fill="#454545"/>
<path d="M136.471 109.264L137.626 110.438L141.761 106.241V121.175H143.395V105.949L147.528 110.143L148.685 108.971L142.723 102.918L136.471 109.264Z" fill="#454545"/>
<path d="M151.184 109.067L152.339 110.241L156.472 106.044V121.173H158.108V105.75L162.241 109.946L163.398 108.774L157.434 102.719L151.184 109.067Z" fill="#454545"/>
<path d="M164.453 109.264L165.608 110.438L169.743 106.241V121.37H171.378V105.949L175.511 110.143L176.668 108.971L170.704 102.918L164.453 109.264Z" fill="#454545"/>
<path d="M171.329 59.9145C170.622 59.9036 169.927 60.1034 169.333 60.4885C168.74 60.8736 168.274 61.4266 167.996 62.0771C167.718 62.7276 167.64 63.4462 167.771 64.1414C167.902 64.8366 168.238 65.4769 168.734 65.981C169.231 66.485 169.866 66.8299 170.559 66.9717C171.252 67.1136 171.972 67.0459 172.627 66.7775C173.281 66.509 173.841 66.0519 174.235 65.4642C174.629 64.8765 174.839 64.1849 174.839 63.4774C174.845 62.5399 174.478 61.6384 173.82 60.9705C173.162 60.3027 172.267 59.9229 171.329 59.9145ZM171.329 65.3828C170.951 65.3891 170.579 65.2826 170.261 65.0769C169.943 64.8712 169.694 64.5755 169.544 64.2276C169.395 63.8796 169.353 63.4951 169.423 63.123C169.493 62.7509 169.672 62.408 169.937 62.1381C170.203 61.8681 170.542 61.6832 170.913 61.607C171.284 61.5308 171.669 61.5667 172.02 61.7101C172.37 61.8535 172.67 62.0979 172.881 62.4123C173.092 62.7266 173.205 63.0966 173.205 63.4753C173.209 63.9769 173.013 64.4596 172.662 64.8172C172.31 65.1749 171.831 65.3783 171.329 65.3828Z" fill="#454545"/>
<path d="M185.23 56.786C185.024 55.7038 184.668 54.6557 184.171 53.6725C183.705 52.7257 183.056 51.8801 182.263 51.1842C183.185 50.0687 183.688 48.6659 183.685 47.2186C183.7 46.4095 183.554 45.6055 183.255 44.8536C182.956 44.1017 182.51 43.417 181.943 42.8395C181.376 42.262 180.7 41.8032 179.953 41.4901C179.207 41.1769 178.406 41.0156 177.597 41.0156C176.788 41.0156 175.987 41.1769 175.24 41.4901C174.494 41.8032 173.818 42.262 173.251 42.8395C172.684 43.417 172.238 44.1017 171.939 44.8536C171.64 45.6055 171.494 46.4095 171.509 47.2186C171.512 48.729 172.066 50.1863 173.067 51.3177C172.054 52.2118 171.263 53.3293 170.756 54.5817L141.677 55.0438L141.465 67.9919L131.259 68.7591L131.503 76.6479L141.329 76.1414L141.183 84.8695L130.42 85.1217L130.52 86.0204C130.784 88.4419 131.384 90.815 132.3 93.072C133.572 96.1813 136.022 100.009 139.767 99.6891C145.265 99.2165 150.865 99.2101 156.399 99.0236L167.42 98.6506C169.93 98.5658 172.778 98.5085 174.985 97.0164C177.528 95.2975 178.45 92.0652 178.673 89.1212L180.061 58.9204C181.607 58.6848 183.13 58.3167 184.614 57.8204L185.362 57.5745L185.23 56.786ZM177.6 42.8927C178.458 42.88 179.301 43.123 180.021 43.5906C180.74 44.0582 181.305 44.7293 181.642 45.5186C181.979 46.3078 182.074 47.1796 181.914 48.0229C181.754 48.8662 181.348 49.6429 180.745 50.2543C180.143 50.8656 179.372 51.284 178.531 51.4561C177.691 51.6283 176.817 51.5464 176.023 51.2209C175.229 50.8955 174.55 50.3411 174.072 49.6284C173.593 48.9157 173.338 48.0768 173.338 47.2186C173.331 46.0797 173.775 44.9844 174.575 44.1733C175.375 43.3622 176.463 42.9016 177.602 42.8927H177.6ZM133.076 74.8972L132.934 70.2894L156.024 68.5535C155.811 68.8869 155.673 69.2629 155.621 69.6551C155.569 70.0473 155.604 70.4462 155.723 70.8235C155.986 71.5531 156.44 72.1992 157.037 72.6951C157.4 73.0153 157.787 73.3066 158.196 73.5662L158.065 73.6001C157.779 73.6559 157.486 73.6709 157.196 73.6446V73.6552L133.076 74.8972ZM158.423 68.5154L158.444 68.5048L164.417 69.8422C164.491 70.3721 164.648 71.205 164.737 71.6565L159.968 73.1698C159.918 73.0948 159.849 73.0341 159.769 72.9939C158.739 72.4979 157.584 71.7646 157.045 70.7176C156.585 69.8252 157.126 68.6807 158.145 68.5981C158.227 68.5914 158.307 68.5713 158.383 68.5387L158.425 68.5535L158.423 68.5154ZM138.152 97.9766L137.048 97.0143L136.976 96.9592C133.866 94.8058 132.635 88.9835 132.266 86.7368L164.201 85.9928C164.827 87.8594 165.574 89.6832 166.437 91.4527C167.755 94.1063 169.097 95.9164 170.464 96.8829L138.152 97.9766ZM177.363 81.9637C177.206 85.3867 177.46 89.276 176.273 92.5061C175.604 94.3331 173.806 97.0312 171.638 95.838C169.921 94.8927 169.105 92.6587 168.221 91.0182C167.142 89.0681 166.251 87.0199 165.559 84.9013L165.377 84.3057L142.8 84.8314L142.948 76.0587L147.037 75.8468V82.6864L172.882 81.8535L173.173 71.8918C172.626 72.1037 172.075 72.3051 171.519 72.4916L171.293 80.249L148.692 80.9739V75.7641L158.982 75.2342L174.323 70.3594L158.128 66.7329L148.692 67.4493V62.3391L164.72 62.212C164.932 61.6545 165.161 61.1035 165.379 60.5482L147.058 60.6923V67.5637L143.107 67.8605L143.294 56.6695L170.184 56.2456L170.133 56.4257L169.974 57.0213L170.451 57.4007C170.578 57.5003 172.715 59.1366 177.132 59.1366C177.543 59.1366 177.974 59.1217 178.425 59.0921C178.07 66.718 177.72 74.3419 177.373 81.9637H177.363ZM172.064 56.2477C172.611 54.5711 173.418 53.327 174.476 52.5322C175.441 53.1164 176.552 53.4166 177.68 53.3982C178.808 53.3799 179.908 53.0437 180.854 52.4283C182.233 53.4669 182.924 55.2748 183.221 56.3091C176.966 58.1743 173.355 56.8899 172.083 56.2477H172.064Z" fill="#454545"/>
<path d="M194.076 140.926C193.596 140.967 193.122 141.058 192.66 141.195L200 123.204L146.707 127.891L146.171 127.937L141.661 138.431C141.477 138.231 141.27 138.054 141.044 137.903C138.223 135.964 135.359 133.389 134.575 132.67C134.085 130.245 130.525 112.785 124.666 87.9867C118.577 62.2199 106.464 59.9795 100.644 58.905C100.267 58.835 99.9168 58.7693 99.5989 58.693C96.2077 57.9872 86.7081 58.3602 80.3644 58.7142C82.4627 58.2076 84.3363 57.0568 85.0273 55.1365C85.5911 53.5574 85.3643 51.4379 85.165 49.5685C85.0951 48.9178 85.0294 48.2968 85.0082 47.7945C84.8175 43.2927 84.5504 38.7463 84.3151 34.8401C84.082 30.9847 83.8234 26.9152 83.5203 22.4007C83.5076 22.2057 83.461 21.8899 83.3719 21.3049C83.3168 20.9425 83.2257 20.3426 83.1452 19.7174L83.2808 19.6898C83.2257 19.1197 83.1833 18.5474 83.143 17.973C83.1172 17.7217 83.1738 17.4688 83.3041 17.2524C83.3041 17.2376 83.2935 17.2206 83.2872 17.2079L83.7323 16.7607C84.8492 15.6458 87.4202 8.65142 84.9531 5.69259C83.4906 3.93552 74.47 2.04492 66.7063 1.02967C61.5707 0.35779 48.8007 -0.971139 41.2043 1.16109C39.9941 1.48514 38.8663 2.06201 37.8952 2.8537C36.9241 3.64538 36.1319 4.63389 35.5707 5.75406C31.7556 13.0049 35.4774 25.8194 36.3867 28.6808C35.4181 29.1852 34.6784 30.1856 34.1358 31.718C32.7751 35.5501 34.0256 40.0456 37.1773 42.6505C38.4945 43.7833 40.1687 44.4159 41.9059 44.4372C43.2126 44.4272 44.4927 44.0671 45.6129 43.3944L45.7104 43.3266C46.0211 43.0781 46.2951 42.787 46.5243 42.4618C46.7231 41.8184 46.7951 41.1425 46.7363 40.4716C46.6451 39.7319 46.2721 39.3737 45.5366 39.7531L45.5027 39.7722C45.7549 41.1414 44.4832 42.1269 43.2391 42.4597L43.042 42.5042C42.9134 42.5817 42.7704 42.632 42.6217 42.6521C42.4729 42.6721 42.3216 42.6615 42.1772 42.6208C40.7687 42.6631 39.3953 42.1778 38.326 41.2601C36.1493 39.4627 34.5957 35.8129 35.8335 32.32C36.2574 31.1288 36.7915 30.4124 37.421 30.1899C38.6376 29.766 40.6236 30.991 42.546 32.1801C44.0636 33.119 45.6341 34.0876 47.228 34.5772C47.5991 34.6899 47.991 34.7161 48.3737 34.654C48.7565 34.592 49.12 34.4432 49.4365 34.2191C53.0545 31.8007 54.7861 18.9777 55.2609 14.8086C65.3434 18.3015 73.211 18.7445 78.656 16.1269C79.229 15.8523 79.7809 15.5356 80.3071 15.1795C80.6621 15.7714 80.9806 16.3844 81.2609 17.015C81.0956 17.7484 81.2058 19.0307 81.5937 21.5741C81.6552 21.9747 81.7166 22.3901 81.7251 22.5172C82.0282 27.0297 82.2868 31.0949 82.5199 34.946C82.7552 38.8459 83.0201 43.3817 83.2109 47.875C83.2342 48.4452 83.302 49.0874 83.3762 49.7678C83.5563 51.4443 83.7577 53.3455 83.3317 54.5367C82.5856 56.6201 79.4 57.2814 77.4458 57.2221C76.0512 57.1797 74.4891 56.5735 72.9779 55.9885C72.4777 55.7956 72.0029 55.6112 71.5324 55.4459C66.9733 53.8499 61.6385 51.8809 56.6259 49.3693C56.3821 49.2485 56.1151 49.1213 55.8332 48.9857C54.4809 48.3498 52.6539 47.466 51.963 46.3532C51.5179 46.9594 51.4288 47.8369 51.5687 48.5766C52.5946 49.435 53.9171 50.0603 55.0596 50.6134C55.3287 50.7406 55.5852 50.8635 55.8205 50.9801C60.9221 53.5362 66.3247 55.5328 70.9368 57.1479C71.3798 57.3026 71.8397 57.4806 72.3272 57.6693C73.273 58.0541 74.2388 58.388 75.2203 58.6697C75.2436 58.7926 75.2691 58.9156 75.2924 59.0385L75.0041 59.0597C75.222 59.3867 75.3912 59.7437 75.5065 60.1194C75.5192 60.1576 75.5298 60.1957 75.5404 60.2339C75.5658 60.33 75.5891 60.4254 75.6103 60.52C75.6103 60.5455 75.6209 60.5688 75.6251 60.5942C75.6294 60.6196 75.6442 60.7002 75.6527 60.7532C75.676 60.9015 75.6951 61.0499 75.7078 61.2025C75.8498 63.0613 76.4178 64.9604 76.7188 66.8044C76.9308 68.1142 77.9079 71.0222 77.1427 72.1964C75.091 75.3757 70.1823 73.3981 67.5053 72.5652C66.9924 72.4041 60.4113 70.0472 60.4368 70.0027L60.4855 69.92C60.3156 69.8592 60.1609 69.7623 60.0319 69.636C59.7246 69.3351 59.3961 69.0638 59.0612 68.7882L58.987 68.9133C57.8361 68.163 55.0892 66.6518 48.1966 63.2733C42.847 60.6514 37.5333 58.1525 37.4804 58.1271L37.0565 57.9257L36.6474 58.1674C35.3757 58.9134 32.667 60.609 31.5754 61.9825C26.9973 63.6124 6.85983 71.1472 1.97436 80.1445C-3.4113 90.0448 3.89464 134.771 4.20409 136.651C4.22104 136.769 5.93996 148.759 8.90939 161.421C12.9153 178.513 17.22 188.699 21.7027 191.703C22.1733 192.137 24.6997 194.246 29.4072 194.246C31.3486 194.246 33.6589 193.89 36.3485 192.911C41.4841 191.044 58.2621 178.831 72.6917 167.926C74.2814 168.926 76.562 170.349 79.0291 171.883L76.5238 172.53L75.8477 172.417L75.7968 172.718L74.9151 172.947L75.2775 176.563L124.117 181.728H124.234L168.362 175.058C169.683 176.648 170.971 177.86 171.84 178.295C172.196 178.471 172.588 178.561 172.985 178.558C175.077 178.558 177.338 176.275 178.125 175.404C178.517 175.484 178.917 175.524 179.318 175.525C181.367 175.525 183.419 174.547 184.663 173.441C185.177 173.02 185.578 172.478 185.831 171.864C185.914 171.895 185.998 171.921 186.083 171.943C186.38 172.019 186.684 172.057 186.99 172.055C188.4 172.055 190.246 171.311 191.804 169.138C193.061 167.383 193.44 165.535 192.864 164.13C194.055 162.434 195.583 159.855 195.248 158.178C195.142 157.793 194.983 157.423 194.775 157.081C194.646 151.994 196.501 142.522 196.52 142.42L196.681 141.608L194.239 140.911L194.076 140.926ZM132.867 133.308L132.924 133.592L133.136 133.789C133.278 133.921 136.616 137.043 140.024 139.385C140.36 139.645 140.641 139.969 140.851 140.339L135.936 151.784C135.283 150.792 134.518 149.664 133.623 148.352C132.729 147.04 131.928 145.887 131.701 145.447C128.88 140.072 125.306 135.983 121.103 132.359C118.537 123.062 115.533 112.268 115.48 112.079C115.01 110.384 114.562 108.779 114.137 107.266C115.165 107.202 116.379 107.092 117.704 106.908C121.148 106.426 124.136 105.606 126.642 104.468C130.605 122.035 132.839 133.168 132.867 133.308ZM99.2301 60.467C99.5607 60.537 99.9253 60.6027 100.315 60.679C105.762 61.6858 117.095 63.7819 122.911 88.4106C124.107 93.4974 125.215 98.2557 126.226 102.654C121.902 104.703 116.727 105.303 113.632 105.471C109.338 90.1168 107.407 83.4277 106.492 80.4794C105.878 79.9035 105.128 79.4922 104.313 79.284L104.3 79.2967L104.279 79.2756H104.219C104.586 80.2802 106.286 85.8142 113.81 112.821C115.531 118.995 117.227 125.114 118.685 130.377C115.856 128.16 112.776 126.072 109.474 123.902C105.313 121.168 102.14 120.087 97.7804 120.027L79.8091 84.4387C80.1144 84.1778 80.3596 83.8539 80.5276 83.4891C81.2312 81.9652 82.1024 78.9555 82.7636 76.4693C83.5563 76.8127 84.3702 77.1624 85.1905 77.5036C92.1192 80.4116 95.0568 81.2043 96.462 81.2043C97.1148 81.2043 97.437 81.0326 97.6765 80.8249C98.5243 80.0788 98.1725 78.7393 96.3137 75.7063C95.1755 73.8454 93.4672 71.3719 91.2374 68.3516C88.9632 65.272 86.6021 62.2432 85.0676 60.2975C90.6185 60.0622 96.7757 59.9562 99.2301 60.467ZM95.7668 120.057H95.6354C86.494 120.551 78.23 123.959 69.894 128.722L70.994 84.7375C72.5646 85.1254 74.4085 85.4624 76.0808 85.4624C76.7944 85.473 77.5065 85.3939 78.2003 85.2271L95.7668 120.057ZM82.8378 60.4013C84.1392 62.0355 86.7017 65.2762 89.2366 68.6907C94.6244 75.9267 95.9131 78.5146 96.2098 79.3985C95.3302 79.3243 92.7402 78.7478 85.3664 75.6321C83.0519 74.6529 80.7989 73.6504 79.0418 72.8534C79.0418 72.8344 79.0566 72.8174 79.063 72.7983C79.4169 71.7386 78.3847 65.698 77.4352 60.7171C78.904 60.6154 80.7883 60.5031 82.8484 60.4013H82.8378ZM59.5232 71.5436C60.5088 72.0629 62.4037 72.8428 66.1573 74.0361C67.8105 74.5618 69.5485 75.0704 70.9241 75.435C73.3488 76.0709 73.5777 76.0009 73.8405 75.9119L74.0313 75.8504C75.7269 75.3057 76.952 74.7907 77.7764 74.2523C78.7281 74.6762 79.8599 75.1955 81.0871 75.736C80.4343 78.2052 79.559 81.2721 78.8849 82.7303C78.2957 84.0021 74.8049 83.9809 70.2098 82.6668C69.326 82.3658 63.5821 78.1798 58.0438 73.9768C58.5907 73.0866 59.0909 72.2621 59.5232 71.5436ZM37.1518 59.969C46.1492 64.208 55.9307 69.032 58.0714 70.4605C56.9057 72.3999 55.21 75.1722 53.4085 77.9487C47.8977 86.4437 46.0177 87.9104 45.5006 88.1732C44.6337 87.3254 42.0776 83.0313 38.5804 75.9861C35.5686 69.9137 33.4003 64.9138 32.9764 63.4089L33.04 63.3877L32.951 63.1249C33.3918 62.5208 35.1913 61.1644 37.1518 59.969ZM3.55552 80.9923C7.81997 73.1502 25.5984 66.0986 31.285 64.0066C31.7017 65.2719 32.1849 66.5142 32.7327 67.7285C33.7733 70.1405 35.1977 73.1926 36.7428 76.3252C39.0085 80.9139 43.0526 88.7688 44.6719 89.801C44.8932 89.9406 45.1498 90.0141 45.4116 90.013C45.5437 90.0123 45.6754 89.996 45.8037 89.9642C46.891 89.6993 48.913 88.1987 54.9515 78.8771C55.6933 77.7347 56.4139 76.5923 57.09 75.5092C60.7801 78.3196 67.1111 83.0567 69.2115 84.1716L68.0712 129.792C64.8496 131.699 61.6088 133.796 58.2918 135.987L54.375 138.558C50.8693 140.858 47.3234 143.189 43.8113 145.606L39.0509 112.007C37.8873 104.665 35.3333 94.1926 29.7654 85.9965C28.7221 84.4412 27.5456 82.9796 26.2491 81.6282C25.5869 81.2704 24.8711 81.022 24.1296 80.8927C23.7065 80.812 23.2691 80.8531 22.8685 81.0114C23.7629 81.6854 25.929 83.5273 28.358 87.1347C31.2956 91.4987 35.2294 99.4066 37.2599 112.276L39.3794 127.251C24.5768 127.123 9.86529 133.344 5.79796 135.197C4.6619 127.948 -1.07349 89.517 3.55552 80.9923ZM35.7339 191.207C27.1223 194.337 23.0656 190.516 22.9003 190.359L22.8346 190.291L22.7561 190.24C19.9351 188.396 15.5498 181.832 10.6749 161.021C8.13154 150.131 6.49739 139.741 6.09257 137.049C9.22096 135.582 24.4433 128.844 39.6592 129.054L42.1518 146.612L42.4337 146.572C36.2744 150.87 30.2613 155.474 24.8163 160.709C25.2784 161.173 26.088 160.853 27.0142 160.417C27.706 160.076 28.3763 159.694 29.0214 159.272C37.173 152.015 46.4014 145.951 55.3796 140.063C56.6838 139.215 57.9859 138.359 59.2859 137.494C71.6087 129.353 82.8569 122.56 95.7414 121.863C100.89 121.585 103.984 122.444 108.478 125.398C117.708 131.464 125.16 136.844 130.097 146.271C130.376 146.805 131.112 147.878 132.127 149.359C132.85 150.419 134.022 152.115 135.071 153.764L132.428 159.91C132.089 159.889 131.729 159.853 131.345 159.794C127.193 159.158 121.233 149.51 119.285 145.849L118.102 143.622L117.413 147.066C117.125 147.719 114.798 152.477 107.589 153.212C99.8236 154.014 86.5936 141.911 86.4601 141.79L86.1549 142.119C86.2969 143.024 86.7907 143.929 87.2358 144.662C87.3164 144.798 87.4011 144.934 87.488 145.069C88.9844 146.311 91.1103 147.982 93.5223 149.603C86.1676 155.366 44.0593 188.18 35.7339 191.207ZM122.835 154.781L124.45 161.682L119.249 161.47L97.5303 167.089L100.841 153.649C103.268 154.649 105.665 155.226 107.772 155.012C114.666 154.304 117.689 150.279 118.7 148.499C119.954 150.672 121.335 152.769 122.835 154.781ZM119.444 163.286L130.792 163.738L125.133 176.902L80.8073 173.274L119.444 163.286ZM127.286 161.803L126.383 158.836C127.93 160.285 129.537 161.343 131.069 161.578C131.281 161.61 131.481 161.635 131.678 161.657L131.546 161.958L127.286 161.803ZM74.2263 166.762C84.1625 159.232 92.7126 152.541 95.1225 150.654C96.4309 151.479 97.7822 152.233 99.1708 152.914L95.5485 167.617L81.4411 171.249C78.5988 169.484 76.0342 167.892 74.2263 166.754V166.762ZM124.192 179.914L76.9265 174.916L76.9117 174.762L126.269 178.806L132.511 164.289C132.545 164.17 132.585 164.052 132.627 163.933C132.734 163.631 132.935 163.37 133.199 163.189C133.301 162.871 133.411 162.553 133.528 162.244C133.556 162.18 133.585 162.117 133.619 162.055H133.473L147.4 129.637L197.209 125.256L190.072 142.753C189.917 142.914 189.767 143.083 189.623 143.264C188.563 144.607 188.037 146.337 187.794 147.962C186.003 145.902 184.47 144.289 184.017 144.018C183.044 143.433 179.865 143.554 178.082 145.254C177.321 145.976 176.645 147.127 176.838 148.876C175.429 148.488 174.229 148.552 173.275 149.088C171.98 149.802 171.285 151.273 171.215 153.46V153.747L171.372 153.986L171.781 154.601C170.467 154.418 167.966 154.272 166.745 155.538C166.304 155.989 165.846 156.809 166.16 158.147L166.185 158.251L166.232 158.344C166.232 158.363 166.694 159.266 167.417 160.635C166.44 160.595 165.162 160.737 164.225 161.542C163.352 162.295 162.979 163.428 163.121 164.91C163.36 167.43 165.132 170.726 167.103 173.439L124.192 179.914ZM172.599 176.777C170.8 175.878 165.198 168.935 164.797 164.738C164.712 163.838 164.886 163.191 165.318 162.831C165.751 162.47 166.471 162.328 167.114 162.328C167.45 162.329 167.785 162.357 168.116 162.413L169.208 163.96C169.632 164.732 170.096 165.537 170.569 166.345C173.563 171.461 175.376 173.657 176.543 174.624C175.299 175.898 173.491 177.218 172.599 176.777ZM183.112 172.383C181.882 173.299 179.911 174.026 178.279 173.592C178.173 173.559 178.071 173.511 177.978 173.45L171.115 163.713C170.085 161.892 168.996 159.857 167.883 157.63C167.769 157.047 167.953 156.858 168.025 156.782C168.614 156.176 170.556 156.207 171.859 156.426C173.989 158.812 176.166 161.301 178.086 163.556C180.35 166.582 181.969 168.498 183.139 169.719C183.518 170.183 183.855 170.679 184.146 171.203C184.11 171.383 183.83 171.847 183.112 172.383ZM190.339 168.087C189.233 169.632 187.675 170.501 186.545 170.207C186.121 170.094 185.422 169.511 184.532 168.585C183.612 167.362 182.071 165.455 179.483 162.426C177.389 159.637 175.119 156.4 173.027 153.236C173.112 151.89 173.487 151.025 174.142 150.661C175.265 150.037 177.181 150.834 177.934 151.248C181.961 155.063 189.788 162.651 191.075 164.584C191.588 165.349 191.295 166.758 190.339 168.087ZM191.759 162.54C188.639 158.893 179.521 150.264 179.091 149.857L179.017 149.787L178.928 149.734L178.847 149.69C178.423 148.401 178.548 147.394 179.197 146.687C180.045 145.76 181.554 145.495 182.457 145.495C182.675 145.487 182.893 145.512 183.103 145.57C183.572 145.917 185.895 148.42 188.582 151.68C192.264 156.146 193.396 158.087 193.485 158.53C193.641 159.312 192.779 160.993 191.759 162.54ZM193.044 154.463C192.003 153.037 190.712 151.415 189.441 149.878C189.508 148.104 189.865 145.881 191.054 144.368C191.419 143.9 191.876 143.513 192.398 143.231C192.919 142.948 193.493 142.776 194.084 142.725L194.61 142.876C194.229 144.893 193.307 150.167 193.044 154.463Z" fill="#454545"/>
<path d="M51.6191 48.668C51.6191 48.668 60.0972 58.6297 68.9991 61.597C77.901 64.5643 75.5696 60.7492 75.5696 60.7492L75.1457 58.6297L51.6191 48.668Z" fill="#454545"/>
</svg>
