<svg width="28" height="28" viewBox="0 0 28 28" fill="none" xmlns="http://www.w3.org/2000/svg">
<path d="M6.62492 15.375C6.5397 14.9217 6.49782 14.4613 6.49995 14C6.49896 12.4489 6.97939 10.9357 7.875 9.66933C8.77061 8.40285 10.0372 7.44566 11.5 6.92969V12.5547L6.62492 15.375Z" fill="black" fill-opacity="0.1"/>
<path d="M14.625 14V6.5C14.625 6.15482 14.3452 5.875 14 5.875C13.6548 5.875 13.375 6.15482 13.375 6.5V14C13.375 14.3452 13.6548 14.625 14 14.625C14.3452 14.625 14.625 14.3452 14.625 14Z" fill="#1C1C1C"/>
<path d="M7.19567 17.2085L7.1952 17.2088C7.05167 17.2917 6.94695 17.4282 6.90408 17.5884C6.88996 17.6411 6.88281 17.6954 6.88281 17.75C6.88281 17.7566 6.88292 17.7632 6.88313 17.7698C6.8864 17.8728 6.91507 17.9734 6.96661 18.0626C7.07827 18.2559 7.28457 18.375 7.50781 18.375C7.51752 18.375 7.52723 18.3748 7.53693 18.3743C7.63671 18.3697 7.73392 18.3412 7.82042 18.2912L7.82089 18.2909L20.8048 10.7912C20.9981 10.6795 21.1172 10.4732 21.1172 10.25C21.1172 10.2403 21.117 10.2306 21.1165 10.2209C21.1119 10.1211 21.0834 10.0239 21.0334 9.93739C20.9505 9.79386 20.814 9.68913 20.6538 9.64626C20.6011 9.63215 20.5468 9.625 20.4922 9.625C20.4856 9.625 20.479 9.6251 20.4724 9.62531C20.3694 9.62858 20.2688 9.65726 20.1796 9.7088L7.19567 17.2085Z" fill="#1C1C1C"/>
<path fill-rule="evenodd" clip-rule="evenodd" d="M11.8129 13.0957L6.93791 15.916C6.79443 15.999 6.62385 16.0216 6.4637 15.9788C6.30355 15.9361 6.16695 15.8315 6.08394 15.688C6.04854 15.6268 6.02378 15.56 6.01071 15.4905C6.01071 15.4905 5.87148 14.7503 5.87494 13.9971C5.87494 13.9971 5.87329 11.4174 7.3647 9.30843C7.3647 9.30843 8.85611 7.19949 11.292 6.34028C11.4484 6.28514 11.6202 6.29436 11.7697 6.36591C11.9192 6.43745 12.0342 6.56547 12.0893 6.72179C12.1129 6.78857 12.1249 6.85887 12.1249 6.92969V12.5547C12.1249 12.7778 12.006 12.984 11.8129 13.0957ZM7.13282 14.3591L10.8749 12.1942V7.87232C10.8749 7.87232 9.3812 8.6219 8.38529 10.0302C8.38529 10.0302 7.12354 11.8144 7.12493 14.0029C7.12493 14.0029 7.12411 14.1814 7.13282 14.3591Z" fill="#1C1C1C"/>
<path d="M10.5993 19.9755C9.00112 19.0662 8.07024 17.4805 8.07024 17.4805C7.98633 17.3375 7.84906 17.2338 7.68864 17.192C7.63725 17.1786 7.58436 17.1719 7.53125 17.1719C7.52318 17.1719 7.5151 17.172 7.50703 17.1723C7.40407 17.1763 7.3037 17.2057 7.21484 17.2579C7.02367 17.3701 6.90625 17.5752 6.90625 17.7969L6.90625 17.7987C6.90657 17.9093 6.93625 18.0179 6.99226 18.1133C8.09239 19.9873 9.98116 21.062 9.98116 21.062C11.8699 22.1366 14.043 22.1249 14.043 22.1249C16.2161 22.1132 18.0931 21.0182 18.0931 21.0182C19.9702 19.9232 21.05 18.0374 21.05 18.0374C22.1299 16.1516 22.1241 13.9785 22.1241 13.9785C22.1184 11.8055 21.0286 9.92538 21.0286 9.92538C19.9388 8.04531 18.056 6.96028 18.056 6.96028C16.1732 5.87525 14.0001 5.875 14.0001 5.875C13.9619 5.875 13.9238 5.87849 13.8863 5.88542C13.5901 5.94022 13.375 6.19861 13.375 6.49993C13.375 6.50996 13.3752 6.51998 13.3757 6.52995C13.3832 6.68515 13.4482 6.83201 13.558 6.94189C13.6752 7.05911 13.8342 7.12498 13.9999 7.125H14.0002C15.8388 7.12528 17.4319 8.04331 17.4319 8.04331C19.025 8.96141 19.9471 10.5522 19.9471 10.5522C20.8693 12.1431 20.8741 13.9818 20.8741 13.9818C20.879 15.8206 19.9653 17.4163 19.9653 17.4163C19.0516 19.012 17.4633 19.9385 17.4633 19.9385C15.875 20.865 14.0362 20.8749 14.0362 20.8749C12.1975 20.8848 10.5993 19.9755 10.5993 19.9755Z" fill="#1C1C1C"/>
</svg>
