<svg width="10" height="14" viewBox="0 0 10 14" fill="none" xmlns="http://www.w3.org/2000/svg">
<path d="M8.64645 5.34033C8.84171 5.55323 9.15829 5.55323 9.35355 5.34033C9.54882 5.12743 9.54882 4.78225 9.35355 4.56935L6.06066 0.979023C5.47487 0.340325 4.52513 0.340326 3.93934 0.979024L0.646446 4.56935C0.451184 4.78225 0.451185 5.12743 0.646446 5.34032C0.841709 5.55322 1.15829 5.55322 1.35355 5.34032L4.64645 1.75C4.84171 1.5371 5.15829 1.5371 5.35355 1.75L8.64645 5.34033Z" fill="black" fill-opacity="0.2"/>
<path d="M1.35355 8.65968C1.15829 8.44678 0.841709 8.44678 0.646447 8.65968C0.451185 8.87257 0.451185 9.21775 0.646447 9.43065L3.93934 13.021C4.52513 13.6597 5.47487 13.6597 6.06066 13.021L9.35355 9.43065C9.54882 9.21775 9.54882 8.87258 9.35355 8.65968C9.15829 8.44678 8.84171 8.44678 8.64645 8.65968L5.35355 12.25C5.15829 12.4629 4.84171 12.4629 4.64645 12.25L1.35355 8.65968Z" fill="black" fill-opacity="0.2"/>
</svg>
