<svg width="14" height="14" viewBox="0 0 14 14" fill="none" xmlns="http://www.w3.org/2000/svg">
<path fill-rule="evenodd" clip-rule="evenodd" d="M10.75 1H3.25C2.00736 1 1 2.00736 1 3.25V10.75C1 11.9926 2.00736 13 3.25 13H10.75C11.9926 13 13 11.9926 13 10.75V3.25C13 2.00736 11.9926 1 10.75 1ZM3.25 0.25C1.59315 0.25 0.25 1.59315 0.25 3.25V10.75C0.25 12.4069 1.59315 13.75 3.25 13.75H10.75C12.4069 13.75 13.75 12.4069 13.75 10.75V3.25C13.75 1.59315 12.4069 0.25 10.75 0.25H3.25Z" fill="black" fill-opacity="0.2"/>
</svg>
