<svg width="64" height="64" viewBox="0 0 64 64" fill="none" xmlns="http://www.w3.org/2000/svg">
<path d="M8 20H56V14C56 13.4697 55.7893 12.9609 55.4142 12.5859C55.0392 12.2109 54.5304 12 54 12H10C9.46957 12 8.96085 12.2109 8.58578 12.5859C8.21072 12.9609 8 13.4697 8 14V20Z" fill="black" fill-opacity="0.1"/>
<path fill-rule="evenodd" clip-rule="evenodd" d="M6 14C6 14 6 12.3431 7.17157 11.1716C7.17157 11.1716 8.34315 10 10 10H54C54 10 55.6569 10 56.8284 11.1716C56.8284 11.1716 58 12.3431 58 14V50C58 50 58 51.6569 56.8284 52.8284C56.8284 52.8284 55.6569 54 54 54H10C10 54 8.34314 54 7.17157 52.8284C7.17157 52.8284 6 51.6569 6 50V14ZM10 14V50H54V14H10Z" fill="#1C1C1C"/>
<path d="M8 22H56C57.1046 22 58 21.1046 58 20C58 18.8954 57.1046 18 56 18H8C6.89543 18 6 18.8954 6 20C6 21.1046 6.89543 22 8 22Z" fill="#1C1C1C"/>
<path d="M26.3431 33.6569C24 31.3137 24 28 24 28C24 26.8954 23.1046 26 22 26C20.8954 26 20 26.8954 20 28C20 32.9706 23.5147 36.4853 23.5147 36.4853C27.0294 40 32 40 32 40C36.9706 40 40.4853 36.4853 40.4853 36.4853C44 32.9706 44 28 44 28C44 26.8954 43.1046 26 42 26C40.8954 26 40 26.8954 40 28C40 31.3137 37.6569 33.6569 37.6569 33.6569C35.3137 36 32 36 32 36C28.6863 36 26.3431 33.6569 26.3431 33.6569Z" fill="#1C1C1C"/>
</svg>
