<svg width="32" height="32" viewBox="0 0 32 32" fill="none" xmlns="http://www.w3.org/2000/svg">
<g clip-path="url(#clip0_267_149247)">
<path d="M6.72427 20.2208C6.72427 22.0709 5.21294 23.5822 3.36287 23.5822C1.51279 23.5822 0.00146484 22.0709 0.00146484 20.2208C0.00146484 18.3707 1.51279 16.8594 3.36287 16.8594H6.72427V20.2208Z" fill="#E01E5A"/>
<path d="M8.41895 20.2208C8.41895 18.3707 9.93027 16.8594 11.7803 16.8594C13.6304 16.8594 15.1417 18.3707 15.1417 20.2208V28.6373C15.1417 30.4874 13.6304 31.9987 11.7803 31.9987C9.93027 31.9987 8.41895 30.4874 8.41895 28.6373V20.2208Z" fill="#E01E5A"/>
<path d="M11.7803 6.7228C9.93027 6.7228 8.41895 5.21148 8.41895 3.3614C8.41895 1.51133 9.93027 0 11.7803 0C13.6304 0 15.1417 1.51133 15.1417 3.3614V6.7228H11.7803Z" fill="#36C5F0"/>
<path d="M11.7794 8.41602C13.6295 8.41602 15.1408 9.92734 15.1408 11.7774C15.1408 13.6275 13.6295 15.1388 11.7794 15.1388H3.36287C1.51279 15.1388 0.00146484 13.6275 0.00146484 11.7774C0.00146484 9.92734 1.51279 8.41602 3.36287 8.41602H11.7794Z" fill="#36C5F0"/>
<path d="M25.2761 11.7774C25.2761 9.92734 26.7875 8.41602 28.6375 8.41602C30.4876 8.41602 31.9989 9.92734 31.9989 11.7774C31.9989 13.6275 30.4876 15.1388 28.6375 15.1388H25.2761V11.7774Z" fill="#2EB67D"/>
<path d="M23.5849 11.7779C23.5849 13.628 22.0735 15.1393 20.2235 15.1393C18.3734 15.1393 16.8621 13.628 16.8621 11.7779V3.3614C16.8621 1.51133 18.3734 0 20.2235 0C22.0735 0 23.5849 1.51133 23.5849 3.3614V11.7779Z" fill="#2EB67D"/>
<path d="M20.2235 25.2754C22.0735 25.2754 23.5849 26.7867 23.5849 28.6368C23.5849 30.4869 22.0735 31.9982 20.2235 31.9982C18.3734 31.9982 16.8621 30.4869 16.8621 28.6368V25.2754H20.2235Z" fill="#ECB22E"/>
<path d="M20.2235 23.5822C18.3734 23.5822 16.8621 22.0709 16.8621 20.2208C16.8621 18.3707 18.3734 16.8594 20.2235 16.8594H28.64C30.4901 16.8594 32.0014 18.3707 32.0014 20.2208C32.0014 22.0709 30.4901 23.5822 28.64 23.5822H20.2235Z" fill="#ECB22E"/>
</g>
<defs>
<clipPath id="clip0_267_149247">
<rect width="32" height="32" fill="white"/>
</clipPath>
</defs>
</svg>
