<svg width="32" height="32" viewBox="0 0 32 32" fill="none" xmlns="http://www.w3.org/2000/svg">
<path d="M16.7355 3.69806C16.7355 3.31253 16.4051 3 15.9976 3C15.5901 3 15.2598 3.31253 15.2598 3.69806V7.71769C15.2598 7.92159 14.9992 8.02371 14.8468 7.87953L12.6753 5.82506C12.3871 5.55245 11.92 5.55245 11.6318 5.82506C11.3437 6.09767 11.3437 6.53966 11.6318 6.81227L14.8347 9.84245C15.1069 10.1 15.2598 10.4493 15.2598 10.8135V14.3906C15.2598 14.5668 15.0582 14.6769 14.8969 14.5888L11.612 12.7945C11.2786 12.6124 11.0354 12.3125 10.9357 11.9607L9.76342 7.8214C9.65795 7.449 9.25337 7.22801 8.85975 7.32779C8.46614 7.42757 8.23255 7.81035 8.33802 8.18274L9.13286 10.9892C9.18864 11.1862 8.96488 11.3486 8.77823 11.2467L5.10925 9.24256C4.75634 9.04979 4.30509 9.16419 4.10134 9.49807C3.89759 9.83194 4.0185 10.2589 4.37141 10.4516L8.04448 12.458C8.23112 12.5599 8.19431 12.8245 7.98613 12.8772L5.01331 13.6309C4.6197 13.7307 4.38611 14.1134 4.49158 14.4858C4.59704 14.8582 5.00163 15.0792 5.39524 14.9794L9.77685 13.8687C10.1487 13.7744 10.5449 13.8238 10.8783 14.0059L14.1614 15.7992C14.3227 15.8873 14.3227 16.1075 14.1614 16.1956L10.8718 17.9925C10.5384 18.1746 10.1422 18.224 9.7704 18.1297L5.39524 17.0206C5.00163 16.9208 4.59705 17.1418 4.49158 17.5142C4.38611 17.8866 4.6197 18.2693 5.01331 18.3691L7.97968 19.1211C8.18786 19.1739 8.22467 19.4384 8.03802 19.5404L4.36904 21.5445C4.01614 21.7373 3.89523 22.1642 4.09897 22.4981C4.30272 22.8319 4.75398 22.9463 5.10688 22.7536L8.77996 20.7472C8.96661 20.6453 9.19037 20.8077 9.13459 21.0047L8.33802 23.8173C8.23255 24.1897 8.46614 24.5724 8.85975 24.6722C9.25337 24.772 9.65795 24.551 9.76342 24.1786L10.9375 20.0332C11.0371 19.6814 11.2804 19.3815 11.6138 19.1994L14.8969 17.406C15.0582 17.3179 15.2598 17.428 15.2598 17.6042V21.198C15.2598 21.5622 15.1069 21.9115 14.8347 22.169L11.6318 25.1992C11.3437 25.4718 11.3437 25.9138 11.6318 26.1864C11.92 26.459 12.3871 26.459 12.6753 26.1864L14.8468 24.1319C14.9992 23.9877 15.2598 24.0899 15.2598 24.2938V28.3019C15.2598 28.6875 15.5901 29 15.9976 29C16.4051 29 16.7355 28.6875 16.7355 28.3019V24.2893C16.7355 24.0854 16.9961 23.9833 17.1485 24.1274L19.3247 26.1864C19.6129 26.459 20.08 26.459 20.3682 26.1864C20.6563 25.9138 20.6563 25.4718 20.3682 25.1992L17.1606 22.1645C16.8884 21.907 16.7355 21.5577 16.7355 21.1935V17.6016C16.7355 17.4254 16.9371 17.3153 17.0984 17.4034L20.3758 19.1936C20.7092 19.3757 20.9524 19.6757 21.0521 20.0275L22.2261 24.1729C22.3316 24.5453 22.7362 24.7663 23.1298 24.6665C23.5234 24.5667 23.757 24.1839 23.6515 23.8115L22.855 20.999C22.7992 20.802 23.0229 20.6396 23.2096 20.7415L26.8931 22.7536C27.246 22.9463 27.6973 22.8319 27.901 22.4981C28.1048 22.1642 27.9839 21.7373 27.631 21.5445L23.9515 19.5347C23.7649 19.4327 23.8017 19.1682 24.0098 19.1154L26.9762 18.3634C27.3698 18.2636 27.6034 17.8809 27.498 17.5085C27.3925 17.1361 26.9879 16.9151 26.5943 17.0149L22.2191 18.124C21.8473 18.2182 21.4511 18.1689 21.1177 17.9868L17.8386 16.1956C17.6773 16.1075 17.6773 15.8873 17.8386 15.7992L21.1113 14.0116C21.4446 13.8295 21.8408 13.7801 22.2127 13.8744L26.5943 14.9851C26.9879 15.0849 27.3925 14.8639 27.498 14.4915C27.6034 14.1192 27.3698 13.7364 26.9762 13.6366L24.0034 12.883C23.7952 12.8302 23.7584 12.5656 23.9451 12.4637L27.6286 10.4516C27.9815 10.2589 28.1024 9.83194 27.8987 9.49807C27.6949 9.16419 27.2437 9.04979 26.8908 9.24256L23.2113 11.2524C23.0247 11.3543 22.8009 11.1919 22.8567 10.9949L23.6515 8.18846C23.757 7.81607 23.5234 7.4333 23.1298 7.33351C22.7362 7.23373 22.3316 7.45473 22.2261 7.82712L21.0538 11.9664C20.9542 12.3182 20.7109 12.6182 20.3775 12.8003L17.0984 14.5914C16.9371 14.6795 16.7355 14.5694 16.7355 14.3932V10.8179C16.7355 10.4537 16.8884 10.1044 17.1606 9.84692L20.3682 6.81227C20.6563 6.53966 20.6563 6.09767 20.3682 5.82506C20.08 5.55245 19.6129 5.55245 19.3247 5.82506L17.1485 7.88399C16.9961 8.02818 16.7355 7.92606 16.7355 7.72216V3.69806Z" fill="#1C1C1C"/>
</svg>
