<svg version="1.2" xmlns="http://www.w3.org/2000/svg" viewBox="0 0 18 14" width="18" height="14"><style>.a{opacity:.1}.b{fill:#1c1c1c}</style><path class="a" d="m12.1 13.2v-12.5h3.8q0.2 0.1 0.4 0.2 0.2 0.2 0.2 0.5v11.2q0 0.3-0.2 0.5-0.2 0.1-0.4 0.1z"/><path class="b" d="m12.7 0.7v12.5c0 0.4-0.2 0.7-0.6 0.7-0.3 0-0.6-0.3-0.6-0.7v-12.5c0-0.3 0.3-0.6 0.6-0.6 0.4 0 0.6 0.3 0.6 0.6z"/><path fill-rule="evenodd" class="b" d="m17.1 12.6c0 0.5-0.3 0.9-0.3 0.9-0.4 0.4-0.9 0.4-0.9 0.4h-13.8c-0.5 0-0.9-0.4-0.9-0.4-0.3-0.4-0.3-0.9-0.3-0.9v-11.2c0-0.5 0.3-0.9 0.3-0.9 0.4-0.4 0.9-0.4 0.9-0.4h13.8c0.5 0 0.9 0.4 0.9 0.4 0.3 0.4 0.3 0.9 0.3 0.9zm-15 0h13.8v-11.3h-13.8z"/><path class="b" d="m16.5 3.9h-1.9c-0.3 0-0.6-0.3-0.6-0.7 0-0.3 0.3-0.6 0.6-0.6h1.9c0.3 0 0.6 0.3 0.6 0.6 0 0.4-0.3 0.7-0.6 0.7z"/><path class="b" d="m16.5 6.4h-1.9c-0.3 0-0.6-0.3-0.6-0.7 0-0.3 0.3-0.6 0.6-0.6h1.9c0.3 0 0.6 0.3 0.6 0.6 0 0.4-0.3 0.7-0.6 0.7z"/><path class="b" d="m16.5 8.9h-1.9c-0.3 0-0.6-0.3-0.6-0.7 0-0.3 0.3-0.6 0.6-0.6h1.9c0.3 0 0.6 0.3 0.6 0.6 0 0.4-0.3 0.7-0.6 0.7z"/></svg>