<svg width="64" height="64" viewBox="0 0 64 64" fill="none" xmlns="http://www.w3.org/2000/svg">
<path d="M33.1001 47.675L45.7 55.675C47.325 56.7001 49.325 55.175 48.8501 53.3L45.2 38.9501C45.1013 38.5522 45.1169 38.1348 45.2454 37.7455C45.3735 37.3563 45.6091 37.0112 45.925 36.7501L57.2251 27.3251C58.7 26.1001 57.95 23.6251 56.0249 23.5001L41.2749 22.55C40.8726 22.5266 40.4856 22.3865 40.1616 22.1467C39.8374 21.907 39.5901 21.578 39.45 21.2001L33.95 7.3501C33.8044 6.94983 33.5391 6.60413 33.1904 6.35974C32.8416 6.11548 32.4258 5.98438 32 5.98438C31.574 5.98438 31.1584 6.11548 30.8096 6.35974C30.4607 6.60413 30.1956 6.94983 30.05 7.3501L24.55 21.2001C24.4099 21.578 24.1626 21.907 23.8384 22.1467C23.5144 22.3865 23.1274 22.5266 22.7251 22.55L7.9751 23.5001C6.05005 23.6251 5.30005 26.1001 6.7749 27.3251L18.075 36.7501C18.3909 37.0112 18.6265 37.3563 18.7546 37.7455C18.8831 38.1348 18.8987 38.5522 18.8 38.9501L15.425 52.2501C14.8501 54.5001 17.25 56.3251 19.175 55.1001L30.8999 47.675C31.2288 47.4659 31.6104 47.355 32 47.355C32.3896 47.355 32.7712 47.4659 33.1001 47.675Z" fill="black" fill-opacity="0.1"/>
<path fill-rule="evenodd" clip-rule="evenodd" d="M32.0266 49.3628C32.0266 49.3628 32.0143 49.3549 31.9998 49.3549C31.9998 49.3549 31.9852 49.3549 31.9729 49.3628L20.2448 56.7898C20.2448 56.7898 18.9972 57.5837 17.5566 57.4831C17.5566 57.4831 16.2309 57.3905 15.152 56.5704C15.152 56.5704 14.0865 55.7605 13.6229 54.5141C13.6229 54.5141 13.1244 53.1739 13.4871 51.7549L16.8612 38.4581C16.8612 38.4581 16.8708 38.4194 16.855 38.3715C16.855 38.3715 16.8392 38.3236 16.8003 38.2914L5.49374 28.8609C5.49374 28.8609 4.47089 28.0115 4.13531 26.7377C4.13531 26.7377 3.82862 25.5737 4.18921 24.4087C4.18921 24.4087 4.55381 23.2307 5.47671 22.4507C5.47671 22.4507 6.49255 21.5921 7.84518 21.5043L22.5962 20.5542C22.5962 20.5542 22.6309 20.5521 22.6489 20.5389C22.6489 20.5389 22.6668 20.5256 22.6746 20.5046L22.691 20.4619L28.1818 6.63499C28.1818 6.63499 28.6233 5.44913 29.6621 4.72156C29.6621 4.72156 30.7147 3.98438 31.9998 3.98438C31.9998 3.98438 33.2848 3.98438 34.3374 4.72156C34.3374 4.72156 35.3763 5.44914 35.8177 6.63498L41.3086 20.4619L41.325 20.5046C41.325 20.5046 41.3327 20.5256 41.3507 20.5389C41.3507 20.5389 41.3687 20.5521 41.391 20.5534L56.1533 21.5042C56.1533 21.5042 57.507 21.5921 58.5229 22.4507C58.5229 22.4507 59.4457 23.2307 59.8103 24.4087C59.8103 24.4087 60.1709 25.5737 59.8643 26.7377C59.8643 26.7377 59.5287 28.0115 58.5026 28.8636L47.2058 38.2859C47.2058 38.2859 47.1604 38.3236 47.1446 38.3715C47.1446 38.3715 47.1288 38.4194 47.1409 38.4684L50.7881 52.807C50.7881 52.807 51.1138 54.0929 50.6598 55.3069C50.6598 55.3069 50.2372 56.4368 49.2697 57.1695C49.2697 57.1695 48.2889 57.9122 47.0816 57.9953C47.0816 57.9953 45.7723 58.0855 44.6328 57.3667L32.0293 49.3645L32.0278 49.3635L32.0266 49.3628ZM46.7668 53.9835L34.1733 45.9876L34.1718 45.9866C34.1718 45.9866 33.1777 45.3549 31.9998 45.3549C31.9998 45.3549 30.8212 45.3549 29.8266 45.9874L18.1048 53.4104C18.1048 53.4104 17.8326 53.5836 17.5726 53.386C17.5726 53.386 17.2596 53.148 17.3625 52.7453L20.7383 39.442C20.7383 39.442 21.0309 38.2631 20.654 37.1195C20.654 37.1195 20.2772 35.976 19.3493 35.2087L8.05582 25.7892C8.05582 25.7892 7.97096 25.7187 8.01035 25.5914C8.01035 25.5914 8.03861 25.5001 8.10438 25.4959L22.8533 24.5459C22.8533 24.5459 24.0522 24.4762 25.0277 23.7546C25.0277 23.7546 25.9925 23.0409 26.4157 21.9202L31.9086 8.08821L31.9293 8.03373C31.9293 8.03373 31.9374 8.01151 31.9568 7.99794C31.9568 7.99794 31.9761 7.98438 31.9998 7.98438C31.9998 7.98438 32.0234 7.98438 32.0428 7.99794C32.0428 7.99794 32.0622 8.01151 32.0703 8.03373L32.091 8.08821L37.5838 21.9202C37.5838 21.9202 38.0071 23.0409 38.9719 23.7546C38.9719 23.7546 39.9473 24.4762 41.1586 24.5467L55.8962 25.4959C55.8962 25.4959 55.9609 25.5001 55.9892 25.5914C55.9892 25.5914 56.0286 25.7187 55.947 25.7865L44.6437 35.2142C44.6437 35.2142 43.7224 35.976 43.3455 37.1195C43.3455 37.1195 42.9687 38.2631 43.2586 39.4317L46.9115 53.7931C46.9115 53.7931 46.9422 53.9145 46.8549 53.9807C46.8549 53.9807 46.8128 54.0125 46.7668 53.9835Z" fill="#1C1C1C"/>
</svg>
