<svg width="14" height="14" viewBox="0 0 14 14" fill="none" xmlns="http://www.w3.org/2000/svg">
<path fill-rule="evenodd" clip-rule="evenodd" d="M3 0C1.34315 0 0 1.34315 0 3V10.5C0 12.1569 1.34315 13.5 3 13.5H10.5C12.1569 13.5 13.5 12.1569 13.5 10.5V3C13.5 1.34315 12.1569 0 10.5 0H3ZM9.53033 5.78033C9.82322 5.48744 9.82322 5.01256 9.53033 4.71967C9.23744 4.42678 8.76256 4.42678 8.46967 4.71967L6 7.18934L5.03033 6.21967C4.73744 5.92678 4.26256 5.92678 3.96967 6.21967C3.67678 6.51256 3.67678 6.98744 3.96967 7.28033L5.46967 8.78033C5.76256 9.07322 6.23744 9.07322 6.53033 8.78033L9.53033 5.78033Z" fill="black" fill-opacity="1"/>
</svg>
