<svg width="64" height="64" viewBox="0 0 64 64" fill="none" xmlns="http://www.w3.org/2000/svg">
<path d="M47 32C47 40.2842 40.2842 47 32 47C23.7158 47 17 40.2842 17 32C17 23.7158 23.7158 17 32 17C40.2842 17 47 23.7158 47 32Z" fill="black" fill-opacity="0.1"/>
<path fill-rule="evenodd" clip-rule="evenodd" d="M32 15C32 15 35.4573 15 38.6178 16.3368C38.6178 16.3368 41.6689 17.6273 44.0208 19.9792C44.0208 19.9792 46.3727 22.3311 47.6632 25.3822C47.6632 25.3822 49 28.5427 49 32C49 32 49 35.4573 47.6632 38.6178C47.6632 38.6178 46.3727 41.6689 44.0208 44.0208C44.0208 44.0208 41.6689 46.3727 38.6178 47.6632C38.6178 47.6632 35.4573 49 32 49C32 49 28.5427 49 25.3822 47.6632C25.3822 47.6632 22.3311 46.3727 19.9792 44.0208C19.9792 44.0208 17.6273 41.6689 16.3368 38.6178C16.3368 38.6178 15 35.4573 15 32C15 32 15 28.5427 16.3368 25.3822C16.3368 25.3822 17.6273 22.3311 19.9792 19.9792C19.9792 19.9792 22.3311 17.6273 25.3822 16.3368C25.3822 16.3368 28.5427 15 32 15ZM32 19C32 19 26.6152 19 22.8076 22.8076C22.8076 22.8076 19 26.6152 19 32C19 32 19 37.3848 22.8076 41.1924C22.8076 41.1924 26.6152 45 32 45C32 45 37.3848 45 41.1924 41.1924C41.1924 41.1924 45 37.3848 45 32C45 32 45 26.6152 41.1924 22.8076C41.1924 22.8076 37.3848 19 32 19Z" fill="#1C1C1C"/>
<path d="M34 9V4C34 2.89543 33.1046 2 32 2C30.8954 2 30 2.89543 30 4V9C30 10.1046 30.8954 11 32 11C33.1046 11 34 10.1046 34 9Z" fill="#1C1C1C"/>
<path d="M13.6144 10.785C13.2393 10.4099 12.7306 10.1992 12.2002 10.1992C11.6698 10.1992 11.1611 10.4099 10.786 10.785C10.4109 11.1601 10.2002 11.6688 10.2002 12.1992C10.2002 12.7297 10.4109 13.2384 10.786 13.6134L14.311 17.1384C14.6861 17.5135 15.1948 17.7242 15.7252 17.7242C16.2556 17.7242 16.7643 17.5135 17.1394 17.1384C17.5145 16.7634 17.7252 16.2547 17.7252 15.7242C17.7252 15.1938 17.5145 14.6851 17.1394 14.31L13.6144 10.785Z" fill="#1C1C1C"/>
<path d="M9 30H4C2.89543 30 2 30.8954 2 32C2 33.1046 2.89543 34 4 34H9C10.1046 34 11 33.1046 11 32C11 30.8954 10.1046 30 9 30Z" fill="#1C1C1C"/>
<path d="M10.786 50.3862C10.4109 50.7612 10.2002 51.27 10.2002 51.8004C10.2002 51.8349 10.2011 51.8694 10.2029 51.9039C10.2285 52.3979 10.4362 52.8648 10.786 53.2146C11.1611 53.5897 11.6698 53.8004 12.2002 53.8004C12.7306 53.8004 13.2393 53.5897 13.6144 53.2146L17.1394 49.6896C17.5145 49.3145 17.7252 48.8058 17.7252 48.2754C17.7252 47.745 17.5145 47.2363 17.1394 46.8612C16.7643 46.4861 16.2556 46.2754 15.7252 46.2754C15.6907 46.2754 15.6562 46.2763 15.6217 46.2781C15.1277 46.3037 14.6608 46.5114 14.311 46.8612L10.786 50.3862Z" fill="#1C1C1C"/>
<path d="M30 55V60C30 61.1046 30.8954 62 32 62C33.1046 62 34 61.1046 34 60V55C34 53.8954 33.1046 53 32 53C30.8954 53 30 53.8954 30 55Z" fill="#1C1C1C"/>
<path d="M46.8609 49.6898L50.3857 53.2146C50.7608 53.5897 51.2695 53.8004 51.7999 53.8004C52.3303 53.8004 52.839 53.5897 53.2141 53.2146C53.5892 52.8395 53.7999 52.3308 53.7999 51.8004C53.7999 51.27 53.5892 50.7612 53.2141 50.3862L49.6894 46.8614C49.314 46.4861 48.8053 46.2754 48.2749 46.2754C47.7445 46.2754 47.2358 46.4861 46.8607 46.8612C46.4856 47.2362 46.2749 47.745 46.2749 48.2754C46.2749 48.8058 46.4856 49.3145 46.8609 49.6898Z" fill="#1C1C1C"/>
<path d="M55 34H60C61.1046 34 62 33.1046 62 32C62 30.8954 61.1046 30 60 30H55C53.8954 30 53 30.8954 53 32C53 33.1046 53.8954 34 55 34Z" fill="#1C1C1C"/>
<path d="M53.2141 13.6134C53.5892 13.2384 53.7999 12.7297 53.7999 12.1992C53.7999 11.6688 53.5892 11.1601 53.2141 10.785C52.839 10.4099 52.3303 10.1992 51.7999 10.1992C51.2695 10.1992 50.7608 10.4099 50.3857 10.785L46.8609 14.3098C46.4856 14.6851 46.2749 15.1938 46.2749 15.7242C46.2749 16.2547 46.4856 16.7634 46.8607 17.1384C47.2358 17.5135 47.7445 17.7242 48.2749 17.7242C48.8053 17.7242 49.314 17.5135 49.6891 17.1384L53.2141 13.6134Z" fill="#1C1C1C"/>
</svg>
