<?xml version="1.0" standalone="no"?>
<!DOCTYPE svg PUBLIC "-//W3C//DTD SVG 20010904//EN"
 "http://www.w3.org/TR/2001/REC-SVG-20010904/DTD/svg10.dtd">
<svg version="1.0" xmlns="http://www.w3.org/2000/svg"
 width="500.000000pt" height="500.000000pt" viewBox="0 0 500.000000 500.000000"
 preserveAspectRatio="xMidYMid meet">

<g transform="translate(0.000000,500.000000) scale(0.100000,-0.100000)"
fill="#000000" stroke="none">
<path d="M2358 4989 c-123 -29 -311 -161 -381 -266 -81 -123 -106 -205 -107
-348 0 -144 49 -288 132 -387 84 -100 247 -202 366 -227 68 -14 196 -14 264 0
117 25 305 146 379 244 22 29 55 91 74 139 34 83 35 89 35 224 0 185 -22 259
-112 378 -69 92 -262 220 -368 243 -54 13 -230 12 -282 0z"/>
<path d="M2362 3115 c-169 -40 -338 -175 -421 -334 -57 -109 -71 -165 -71
-281 1 -116 9 -157 56 -255 67 -142 177 -248 336 -326 l83 -40 165 3 165 3 75
39 c159 82 249 171 321 319 l50 102 -3 165 -3 165 -42 80 c-23 44 -59 102 -80
130 -80 103 -223 194 -363 230 -69 18 -195 18 -268 0z"/>
<path d="M2368 1234 c-118 -28 -271 -123 -358 -221 -46 -52 -110 -179 -129
-255 -14 -60 -14 -202 0 -270 12 -58 76 -193 116 -246 68 -91 251 -207 363
-231 63 -14 219 -14 280 -1 65 14 196 84 271 144 76 62 137 146 176 241 27 67
28 77 28 235 l0 165 -42 86 c-66 135 -165 230 -320 308 -118 59 -261 76 -385
45z"/>
</g>
</svg>
