<svg width="30" height="31" viewBox="0 0 30 31" fill="none" xmlns="http://www.w3.org/2000/svg">
<path d="M1.99571 14.0944C1.79571 13.9144 1.52571 13.8444 1.18571 13.8844C0.845714 13.9244 0.565714 14.0444 0.345714 14.2444C0.125714 14.4444 0.0107143 14.7044 0.000714286 15.0244C-0.00928571 15.3444 0.0857143 15.6044 0.285714 15.8044L5.17571 20.9344C5.39571 21.1344 5.65071 21.2344 5.94071 21.2344C6.23071 21.2344 6.47571 21.1344 6.67571 20.9344L16.8757 10.9444C17.0757 10.7444 17.1557 10.4794 17.1157 10.1494C17.0757 9.81938 16.9507 9.54438 16.7407 9.32438C16.5307 9.10437 16.2457 8.99438 15.8857 8.99438C15.5257 8.99438 15.2457 9.10437 15.0457 9.32438L5.98571 18.2944L1.99571 14.0944Z" fill="#414146"/>
</svg>
