<svg width="10" height="2" viewBox="0 0 10 2" fill="none" xmlns="http://www.w3.org/2000/svg">
<path d="M1 3.49691e-07C1.55228 3.2555e-07 2 0.447716 2 1C2 1.55229 1.55228 2 1 2C0.447715 2 2.41411e-08 1.55229 0 1C-2.41411e-08 0.447716 0.447715 3.73832e-07 1 3.49691e-07Z" fill="#1C1C1C"/>
<path d="M5 1.74846e-07C5.55228 1.50704e-07 6 0.447716 6 1C6 1.55229 5.55228 2 5 2C4.44772 2 4 1.55229 4 1C4 0.447716 4.44772 1.98987e-07 5 1.74846e-07Z" fill="#1C1C1C"/>
<path d="M10 1C10 0.447715 9.55229 -2.41409e-08 9 0C8.44771 2.41414e-08 8 0.447715 8 1C8 1.55229 8.44771 2 9 2C9.55229 2 10 1.55229 10 1Z" fill="#1C1C1C"/>
</svg>
