<svg width="27" height="16" viewBox="0 0 27 16" fill="none" xmlns="http://www.w3.org/2000/svg">
<path d="M21.1953 11.4402L24.2186 7.95623L22.7866 4.35156L21.1953 11.4402Z" fill="#097939"/>
<path d="M20.1777 11.4402L23.2011 7.95623L21.7684 4.35156L20.1777 11.4402Z" fill="#ED752E"/>
<path d="M5.72968 4.39369L4.45635 10.1204L8.97435 10.159L10.2164 4.39369H11.3624L9.87235 11.097C9.81568 11.3517 9.59902 11.5604 9.38835 11.5604H3.59635C3.24502 11.5604 3.03635 11.2137 3.13302 10.787L4.55235 4.39369H5.72968ZM19.701 4.35169H20.8464L19.2557 11.5604H18.0757L19.701 4.35169ZM11.4897 7.35436L17.219 7.31569L17.599 5.79436H11.7764L12.125 4.39102L18.3337 4.32036C18.719 4.31569 18.9484 4.69369 18.847 5.16436L18.263 7.86435C18.159 8.33635 17.763 8.71635 17.3777 8.71635H12.253L11.649 11.6804H10.5344L11.4897 7.35436Z" fill="#747474"/>
</svg>
