<svg width="24" height="24" viewBox="0 0 24 24" fill="none" xmlns="http://www.w3.org/2000/svg">
<path d="M23.6383 14.9029C22.0356 21.3315 15.5244 25.2438 9.09503 23.6407C2.66833 22.0381 -1.24401 15.5265 0.359382 9.09837C1.96137 2.66903 8.47253 -1.24361 14.8999 0.359081C21.3289 1.96177 25.241 8.47405 23.6381 14.903L23.6382 14.9029H23.6383Z" fill="#F2994A"/>
<path d="M15.7813 9.40625L15.4432 10.5597H9L9.33807 9.40625H15.7813ZM12.7585 17.1818L9.11932 12.7273L9.09943 11.892H10.9091C11.3797 11.892 11.7808 11.8258 12.1122 11.6932C12.4437 11.5573 12.6972 11.3551 12.8729 11.0866C13.0485 10.8149 13.1364 10.4735 13.1364 10.0625C13.1364 9.45597 12.9541 8.98035 12.5895 8.63565C12.2249 8.28764 11.6648 8.11364 10.9091 8.11364H9L9.33807 7H10.9091C11.7178 7 12.3807 7.13423 12.8977 7.4027C13.4181 7.66785 13.8026 8.03243 14.0511 8.49645C14.303 8.95715 14.429 9.47917 14.429 10.0625C14.429 10.5895 14.313 11.075 14.081 11.5192C13.8523 11.96 13.4844 12.3146 12.9773 12.5831C12.4735 12.8516 11.8073 12.9858 10.9787 12.9858H10.9489L14.3097 17.1023V17.1818H12.7585ZM15.7813 7L15.4432 8.15341L10.3722 8.11364L10.7102 7H15.7813Z" fill="white"/>
</svg>
