<svg width="16" height="16" viewBox="0 0 16 16" fill="none" xmlns="http://www.w3.org/2000/svg">
<path d="M8 2C6.78601 1.99963 5.60034 2.36755 4.59985 3.0553C3.59924 3.74292 2.83093 4.7179 2.39612 5.85156C1.96143 6.98511 1.88074 8.22388 2.16492 9.40417C2.4491 10.5846 3.08459 11.651 3.98755 12.4625C4.36377 11.7216 4.93787 11.0994 5.64612 10.6647C6.35437 10.23 7.16907 10 8 10C7.50562 10 7.02222 9.85339 6.61108 9.57874C6.19995 9.30396 5.87952 8.91357 5.69031 8.45667C5.5011 7.99988 5.45166 7.49719 5.5481 7.01233C5.64453 6.52734 5.88269 6.08191 6.2323 5.73218C6.58191 5.38257 7.02734 5.14453 7.51233 5.0481C7.99731 4.95154 8.5 5.0011 8.95679 5.19031C9.41357 5.37952 9.80408 5.69995 10.0787 6.11108C10.3534 6.52222 10.5 7.00549 10.5 7.5C10.5 8.16309 10.2367 8.79895 9.76782 9.26782C9.29895 9.73657 8.66309 10 8 10C8.83105 10 9.64575 10.23 10.354 10.6647C11.0623 11.0994 11.6364 11.7216 12.0126 12.4625C12.9155 11.651 13.551 10.5846 13.8352 9.40417C14.1193 8.22388 14.0387 6.98511 13.6039 5.85156C13.1692 4.7179 12.4008 3.74292 11.4003 3.0553C10.3998 2.36755 9.21411 1.99963 8 2Z" fill="black" fill-opacity="0.1"/>
<path fill-rule="evenodd" clip-rule="evenodd" d="M8 1.5C8 1.5 9.32209 1.5 10.5302 2.01101C10.5302 2.01101 11.6968 2.50442 12.5962 3.40381C12.5962 3.40381 13.4956 4.30319 13.989 5.46975C13.989 5.46975 14.5 6.67791 14.5 8C14.5 8 14.5 9.32208 13.989 10.5302C13.989 10.5302 13.4956 11.6968 12.5962 12.5962C12.5962 12.5962 11.6968 13.4956 10.5302 13.989C10.5302 13.989 9.32208 14.5 8 14.5C8 14.5 6.67791 14.5 5.46975 13.989C5.46975 13.989 4.30319 13.4956 3.40381 12.5962C3.40381 12.5962 2.50442 11.6968 2.01101 10.5302C2.01101 10.5302 1.5 9.32209 1.5 8C1.5 8 1.5 6.67791 2.01101 5.46975C2.01101 5.46975 2.50442 4.30319 3.40381 3.40381C3.40381 3.40381 4.30319 2.50442 5.46975 2.01101C5.46975 2.01101 6.67791 1.5 8 1.5ZM8 2.5C8 2.5 6.8807 2.5 5.85931 2.93201C5.85931 2.93201 4.87238 3.34945 4.11091 4.11091C4.11091 4.11091 3.34945 4.87238 2.93201 5.85931C2.93201 5.85931 2.5 6.8807 2.5 8C2.5 8 2.5 9.1193 2.93201 10.1407C2.93201 10.1407 3.34945 11.1276 4.11091 11.8891C4.11091 11.8891 4.87238 12.6506 5.85931 13.068C5.85931 13.068 6.8807 13.5 8 13.5C8 13.5 9.1193 13.5 10.1407 13.068C10.1407 13.068 11.1276 12.6506 11.8891 11.8891C11.8891 11.8891 12.6506 11.1276 13.068 10.1407C13.068 10.1407 13.5 9.1193 13.5 8C13.5 8 13.5 6.8807 13.068 5.85931C13.068 5.85931 12.6506 4.87238 11.8891 4.11091C11.8891 4.11091 11.1276 3.34945 10.1407 2.93201C10.1407 2.93201 9.1193 2.5 8 2.5Z" fill="#1C1C1C"/>
<path fill-rule="evenodd" clip-rule="evenodd" d="M8 4.5C8 4.5 9.24264 4.5 10.1213 5.37868C10.1213 5.37868 11 6.25736 11 7.5C11 7.5 11 8.74264 10.1213 9.62132C10.1213 9.62132 9.24264 10.5 8 10.5C8 10.5 6.75736 10.5 5.87868 9.62132C5.87868 9.62132 5 8.74264 5 7.5C5 7.5 5 6.25736 5.87868 5.37868C5.87868 5.37868 6.75736 4.5 8 4.5ZM8 5.5C8 5.5 7.17157 5.5 6.58579 6.08579C6.58579 6.08579 6 6.67157 6 7.5C6 7.5 6 8.32843 6.58579 8.91421C6.58579 8.91421 7.17157 9.5 8 9.5C8 9.5 8.82843 9.5 9.41421 8.91421C9.41421 8.91421 10 8.32843 10 7.5C10 7.5 10 6.67157 9.41421 6.08579C9.41421 6.08579 8.82843 5.5 8 5.5Z" fill="#1C1C1C"/>
<path d="M10.0925 11.091C11.0553 11.6819 11.5667 12.6892 11.5667 12.6892C11.6267 12.8075 11.7313 12.897 11.8573 12.9382C11.9075 12.9545 11.9598 12.9629 12.0125 12.9629L12.0262 12.9627C12.1002 12.9607 12.1729 12.9422 12.2389 12.9087C12.4068 12.8235 12.5125 12.6512 12.5125 12.4629C12.5125 12.4557 12.5124 12.4486 12.5121 12.4414C12.509 12.3701 12.4907 12.3002 12.4584 12.2365L12.4583 12.2364L12.4581 12.236C11.8189 10.9773 10.6156 10.2387 10.6156 10.2387C9.41216 9.5 8.00005 9.5 8.00005 9.5C6.58794 9.5 5.38445 10.2387 5.38445 10.2387C4.18097 10.9774 3.54172 12.2365 3.54172 12.2365C3.50611 12.3067 3.48755 12.3842 3.48755 12.4629L3.48756 12.4666C3.48895 12.6535 3.59451 12.8241 3.7612 12.9087C3.83134 12.9443 3.90889 12.9629 3.98755 12.9629L3.99126 12.9629C4.1782 12.9615 4.34875 12.8559 4.43338 12.6892C4.94478 11.6819 5.90757 11.091 5.90757 11.091C6.87036 10.5 8.00005 10.5 8.00005 10.5C9.12974 10.5 10.0925 11.091 10.0925 11.091Z" fill="#1C1C1C"/>
</svg>
