<svg width="21" height="20" viewBox="0 0 21 20" fill="none" xmlns="http://www.w3.org/2000/svg">
<path d="M7.17061 10.8456C7.0418 10.7225 6.87048 10.6538 6.69231 10.6538C6.69216 10.6538 6.67661 10.654 6.67661 10.654C6.49304 10.6582 6.31865 10.7351 6.19179 10.8678C6.0687 10.9967 6 11.168 6 11.3462L6.00018 11.3619C6.00434 11.5454 6.08126 11.7198 6.214 11.8467L8.74958 14.2697C9.01701 14.5253 9.43811 14.5255 9.70576 14.2702L14.7854 9.42416C14.9183 9.29742 14.9955 9.12293 14.9998 8.93937C15.0001 8.92828 15.0001 8.91719 14.9998 8.9061C14.9956 8.73405 14.9274 8.56973 14.8086 8.4452C14.678 8.30826 14.497 8.23077 14.3077 8.23077L14.2882 8.23105C14.117 8.23588 13.9537 8.30397 13.8298 8.42216L9.22829 12.812L7.17061 10.8456Z" fill="#27AE60"/>
<path fill-rule="evenodd" clip-rule="evenodd" d="M10.5 2C10.5 2 12.3306 2 14.0034 2.70755C14.0034 2.70755 15.6187 3.39074 16.864 4.63604C16.864 4.63604 18.1093 5.88134 18.7925 7.49658C18.7925 7.49658 19.5 9.16942 19.5 11C19.5 11 19.5 12.8306 18.7925 14.5034C18.7925 14.5034 18.1093 16.1187 16.864 17.364C16.864 17.364 15.6187 18.6093 14.0034 19.2925C14.0034 19.2925 12.3306 20 10.5 20C10.5 20 8.66942 20 6.99658 19.2925C6.99658 19.2925 5.38134 18.6093 4.13604 17.364C4.13604 17.364 2.89074 16.1187 2.20755 14.5034C2.20755 14.5034 1.5 12.8306 1.5 11C1.5 11 1.5 9.16941 2.20755 7.49658C2.20755 7.49658 2.89074 5.88134 4.13604 4.63604C4.13604 4.63604 5.38134 3.39074 6.99658 2.70755C6.99658 2.70755 8.66941 2 10.5 2ZM10.5 3.38461C10.5 3.38461 8.9502 3.38461 7.53596 3.98279C7.53596 3.98279 6.16945 4.56077 5.11511 5.61511C5.11511 5.61511 4.06077 6.66945 3.48279 8.03596C3.48279 8.03596 2.88462 9.45019 2.88462 11C2.88462 11 2.88462 12.5498 3.48279 13.964C3.48279 13.964 4.06077 15.3306 5.11511 16.3849C5.11511 16.3849 6.16945 17.4392 7.53596 18.0172C7.53596 18.0172 8.9502 18.6154 10.5 18.6154C10.5 18.6154 12.0498 18.6154 13.464 18.0172C13.464 18.0172 14.8305 17.4392 15.8849 16.3849C15.8849 16.3849 16.9392 15.3305 17.5172 13.964C17.5172 13.964 18.1154 12.5498 18.1154 11C18.1154 11 18.1154 9.4502 17.5172 8.03596C17.5172 8.03596 16.9392 6.66945 15.8849 5.61511C15.8849 5.61511 14.8305 4.56077 13.464 3.98279C13.464 3.98279 12.0498 3.38462 10.5 3.38461Z" fill="#27AE60"/>
</svg>
