<svg width="20" height="20" viewBox="0 0 20 20" fill="none" xmlns="http://www.w3.org/2000/svg">
<path d="M10 8.125V11.25" stroke="white" stroke-width="1.2" stroke-linecap="round" stroke-linejoin="round"/>
<path d="M8.92187 3.1252L2.04687 15.0002C1.93734 15.1899 1.87959 15.4051 1.8794 15.6241C1.8792 15.8431 1.93657 16.0584 2.04576 16.2483C2.15495 16.4382 2.31212 16.5961 2.50154 16.7061C2.69095 16.8161 2.90595 16.8744 3.12499 16.8752H16.875C17.094 16.8744 17.309 16.8161 17.4984 16.7061C17.6879 16.5961 17.845 16.4382 17.9542 16.2483C18.0634 16.0584 18.1208 15.8431 18.1206 15.6241C18.1204 15.4051 18.0626 15.1899 17.9531 15.0002L11.0781 3.1252C10.9694 2.93525 10.8125 2.77739 10.6231 2.66761C10.4338 2.55782 10.2188 2.5 9.99999 2.5C9.78114 2.5 9.56617 2.55782 9.37685 2.66761C9.18753 2.77739 9.03057 2.93525 8.92187 3.1252V3.1252Z" stroke="white" stroke-width="1.2" stroke-linecap="round" stroke-linejoin="round"/>
<path d="M10 14.6875C10.3452 14.6875 10.625 14.4077 10.625 14.0625C10.625 13.7173 10.3452 13.4375 10 13.4375C9.65482 13.4375 9.375 13.7173 9.375 14.0625C9.375 14.4077 9.65482 14.6875 10 14.6875Z" fill="white"/>
</svg>
