<svg width="36" height="36" viewBox="0 0 36 36" fill="none" xmlns="http://www.w3.org/2000/svg">
<path fill-rule="evenodd" clip-rule="evenodd" d="M17.7081 36C17.7081 31.2671 15.9379 27.1304 12.4037 23.5963C8.86957 20.0621 4.73292 18.2919 0 18.2919V17.7143C4.73292 17.7143 8.86957 15.9441 12.4037 12.4037C15.8654 8.92376 17.6348 4.88363 17.7058 0.289183C17.7083 0.129691 17.8374 0 17.9969 0C18.1564 0 18.2855 0.129704 18.2879 0.289196C18.3587 4.90161 20.1281 8.94173 23.5901 12.4037C27.1242 15.9379 31.2609 17.7081 35.9938 17.7081V18.2857C31.2609 18.2857 27.1242 20.0559 23.5901 23.5901C20.0559 27.1304 18.2857 31.2671 18.2857 36" fill="#4541FF"/>
</svg>
