<svg width="195" height="201" viewBox="0 0 195 201" fill="none" xmlns="http://www.w3.org/2000/svg">
<path opacity="0.5" d="M131.676 51.0425V37.2617L141.138 46.7231L153.89 42.1981L147.72 53.0993L158.004 63.1778L141.138 61.5323L130.442 76.1358L131.471 61.3266L120.158 59.6811L131.265 51.2482" fill="#EDD707"/>
<path d="M131.881 36.4375L135.995 52.4808L125.505 58.4456L137.023 59.0626L131.059 75.9286L132.087 61.1194L119.746 59.8853L131.628 50.6234L131.881 36.4375Z" fill="white"/>
<path opacity="0.54" d="M171.991 112.542C171.991 112.542 152.657 115.75 151.834 113.323C151.011 110.896 151.217 114.187 151.217 114.187L150.701 123.272L129.826 86.6255C129.826 86.6255 116.662 81.4834 113.783 83.9516C110.903 86.4198 110.697 96.9096 110.697 96.9096L106.172 99.5835L102.727 100.875C102.747 101.095 102.722 101.317 102.653 101.527C102.33 102.51 101.287 103.08 100.391 103.438C99.8549 103.646 99.305 103.816 98.7451 103.946C98.7451 104.043 98.7451 104.141 98.7451 104.238C98.7348 104.396 98.7163 104.555 98.706 104.713C98.7467 104.884 98.8082 105.049 98.8891 105.205C99.1441 105.692 99.1524 106.311 99.2141 106.85C99.2902 107.502 99.3231 108.156 99.4197 108.804C99.5061 109.388 99.72 110.007 99.6254 110.598C99.6028 110.734 99.4341 110.74 99.3478 110.67C99.1256 110.463 98.9269 110.233 98.7554 109.983C98.5353 109.707 98.3296 109.423 98.1239 109.137C97.6982 108.545 97.2642 107.961 96.8446 107.364C96.6389 107.074 96.4332 106.797 96.209 106.517C96.0186 106.298 95.9057 106.023 95.8882 105.733C95.8832 105.641 95.8631 105.55 95.8285 105.464C95.7113 105.326 95.5961 105.186 95.485 105.042C95.3636 104.888 95.2543 104.724 95.158 104.553C92.1715 104.964 89.1582 105.269 86.1553 104.795C85.5382 104.697 84.9212 104.559 84.3041 104.436C83.9853 104.372 83.6685 104.304 83.3539 104.23C83.3353 104.23 78.0843 103.561 76.8152 102.809C75.5461 102.056 73.8801 99.9949 73.8801 99.9949L59.688 102.463C59.688 102.463 49.8152 109.662 48.9925 111.102C48.1698 112.542 28.8356 146.891 28.8356 146.891L19.9912 175.892C19.9912 175.892 13.615 188.85 18.9628 194.403C24.3105 199.957 25.339 200.02 25.339 200.02H31.5917L44.6731 195.757L55.163 192.552C55.163 192.552 83.1358 181.445 102.47 182.062C121.804 182.679 135.35 185.238 135.35 185.238L137.847 162.317C137.847 162.317 148.749 181.24 159.238 183.502C169.728 185.765 172.303 179.839 172.303 179.839L174.292 173.584L175.146 144.307L171.991 112.542ZM135.649 146.068C135.425 146.364 135.246 146.693 135.12 147.043C134.978 147.52 135.083 148.03 135.169 148.509C135.336 149.451 135.556 150.36 135.394 151.331C135.223 152.196 135 153.049 134.723 153.886C134.528 154.596 134.225 155.272 133.824 155.889C132.755 157.434 130.902 157.985 129.149 158.357C128.026 158.598 126.887 158.769 125.757 158.962C124.594 159.179 123.452 159.501 122.347 159.925C121.212 160.336 120.101 160.823 118.986 161.297C117.959 161.715 116.954 162.188 115.977 162.714C114.042 163.796 112.25 165.116 110.492 166.461C108.815 167.745 107.112 168.995 105.461 170.305C103.959 171.496 102.482 172.728 100.864 173.759C99.2446 174.82 97.4379 175.562 95.5406 175.945C93.4138 176.357 91.2212 176.406 89.1644 177.089C87.0335 177.794 85.1001 179.1 83.1441 180.174C81.188 181.248 79.0901 182.124 77.0517 183.07C72.9504 184.977 68.7812 186.863 64.2994 187.682C64.1883 187.702 64.0464 187.608 64.0937 187.476C64.865 185.466 65.7001 183.482 66.5743 181.511C66.9696 180.671 67.3211 179.812 67.6273 178.936C67.8865 178.14 68.0963 177.327 68.2876 176.513C68.699 174.796 69.0239 173.07 69.5402 171.371C70.4863 168.286 71.6217 165.151 71.4469 161.889L71.4201 161.912C71.2659 162.058 71.0314 161.825 71.1857 161.677C71.2602 161.604 71.3384 161.536 71.4201 161.471C71.4016 161.266 71.3811 161.06 71.3523 160.854C71.3235 160.649 71.6402 160.556 71.6711 160.766C71.6937 160.933 71.7102 161.097 71.7266 161.264C71.9073 161.163 72.1002 161.086 72.3005 161.035C72.7531 160.944 73.2149 160.905 73.6765 160.92C74.2935 160.92 74.9209 160.861 75.54 160.797C76.8428 160.673 78.1356 160.459 79.4089 160.157C81.7709 159.566 84.0885 158.81 86.3445 157.895C88.4774 157.037 90.5898 156.083 92.6569 155.077C94.6356 154.114 96.4168 152.921 97.8278 151.21C99.2387 149.499 100.267 147.508 101.45 145.656C102.633 143.805 104.083 142.026 105.012 139.973C105.485 138.929 105.917 137.875 106.423 136.847C106.958 135.814 107.434 134.751 107.849 133.663C108.26 132.53 108.525 130.292 110.22 130.561C111.162 130.712 111.886 131.384 112.425 132.137C113.015 132.964 113.305 133.967 113.248 134.982C113.196 137.094 112.252 139.116 112.446 141.238C113.395 141.083 114.333 140.867 115.255 140.593C119.344 139.385 123.244 137.302 127.561 137.003C128.941 136.909 130.955 136.911 131.469 138.525C131.675 139.184 131.405 139.737 131.035 140.27C130.833 140.523 130.673 140.807 130.56 141.111C130.47 141.407 130.441 141.903 130.7 142.139C130.922 142.345 131.296 142.302 131.57 142.279C131.928 142.248 132.282 142.18 132.638 142.135C133.383 142.029 134.143 142.137 134.83 142.446C135.165 142.599 135.462 142.825 135.7 143.107C135.938 143.389 136.11 143.72 136.204 144.077C136.391 144.803 136.054 145.457 135.649 146.062V146.068Z" fill="#FFA272"/>
<path d="M2.50781 139.075C2.50781 139.075 23.3661 159.072 52.6348 146.297C81.9034 133.522 95.2708 126.399 95.2708 126.399L123.128 110.198L148.427 97.1223L166.052 89.4483L174.253 86.832L187.083 88.5947L193.048 93.7121L194.204 98.556L193.587 105.343L184.525 116.736L179.126 121.568L177.133 117.304L185.874 109.56L188.167 104.257L188.754 97.8361L183.817 93.5167L178.264 93.1054C178.264 93.1054 163.866 95.1622 163.249 95.7792C162.632 96.3963 145.355 104.418 145.355 104.418L128.077 113.468L94.1395 134.242L68.6348 148.228L47.4495 156.867L30.3778 159.13L20.7107 158.307L8.36977 152.136L3.84475 148.549L3.30175 147.009L2.50781 139.075Z" fill="#5FB6E5"/>
<path d="M92.4669 84.7773C94.9495 86.3137 98.4605 86.5503 100.694 84.4153C101.649 83.4634 102.253 82.2153 102.406 80.8755C102.458 80.4663 102.473 80.0533 102.451 79.6414C102.437 79.3821 102.407 79.1238 102.362 78.868C102.276 78.3662 102.146 77.4591 101.628 77.2061C101.51 77.1673 101.383 77.158 101.261 77.1787C101.138 77.1995 101.022 77.2499 100.923 77.3254C99.4375 78.2057 97.4897 78.6582 95.834 79.1292C93.8635 79.6908 91.8663 80.1453 89.8692 80.569L89.4969 80.7109C89.4462 80.7483 89.4059 80.7979 89.3797 80.8551C89.3534 80.9123 89.3421 80.9752 89.3467 81.038C89.3467 81.8607 90.0892 82.5765 90.6014 83.1483C91.1418 83.7781 91.7701 84.3267 92.4669 84.7773ZM100.772 79.193L100.791 79.3884C100.923 80.968 100.48 82.3297 99.5465 83.2285C98.6127 84.1273 97.284 84.4852 95.7435 84.2939C94.6036 84.1365 93.5328 83.6554 92.6582 82.9076C92.5739 82.8336 92.2859 82.4963 92.0761 82.2515C91.9548 82.1075 91.8417 81.9759 91.7347 81.8525C95.0647 81.11 97.9689 80.3222 100.772 79.193Z" fill="#454545"/>
<path d="M99.9642 73.6396C100.075 73.8596 100.239 74.0484 100.441 74.1888C100.576 74.2762 100.737 74.3129 100.896 74.2921C101.055 74.2714 101.202 74.1947 101.309 74.0757C101.503 73.8206 101.455 73.4422 101.344 73.1583C101.334 73.1297 101.334 73.0985 101.344 73.0699C101.139 72.4693 100.857 71.6198 100.433 70.396C100.334 70.1122 100.228 69.816 100.137 69.5383C99.9407 69.2272 99.6653 68.9738 99.339 68.804C99.0122 68.6725 98.6521 68.648 98.3105 68.7341C98.3825 69.0035 98.5718 69.5568 99.0654 70.9966C99.3246 71.7494 99.6989 72.8313 99.9642 73.6396Z" fill="#454545"/>
<path d="M94.6086 71.8206C95.382 71.7013 95.7995 70.8971 95.5404 70.025C95.2812 69.1529 94.4441 68.5441 93.6707 68.6634C92.8973 68.7827 92.4798 69.5869 92.739 70.4569C92.9981 71.327 93.8311 71.9399 94.6086 71.8206Z" fill="#454545"/>
<path d="M102.151 68.8829C102.828 68.7122 103.146 67.9018 102.859 67.0729C102.571 66.244 101.793 65.7113 101.116 65.8841C100.44 66.0569 100.121 66.8652 100.409 67.6941C100.697 68.523 101.474 69.0557 102.151 68.8829Z" fill="#454545"/>
<path d="M96.5383 64.3109C96.6517 64.392 96.7876 64.4358 96.927 64.4363C96.9833 64.4359 97.0393 64.4283 97.0936 64.4137C97.1733 64.3941 97.248 64.3579 97.3128 64.3076C97.3776 64.2573 97.4311 64.1939 97.4699 64.1216C97.5087 64.0493 97.5318 63.9696 97.5379 63.8878C97.5439 63.8059 97.5327 63.7237 97.505 63.6465C97.4582 63.5091 97.3698 63.3898 97.252 63.3051C97.173 63.2475 97.0821 63.2084 96.986 63.1906C96.8899 63.1728 96.791 63.1768 96.6967 63.2022C96.604 63.2229 96.5179 63.2662 96.4461 63.3283C96.3743 63.3904 96.3191 63.4694 96.2853 63.5581C96.2382 63.6911 96.2382 63.8363 96.2853 63.9694C96.3315 64.1071 96.4201 64.2265 96.5383 64.3109Z" fill="#454545"/>
<path d="M140.995 45.7386C140.302 44.8603 138.749 42.9084 137.168 41.0079C135.919 39.5023 134.905 38.3196 134.128 37.4887C132.945 36.2134 132.182 35.4586 131.425 35.9625C131.036 36.2217 130.633 36.4911 130.442 41.7854C130.343 44.523 130.339 47.9559 130.429 51.0411C129.543 51.6582 127.184 53.316 124.851 54.9717C123.128 56.1955 121.754 57.1807 120.773 57.9006C120.184 58.3305 119.73 58.6699 119.419 58.9105C118.884 59.3219 118.5 59.6263 118.631 60.1837L118.767 60.7329L119.32 60.811C119.938 60.8995 128.124 61.7798 130.779 62.0637C130.211 67.8865 129.407 76.011 129.327 76.4964C129.29 76.6301 129.284 76.7704 129.309 76.9067C129.335 77.043 129.391 77.1716 129.474 77.2829C129.557 77.3942 129.664 77.4851 129.787 77.5488C129.91 77.6125 130.046 77.6472 130.185 77.6503C130.773 77.6503 131.384 76.9448 132.859 75.0093C133.836 73.7279 135.15 71.9241 136.767 69.6513C138.978 66.5311 141.162 63.3553 141.935 62.2261C143.126 62.4133 146.207 62.8905 149.274 63.3307C151.565 63.6598 153.4 63.9045 154.731 64.0588C156.44 64.2645 157.267 64.3406 157.717 64.1513H157.732C158.415 64.4064 158.748 64.0855 158.886 63.8695C159.266 63.2792 158.795 62.8062 158.474 62.4935C157.754 61.7736 150.521 54.694 148.558 52.773C149.852 50.7326 154.202 43.8813 155.204 42.2111C155.295 42.0608 155.336 41.8859 155.323 41.7108C155.31 41.5358 155.242 41.3691 155.13 41.2342C154.698 40.7199 154.256 40.8536 151.977 41.6455C150.819 42.0466 149.223 42.6266 147.232 43.3691C144.677 44.3256 142.106 45.3108 140.995 45.7386ZM152.719 43.1326C150.662 46.4235 146.876 52.3781 146.829 52.4521L146.471 53.0157L146.948 53.4826C147.028 53.5587 153.505 59.8978 156.204 62.5573C153.735 62.3331 147.398 61.4178 141.676 60.5149L141.162 60.4326L140.87 60.8645C137.31 66.0827 133.313 71.7431 131.203 74.4704C131.6 70.6283 132.318 63.2566 132.497 61.4075L132.575 60.5951L131.766 60.5087C128.916 60.2043 124.173 59.686 121.505 59.398C123.87 57.66 128.562 54.3485 131.738 52.1292L132.104 51.8741L132.089 51.4278C131.902 45.6687 132.069 40.1564 132.348 37.9988C133.844 39.5085 137.163 43.5111 140.08 47.2319L140.456 47.7111L141.024 47.491C144.589 46.1109 149.908 44.0993 152.709 43.1244L152.719 43.1326Z" fill="#454545"/>
<path d="M170.222 38.7289L155.516 47.8828L156.385 49.2798L171.092 40.1258L170.222 38.7289Z" fill="#454545"/>
<path d="M174.15 53.8203H155.639V55.4658H174.15V53.8203Z" fill="#454545"/>
<path d="M140.002 70.8747L139.797 82.1875L141.442 82.2174L141.647 70.9046L140.002 70.8747Z" fill="#454545"/>
<path d="M117.276 43.3883L116.66 44.9141L127.356 49.2332L127.972 47.7074L117.276 43.3883Z" fill="#454545"/>
<path opacity="0.63" d="M112.787 37.6873C112.929 37.2492 113.034 36.8255 113.126 36.4367C113.168 36.2619 113.211 36.0871 113.256 35.9143C113.696 34.2482 114.079 32.8805 114.472 31.6114C116.072 26.3891 118.262 19.2375 123.053 15.309C126.578 12.4171 130.112 10.9485 134.172 10.6852C134.674 10.6544 135.178 10.6276 135.682 10.6009C138.335 10.4651 141.079 10.3232 143.759 9.31949C145.83 8.54407 147.525 7.33671 148.66 5.82288C149.377 4.87095 149.869 3.76907 150.1 2.59983C148.705 1.73802 147.325 0.851527 145.923 0L145.487 0.0617047C145.655 1.26084 145.458 2.2152 144.886 2.97417C144.133 3.97174 142.957 4.56205 142.103 4.88291C140.106 5.62954 137.839 5.74678 135.441 5.87224C134.917 5.89898 134.392 5.92572 133.87 5.95863C128.841 6.28978 124.322 8.15738 120.052 11.654C114.157 16.4875 111.726 24.429 109.949 30.2271C109.589 31.4057 109.231 32.6563 108.836 34.1351C109.772 35.6058 111.263 36.7164 112.787 37.6873Z" fill="#FF7373"/>
<path d="M162.365 28.3837C162.776 28.0896 172.443 21.1066 174.911 14.5495L170.489 12.8711C168.844 17.2048 162.068 22.7644 159.588 24.5415L160.987 26.4626L162.365 28.3837Z" fill="#5EB5E6"/>
<path d="M135.113 28.6428C135.514 26.8986 135.417 24.6258 135.265 23.0277C135.195 22.3057 134.938 19.8848 134.512 19.0312L130.279 21.1457C130.235 21.058 130.198 20.9673 130.168 20.8742C130.384 21.629 130.941 25.6707 130.501 27.5774L135.113 28.6428Z" fill="#5EB5E6"/>
<path d="M97.798 29.3408L93.3594 27.6953C91.9649 31.4696 89.5049 37.3933 88.4004 38.7425L92.0615 41.7373C94.0628 39.2938 97.1913 30.9862 97.798 29.3408Z" fill="#FFA272"/>
<path d="M57.6704 15.3054C58.8613 18.4688 61.3357 25.0506 61.7614 28.5966L66.4592 28.033C65.9656 23.9194 63.4501 17.2326 62.0988 13.6352C61.817 12.8865 61.5249 12.1111 61.4694 11.9219C61.5172 12.1031 61.5407 12.2898 61.5393 12.4772H56.8086C56.8086 13.012 56.8909 13.23 57.6704 15.3054Z" fill="#FFE899"/>
<path d="M43.3631 47.6229C43.5287 47.7844 43.6675 47.9711 43.7744 48.1762C43.4577 47.5221 41.2754 41.8947 39.379 36.9336L34.9609 38.6202C39.4592 50.4058 39.5682 50.5128 40.0228 50.9612L43.3631 47.6229Z" fill="#FFA272"/>
<path d="M41.5332 73.031C43.0079 73.6872 44.4971 74.3536 46.0212 74.8822C48.6478 71.2046 51.9716 65.0094 52.1608 64.4355L47.6728 62.9382C47.6728 62.9094 47.6975 62.8641 47.7222 62.8086C47.1669 64.0653 43.2321 70.9104 41.5332 73.031Z" fill="#5EB5E6"/>
<path d="M14.4164 64.3795C15.6341 63.8756 16.7859 63.3984 17.876 63.1803C19.5503 62.8451 21.0806 63.0055 22.183 63.6287C23.195 64.2026 23.7812 64.8937 24.0342 65.8008C24.8816 68.9436 21.7717 74.2728 19.7046 77.8003C18.9703 79.055 18.3388 80.1389 17.8699 81.0912C15.9508 85.0177 15.3071 88.7652 15.9447 91.978C17.5048 91.6547 19.0382 91.2132 20.5314 90.6575C20.2928 88.9709 20.4944 86.4924 22.1193 83.1686C22.5101 82.3685 23.1024 81.3545 23.7894 80.1821C26.3954 75.7229 29.9599 69.6162 28.6024 64.5646C28.0224 62.4132 26.6505 60.7122 24.5216 59.5069C22.4319 58.3221 19.7457 57.9766 16.9566 58.534C15.412 58.8446 13.9907 59.4328 12.6147 60.0026C10.4468 60.8993 8.57711 61.6768 6.75682 61.1852C6.38651 61.1066 6.04122 60.9381 5.7514 60.6945C5.46157 60.451 5.23612 60.1399 5.0949 59.7886C4.33388 58.0342 4.85014 55.1073 5.80451 53.1389C4.2429 52.8038 2.69961 52.3885 1.18076 51.8945C0.670549 53.1487 0.318188 54.4614 0.131775 55.8025C-0.168522 58.0095 0.0474451 60.0396 0.748824 61.6727C1.17221 62.6773 1.82393 63.5693 2.65225 64.278C3.48058 64.9867 4.4627 65.4926 5.52067 65.7555C8.88358 66.6687 11.8269 65.4531 14.4164 64.3795Z" fill="#FFE899"/>
<path d="M6.85352 104.83C7.80612 106.758 8.8685 108.629 10.0354 110.435C12.7484 114.621 15.2351 117.081 17.6457 117.955L19.2624 113.508C16.7674 112.603 12.9973 106.681 11.1194 102.773L6.85352 104.83Z" fill="#FFA272"/>
<path d="M58.2656 119.932C58.677 123.176 59.0884 126.666 59.0884 126.701L63.7862 126.15C63.7862 126.115 63.3748 122.606 62.9634 119.344L58.2656 119.932Z" fill="white"/>
<path d="M80.8306 119.37L79.877 124.004L86.8696 125.443L87.8233 120.81L80.8306 119.37Z" fill="#5EB5E6"/>
<path d="M127.305 96.7109L120.865 104.257C121.109 105.174 121.688 105.965 122.488 106.475C123.099 106.863 123.77 107.147 124.473 107.318L130.905 99.7838L127.305 96.7109Z" fill="#FFA272"/>
<path d="M126.32 122.245L126.115 130.883L130.845 130.995L131.05 122.357L126.32 122.245Z" fill="#5EB5E6"/>
<path d="M143.736 84.8502L140.391 88.1953L145.738 93.5431L149.084 90.198L143.736 84.8502Z" fill="#5EB5E6"/>
<path d="M181.503 80.5289L180.398 85.1289L185.54 86.3634L186.645 81.7634L181.503 80.5289Z" fill="#FFE899"/>
<path d="M176.03 153.061C175.84 148.256 175.38 143.394 174.933 138.71C174.631 135.549 174.316 132.281 174.096 129.066C173.946 126.896 173.759 124.689 173.568 122.515C174.421 121.77 175.367 120.981 176.357 120.158C182.799 114.794 190.818 108.115 189.784 100.063C189.397 97.0597 187.994 94.863 185.617 93.5322C177.404 88.9393 160.001 96.3521 156.595 97.8845C141.962 104.466 128.544 111.782 116.713 119.619C115.791 120.236 114.823 120.853 113.833 121.495C100.544 130.004 86.7304 137.805 74.9715 144.326C64.3233 150.22 50.1476 157.119 34.9209 158.156C30.7805 158.438 24.5339 158.343 18.2812 156.29C12.3369 154.33 6.30837 150.949 3.33008 146.479V148.125C5.11335 150.798 7.44374 152.876 10.2595 154.548C11.7857 157.86 14.7846 160.398 18.7625 161.71C20.3581 162.236 22.0199 162.535 23.6989 162.598C22.5038 165.708 21.4363 168.68 20.4593 171.581C20.1467 172.516 19.8238 173.448 19.4803 174.433C18.1475 178.269 16.7715 182.235 16.1338 186.116C15.5662 189.578 16.0721 192.832 17.5592 195.281C19.5687 198.595 23.1744 200.271 28.2835 200.271C28.5447 200.271 28.8101 200.271 29.0795 200.257C33.6045 200.111 38.3784 198.786 41.8668 197.818L42.7369 197.577C55.8265 193.982 68.3259 187.947 80.4138 182.11L81.4423 181.612C81.7487 184.066 82.4172 186.369 83.6184 187.233C83.9763 187.496 84.4081 187.64 84.8525 187.644C85.3502 187.644 85.9467 187.466 86.6234 186.925C87.9932 185.828 89.0751 182.838 89.8321 178.033C89.8567 177.883 89.8794 177.731 89.902 177.578C90.8728 177.124 91.8429 176.675 92.8124 176.231C93.4541 176.307 95.1222 176.4 97.4197 175.735C102.138 174.368 105.935 170.859 108.296 168.14C108.533 167.934 110.318 166.358 113.691 164.55C117.027 162.765 122.645 160.373 130.461 159.122L130.553 159.102C130.666 159.071 133.367 158.294 134.558 156.084C135.024 155.216 135.204 154.221 135.072 153.244C136.039 152.216 136.571 151.132 136.656 149.996C136.719 148.949 136.415 147.912 135.798 147.063C136.621 145.92 136.975 144.846 136.812 143.855C136.606 142.555 135.564 141.773 134.984 141.514L134.85 141.454H134.702C133.673 141.388 132.624 141.374 131.59 141.401C132.618 139.85 132.256 138.494 131.841 137.698C131.536 137.132 131.069 136.669 130.498 136.371C129.928 136.073 129.282 135.953 128.642 136.026C123.248 136.627 117.96 137.955 112.922 139.973C114.156 135.971 114.181 132.98 112.982 131.051C112.67 130.523 112.243 130.073 111.732 129.735C111.221 129.397 110.64 129.179 110.032 129.099L109.506 129.064L109.257 129.527C109.205 129.621 107.99 131.857 106.754 134.739C105.554 137.561 97.5863 150.177 93.2135 153.76C92.6972 154.184 91.4364 154.735 89.614 155.381C89.25 154.365 88.8427 153.816 88.4684 153.53C87.2939 152.65 86.2758 152.724 85.6258 152.94C83.4826 153.655 82.3452 156.899 82.0881 157.716C75.0805 159.717 65.7754 162.055 56.9413 164.178C57.9224 161.257 59.2038 157.405 60.5901 153.256C65.2221 151.313 70.1503 148.865 75.7654 145.759C87.549 139.235 101.389 131.415 114.718 122.883C115.717 122.243 116.694 121.608 117.62 120.993C122.087 118.035 126.775 115.156 131.684 112.354L131.89 112.69C135.237 117.947 143.073 130.257 141.868 136.137C141.613 137.386 141.24 139.017 140.811 140.899C139.653 145.963 137.999 153.207 136.742 161.216C135.485 169.226 134.628 177.998 135.066 186.118L136.711 186.032C136.327 178.854 136.973 171.136 138.007 163.9C139.653 166.908 142.001 169.853 143.89 172.226C144.141 172.541 144.383 172.844 144.614 173.138C148.11 177.566 151.634 180.795 155.085 182.735C157.612 184.154 160.06 184.864 162.428 184.864C164.732 184.849 166.983 184.177 168.919 182.928C177.221 177.751 176.569 164.328 176.137 155.447C176.104 154.604 176.058 153.81 176.03 153.061ZM85.6032 185.637C84.9512 186.157 84.7044 185.98 84.5871 185.896C83.7644 185.312 83.2605 183.146 83.026 180.853C84.7085 180.042 86.4054 179.228 88.1064 178.424C87.4688 182.124 86.5823 184.853 85.6032 185.637ZM94.2419 155.035C98.8862 151.237 106.976 138.375 108.259 135.389C109.105 133.412 109.96 131.717 110.396 130.878C110.906 131.093 111.332 131.468 111.61 131.948C112.342 133.159 112.755 135.668 110.906 140.827C106.429 142.859 103.761 144.832 103.047 145.389L103.105 145.418C103.543 145.698 104.065 145.533 104.524 145.391C105.106 145.21 105.682 145.008 106.252 144.792C106.963 144.527 107.667 144.243 108.37 143.97C112.523 141.707 119.477 138.739 128.834 137.661C129.143 137.624 129.455 137.681 129.732 137.823C130.008 137.966 130.236 138.188 130.384 138.462C130.901 139.447 130.518 140.477 129.253 141.534C118.494 142.468 108.784 147.557 107.796 148.088L107.844 148.137C107.975 148.278 108.124 148.4 108.288 148.501C108.366 148.55 108.446 148.596 108.529 148.637H108.543C108.609 148.659 108.677 148.684 108.749 148.703C109.171 148.817 109.611 148.847 110.045 148.791C113.895 146.954 124.399 142.485 134.426 143.063C134.622 143.173 134.792 143.324 134.925 143.506C135.058 143.687 135.15 143.895 135.195 144.116C135.284 144.7 134.99 145.442 134.327 146.275C126.306 145.274 111.011 150.862 109.748 151.331C109.786 151.453 109.843 151.567 109.917 151.671C110.186 152.033 110.74 152.181 111.168 152.269C111.371 152.31 111.577 152.339 111.785 152.353C116.048 150.879 128.165 146.985 134.41 147.95C134.828 148.496 135.038 149.173 135.002 149.861C134.939 150.48 134.7 151.07 134.315 151.559L134.255 151.543C134.017 151.471 128.266 149.883 112.965 155.465L113.194 156.082C113.31 156.208 113.45 156.31 113.605 156.383C113.945 156.514 114.309 156.567 114.672 156.539H114.835C125.008 152.979 131.119 152.631 133.365 153.018C133.563 153.778 133.471 154.584 133.108 155.28C132.318 156.755 130.434 157.399 130.14 157.489C114.679 159.976 107.436 166.667 107.136 166.951L107.079 167.01C104.89 169.536 101.377 172.817 97.07 174.104C94.5154 174.867 92.8618 174.561 92.8515 174.559L92.5882 174.505L92.3434 174.617C91.6153 174.95 90.8865 175.286 90.157 175.626C90.5937 171.968 90.7902 168.284 90.7453 164.6C90.6898 161.085 90.4224 158.635 90.0542 156.952C92.0884 156.224 93.6022 155.564 94.2419 155.035ZM86.1359 154.503C86.3951 154.416 86.8147 154.359 87.4688 154.85C87.6395 154.978 87.8493 155.309 88.0591 155.906C86.8743 156.296 85.5271 156.712 84.0462 157.14C84.5501 156.008 85.3132 154.78 86.1421 154.503H86.1359ZM88.4828 157.483C88.7892 159.022 89.0402 161.317 89.0998 164.62C89.1617 168.577 88.9328 172.534 88.4149 176.457C85.4901 177.833 82.5673 179.242 79.7104 180.622C74.6712 183.056 69.56 185.522 64.3685 187.821C70.0022 176.114 72.0014 164.89 72.4436 162.029C77.8284 160.653 84.0174 158.972 88.4828 157.483ZM55.047 164.635C48.134 166.28 41.6385 167.775 36.9222 168.829L36.8523 168.921C36.3977 169.503 35.9185 170.073 35.4516 170.651L35.4906 170.834C35.6264 170.803 49.1336 167.808 63.0192 164.4C64.819 163.96 67.5628 163.285 70.6974 162.487C70.0639 166.264 67.8404 177.406 62.1101 188.677L62.2664 188.757C55.7442 191.585 49.1027 194.126 42.3049 195.991L41.4308 196.232C34.5898 198.128 23.1435 201.304 18.9702 194.428C17.6867 192.313 17.2569 189.457 17.7628 186.384C18.3799 182.642 19.7292 178.745 21.0394 174.974C21.3685 174.026 21.7078 173.047 22.0246 172.095C23.3471 168.146 24.861 164.059 26.6216 159.661C28.3555 159.834 30.001 159.9 31.5086 159.9C32.7941 159.9 33.9768 159.853 35.0299 159.781C41.8339 159.334 48.7531 157.761 56.1906 155.015C56.9804 154.72 57.7764 154.413 58.5785 154.093C57.219 158.191 55.9581 161.926 55.047 164.635ZM184.812 94.9679C186.74 96.0457 187.832 97.7816 188.151 100.272C189.072 107.428 181.437 113.786 175.304 118.893C174.641 119.444 174.002 119.979 173.391 120.499C172.854 114.467 172.299 108.226 172.299 102.157C172.299 101.103 172.41 97.5533 172.504 94.3817C177.132 93.4643 181.77 93.2669 184.812 94.9679ZM157.271 99.3839C158.388 98.88 164.411 96.2411 170.846 94.7375C170.744 97.8084 170.641 101.114 170.641 102.154C170.641 105.273 170.785 108.424 170.997 111.564C165.315 114.234 158.874 114.817 152.806 113.21C152.874 109.265 152.954 105.293 153.049 101.319C154.45 100.667 155.858 100.022 157.271 99.3839ZM151.152 114.411C151.113 116.719 151.075 119.014 151.039 121.295C148.612 116.645 145.784 111.316 142.991 106.243C145.741 104.837 148.543 103.456 151.395 102.101C151.302 106.143 151.224 110.178 151.156 114.185L151.078 114.391L151.152 114.411ZM168.051 181.53C159.906 186.608 151.512 179.214 145.907 172.115L145.179 171.2C142.886 168.321 139.897 164.563 138.443 161.039C139.677 153.25 141.29 146.208 142.419 141.261C142.853 139.367 143.227 137.729 143.486 136.462C144.825 129.934 137.03 117.688 133.285 111.803L133.118 111.542C135.86 110.001 138.661 108.486 141.52 106.998C144.867 113.078 148.279 119.545 150.982 124.769C150.912 129.216 150.838 133.77 150.749 138.262L150.412 155.49C150.524 155.429 150.627 155.353 150.718 155.264C151.015 154.953 151.242 154.582 151.383 154.176C151.697 153.353 151.876 152.495 152.133 151.66L152.395 138.291C152.485 133.677 152.561 129 152.633 124.44C152.637 124.421 152.642 124.403 152.648 124.385L152.635 124.362C152.635 123.862 152.643 123.364 152.658 122.869C152.699 120.236 152.742 117.584 152.787 114.913C153.326 115.053 153.976 115.203 154.731 115.339C160.278 116.325 165.993 115.619 171.132 113.313C171.317 115.781 171.533 118.222 171.749 120.639C171.998 123.445 172.257 126.347 172.453 129.175C172.679 132.412 172.99 135.691 173.292 138.863C173.736 143.534 174.197 148.363 174.384 153.121C174.413 153.875 174.452 154.678 174.493 155.519C174.909 164.022 175.532 176.865 168.051 181.53Z" fill="#454545"/>
<path d="M192.303 92.3933C187.309 85.8259 178.032 86.3298 174.18 86.8749C175.003 85.6223 176.031 83.9501 177.08 82.0352C180.145 76.4653 181.788 71.751 181.965 68.0487C182.138 64.4164 181.424 61.8021 179.844 60.278C179.087 59.537 178.099 59.077 177.045 58.974C176.944 58.8753 176.839 58.7807 176.732 58.6922C175.293 57.5404 173.423 57.4581 172.604 57.4972C172.047 56.8501 171.318 56.3737 170.502 56.1232C170.26 56.0381 170.001 56.0092 169.745 56.0388C169.49 56.0683 169.244 56.1556 169.027 56.2939C167.573 57.1948 167.032 60.2842 166.6 63.3715C166.539 63.8137 166.481 64.2292 166.444 64.3834C165.434 68.5712 163.976 71.9937 161.983 74.8733C161.098 70.3051 158.712 66.3107 156.224 65.4489C155.234 65.1054 154.307 65.3008 153.609 65.996C152.912 66.6912 152.124 68.4519 152.702 76.2555C152.978 79.9701 153.461 83.5222 153.564 84.2483C152.511 85.865 151.795 87.6668 151.713 89.8017C151.655 91.5651 151.602 93.3319 151.553 95.1022C147.62 96.8848 143.712 98.7359 139.829 100.656C136.363 94.5756 133.224 89.5035 131.332 87.422C127.973 83.6888 124.281 82.8209 121.776 82.7448C120.868 82.7179 119.959 82.7868 119.065 82.9504C118.598 82.3869 118.107 81.85 117.625 81.3214C117.103 80.7537 116.56 80.1655 116.076 79.567C113.701 76.6278 114.145 73.8284 114.709 70.2845C114.787 69.797 114.865 69.2993 114.939 68.7912C115.326 66.0989 114.733 63.97 113.728 61.6026C112.347 58.4018 110.003 55.7109 107.022 53.9039C100.77 50.1193 95.3971 48.3608 89.601 48.2044C82.9204 48.0255 76.4619 49.6936 71.4165 52.9022C63.4114 57.9949 58.2323 67.2877 57.5679 77.7631C57.2121 83.3536 55.8011 85.5626 50.7063 88.5059C49.3036 89.3163 47.8124 90.0568 46.3705 90.7685C43.6 92.1383 40.741 93.5575 38.2543 95.5732C33.7725 99.2261 30.8497 104.993 30.428 110.999C30.3026 112.781 30.5515 114.554 30.7921 116.269C31.2282 119.371 31.6395 122.3 29.8357 124.957C28.2992 127.22 25.504 128.812 22.7993 130.346C20.9111 131.42 18.9551 132.53 17.3898 133.886C14.2429 136.613 11.3325 140.291 9.94204 144.324C7.24759 142.833 4.98714 140.988 3.32933 138.664L2.45312 139.141C5.74405 143.746 10.6948 147.091 17.1821 149.082C22.2336 150.63 27.2605 151.064 31.3289 151.064C32.6515 151.064 33.8712 151.019 34.9551 150.951C50.0008 149.993 63.5204 143.972 78.3727 136.792C85.5613 133.318 92.6882 129.422 99.3215 125.73C103.127 123.614 106.825 121.288 110.404 119.037C113.133 117.322 115.957 115.541 118.804 113.879C132.381 105.93 146.466 98.8821 160.969 92.7821C164.959 91.1037 169.221 89.4007 173.594 88.6335C184.875 86.6507 189.764 91.7722 190.994 93.3909C194.427 97.9036 194.172 103.093 190.215 109.253C186.652 114.807 180.778 119.885 177.623 122.623L178.573 123.24C185.344 117.376 201.334 104.272 192.303 92.3933ZM117.973 112.46C115.093 114.14 112.269 115.921 109.528 117.645C105.967 119.883 102.287 122.197 98.5214 124.293C91.9108 127.972 84.8085 131.854 77.6569 135.311C73.1689 137.479 68.8126 139.54 64.4932 141.385C67.0581 133.501 69.2054 126.648 69.4481 125.113C69.7309 123.357 69.8425 121.578 69.7813 119.801C69.769 119.788 69.7587 119.774 69.7484 119.761C69.6826 119.69 69.6168 119.62 69.5428 119.556C69.4687 119.492 69.3803 119.404 69.2959 119.334L69.261 119.305L69.2383 119.288L69.1314 119.21C68.9598 119.094 68.7788 118.992 68.5904 118.906H68.5719H68.5616L68.4979 118.881L68.3477 118.828C68.2511 118.797 68.1523 118.768 68.0536 118.745C68.2383 120.79 68.1609 122.85 67.8232 124.875C67.5805 126.409 65.2214 133.875 62.4878 142.245C53.3658 146.007 44.4001 148.718 34.8523 149.324C33.6963 149.398 32.3841 149.444 30.9443 149.435C34.336 141.77 38.1905 133.83 42.6209 125.385C49.2357 112.774 55.1223 107.785 58.8946 105.82C61.3052 104.564 63.1666 104.364 64.269 104.405V104.418C64.4747 104.43 64.6804 104.436 64.8861 104.444C65.0594 104.465 65.2306 104.501 65.3982 104.549L65.4291 104.465C65.7459 104.465 66.0605 104.477 66.3691 104.477C70.1756 104.477 73.3026 103.86 75.7503 102.626C78.0868 104.179 82.5378 106.341 89.2657 106.341C91.496 106.332 93.7204 106.113 95.9092 105.685L95.9874 105.67C95.8105 105.464 95.6357 105.259 95.4711 105.053C95.2592 104.796 95.0935 104.503 94.9816 104.189C88.0892 105.384 83.0767 104.22 80.0573 103.011C79.1197 102.636 78.2127 102.189 77.3443 101.674C78.3823 100.936 79.2772 100.015 79.9853 98.9567C82.0627 95.8468 82.5501 91.3896 81.3942 86.0645C80.9166 83.8983 80.2433 81.78 79.3826 79.7356C84.463 77.2283 88.7309 72.0904 91.7606 64.8113C92.9014 62.0501 93.8115 59.1992 94.4818 56.2878C96.95 57.4869 98.9472 59.8461 100.241 61.7075C103.203 66.0495 104.936 71.1118 105.255 76.3583C105.412 78.8687 105.354 81.3879 105.081 83.8884V83.9501C104.799 86.6239 104.198 89.884 100.996 90.3427C99.3503 90.5772 97.8242 90.9248 96.1437 90.8733C94.6049 90.8224 93.0736 90.6366 91.5673 90.318C88.9222 89.7647 86.1146 88.7857 84.1339 86.8708C83.9837 87.4878 84.1689 88.1604 84.4404 88.7219C84.5858 89.0135 84.7557 89.2922 84.9484 89.5549C87.3775 91.0461 90.7075 92.0766 94.3399 92.416C95.1215 92.488 95.9442 92.5291 96.7772 92.5291C98.1804 92.5409 99.5808 92.403 100.955 92.1177C101.068 94.4358 101.51 98.4013 103.123 101.435C101.752 102.241 100.285 102.869 98.7559 103.307C98.7353 103.62 98.7559 103.924 98.7312 104.245C98.7189 104.45 98.6901 104.634 98.6818 104.831C98.6818 104.899 98.6818 104.969 98.6818 105.037C102.44 103.986 105.221 102.41 106.979 100.324C107.816 100.446 108.606 100.491 109.242 100.53C113.15 100.748 118.292 98.8703 120.538 94.8471C121.338 93.3691 121.764 91.7178 121.78 90.0372C121.796 88.3565 121.4 86.6975 120.628 85.2047C120.488 84.9435 120.336 84.6926 120.176 84.4437C122.644 84.1722 126.552 84.5671 130.151 88.5245C131.951 90.5052 134.997 95.4354 138.379 101.388C131.451 104.861 124.649 108.552 117.973 112.46ZM154.79 67.154C154.963 66.9812 155.201 66.827 155.699 66.9977C157.345 67.5695 159.961 71.2039 160.59 76.5414L160.671 76.5311C159.885 77.4114 159.005 78.2712 158.091 79.1618C157.026 80.1902 155.95 81.2494 154.994 82.3704C154.802 80.8442 154.537 78.5159 154.36 76.1197C153.79 68.5547 154.609 67.3247 154.78 67.154H154.79ZM171.938 87.2862C167.876 88.1686 163.99 89.7256 160.327 91.2641C157.955 92.261 155.592 93.286 153.237 94.3391C153.28 92.8308 153.326 91.3313 153.375 89.8408C153.505 85.9184 156.285 83.2096 159.229 80.3403C160.668 78.9355 162.16 77.4834 163.277 75.8914C165.418 72.8391 166.979 69.2005 168.042 64.7701C168.1 64.5398 168.153 64.1531 168.229 63.6019C168.414 62.2814 168.976 58.2644 169.893 57.6946C169.926 57.6741 169.932 57.67 169.982 57.6946C172.82 58.6387 172.259 62.0983 171.368 65.8644C171.317 66.0824 171.267 66.2942 171.222 66.4938C169.909 72.1979 167.433 77.5699 163.949 82.2737C164.265 82.3867 164.606 82.4144 164.936 82.354C165.435 82.2492 165.908 82.0495 166.331 81.7657C169.397 77.2411 171.599 72.1881 172.826 66.8619C172.872 66.6562 172.919 66.4506 172.97 66.2449C173.443 64.2415 174.112 61.4011 173.47 59.1797C174.151 59.2434 175.025 59.4409 175.706 59.9921C176.387 60.5434 176.734 61.292 176.827 62.3369C177.185 66.2799 174.994 77.0885 171.171 82.2264L171.278 82.2367C171.415 82.2414 171.553 82.2332 171.689 82.212C171.802 82.1421 171.913 82.0681 172.022 81.992C173.256 81.1055 174.149 79.8261 174.861 78.4954C175.245 77.7755 175.587 77.0371 175.92 76.2925C177.79 70.9982 178.715 65.0375 178.456 62.1847C178.425 61.8277 178.364 61.474 178.273 61.1275C178.434 61.2379 178.585 61.3625 178.723 61.4998C179.908 62.6701 180.457 64.9121 180.311 67.9788C179.992 74.8486 174.009 84.2216 171.928 87.2862H171.938Z" fill="#454545"/>
<path d="M84.3691 88.6836C84.3691 88.6836 90.7453 95.6768 98.3556 95.0598C105.966 94.4427 102.058 93.4143 102.058 93.4143L102.264 90.7404C102.264 90.7404 94.859 93.62 84.3691 88.6836Z" fill="#454545"/>
<path d="M101.278 114.973L99.5667 112.849C99.361 112.588 94.4082 106.452 93.7891 105.627L95.1054 104.64C95.4777 105.138 97.5736 107.758 99.1348 109.689L98.5609 103.566L100.206 103.414L101.278 114.973Z" fill="#454545"/>
<path d="M70.0336 102.73C71.749 107.049 76.0251 109.548 80.3794 110.546C82.9443 111.138 85.5873 111.313 88.2098 111.445C89.581 111.515 90.9577 111.567 92.3399 111.601C92.6792 111.611 93.0186 111.618 93.3683 111.626C93.6584 111.601 93.9505 111.617 94.2363 111.673C94.3914 111.733 94.5204 111.846 94.6003 111.992C94.7916 112.274 94.9541 112.578 95.1269 112.872C96.531 115.251 97.9365 117.632 99.3434 120.013L100.409 121.821C100.542 122.083 100.705 122.329 100.894 122.554C101.022 122.683 101.175 122.785 101.344 122.852C101.513 122.919 101.694 122.951 101.875 122.944C102.496 122.908 103.108 122.779 103.692 122.564C104.305 122.356 104.902 122.103 105.479 121.809C106.04 121.527 106.588 121.219 107.124 120.904C107.374 120.782 107.6 120.617 107.793 120.417C107.91 120.269 107.993 120.096 108.034 119.911C108.076 119.727 108.075 119.535 108.031 119.351C107.916 118.677 107.717 118.008 107.558 117.344L107.075 115.312L106.119 111.299C106.045 110.986 105.966 110.682 105.896 110.361C105.801 110.08 105.787 109.779 105.857 109.491C105.997 109.1 106.441 108.773 106.785 108.495C110.284 105.652 112.763 101.748 113.848 97.3719C113.976 96.8454 114.082 96.314 114.167 95.7779C114.206 95.6204 114.183 95.4541 114.103 95.313C114.023 95.1719 113.892 95.0667 113.737 95.0189C113.443 94.9387 113.03 95.1197 112.978 95.4508C112.298 99.6927 110.245 103.594 107.135 106.558C106.742 106.93 106.332 107.284 105.913 107.623C105.493 107.963 105.063 108.32 104.817 108.808C104.492 109.45 104.568 110.106 104.728 110.782C104.889 111.459 105.035 112.072 105.189 112.716L106.121 116.624L106.592 118.605C106.647 118.936 106.724 119.263 106.824 119.584C106.824 119.608 106.91 119.672 106.824 119.682C106.694 119.697 106.867 119.596 106.865 119.588C106.865 119.633 106.635 119.748 106.571 119.793C105.543 120.392 104.483 120.997 103.344 121.375C103.085 121.459 102.824 121.536 102.558 121.595C102.338 121.645 101.995 121.76 101.783 121.708C101.842 121.723 101.735 121.669 101.756 121.692C101.671 121.578 101.597 121.457 101.534 121.33L101.014 120.45L96.8505 113.395C96.5029 112.808 96.1573 112.218 95.8097 111.632C95.5053 111.122 95.1433 110.649 94.5448 110.484C93.9462 110.32 93.251 110.39 92.636 110.375C91.9504 110.359 91.2703 110.338 90.5957 110.313C88.0144 110.221 85.4084 110.135 82.8497 109.758C78.6332 109.141 74.1513 107.496 71.8497 103.664C71.6072 103.258 71.3968 102.835 71.2204 102.397C71.173 102.241 71.0679 102.11 70.9268 102.03C70.7857 101.949 70.6191 101.926 70.4614 101.965C70.1673 102.047 69.9081 102.413 70.0315 102.724L70.0336 102.73Z" fill="#454545"/>
<path d="M63.6565 163.507C62.8715 167.538 61.8544 171.521 60.6104 175.436C59.3801 179.314 57.9249 183.118 56.2519 186.827C55.3003 188.93 54.2801 191.004 53.1914 193.047C53.1176 193.188 53.1012 193.352 53.1455 193.505C53.1899 193.657 53.2916 193.787 53.4293 193.867C53.5671 193.947 53.7304 193.97 53.8849 193.932C54.0395 193.894 54.1735 193.798 54.2589 193.664C56.204 190.005 57.9374 186.238 59.4503 182.38C60.9563 178.547 62.2378 174.63 63.2884 170.648C63.8821 168.395 64.4011 166.126 64.8454 163.84C64.8846 163.682 64.8618 163.516 64.7819 163.374C64.7019 163.233 64.5707 163.128 64.4155 163.081C64.3373 163.059 64.2556 163.053 64.1751 163.063C64.0947 163.073 64.017 163.099 63.9465 163.139C63.876 163.179 63.8141 163.233 63.7643 163.297C63.7146 163.361 63.6779 163.434 63.6565 163.513V163.507Z" fill="#454545"/>
<path d="M152.313 122.657C157.394 124.23 162.843 124.152 167.877 122.433C169.294 121.948 170.664 121.335 171.97 120.603C172.663 120.214 172.04 119.148 171.353 119.537C166.92 121.996 161.822 122.99 156.789 122.376C155.382 122.201 153.994 121.897 152.642 121.468C151.883 121.23 151.558 122.421 152.315 122.657H152.313Z" fill="#454545"/>
</svg>
