<svg width="200" height="190" viewBox="0 0 200 190" fill="none" xmlns="http://www.w3.org/2000/svg">
<g opacity="0.63">
<path d="M148.211 11.3921L158.22 12.8219L155.81 4.44711L148.211 11.3921Z" fill="#89DA3E"/>
</g>
<g opacity="0.39">
<path d="M187.941 37.9464C189.69 37.9464 191.107 36.5289 191.107 34.7803C191.107 33.0317 189.69 31.6142 187.941 31.6142C186.192 31.6142 184.775 33.0317 184.775 34.7803C184.775 36.5289 186.192 37.9464 187.941 37.9464Z" fill="#0447F6"/>
</g>
<g opacity="0.63">
<path d="M185.081 24.8735C185.927 24.8735 186.613 24.1876 186.613 23.3415C186.613 22.4954 185.927 21.8095 185.081 21.8095C184.235 21.8095 183.549 22.4954 183.549 23.3415C183.549 24.1876 184.235 24.8735 185.081 24.8735Z" fill="#89DA3E"/>
</g>
<path d="M145.646 122.481C146.794 120.261 147.805 117.975 148.802 115.685C149.799 113.395 150.783 111.101 151.866 108.854C152.479 107.582 153.132 106.324 153.839 105.098C148.589 105.2 143.336 105.319 138.08 105.455C131.893 105.605 125.544 105.288 119.461 105.566C117.809 105.641 116.105 106.252 115.076 107.547C112.968 110.203 114.238 115.168 114.508 118.289L114.917 119.619L131.793 125.349H144.049C144.616 124.409 145.148 123.451 145.646 122.481Z" fill="#FFA272"/>
<path d="M183.958 104.536L181.836 104.573C181.099 106.224 180.455 107.915 179.909 109.639C179.054 112.249 178.3 114.901 177.289 117.458C176.745 118.835 176.084 120.175 175.438 121.507C174.811 122.802 174.163 124.086 173.508 125.365H181.915L185.224 124.452C185.224 124.452 187.022 113.393 187.022 109.627C187.044 108.575 186.768 107.539 186.226 106.638C185.684 105.737 184.897 105.009 183.958 104.536Z" fill="#FFA272"/>
<path d="M142.697 18.7456C136.52 18.7443 130.449 20.3433 125.074 23.3868C119.7 26.4304 115.206 30.8145 112.03 36.1119C108.854 41.4092 107.105 47.4391 106.954 53.6136C106.802 59.788 108.253 65.8965 111.164 71.3435C112.545 70.8094 113.966 70.388 115.415 70.0832C117.145 69.6746 118.888 69.3396 120.618 68.9372C122.318 68.5711 123.989 68.0782 125.616 67.4625C126.98 66.9191 128.343 66.2021 129.362 65.1236C129.871 64.5823 130.322 63.9369 130.465 63.1995C130.657 62.1986 130.465 61.0118 131.078 60.1253C131.413 59.6276 131.88 59.233 132.426 58.9855C131.683 57.2292 131.463 55.2958 131.791 53.4173C131.233 53.166 130.667 52.9414 130.1 52.7126C129.591 52.5259 129.101 52.2948 128.633 52.0222C127.706 51.4441 127.097 50.5474 126.637 49.571C126.357 48.9807 126.108 48.3699 125.865 47.7633C125.667 47.2761 125.503 46.7759 125.375 46.266C125.171 45.4224 124.983 44.3194 125.516 43.5514C126.129 42.6873 127.254 42.7752 128.171 43.0141C128.404 42.2462 128.542 41.4524 128.58 40.6508C128.77 37.6502 128.065 34.0837 129.763 31.4242C129.717 31.3369 129.706 31.2354 129.732 31.1405C129.759 31.0455 129.821 30.9643 129.906 30.9136L130.259 30.7563C130.29 30.7172 130.33 30.6861 130.375 30.6655C130.421 30.6449 130.471 30.6354 130.52 30.6378C130.864 30.4805 131.209 30.3232 131.554 30.1721C134.275 28.9751 137.069 27.8884 139.992 27.2797C142.737 26.7057 145.779 26.5076 148.367 27.7618C149.673 28.4009 150.766 29.403 151.517 30.648C152.295 31.9226 152.754 33.3586 153.271 34.7517C153.516 35.4416 153.803 36.1157 154.131 36.7698C154.291 37.0961 154.489 37.402 154.722 37.6808C154.97 37.9671 155.233 38.2398 155.51 38.4979C156.627 39.5478 157.837 40.5037 158.453 41.952C159.07 43.4002 159.242 44.9608 158.69 46.4458C158.204 47.7674 157.312 48.8785 156.376 49.9182C155.914 50.4289 155.432 50.9232 154.973 51.4359C154.475 52.0069 154.062 52.6467 153.747 53.3356C153.278 54.4012 152.903 55.5057 152.626 56.6365C152.895 56.734 153.138 56.8919 153.337 57.0981C154.293 58.0847 154.327 59.7821 154.331 61.1099C156.897 61.8146 159.583 61.7349 162.212 61.4898C164.651 61.2651 167.075 60.9628 169.518 60.7973C171.606 60.6544 173.7 60.6115 175.791 60.5154C176.504 60.4828 177.221 60.448 177.952 60.4011C178.808 55.2785 178.538 50.031 177.161 45.0235C175.783 40.0159 173.332 35.3684 169.977 31.4041C166.621 27.4399 162.443 24.254 157.732 22.0679C153.021 19.8819 147.89 18.7481 142.697 18.7456Z" fill="#5EB5E6"/>
<g opacity="0.82">
<path d="M134.73 73.0796C134.73 73.0796 136.977 70.8327 137.385 71.0369C137.794 71.2412 140.654 73.8966 140.654 73.8966H145.147L145.964 73.4881L147.394 71.4455L152.501 72.2625L146.782 75.1222L146.169 79.2075L153.114 91.0548C153.114 91.0548 136.773 93.7102 136.568 92.0761C136.364 90.442 139.837 81.2501 139.837 81.2501L139.428 79.8203L139.02 77.5734V75.5307L134.73 73.0796Z" fill="#31CCFF"/>
</g>
<g opacity="0.15">
<path d="M99.1535 184.073C100.208 182.616 101.304 181.191 102.422 179.783C105.353 171.66 105.933 163.442 103.267 163.769C99.5437 164.23 93.8447 162.844 95.5054 159.479C99.1985 151.993 99.5498 155.022 104.697 148.449C107.283 145.146 114.012 126.094 112.326 122.252C111.08 119.413 107.812 118.149 104.844 117.252C90.669 112.97 75.9738 110.65 61.1687 110.358C48.2122 110.103 34.5613 115.861 25.7902 125.365C18.449 133.317 14.5251 143.898 17.2785 155.776C20.1587 168.165 29.7529 178.368 41.2673 183.76C56.0274 190.685 76.1105 191.085 91.8389 187.641C93.8141 187.208 95.8465 186.65 97.6971 185.815C98.1812 185.237 98.6674 184.653 99.1535 184.073Z" fill="#0447F6"/>
</g>
<path d="M48.1431 76.107C47.0789 75.0223 45.502 74.5362 44.1293 73.9724C43.3029 73.5989 42.4405 73.3108 41.5556 73.1125C41.0958 73.0163 40.6244 72.988 40.1564 73.0287C39.3536 73.1104 38.9553 73.6619 39.2392 74.2665C43.2265 75.1204 46.1107 76.444 47.1259 77.5062C47.5224 77.7049 47.9572 77.8157 48.4005 77.831C48.4368 77.8311 48.473 77.8346 48.5087 77.8412C48.7988 77.8207 49.0071 77.7206 49.048 77.4857C49.1134 77.116 48.3739 76.3398 48.1431 76.107Z" fill="#454545"/>
<path d="M102.036 39.8991C99.266 40.3281 97.7157 43.3941 97.5604 43.7188C94.5087 49.571 94.2718 56.5303 96.872 63.847C96.9517 64.0696 97.0314 64.2882 97.1131 64.5047C96.3107 63.8607 95.4293 63.3218 94.4903 62.9012C93.1708 62.3354 92.1393 62.3702 91.4264 63.0054C90.1906 64.1023 90.64 66.3635 91.3099 68.641C92.3517 72.1891 94.0655 75.5084 95.722 78.7174L95.9978 79.2525C96.3246 79.8858 96.7086 80.5496 97.1172 81.2543C98.259 83.2255 99.554 85.4601 99.6991 87.3455C99.6991 87.9337 98.498 90.8874 93.9409 98.2368C90.7482 103.384 87.6781 107.821 87.1675 108.299C87.1797 108.287 87.1927 108.276 87.2063 108.266L88.4114 109.915C89.3449 109.234 93.7427 102.426 95.6056 99.4277C101.897 89.2941 101.776 87.7152 101.734 87.1984C101.552 84.8392 100.132 82.39 98.8738 80.2289C98.4796 79.5487 98.1058 78.9053 97.8035 78.315L97.5257 77.7798C95.9202 74.6566 94.2595 71.4252 93.2648 68.0752C92.4763 65.3973 92.6846 64.709 92.7725 64.5578C92.8481 64.5476 93.1136 64.5435 93.6855 64.7886C95.7854 65.6874 98.1181 67.9854 99.889 70.3507C100.232 70.9431 100.549 71.4497 100.82 71.8684C100.997 71.9946 101.183 72.1073 101.376 72.2054C101.768 72.3975 102.661 72.5649 102.753 71.9481C102.837 71.4027 102.265 70.7225 101.952 70.3548C101.871 70.2609 101.823 70.1422 101.818 70.018C101.812 69.8938 101.849 69.7713 101.921 69.6705C101.823 69.5316 101.717 69.3948 101.621 69.262C100.488 67.3015 99.5372 65.2414 98.7799 63.1075C96.3593 56.2586 96.5616 50.0469 99.3804 44.6482L99.4008 44.6094C99.411 44.5849 100.579 42.193 102.35 41.9172C103.253 41.7783 104.242 42.2236 105.296 43.2409C105.394 42.7357 105.525 42.2376 105.688 41.7497C105.702 41.5986 105.717 41.4454 105.733 41.2922C105.744 41.1948 105.78 41.1019 105.837 41.0226C104.577 40.0911 103.304 39.703 102.036 39.8991Z" fill="#454545"/>
<path d="M104.973 115.957C115.734 98.2593 120.001 88.3913 120.044 88.2973L118.165 87.4803C118.124 87.5783 113.828 97.5035 102.955 115.34C103.507 115.544 104.072 115.703 104.638 115.869L104.973 115.957Z" fill="#454545"/>
<path d="M137.239 43.6658C137.911 43.6658 138.417 42.9447 138.417 41.9888C138.417 41.0328 137.911 40.3118 137.239 40.3118C136.567 40.3118 136.058 41.0328 136.058 41.9888C136.058 42.9447 136.569 43.6658 137.239 43.6658Z" fill="#454545"/>
<path d="M146.335 42.1339C147.043 42.1339 147.577 41.3863 147.577 40.3936C147.577 39.4009 147.043 38.6553 146.335 38.6553C145.626 38.6553 145.093 39.4029 145.093 40.3936C145.093 41.3843 145.626 42.1339 146.335 42.1339Z" fill="#454545"/>
<path d="M152.252 73.0961L161.965 76.8954L160.108 62.4396L182.444 61.9474L182.408 60.3133L155.42 60.9097L155.173 56.1973C155.525 55.0739 155.781 53.9224 155.937 52.7555C156.035 52.0508 156.098 51.3604 156.141 50.6965H156.178C157.199 50.6965 158.221 49.8795 158.449 49.6956L158.621 49.5526L158.695 49.3484C159.505 46.7949 159.798 44.1052 159.555 41.4372C159.487 40.7693 159.285 38.7369 157.953 38.312C157.658 38.2187 157.342 38.2137 157.044 38.2977C156.938 37.1661 156.679 34.8252 156.17 32.2536C155.208 27.39 153.856 24.2035 152.15 22.7839C151.786 22.4576 151.358 22.2114 150.892 22.0612C150.427 21.911 149.936 21.86 149.45 21.9117C144.547 22.4591 140.017 24.2382 138.865 24.7183C134.295 23.4416 130.898 23.9196 128.752 26.1481C125.003 30.0291 126.323 38.1997 127.365 42.4892C126.654 42.2849 125.814 42.2175 125.181 42.6935C124.076 43.5248 124.503 45.2386 124.644 45.8003C125.504 49.2422 126.394 52.8025 128.445 53.4908C128.673 53.5693 128.911 53.6094 129.152 53.6093C129.416 53.6073 129.679 53.561 129.928 53.4725L130.224 54.8206H130.134L130.461 63.4916L106.542 71.8685L107.083 73.4106L125.173 67.0785L121.045 82.5535L135.027 73.666L137.896 75.8373V79.2791L139.306 80.4863L134.677 93.1241L136.213 93.6879L140.63 81.622L141.157 82.0735C141.691 81.9839 142.229 81.9218 142.77 81.8876L145.405 81.1992L153.143 93.2344L154.515 92.352L146.986 80.6293L148.212 76.1192L152.252 73.0961ZM156.936 40.1647L156.983 40.2055C157.111 40.0661 157.269 39.9573 157.444 39.8869C157.514 39.9584 157.788 40.3138 157.918 41.6129C158.121 43.9651 157.882 46.3344 157.214 48.5987C156.83 48.8745 156.382 49.0788 156.178 49.0788C156.18 47.6528 156.077 46.2286 155.87 44.8178C156.207 43.8782 156.568 42.4238 156.936 40.1647ZM128.966 51.9384C127.763 51.5299 126.84 47.843 126.229 45.402C125.978 44.397 126.117 44.0334 126.164 43.9967C126.335 43.8659 127.185 44.0641 127.888 44.4706C127.998 44.8464 128.08 45.1017 128.116 45.21L129.571 51.8608C129.387 51.9656 129.17 51.9935 128.966 51.9384ZM158.466 62.4764L159.992 74.3707L149.519 70.2711L155.071 62.5602L158.466 62.4764ZM153.815 61.5L145.818 72.6181L141.422 73.1451L132.163 65.236L131.959 59.9701C132.816 61.2178 133.852 62.3321 135.035 63.2771C137.087 64.94 139.647 65.8498 142.288 65.8549C144.113 65.8317 145.917 65.4558 147.599 64.7478C150.164 63.7267 152.315 61.8785 153.711 59.4962L153.815 61.5ZM139.02 53.548L147.936 51.9384C147.624 53.1783 146.764 55.1556 144.402 55.8644C143.634 56.085 141.144 56.5282 139.02 53.548ZM137.704 36.7984C141.312 37.3336 144.445 36.3368 146.3 34.0633C146.424 33.9101 146.543 33.759 146.659 33.6099C147.425 32.6294 147.805 32.1964 148.806 32.2679C150.849 32.4068 151.151 34.0776 151.421 36.8127C151.473 37.5252 151.572 38.2334 151.717 38.933C151.921 39.7766 152.091 40.6488 152.258 41.4904C152.426 42.3319 152.612 43.245 152.82 44.1274C152.532 46.6133 152.099 48.8479 151.737 49.7099C151.605 49.5874 151.455 49.4403 151.329 49.3137C150.103 48.0881 147.824 45.8105 142.664 46.6439C137.557 47.461 135.288 50.7435 134.455 52.3858C133.723 51.6709 132.422 49.7304 131.55 44.5543L131.53 44.4358C131.464 42.3932 131.311 37.5297 131.219 34.6843C133.607 36.0958 137.649 36.7841 137.706 36.7923L137.704 36.7984ZM123.7 78.9258L127.034 66.4412L130.527 65.2156L130.557 66.0183L136.301 70.9207L123.7 78.9258ZM146.782 75.1469L146.306 76.8933C146.311 76.9409 146.311 76.9888 146.306 77.0363C146.247 77.6256 146.078 78.1986 145.808 78.7256L145.793 78.7787V78.7664C145.676 78.9593 145.53 79.1329 145.36 79.2812C144.882 79.6897 144.241 79.8776 143.614 79.9777L141.788 80.4536L141.238 79.9818L141.257 79.9328C140.878 79.8435 140.543 79.6218 140.313 79.3077C140.137 79.1652 139.985 78.9947 139.864 78.8032L139.539 78.5254V75.0202L136.505 72.7284L137.608 72.0257L140.915 74.8507L146.733 74.1521L148.541 71.6376L150.469 72.3914L146.782 75.1469Z" fill="#454545"/>
<path d="M116.96 43.1308L115.939 44.4068L122.067 49.3093L123.088 48.0333L116.96 43.1308Z" fill="#454545"/>
<path d="M111.084 52.4319L110.382 53.9077L122.842 59.8318L123.543 58.356L111.084 52.4319Z" fill="#454545"/>
<path d="M166.284 38.7188L161.383 44.2335L162.604 45.319L167.506 39.8043L166.284 38.7188Z" fill="#454545"/>
<path d="M170.811 44.4032L162.028 53.1863L163.183 54.3418L171.966 45.5587L170.811 44.4032Z" fill="#454545"/>
<path d="M159.385 15.1711L146.488 11.5148L157.422 3.10526L159.385 15.1711ZM150.957 10.6773L156.852 12.3421L155.955 6.82694L150.957 10.6773Z" fill="#454545"/>
<path d="M167.972 16.4926L167.057 14.6665C167.035 14.6767 167.014 14.689 166.994 14.7033C167.69 14.2151 172.868 8.75103 177.387 3.85687L178.886 5.24178C174.357 10.1502 168.785 16.0861 167.972 16.4926Z" fill="#454545"/>
<path d="M173.03 20.8904L171.804 19.2563L172.417 20.0733L171.804 19.2563C172.417 18.7804 178.192 12.8056 181.691 9.15137L183.165 10.5649C181.619 12.1806 173.871 20.2592 173.03 20.8904Z" fill="#454545"/>
<path d="M185.286 26.2012C184.68 26.2012 184.087 26.0215 183.583 25.6848C183.08 25.3482 182.687 24.8696 182.455 24.3098C182.223 23.7499 182.162 23.1339 182.281 22.5395C182.399 21.9452 182.691 21.3992 183.119 20.9707C183.548 20.5422 184.094 20.2504 184.688 20.1322C185.282 20.014 185.898 20.0746 186.458 20.3065C187.018 20.5384 187.497 20.9312 187.833 21.435C188.17 21.9389 188.35 22.5313 188.35 23.1373C188.35 23.9499 188.027 24.7292 187.452 25.3038C186.878 25.8784 186.098 26.2012 185.286 26.2012ZM185.286 22.1159C185.084 22.1159 184.886 22.1758 184.718 22.2881C184.55 22.4003 184.419 22.5598 184.342 22.7464C184.265 22.933 184.245 23.1384 184.284 23.3365C184.323 23.5346 184.421 23.7166 184.563 23.8594C184.706 24.0023 184.888 24.0995 185.086 24.139C185.285 24.1784 185.49 24.1581 185.676 24.0808C185.863 24.0035 186.023 23.8726 186.135 23.7047C186.247 23.5367 186.307 23.3393 186.307 23.1373C186.307 22.8664 186.199 22.6066 186.008 22.4151C185.816 22.2235 185.557 22.1159 185.286 22.1159Z" fill="#454545"/>
<path d="M187.737 38.6613C186.888 38.6613 186.059 38.4097 185.354 37.9384C184.648 37.467 184.098 36.7971 183.774 36.0133C183.449 35.2295 183.364 34.367 183.53 33.5349C183.695 32.7028 184.104 31.9385 184.704 31.3386C185.304 30.7387 186.068 30.3302 186.9 30.1646C187.732 29.9991 188.595 30.0841 189.378 30.4087C190.162 30.7334 190.832 31.2832 191.303 31.9886C191.775 32.694 192.026 33.5234 192.026 34.3718C192.026 35.5094 191.574 36.6005 190.77 37.4049C189.966 38.2094 188.874 38.6613 187.737 38.6613ZM187.737 32.1249C187.292 32.1249 186.858 32.2566 186.488 32.5035C186.119 32.7504 185.831 33.1013 185.661 33.5119C185.491 33.9225 185.446 34.3742 185.533 34.8101C185.62 35.246 185.834 35.6463 186.148 35.9606C186.462 36.2748 186.863 36.4888 187.298 36.5755C187.734 36.6622 188.186 36.6177 188.597 36.4476C189.007 36.2776 189.358 35.9896 189.605 35.6201C189.852 35.2506 189.984 34.8161 189.984 34.3718C189.984 33.7758 189.747 33.2043 189.326 32.783C188.904 32.3616 188.333 32.1249 187.737 32.1249Z" fill="#454545"/>
<path d="M72.4297 12.4216C72.9281 12.92 86.5852 27.7556 91.8061 33.4301L93.3095 32.0452C92.5333 31.2118 74.4866 11.5963 73.8595 10.9754L72.4297 12.4216Z" fill="#454545"/>
<path d="M92.6408 12.3864L91.2222 13.856L103.07 25.2934L104.489 23.8238L92.6408 12.3864Z" fill="#454545"/>
<path d="M95.5679 2.38478e-05L94.0371 1.35245L109.559 18.9213L111.09 17.5689L95.5679 2.38478e-05Z" fill="#454545"/>
<path d="M142.367 124.452H129.636C130.588 125.083 131.486 125.798 132.401 126.495H141.005C141.471 125.817 141.932 125.144 142.367 124.452Z" fill="#454545"/>
<path d="M182.538 101.37H182.385C182.156 102.061 181.901 102.741 181.629 103.413H182.538C184.187 103.414 185.769 104.07 186.935 105.236C188.101 106.403 188.757 107.984 188.758 109.633V118.232C188.757 119.881 188.101 121.462 186.935 122.628C185.769 123.795 184.187 124.45 182.538 124.452H175.346C175.048 125.13 174.756 125.81 174.476 126.495H182.538C184.729 126.493 186.829 125.621 188.378 124.072C189.927 122.523 190.799 120.423 190.801 118.232V109.633C190.799 107.442 189.927 105.342 188.378 103.793C186.829 102.244 184.729 101.372 182.538 101.37Z" fill="#454545"/>
<path d="M155.134 101.37H118.389C116.199 101.372 114.098 102.244 112.549 103.793C111 105.342 110.129 107.442 110.127 109.633V116.894C110.837 117.127 111.521 117.431 112.17 117.801V109.631C112.172 107.982 112.828 106.401 113.994 105.236C115.16 104.07 116.741 103.414 118.389 103.413H154.293C154.577 102.732 154.858 102.051 155.134 101.37Z" fill="#454545"/>
<path d="M197.686 65.5282C196.922 60.3276 192.827 55.315 190.406 52.7433C189.046 47.9431 187.424 45.5941 185.377 45.4062C185.003 45.3699 184.625 45.4124 184.268 45.531C183.911 45.6495 183.583 45.8415 183.304 46.0946C181.231 47.9329 180.902 52.9415 180.667 59.8251C180.577 62.4275 180.493 64.8868 180.201 66.2247C179.652 68.7556 177.186 72.467 175.183 75.1735C175.315 74.3442 175.432 73.4454 175.503 72.5181C175.912 67.2787 174.748 63.9615 172.043 62.6603C171.629 62.452 171.17 62.3489 170.707 62.3604C170.244 62.3718 169.791 62.4972 169.388 62.7257C167.255 63.888 165.427 67.9712 163.799 75.2082C162.759 79.8348 162.153 84.2735 162.038 85.1518C153.686 103.517 146.923 116.79 141.922 124.605C141.079 125.927 140.337 127.007 139.686 127.896C136.507 126.566 104.573 113.218 75.1466 103.736L80.7087 92.5278C82.1385 92.1989 83.8993 91.7373 85.7009 91.1286C91.5857 89.1431 94.9111 86.6164 95.5893 83.6198C96.0264 81.6793 95.4218 79.2915 93.7877 76.4931H93.8081C92.656 74.3442 91.0893 72.2035 89.0201 69.9852C85.8561 66.574 82.3571 63.653 78.0777 60.299C74.7973 57.7335 71.2329 55.1924 66.9331 52.3695C67.3575 51.7719 67.7476 51.1506 68.1015 50.5087C69.0023 48.8746 70.0604 46.3417 69.9991 43.6087C69.9399 40.9267 68.7735 38.69 66.641 37.1376C64.0285 35.2379 60.1434 34.9315 56.2501 36.3205C52.41 37.6871 50.5307 40.2465 48.339 43.2103L47.8631 43.8538C47.7078 44.093 47.5162 44.3067 47.2952 44.487C46.9946 44.6357 46.6691 44.7278 46.3352 44.7587L45.2505 44.9364C41.2531 45.5859 37.4783 46.1987 34.2203 49.2668C33.2247 50.1883 32.387 51.2668 31.7405 52.4594C31.6997 52.5391 31.667 52.6208 31.5587 52.8904C31.522 52.9823 31.4627 53.1376 31.4015 53.2846C21.6683 55.123 20.7981 60.6626 20.7654 60.8934C19.8749 67.0479 22.6876 73.9112 29.126 81.2953C32.0686 84.651 35.3372 87.7061 38.8836 90.4157C38.684 92.2342 38.2052 94.0111 37.464 95.6836C33.4513 96.1483 29.5667 97.3865 26.0252 99.3297C20.5469 102.287 15.4934 106.971 10.9853 113.234C4.14042 122.744 0.733307 132.827 0 135.131C0.0836093 135.302 0.21317 135.446 0.374111 135.547C0.535052 135.648 0.72099 135.702 0.911016 135.703C1.13087 135.716 1.35109 135.684 1.55757 135.607C1.76405 135.53 1.95223 135.411 2.11004 135.258C3.07825 132.341 6.46699 123.002 12.6725 114.386C16.9988 108.387 21.8276 103.915 27.0241 101.109C33.4523 97.6364 40.8956 96.7499 48.0081 98.2921C66.927 102.392 93.4384 111.892 112.99 119.413C111.882 125.115 110.36 130.73 108.437 136.212C105.588 144.255 100.737 154.636 93.8122 158.409L93.8694 158.515C89.6779 156.726 85.2324 154.695 80.533 152.422C64.8435 144.807 52.5489 137.306 49.3746 135.331C48.4473 135.229 47.7752 135.74 48.339 136.784C48.4345 136.958 48.5402 137.128 48.6556 137.29C52.365 139.584 64.4043 146.862 79.6179 154.244C90.3744 159.467 100.596 163.724 109.998 166.908C121.78 170.879 132.31 173.159 141.297 173.68C141.391 173.68 141.8 173.716 142.443 173.716C144.391 173.71 146.331 173.474 148.224 173.014C153.273 171.778 157.212 169.012 159.608 165.015C165.104 155.852 181.413 107.811 182.164 105.592L186.356 94.2211C194.506 87.2557 198.273 81.8632 199.764 75.0428C200.56 71.3987 199.21 67.9977 197.686 65.5282ZM86.9019 70.9167C87.67 71.7337 88.4543 72.6284 89.204 73.5455C87.1562 74.4109 85.0041 75.0049 82.8024 75.3124C84.1934 73.9173 85.9113 72.0197 86.9019 70.9167ZM54.0645 62.4765C57.5881 60.6565 62.2596 57.9378 65.6708 53.973C69.9869 56.8061 73.5492 59.339 76.8195 61.8964C78.6088 63.2976 80.2572 64.6213 81.7974 65.9347C79.5505 67.1153 77.3914 68.8842 75.3815 71.219C74.5951 72.171 73.8699 73.1718 73.2101 74.2155C71.576 76.6667 70.1809 78.7972 67.1599 79.2915C62.8948 79.986 58.7646 76.4318 55.286 72.851C52.9008 70.4153 50.7658 67.7465 48.913 64.8848C50.7554 64.1004 52.4508 63.3099 54.0645 62.4765ZM36.0056 75.6127C35.2865 74.861 34.9352 74.1951 34.9618 73.6313C34.9883 73.0676 35.4704 72.4057 36.1874 72.0299C37.1947 71.501 38.3179 71.2314 39.4556 71.2455C41.9721 71.2455 44.9482 72.4057 48.3512 74.718C50.1217 75.9265 51.7784 77.2939 53.3006 78.8033C50.769 79.3799 48.1708 79.6094 45.5773 79.4855C41.4492 79.2424 38.23 77.9392 36.0056 75.6127ZM48.4411 96.2862C47.1363 96.0025 45.8168 95.7911 44.4886 95.653C46.9745 95.0402 49.3644 94.1149 51.1619 91.9027L51.1864 91.8721C51.9728 90.8242 52.0934 89.4638 51.5296 88.038C50.6635 85.6257 49.1642 83.5442 47.6894 81.5588C50.1282 81.4809 52.5508 81.1315 54.9122 80.5171C56.0371 81.7873 57.0654 83.1399 57.9884 84.5635C61.8817 90.5689 66.9617 92.5931 70.5384 93.2345C71.6521 93.4339 72.7813 93.5344 73.9128 93.5348C75.0946 93.5447 76.274 93.4262 77.4302 93.1814C77.5324 93.1651 77.7897 93.1222 78.1676 93.0548L73.2469 102.96L74.2131 103.437C65.0273 100.498 56.1174 97.951 48.4411 96.2862ZM197.77 74.5975C196.371 80.9909 192.743 86.1037 184.828 92.8301L184.624 93.0037L180.242 104.898V104.925C180.075 105.423 163.262 154.969 157.865 163.957C152.759 172.477 141.577 171.643 141.467 171.635H141.438C132.42 171.116 117.723 168.444 96.0652 159.432C101.603 155.756 106.446 148.083 110.478 136.594C112.342 131.227 113.829 125.737 114.927 120.163C126.803 124.761 135.792 128.49 138.378 129.573C136.409 131.938 135.662 131.961 135.619 131.961C135.667 131.963 135.713 131.982 135.748 132.014C135.784 132.047 135.807 132.091 135.813 132.139L133.852 132.706C133.958 133.061 134.171 133.374 134.46 133.605C134.749 133.836 135.102 133.973 135.472 133.997C135.525 133.997 135.576 133.997 135.631 133.997C136.826 133.997 138.946 133.001 143.52 125.884C148.592 117.993 155.465 104.526 163.946 85.8586L164.011 85.7176L164.03 85.5624C164.03 85.5133 164.643 80.6886 165.782 75.6413C167.78 66.7599 169.643 64.9052 170.35 64.5191C170.47 64.4443 170.607 64.403 170.748 64.3994C170.89 64.3958 171.029 64.4301 171.153 64.4987C175.034 66.3657 173.258 75.6127 172.251 79.0178L170.885 83.6545L174.014 79.9778C174.304 79.6367 181.137 71.556 182.201 66.6639C182.53 65.1462 182.61 62.7155 182.71 59.9028C182.859 55.5703 183.084 49.0216 184.658 47.6327C184.728 47.5633 184.813 47.5106 184.906 47.4785C184.999 47.4463 185.098 47.4355 185.196 47.4468C185.539 47.4774 187.349 48.0412 189.138 56.083C189.776 59.0489 190.264 62.0452 190.598 65.0604C190.576 65.7774 190.11 74.7364 181.172 85.4378C181.989 85.9178 183.3 85.2846 184.66 84.3102C188.445 79.2036 190.38 74.671 191.366 71.5826C192.627 67.6219 192.641 65.1217 192.641 65.0175V64.9154C192.625 64.7479 192.257 61.1712 191.452 57.135C193.393 59.6679 195.35 62.9381 195.717 66.1553C196.449 72.5426 190.237 83.5688 187.208 86.6041C188.938 86.9636 190.647 85.1743 192.012 83.5402C194.363 79.7531 196.757 74.62 197.547 70.1037C198 71.5588 198.077 73.1048 197.77 74.5975Z" fill="#454545"/>
<path d="M68.4037 64.0921C68.8543 64.1004 69.2917 63.9393 69.6293 63.6407C70.4872 62.8686 70.3973 61.4163 69.425 60.3357C69.0152 59.8685 68.4707 59.5396 67.8665 59.3941C67.5714 59.3182 67.2624 59.3144 66.9656 59.383C66.6687 59.4516 66.3927 59.5906 66.1609 59.7883C65.303 60.5604 65.3929 62.0127 66.3652 63.0912C66.6173 63.3899 66.9286 63.6331 67.2795 63.8054C67.6304 63.9776 68.0132 64.0753 68.4037 64.0921Z" fill="#454545"/>
<path d="M104.395 184.373L102.353 184.23C102.924 176.159 103.782 163.914 103.782 163.26H105.825C105.827 164.091 104.542 182.3 104.395 184.373Z" fill="#454545"/>
<path d="M103.58 55.1045C103.58 40.1116 112.196 27.0979 124.734 20.7433L126.355 25.6906L130.236 17.52L122.27 13.2305L123.962 18.3861C110.445 25.0839 101.129 39.0167 101.129 55.1045C101.129 76.5624 117.719 94.2169 138.744 95.9225C138.814 95.1055 138.897 94.2884 138.973 93.4714C119.192 91.8924 103.58 75.2878 103.58 55.1045Z" fill="#454545"/>
<path d="M142.084 14.1497C138.618 14.1481 135.166 14.5874 131.812 15.4569C132.016 16.2475 132.245 17.0339 132.455 17.8244C135.6 17.0109 138.835 16.5998 142.084 16.6008C163.315 16.6008 180.588 33.8734 180.588 55.1045C180.596 63.0634 178.124 70.8271 173.516 77.3162L173.626 77.4612C174.611 76.1845 175.755 75.055 176.86 73.8764C178.196 72.4465 179.211 70.8512 180.257 69.211C180.465 68.8842 180.669 68.5567 180.87 68.2285C182.306 64.0021 183.039 59.5684 183.039 55.1045C183.039 32.5211 164.667 14.1497 142.084 14.1497Z" fill="#454545"/>
<path d="M146.782 87.4947L141.442 94.7991L148.467 100.5L147.828 95.6509C152.032 95.0597 156.117 93.8128 159.934 91.9558C160.425 90.6826 160.999 89.4434 161.654 88.2463C157.315 90.8202 152.509 92.51 147.513 93.2181L146.782 87.4947Z" fill="#454545"/>
<g opacity="0.3">
<path d="M55.8846 79.2072C55.8846 79.2072 59.7656 89.2161 58.1315 93.0971C56.4974 96.9782 53.0249 98.8165 53.0249 98.8165L42.6074 96.1611L46.6927 90.4417L42.6074 81.0456L49.1234 79.9221L56.7016 79.6157" fill="#454545"/>
</g>
</svg>
