<svg width="200" height="191" viewBox="0 0 200 191" fill="none" xmlns="http://www.w3.org/2000/svg">
<g opacity="0.15">
<path d="M64.7802 38.7852C64.7802 38.7852 60.687 58.2281 57.2077 61.7073C53.7285 65.1866 32.767 78.8989 32.8099 80.3316C32.8529 81.7642 24.8711 80.1269 24.8711 80.1269L30.397 64.1633L41.6534 43.9017C41.6534 43.9017 47.9979 41.6504 49.0212 41.6504C50.0445 41.6504 63.3476 39.6038 63.3476 39.6038L64.7802 38.7852Z" fill="#454545"/>
</g>
<path d="M52.5 16.6793L53.7648 8.13877L57.4119 3.37628L63.3471 1.125H172.227C172.227 1.125 181.642 2.35297 183.279 12.5861L182.256 16.27L52.5 16.6793Z" fill="#5FB6E5"/>
<path d="M170.278 28.9857C169.713 29.0802 169.135 29.055 168.58 28.9119C168.026 28.7687 167.507 28.5108 167.059 28.1548C165.532 26.9534 164.47 24.6162 164.914 22.676C165.054 22.0703 165.32 21.5006 165.694 21.0039L99.3667 21.3866L95.2734 21.7959L95.8506 53.4163L96.9107 53.9279C96.9107 53.9279 166.496 54.1326 169.156 54.1326C171.817 54.1326 169.975 51.8813 169.975 51.8813L170.278 28.9857Z" fill="#D7E8EF"/>
<path d="M127.467 66.4254C126.942 66.818 126.328 67.074 125.68 67.1704C123.551 67.4569 122.16 66.0079 121.357 64.2212C120.797 62.9727 120.389 61.5442 120.793 60.2773H120.653L104.485 60.6867L94.2766 60.8668C94.2766 60.8668 94.252 79.7162 94.0474 82.7861C93.8427 85.856 95.2753 85.6514 95.2753 85.6514H97.2708C97.1285 84.7033 97.0914 83.7423 97.1603 82.7861C97.3281 81.0076 97.7149 79.2598 97.8827 77.4792C98.1652 74.4543 98.3391 71.1817 97.3833 68.2551C97.3341 68.1231 97.3341 67.9777 97.3833 67.8458C97.3626 67.7532 97.3628 67.6573 97.3839 67.5648C97.405 67.4724 97.4465 67.3858 97.5054 67.3115C97.5642 67.2372 97.6389 67.1769 97.724 67.1351C97.8092 67.0934 97.9025 67.0711 97.9973 67.0701C99.342 67.0537 100.68 66.9125 102.023 67.0701C102.193 67.0752 102.356 67.1452 102.476 67.2658C102.597 67.3864 102.667 67.5484 102.672 67.7189C102.817 73.697 101.135 79.6486 102.086 85.6145C102.087 85.6329 102.087 85.6514 102.086 85.6698H105.226C104.872 81.5438 105.201 77.3748 104.835 73.2427C104.794 72.774 105.187 72.5714 105.553 72.6287C105.599 72.5634 105.661 72.5105 105.732 72.4748C105.804 72.4391 105.883 72.4217 105.963 72.424C107.119 72.424 108.271 72.3483 109.428 72.424C109.566 72.4267 109.698 72.483 109.796 72.5811C109.894 72.6793 109.95 72.8115 109.952 72.95C109.941 77.1906 109.591 81.421 109.448 85.6575H112.876C112.954 84.9453 113.032 84.2249 113.044 83.5086C113.077 81.4619 112.839 79.403 112.747 77.3503C112.719 76.722 113.619 76.681 113.771 77.2131C114.685 77.2295 115.692 77.0085 116.546 77.3339C117.43 77.6777 117.551 78.7031 117.524 79.5361C117.479 80.9585 117.182 82.3624 117.141 83.7889C117.123 84.4029 117.125 85.0353 117.141 85.6575H120.639C120.727 80.322 121.744 74.9005 120.162 69.7184C120.134 69.6393 120.128 69.5539 120.145 69.4716C120.162 69.3893 120.201 69.3133 120.258 69.2518C120.095 68.8936 120.535 68.3554 121.028 68.5641C121.939 68.9468 122.929 68.9734 123.908 68.9734C124.002 68.4127 124.726 68.5293 124.896 68.9734C125.451 69.0737 125.428 69.9661 124.833 70.0111C124.708 71.6177 124.99 73.2345 125.215 74.8227C125.451 76.3676 125.53 77.9323 125.453 79.4931C125.336 81.5131 125.346 83.5352 125.285 85.5531L126.593 85.4569L127.821 83.4103L128.025 78.9077L127.467 66.4254Z" fill="#D2DB9C"/>
<g opacity="0.4">
<path d="M169.81 66.5138C167.841 66.567 166.159 65.38 165.406 63.5974C165.118 62.9311 164.998 62.2046 165.055 61.4812C165.113 60.7578 165.346 60.0594 165.735 59.4468H165.064C165.064 59.4468 138.663 59.2422 135.797 59.2422C132.932 59.2422 133.301 62.4779 133.301 62.4779C133.301 62.4779 133.546 79.3052 133.751 82.5798C133.955 85.8544 136.002 85.2404 136.002 85.2404L150.425 85.3755L151.352 85.0358L152.17 80.0481C151.727 80.3518 151.254 80.6103 150.758 80.8197C147.306 82.279 143.034 80.8832 140.849 77.9053C138.446 74.6307 138.497 69.3791 140.597 65.9612C142.457 62.9343 146.591 61.342 149.925 62.658C151.374 62.6314 152.621 63.5421 153.759 64.4815C154.357 64.6711 154.918 64.9611 155.418 65.3391L157.287 63.7509L158.31 63.1369L160.152 63.3416L161.79 64.5695L162.608 66.0022L163.427 69.0721C163.427 69.0721 162.076 78.7219 161.624 79.4669C162.387 78.8263 172.145 71.6775 172.145 71.6775L172.389 65.5867C171.647 66.1571 170.745 66.4813 169.81 66.5138Z" fill="#89DA3E"/>
</g>
<g opacity="0.15">
<path d="M130.96 163.068C132.749 161.136 134.486 159.155 136.312 157.256C137.756 155.735 139.294 154.305 140.915 152.974C132.366 154.216 121.062 154.771 114.728 153.314C106.214 151.357 99.8656 147.569 92.594 142.876L57.8935 120.465C50.321 115.572 35.9025 103.74 26.5393 110.769C22.2168 114.012 19.769 119.596 20.3134 124.974C20.8701 130.5 24.2409 135.267 27.6015 139.675C36.8338 151.795 46.983 163.023 57.39 174.13C63.7161 180.884 70.3922 187.869 79.117 190.947C80.6083 180.55 81.8519 170.121 82.8479 159.658C88.8118 161.023 93.5293 165.608 99.2762 167.704C102.649 168.932 106.29 169.273 109.88 169.214C116.02 169.114 122.25 167.835 127.575 164.765C128.504 164.23 129.658 163.666 130.96 163.068Z" fill="#0447F6"/>
</g>
<path d="M94.9961 42.4785L100.223 38.6923L105.712 36.5331L109.597 34.818L114.103 34.0772L117.709 33.9155L120.243 35.5098L126.792 44.1056L129.875 45.8125L132.728 45.9476L135.554 45.002L143.575 40.1352L151.055 34.818L156.264 32.6445L160.766 37.3518L164.45 44.3103L166.497 45.9476L169.802 40.4053L170.385 39.3984V53.5201L160.339 54.1054L99.777 54.5434L96.7071 53.5201L95.2744 52.0874L94.9961 42.4785Z" fill="#7CD7FF"/>
<path d="M169.362 29.1639L168.134 28.9593L166.497 28.1406L164.86 26.9126L164.041 24.0474L164.655 22.6147L165.206 21.2067L166.497 19.5448L167.725 18.8633L169.772 18.9308C169.772 18.9308 172.432 19.5448 172.637 19.7495C172.841 19.9541 174.274 21.7961 174.479 22.4101C174.696 23.1435 174.834 23.8983 174.888 24.6614C174.888 25.0707 174.274 26.9126 174.274 26.9126L173.046 28.3453C173.046 28.3453 173.47 29.0636 172.228 29.3195C170.985 29.5753 169.362 29.1639 169.362 29.1639Z" fill="#FFA272"/>
<path d="M125.768 66.4139L124.541 66.2093L122.903 65.3906L121.266 64.1626L120.447 61.2974L121.061 59.8647L121.612 58.4567L122.903 56.7948L124.131 56.1133L126.178 56.1808C126.178 56.1808 128.838 56.7948 129.043 56.9995C129.248 57.2041 130.68 59.0461 130.885 59.6601C131.103 60.3935 131.24 61.1483 131.294 61.9114C131.294 62.3207 130.68 64.1626 130.68 64.1626L129.452 65.5953C129.452 65.5953 129.876 66.3136 128.634 66.5695C127.391 66.8253 125.768 66.4139 125.768 66.4139Z" fill="#FFA272"/>
<path d="M169.567 66.4139L168.339 66.2093L166.702 65.3906L165.065 64.1626L164.246 61.2974L164.86 59.8647L165.411 58.4567L166.702 56.7948L167.93 56.1133L169.977 56.1808C169.977 56.1808 172.637 56.7948 172.842 56.9995C173.047 57.2041 174.479 59.0461 174.684 59.6601C174.901 60.3935 175.039 61.1483 175.093 61.9114C175.093 62.3207 174.479 64.1626 174.479 64.1626L173.251 65.5953C173.251 65.5953 173.675 66.3136 172.433 66.5695C171.19 66.8253 169.567 66.4139 169.567 66.4139Z" fill="#FFA272"/>
<path d="M85.245 75.621L84.0171 75.4163L82.3798 74.5976L80.7425 73.3697L79.9238 70.5044L80.5378 69.0718L81.0884 67.6637L82.3798 66.0018L83.6077 65.3203L85.6544 65.3878C85.6544 65.3878 88.315 66.0018 88.5196 66.2065C88.7243 66.4112 90.1569 68.2531 90.3616 68.8671C90.5792 69.6005 90.7164 70.3554 90.7709 71.1184C90.7709 71.5277 90.1569 73.3697 90.1569 73.3697L88.929 74.8023C88.929 74.8023 89.3526 75.5207 88.1103 75.7765C86.868 76.0323 85.245 75.621 85.245 75.621Z" fill="#FFA272"/>
<path d="M87.7021 47.1756L86.4741 46.971L84.8368 46.1523L83.1995 44.9244L82.3809 42.0591L82.9948 40.6265L83.5454 39.2184L84.8368 37.5565L86.0648 36.875L88.1114 36.9425C88.1114 36.9425 90.772 37.5565 90.9767 37.7612C91.1813 37.9658 92.614 39.8078 92.8186 40.4218C93.0362 41.1552 93.1735 41.91 93.228 42.6731C93.228 43.0824 92.614 44.9244 92.614 44.9244L91.386 46.357C91.386 46.357 91.8096 47.0754 90.5673 47.3312C89.325 47.587 87.7021 47.1756 87.7021 47.1756Z" fill="#FFA272"/>
<path d="M86.8837 30.5975L85.6557 30.3929L84.0184 29.5742L82.3811 28.3462L81.5625 25.481L82.1765 24.0483L82.727 22.6403L84.0184 20.9784L85.2464 20.2969L87.293 20.3644C87.293 20.3644 89.9536 20.9784 90.1583 21.1831C90.363 21.3877 91.7956 23.2297 92.0003 23.8437C92.2178 24.5771 92.3551 25.3319 92.4096 26.095C92.4096 26.5043 91.7956 28.3462 91.7956 28.3462L90.5676 29.7789C90.5676 29.7789 90.9913 30.4972 89.749 30.7531C88.5067 31.0089 86.8837 30.5975 86.8837 30.5975Z" fill="#FFA272"/>
<path opacity="0.37" d="M83.2491 40.8516L70.1016 41.2384L71.5342 47.8653V43.899H83.3043C82.9071 42.9255 82.8874 41.8388 83.2491 40.8516Z" fill="#FFA272"/>
<path opacity="0.37" d="M91.294 46.5352C90.494 47.05 89.56 47.3176 88.6088 47.3047C87.9179 47.2918 87.2347 47.1567 86.5908 46.9056C86.7546 46.9834 86.9203 47.057 87.0882 47.1205V47.9923H71.5625L72.5572 52.5972V49.425H86.4742V54.5415H72.9767L73.3758 56.3835L87.7022 56.1788L89.8593 54.914L91.5907 52.0856L91.294 46.5352Z" fill="#FFA272"/>
<path opacity="0.37" d="M72.5566 54.5419H72.9762L72.5566 52.5977V54.5419Z" fill="#FFA272"/>
<g opacity="0.37">
<path d="M88.0256 75.5526C87.5497 75.8349 87.0184 76.0112 86.4681 76.0694C85.9179 76.1277 85.3615 76.0666 84.837 75.8903V80.5341H63.7568V73.9849H81.9983C81.6957 73.6493 81.4269 73.2846 81.196 72.8961C80.6019 71.9351 80.3103 70.8178 80.359 69.689H80.3344C80.3344 69.689 74.8085 69.4844 74.6039 69.4844V69.689L74.1945 71.3263L72.5572 72.759L70.306 73.7823L65.8034 73.373L61.0184 72.8593C61.0184 72.8593 60.8915 78.8968 60.4822 79.3061C60.0728 79.7154 60.8915 81.5574 61.0962 82.5807C61.3008 83.604 64.1661 84.832 64.1661 84.832C64.1661 84.832 85.2463 85.0367 85.8603 85.0367C86.4743 85.0367 87.7022 83.604 87.7022 83.604L88.5209 79.1014L88.0256 75.5526Z" fill="#FFA272"/>
</g>
<g opacity="0.37">
<path d="M82.4781 26.9129C82.5422 27.189 82.6559 27.4511 82.8137 27.6865L82.9754 27.9301C82.4497 27.0078 82.303 25.9173 82.5661 24.8888C82.5784 24.8438 82.5968 24.8008 82.6091 24.7578L69.2815 25.2756L69.1484 26.9129H82.4781Z" fill="#FFA272"/>
</g>
<g opacity="0.37">
<path d="M90.7711 29.5069C89.0519 30.7348 86.4957 30.9497 84.6169 29.6992C84.2547 29.4573 83.9253 29.1698 83.6365 28.8438C84.3856 29.8364 85.3045 30.7696 86.4834 31.0746V31.4143H68.8722V30.2887L68.4629 35.3029C68.4629 35.3029 85.8592 34.8936 86.0638 34.8936H89.3384L90.9757 32.233L90.7711 29.5069Z" fill="#FFA272"/>
</g>
<g opacity="0.37">
<path d="M97.3203 85.4478L97.525 67.4375L102.437 67.6422L102.206 85.7384L97.3203 85.4478Z" fill="#FFA272"/>
</g>
<g opacity="0.37">
<path d="M104.688 85.4484L104.892 72.5547H109.6L109.804 85.4484L104.639 85.8311L112.67 85.4484V77.2619H117.377L117.616 85.5589" fill="#FFA272"/>
</g>
<g opacity="0.37">
<path d="M120.242 85.4448V68.8672H124.745L125.279 85.4653L120.242 85.4448Z" fill="#FFA272"/>
</g>
<path d="M152.716 77.7853C152.841 76.9732 153.079 76.1824 153.422 75.4358C153.532 75.1881 153.647 74.9528 153.753 74.7358C153.784 73.5795 153.837 72.4354 154.179 71.2852C154.294 70.9004 154.488 70.5437 154.748 70.2373C154.83 69.4596 154.881 68.6778 154.889 67.894C154.899 67.1348 155.21 66.4104 155.753 65.8801C154.679 64.3334 153.179 63.132 151.435 62.4216C149.691 61.7112 147.778 61.5225 145.929 61.8783C144.08 62.2342 142.374 63.1193 141.018 64.4262C139.662 65.7331 138.715 67.4056 138.292 69.2404C137.869 71.0753 137.987 72.9936 138.633 74.7623C139.279 76.5311 140.425 78.0743 141.931 79.2044C143.437 80.3345 145.239 81.0029 147.118 81.1285C148.997 81.254 150.872 80.8314 152.515 79.9117C152.538 79.1995 152.605 78.4893 152.716 77.7853Z" fill="#EDE793"/>
<path d="M79.7753 190.131L79.7957 190.031C80.8763 184.988 81.6991 164.602 81.8587 160.383C75.0455 156.7 67.4505 152.033 59.2845 146.512C45.8157 137.402 34.5204 128.428 31.387 125.896L31.3645 125.877V125.849C31.2747 125.588 31.2063 125.32 31.1598 125.049C31.0752 124.713 31.1084 124.359 31.254 124.046C31.3357 123.906 31.4629 123.799 31.6142 123.743L31.6715 123.718L31.7185 123.757C33.0693 124.862 45.3593 134.842 60.3528 144.981C75.0291 154.929 95.5302 167.16 109.76 169.051C110.545 169.154 111.335 169.205 112.126 169.204C117.421 169.204 123.225 166.927 129.375 162.434C135.261 158.136 141.508 151.792 147.944 143.575C152.946 137.191 160.717 126.242 169.342 110.331C161.174 103.782 148.804 99.2079 146.196 98.289C143.558 102.165 138.624 109.21 134.921 113.346C131.563 117.091 126.281 120.871 122.046 120.871C121.513 120.88 120.983 120.797 120.478 120.624C120.274 120.55 120.038 120.481 119.768 120.399C117.118 119.613 112.196 118.147 93.3321 102.276C74.8879 86.7522 53.247 83.9913 35.8609 81.7707C33.8921 81.519 31.8577 81.2591 29.9441 80.993C28.4714 80.7865 26.986 80.6826 25.4989 80.6819C18.4892 80.6819 12.7873 83.0253 9.23845 84.9798C6.77712 86.3392 4.48066 87.9778 2.39455 89.8631L2.37203 89.8815H2.34338C2.02674 89.9462 1.70464 89.9804 1.38147 89.9838C0.937032 90.0065 0.495188 89.9036 0.106424 89.687L0 89.6195L0.0859581 89.5295C0.403184 89.1918 3.3319 86.1525 8.27244 83.4019C11.4427 81.6397 16.5367 79.4396 22.8137 78.9402L25.1919 74.014C24.0396 72.9743 22.3 70.9134 20.7998 68.1791C18.9579 64.839 16.9481 59.4707 17.7299 52.8601C16.2261 50.8298 15.0818 48.5564 14.3468 46.139C12.7505 40.695 14.1155 35.8957 18.2968 32.2609L18.3848 32.1831L18.4912 32.1299C18.6406 32.0562 22.1751 30.2982 25.5234 29.3731C25.4743 28.4051 25.6237 26.5754 27.0379 24.6659C30.2716 20.2882 37.9669 17.912 49.911 17.5846C50.59 16.9008 51.3185 16.2681 52.0906 15.6914V12.6215C52.0949 9.27683 53.425 6.07025 55.7892 3.70443C58.1535 1.33861 61.3593 0.00649701 64.7039 0H170.688C174.035 0.00379075 177.243 1.33471 179.61 3.70082C181.976 6.06693 183.307 9.27506 183.312 12.6215V55.84C184.497 56.7549 187.131 59.2538 187.059 63.3C187.736 64.4343 188.285 65.6403 188.696 66.8959L189.247 67.385C189.656 67.7514 190.148 68.1914 190.352 68.3469L190.373 68.2835L190.491 68.4329C191.426 69.5985 192.096 70.9532 192.456 72.4033C192.589 72.9495 192.685 73.504 192.743 74.0631C192.907 75.8733 192.694 77.6978 192.116 79.4212C192.681 79.1019 193.381 78.7192 194.106 78.3774C194.945 77.9824 196.095 77.4401 197.186 77.4401C197.429 77.4383 197.672 77.4679 197.908 77.5281C199.372 77.9087 199.834 78.7561 199.955 79.4151C200.383 81.5476 197.677 84.419 195.604 86.392C193.461 88.4386 191.261 90.123 191.017 90.3092C190.344 90.9007 174.368 104.961 172.027 109.251L171.644 109.963C162.725 126.627 154.626 138.067 149.407 144.729C135.709 162.211 123.18 171.073 112.159 171.075C111.269 171.076 110.38 171.017 109.498 170.899C102.667 169.988 93.9747 166.779 83.6659 161.36C83.4408 167.143 82.6569 185.475 81.5968 190.422L81.5742 190.522L79.7753 190.131ZM96.9874 102.91C113.534 116.61 118.096 117.967 120.292 118.618C120.587 118.706 120.855 118.786 121.111 118.88C121.401 118.974 121.705 119.018 122.009 119.009C123.99 119.009 128.649 117.556 133.534 112.108C135.419 110.006 137.832 106.911 140.697 102.91H96.9874ZM147.275 96.6988C150.787 97.9493 162.174 102.296 170.236 108.672L170.406 108.356C172.937 103.717 189.141 89.4865 189.83 88.8827L189.877 88.8438C194.106 85.6368 198.434 81.2284 198.144 79.7732C198.105 79.5829 197.869 79.4314 197.442 79.3209C197.308 79.2876 197.17 79.2711 197.032 79.2718C195.952 79.2718 194.112 80.1784 190.893 82.3069C188.76 86.3511 185.238 89.8958 182.403 92.54C182.008 92.9084 181.636 93.2523 181.28 93.5777L181.026 93.7823L180.348 94.3042L180.328 94.3206H180.303C180.101 94.3573 179.895 94.3758 179.689 94.3759C179.06 94.3827 178.443 94.2002 177.919 93.8519L177.833 93.7946L177.892 93.7087C178.054 93.5052 178.252 93.3344 178.478 93.2052L178.643 93.0926C178.695 93.0558 178.776 92.9862 178.873 92.9043C179.221 92.6055 179.503 92.3784 179.691 92.3784H179.822C181.363 90.958 182.952 89.4906 184.38 87.9147C187.859 84.0814 191.73 78.975 190.774 73.4696C190.68 72.9295 190.536 72.3992 190.344 71.8855C190.315 71.8119 189.859 71.0096 189.48 70.3444C190.064 77.2334 184.259 83.6045 179.098 88.412C178.703 88.7777 178.328 89.1236 177.972 89.4496L177.706 89.6543C177.483 89.8262 177.262 89.9961 177.043 90.168L177.023 90.1823H176.998C176.795 90.219 176.59 90.2374 176.384 90.2376C175.755 90.2433 175.14 90.0608 174.616 89.7137L174.528 89.6543L174.589 89.5704C174.75 89.3664 174.948 89.1949 175.172 89.0649L175.338 88.9523C175.389 88.9155 175.473 88.8459 175.569 88.764C175.917 88.4673 176.198 88.2401 176.388 88.2401H176.519C178.062 86.8197 179.648 85.3503 181.077 83.7764C184.556 79.9431 188.428 74.8368 187.471 69.3293C187.376 68.7894 187.233 68.2592 187.043 67.7452C187.018 67.6818 186.756 67.0719 186.492 66.4763C186.264 67.1051 186 67.7201 185.7 68.3183C182.221 75.0844 177.16 81.0073 172.479 83.7805L172.45 83.7969H172.42C171.667 83.7416 170.924 83.5945 170.207 83.3589H170.181L170.16 83.3364L170.08 83.2422L169.992 83.142L170.111 83.0826C171.024 82.6264 171.887 82.0778 172.688 81.4453C172.892 81.2734 173.122 81.1097 173.343 80.9459C173.621 80.7413 173.91 80.5223 174.182 80.2951C177.117 77.8392 179.777 74.6321 182.55 70.1746C184.298 67.3666 186.376 63.216 184.243 59.6038C184.175 59.4871 183.445 58.6255 183.054 58.1711C182.95 58.0463 182.849 57.9399 182.794 57.8621C182.004 59.7327 180.262 63.4023 177.162 67.8291C173.545 72.9969 165.905 78.3917 162.776 80.4691H162.764L162.174 80.6737L162.056 80.7147C161.698 80.8579 161.32 80.9449 160.936 80.9725H160.84L160.813 80.9521C160.645 80.8151 160.494 80.6576 160.365 80.4834L160.336 80.4445L160.422 80.0925C160.875 78.2178 161.223 76.5416 161.487 74.9759C161.839 73.0595 162.023 71.116 162.037 69.1676C162.037 69.051 162.037 68.9323 162.037 68.8136C162.037 67.559 162.025 66.1386 161.108 65.2013C160.57 64.6601 159.845 64.3459 159.082 64.3233C158.825 64.3164 158.569 64.3646 158.332 64.4645C158.095 64.5643 157.881 64.7137 157.707 64.9025C156.693 66.0117 156.104 67.4853 155.586 68.9016C154.854 70.9864 154.252 73.1149 153.785 75.2747C152.736 79.9651 151.974 84.7153 151.505 89.4988L151.485 89.7034L148.261 95.2887C148.184 95.3378 147.838 95.8638 147.275 96.7049V96.6988ZM142.027 101.052C144.545 97.4785 146.456 94.5785 146.667 94.2572L149.653 89.0813C149.7 88.6433 149.823 87.5176 150.028 85.9643H135.292C134.709 85.9637 134.15 85.7319 133.738 85.3198C133.326 84.9077 133.094 84.349 133.094 83.7662V60.889C133.095 60.3066 133.327 59.7483 133.739 59.3367C134.151 58.925 134.709 58.6936 135.292 58.693H164.544C164.98 57.9192 165.585 57.254 166.314 56.7471C167.043 56.2402 167.877 55.9047 168.754 55.7658C169.631 55.627 170.529 55.6883 171.379 55.9451C172.229 56.202 173.009 56.6478 173.663 57.2491C174.316 57.8505 174.825 58.5918 175.151 59.4177C175.478 60.2435 175.613 61.1325 175.547 62.018C175.481 62.9035 175.216 63.7627 174.771 64.5312C174.326 65.2998 173.714 65.9577 172.978 66.4558V69.8594C173.947 68.8905 174.837 67.8455 175.639 66.7342C179.427 61.3209 181.142 57.0066 181.464 56.1491V16.9235H67.0309C68.3555 18.0756 69.3932 19.5205 70.062 21.1436C70.4501 22.1207 70.7248 23.1391 70.8806 24.1788H81.8321C82.0519 23.3174 82.4671 22.5183 83.0457 21.8433C83.6243 21.1684 84.3506 20.6359 85.1683 20.2871C85.986 19.9384 86.8731 19.7827 87.7606 19.8322C88.6482 19.8817 89.5125 20.1351 90.2863 20.5727C91.0601 21.0102 91.7227 21.6202 92.2226 22.3553C92.7225 23.0904 93.0463 23.9308 93.1689 24.8113C93.2915 25.6917 93.2095 26.5886 92.9294 27.4323C92.6492 28.276 92.1785 29.0437 91.5536 29.676V32.355C91.5525 33.202 91.2155 34.014 90.6166 34.6129C90.0177 35.2118 89.2058 35.5487 88.3588 35.5498H70.0047C70.414 37.2158 70.809 38.8838 71.1835 40.5129H82.704C83.0997 39.1806 83.962 38.0354 85.133 37.2868C86.304 36.5382 87.7054 36.2363 89.0807 36.4363C90.456 36.6363 91.7134 37.3249 92.6226 38.3761C93.5318 39.4272 94.0322 40.7706 94.032 42.1604C94.0349 43.0499 93.8312 43.9278 93.437 44.7251C93.0428 45.5225 92.4688 46.2174 91.7603 46.7551V52.4958C91.7587 53.6455 91.3012 54.7477 90.4883 55.5606C89.6753 56.3736 88.5732 56.831 87.4235 56.8326H74.4622C75.3402 62.3094 75.6902 66.4804 75.504 69.2331H79.9595C80.187 68.3508 80.6196 67.5347 81.2223 66.8513C81.8249 66.1678 82.5804 65.6364 83.4273 65.3002C84.2741 64.964 85.1885 64.8326 86.0957 64.9166C87.003 65.0007 87.8776 65.2979 88.6483 65.7839C89.419 66.27 90.0641 66.9312 90.5309 67.7137C90.9977 68.4962 91.273 69.3779 91.3346 70.287C91.3961 71.1961 91.2421 72.1068 90.885 72.9451C90.5279 73.7834 89.9779 74.5255 89.2798 75.111V81.2243C89.2749 82.3718 88.816 83.4708 88.0034 84.2811C87.1908 85.0914 86.0905 85.5472 84.943 85.5488H65.6433C76.9264 88.9871 86.3818 93.9993 94.5294 100.855L94.7606 101.05L142.027 101.052ZM135.292 59.9148C135.038 59.9154 134.794 60.0167 134.614 60.1966C134.434 60.3765 134.333 60.6203 134.332 60.8747V83.7723C134.333 84.0267 134.434 84.2706 134.614 84.4504C134.794 84.6303 135.038 84.7316 135.292 84.7322H150.195C150.347 83.6454 150.509 82.5628 150.678 81.5128C148.922 82.038 147.056 82.0815 145.277 81.6387C143.497 81.196 141.87 80.2833 140.564 78.9962C139.258 77.709 138.322 76.0946 137.854 74.3219C137.386 72.5491 137.402 70.6831 137.902 68.919C138.402 67.1548 139.366 65.5574 140.695 64.2937C142.024 63.03 143.667 62.1465 145.454 61.7356C147.241 61.3247 149.106 61.4014 150.853 61.9578C152.6 62.5142 154.165 63.5298 155.386 64.8984C156.124 63.7093 156.923 62.9316 157.76 62.5857C158.144 62.4279 158.556 62.3479 158.971 62.3503C160.404 62.3503 162.019 63.2529 162.891 64.5464C163.99 66.1734 163.914 68.5127 163.871 70.062C163.781 72.958 163.257 75.7925 162.731 78.2157C164.827 76.7708 168.588 74.0468 171.736 71.073V67.0964C170.713 67.4803 169.602 67.5717 168.53 67.3603C167.457 67.1489 166.465 66.6431 165.663 65.8995C164.862 65.156 164.284 64.204 163.993 63.1503C163.702 62.0966 163.71 60.9826 164.016 59.9333L135.292 59.9148ZM57.3893 83.3835C58.7524 83.6904 60.1441 84.0302 61.5337 84.3945C61.0941 83.991 60.7433 83.5004 60.5037 82.9538C60.2641 82.4073 60.1409 81.8169 60.142 81.2202V75.0169C58.8199 78.621 57.7598 81.8423 57.3893 83.3835ZM61.3802 81.2202C61.3802 82.0422 61.7066 82.8305 62.2877 83.4119C62.8687 83.9934 63.6568 84.3203 64.4788 84.3208H84.945C85.7667 84.3203 86.5545 83.9936 87.1355 83.4127C87.7164 82.8317 88.0431 82.0439 88.0436 81.2222V75.901C87.2692 76.2714 86.4215 76.463 85.5631 76.4618V81.0073H63.0503V74.497C62.512 74.409 61.9574 74.3067 61.3946 74.1941L61.3802 81.2202ZM25.507 78.8338C27.077 78.8344 28.6451 78.9438 30.1999 79.1613C32.0828 79.4232 34.0292 79.6709 36.0901 79.9349C42.009 80.6901 48.7075 81.5456 55.5944 82.9946C55.9137 81.5988 56.5952 79.4253 57.6206 76.5273C54.61 75.899 49.9498 72.1393 47.41 69.9249L46.5422 69.5851L46.5156 69.5749L46.4972 69.5503C46.2944 69.2719 46.1241 68.9711 45.9896 68.6539L45.9139 68.5843L45.9426 68.5393C45.9426 68.5188 45.9241 68.4984 45.916 68.4779C45.7908 68.1347 45.7331 67.7706 45.7461 67.4055V67.2561L45.8812 67.3154C50.5741 69.3129 61.1981 73.091 67.825 73.093C69.6363 73.093 71.0444 72.8106 72.0104 72.256C72.4518 72.0152 72.8264 71.6684 73.1005 71.2468C73.3745 70.8253 73.5393 70.3421 73.5801 69.841C73.9281 66.9941 73.7234 58.9591 68.4636 37.1093C65.6577 42.1215 61.5665 44.0187 59.8555 44.6204C59.571 46.7428 58.6828 51.6813 56.4663 53.2531C56.0046 53.5925 55.4471 53.7767 54.874 53.7791C54.6631 53.7787 54.453 53.754 54.2478 53.7054C52.5736 53.3124 50.615 51.6588 48.4251 48.7649C47.3793 47.3895 46.5361 46.0674 46.0981 45.3572C44.7793 45.9251 43.7216 46.9674 43.1346 48.2778C42.3466 50.087 42.4469 52.3219 43.4395 55.1135L43.5091 55.3181C44.295 57.5305 45.2713 60.2832 47.8889 60.6394C47.994 60.6541 48.1 60.6616 48.2061 60.6619C49.8086 60.6619 51.5196 59.1105 52.0538 57.7188C52.0538 57.7024 52.7373 56.0815 52.9297 56.0815H52.9686C53.2699 56.1592 53.5396 56.3287 53.7402 56.5666C54.608 57.6288 53.4516 59.1146 53.0157 59.6754C51.5503 61.5583 49.9458 62.5141 48.2614 62.5141H48.1038C46.446 62.4547 45.1321 61.4764 44.3053 60.6434C44.0638 60.756 43.8223 60.8727 43.5808 60.9893C43.0035 63.0132 42.0426 64.9073 40.7503 66.5684C38.6116 69.3805 34.4692 73.089 26.8824 74.7999L24.9299 78.844L25.507 78.8338ZM147.766 62.9275C146.474 62.924 145.196 63.2057 144.025 63.7527C142.854 64.2996 141.818 65.0983 140.991 66.0916C140.164 67.085 139.567 68.2487 139.241 69.4995C138.916 70.7504 138.87 72.0577 139.108 73.3281C139.346 74.5986 139.861 75.8009 140.617 76.8493C141.373 77.8977 142.351 78.7663 143.482 79.3932C144.612 80.0201 145.867 80.3899 147.156 80.4761C148.446 80.5623 149.739 80.3628 150.942 79.8919C151.114 78.8952 151.294 77.9333 151.475 77.0266C152.436 72.2109 153.47 68.6867 154.635 66.2553C153.816 65.2168 152.773 64.3776 151.583 63.8011C150.393 63.2247 149.088 62.9259 147.766 62.9275ZM84.3208 79.7712V76.339C83.2608 76.1064 82.2877 75.5802 81.5128 74.8204H69.7959C69.1272 74.903 68.4539 74.9434 67.78 74.9411C67.0698 74.9411 66.3064 74.9002 65.4469 74.8204H64.2741V79.7814L84.3208 79.7712ZM81.0176 70.4693C81.0176 70.5389 81.0176 70.6071 81.0176 70.6739C81.0185 71.8153 81.4489 72.9145 82.2233 73.753C82.9977 74.5915 84.0592 75.1078 85.1969 75.1992C86.3346 75.2907 87.4651 74.9506 88.3634 74.2467C89.2618 73.5427 89.8624 72.5264 90.0456 71.3998C90.2289 70.2733 89.9814 69.119 89.3524 68.1666C88.7235 67.2142 87.7591 66.5333 86.6511 66.2595C85.543 65.9857 84.3725 66.139 83.3723 66.6888C82.3721 67.2386 81.6155 68.1447 81.2529 69.227H81.4207L81.3573 69.3805C81.2185 69.6859 81.173 70.0255 81.2263 70.3567L81.2447 70.4734L81.0176 70.4693ZM80.5509 73.572C80.0409 72.6928 79.7726 71.6944 79.7732 70.678C79.7732 70.6084 79.7732 70.5389 79.7732 70.4734H75.3627C75.2558 71.0959 75.026 71.691 74.6865 72.2237C74.3471 72.7564 73.9048 73.2162 73.3857 73.576L80.5509 73.572ZM169.671 57.1396C168.792 57.1392 167.932 57.3996 167.201 57.8878C166.47 58.376 165.899 59.0701 165.563 59.8823C165.226 60.6946 165.138 61.5884 165.309 62.4509C165.48 63.3133 165.903 64.1056 166.525 64.7274C167.147 65.3493 167.939 65.7729 168.801 65.9446C169.663 66.1163 170.557 66.0284 171.37 65.692C172.182 65.3556 172.876 64.7858 173.365 64.0548C173.854 63.3237 174.114 62.4642 174.114 61.5849C174.113 60.407 173.645 59.2776 172.813 58.4443C171.98 57.611 170.851 57.1418 169.673 57.1396H169.671ZM87.4214 55.5924C88.2431 55.5918 89.0309 55.2652 89.6119 54.6842C90.1928 54.1032 90.5195 53.3154 90.52 52.4938V47.4816C89.544 47.904 88.4695 48.0458 87.4173 47.8909V48.7792H72.9846L73.0685 49.1885H87.2127V54.9723H74.1532C74.19 55.1769 74.2248 55.3816 74.2596 55.5862L87.4214 55.5924ZM85.9724 53.732V50.4247H73.3141C73.5392 51.5708 73.748 52.6759 73.9281 53.732H85.9724ZM86.1034 47.5328C85.3284 47.2191 84.6297 46.7429 84.0542 46.1364C83.4788 45.5299 83.04 44.8071 82.7674 44.0167H71.9776C72.2396 45.2119 72.4934 46.3928 72.7287 47.5328H86.1034ZM83.7191 41.7511C83.7068 41.8923 83.7007 42.0315 83.7007 42.1604C83.7002 43.294 84.123 44.3869 84.8861 45.2251C85.6493 46.0634 86.6979 46.5865 87.8265 46.6921C88.9552 46.7977 90.0826 46.4781 90.988 45.796C91.8934 45.1139 92.5115 44.1184 92.7213 43.0044C92.9312 41.8904 92.7176 40.7382 92.1224 39.7734C91.5272 38.8086 90.5932 38.1008 89.5035 37.7886C88.4138 37.4763 87.2467 37.5822 86.2309 38.0853C85.2151 38.5885 84.4237 39.4527 84.0118 40.5088H84.155L84.0711 40.6602C84.0297 40.7343 83.9928 40.8109 83.9606 40.8895C83.8607 41.132 83.8006 41.3891 83.7825 41.6508V41.7449L83.7191 41.7511ZM82.4911 42.7867C82.4678 42.5828 82.4562 42.3778 82.4563 42.1727C82.4563 42.0376 82.4563 41.9025 82.4707 41.7634H71.468C71.5458 42.1072 71.6236 42.451 71.7013 42.799L82.4911 42.7867ZM88.3527 34.3137C88.8714 34.3131 89.3687 34.1068 89.7356 33.74C90.1024 33.3732 90.3087 32.8758 90.3092 32.3571V30.64C89.4302 31.1504 88.4318 31.4194 87.4153 31.4197C87.2102 31.4188 87.0052 31.4071 86.8013 31.3849V32.4512H70.3322C70.1602 33.098 69.9658 33.7242 69.7509 34.3137H88.3527ZM85.5549 31.2151V31.1086C84.8226 30.8578 84.1477 30.4634 83.5696 29.9486C82.9915 29.4337 82.5219 28.8088 82.1882 28.1103H71.0301C70.9671 29.1529 70.8303 30.1898 70.6207 31.213L85.5549 31.2151ZM87.4214 21.0802C86.522 21.0802 85.6428 21.3469 84.8949 21.8466C84.1471 22.3463 83.5642 23.0565 83.22 23.8875C82.8758 24.7185 82.7858 25.6328 82.9612 26.515C83.1367 27.3971 83.5698 28.2074 84.2058 28.8434C84.8418 29.4794 85.6521 29.9125 86.5342 30.088C87.4164 30.2635 88.3308 30.1734 89.1617 29.8292C89.9927 29.485 90.7029 28.9021 91.2026 28.1543C91.7023 27.4065 91.969 26.5272 91.969 25.6278C91.9679 24.422 91.4885 23.266 90.6359 22.4134C89.7833 21.5608 88.6272 21.0813 87.4214 21.0802ZM81.7666 26.866C81.6769 26.4587 81.6316 26.0428 81.6315 25.6257C81.6315 25.5562 81.6315 25.4866 81.6315 25.4211H71.0116C71.0485 25.8898 71.0669 26.3769 71.0669 26.8701L81.7666 26.866ZM181.449 15.0652V12.6215C181.446 9.76775 180.31 7.03199 178.292 5.01426C176.274 2.99653 173.538 1.86158 170.684 1.85833H64.7039C61.8489 1.85942 59.1111 2.99348 57.0915 5.0115C55.072 7.02952 53.9358 9.76652 53.9326 12.6215V14.4635C55.6722 13.4811 57.3525 12.9817 58.9284 12.9817C60.029 12.9792 61.1149 13.2351 62.0986 13.7287C63.0114 14.1872 63.7993 14.6211 64.5054 15.057L181.449 15.0652Z" fill="#454545"/>
<path d="M199.857 79.4348C199.732 78.8208 199.288 78.0021 197.874 77.6255C196.646 77.3063 195.232 77.955 194.143 78.4687C193.388 78.8249 192.653 79.226 191.926 79.6415C192.563 77.8585 192.804 75.9581 192.633 74.0726C192.576 73.5209 192.48 72.9739 192.348 72.4353C191.994 70.9988 191.33 69.657 190.404 68.5037C190.381 68.5754 189.319 67.595 188.601 66.9626C188.193 65.6928 187.644 64.4728 186.963 63.3258C187.049 59.2121 184.266 56.6927 183.216 55.8884V12.6207C183.212 9.30143 181.891 6.11933 179.544 3.77241C177.196 1.42549 174.014 0.105353 170.695 0.101562H64.7064C61.3869 0.104813 58.2043 1.42477 55.8569 3.77181C53.5095 6.11885 52.189 9.30126 52.1852 12.6207V15.7418C51.3968 16.3298 50.6538 16.9763 49.9626 17.6759C38.0246 17.9931 30.3436 20.3611 27.1284 24.7183C25.7183 26.6278 25.5709 28.4329 25.6385 29.4501C22.2656 30.369 18.7045 32.1414 18.5428 32.2212L18.4487 32.2683L18.3709 32.3379C14.2285 35.944 12.8655 40.7065 14.4516 46.1096C15.1898 48.5272 16.3369 50.8005 17.8429 52.8307C17.057 59.4208 19.0708 64.7769 20.9005 68.1292C22.4232 70.9044 24.1874 72.9756 25.3294 73.9887L22.8919 79.0377C17.7751 79.466 12.8099 80.9882 8.33222 83.5014C3.4367 86.2214 0.555061 89.1869 0.162109 89.6085C0.788376 90.0015 1.61521 89.9483 2.32539 89.8132C4.41646 87.9223 6.7192 86.2795 9.18771 84.9176C13.7353 82.4003 21.0295 79.6619 29.9589 80.9083C31.852 81.1723 33.8045 81.422 35.8736 81.686C53.2699 83.9087 74.9313 86.6737 93.398 102.216C112.243 118.075 117.155 119.534 119.799 120.318C120.072 120.4 120.309 120.47 120.522 120.545C121.014 120.715 121.532 120.797 122.053 120.787C125.27 120.787 130.378 118.286 134.852 113.294C138.557 109.164 143.465 102.152 146.164 98.1839C149.029 99.1928 161.309 103.724 169.477 110.322C160.859 126.235 153.084 137.207 148.031 143.656C141.588 151.879 135.341 158.23 129.443 162.534C122.329 167.73 115.704 169.963 109.753 169.169C95.5019 167.27 74.9866 155.021 60.2857 145.08C45.4211 135.023 33.3604 125.252 31.6371 123.842C31.507 123.891 31.3973 123.983 31.326 124.102C31.1919 124.395 31.1629 124.724 31.2442 125.036C31.2912 125.303 31.3596 125.565 31.4488 125.821C34.8564 128.572 45.9798 137.391 59.3381 146.431C67.5737 152.002 75.1142 156.634 81.9594 160.327C81.7937 164.734 80.975 185.006 79.8923 190.059L81.5092 190.405C82.5775 185.419 83.3614 166.905 83.5824 161.193C93.9608 166.662 102.641 169.879 109.523 170.798C110.399 170.914 111.281 170.972 112.163 170.972C123.148 170.972 135.632 162.139 149.322 144.667C154.541 138.007 162.625 126.573 171.561 109.915L171.945 109.201C174.287 104.903 190.279 90.8262 190.962 90.2266C191.229 90.0219 193.4 88.3539 195.541 86.3175C197.606 84.361 200.283 81.5182 199.857 79.4348ZM53.8389 12.6207C53.8427 9.73984 54.9889 6.97805 57.0262 4.94113C59.0635 2.90422 61.8255 1.75848 64.7064 1.75523H170.689C173.57 1.75848 176.332 2.90422 178.369 4.94113C180.406 6.97805 181.552 9.73984 181.556 12.6207V15.1667H64.4895C63.6708 14.6612 62.8522 14.2192 62.0683 13.8283C59.156 12.3731 56.1597 13.3043 53.845 14.6469L53.8389 12.6207ZM36.0824 80.0365C34.0194 79.7724 32.071 79.5248 30.186 79.2608C28.393 79.0106 26.5828 78.9045 24.7727 78.9436L26.8194 74.705C34.3919 73.0104 38.5301 69.3224 40.675 66.5022C41.9698 64.8403 42.9278 62.9417 43.4952 60.9128C43.7749 60.7764 44.0533 60.644 44.3302 60.5158C45.1141 61.3181 46.4362 62.3455 48.1104 62.4069C49.8234 62.4662 51.4443 61.5289 52.9363 59.6112C53.3579 59.0688 54.4795 57.628 53.6649 56.6293C53.4764 56.4081 53.224 56.2508 52.9424 56.179H52.924C52.8544 56.179 52.2159 57.5605 52.1422 57.7528C51.5507 59.294 49.5901 60.9742 47.8689 60.7389C45.108 60.3602 44.1379 57.4008 43.3376 55.1495C42.564 52.974 42.0769 50.4423 43.0347 48.2381C43.647 46.8759 44.757 45.7996 46.1374 45.2296C46.5897 45.9684 47.4432 47.3048 48.5054 48.7088C50.6809 51.5741 52.6211 53.2237 54.2687 53.6105C54.635 53.6983 55.0162 53.7048 55.3853 53.6295C55.7545 53.5542 56.1026 53.3989 56.4053 53.1746C58.6566 51.5823 59.5244 46.3491 59.7618 44.5501C61.3008 44.018 65.6417 42.1085 68.5009 36.8343C70.9568 47.0429 74.4872 63.2951 73.6849 69.8586C73.6415 70.374 73.4708 70.8706 73.1883 71.3038C72.9057 71.7371 72.5202 72.0935 72.0661 72.3412C71.0223 72.9408 69.5549 73.1926 67.8296 73.1926C61.0757 73.1926 50.3923 69.3429 45.8468 67.4068C45.8342 67.7586 45.8898 68.1096 46.0105 68.4403C46.0228 68.4731 46.0371 68.5038 46.0515 68.5365L45.986 68.514L46.076 68.5979C46.2089 68.9154 46.3785 69.2163 46.5815 69.4943C46.8455 69.6007 47.1423 69.7174 47.4636 69.8422C49.8889 71.9564 54.7394 75.9002 57.7581 76.4549C56.9293 78.7901 56.0451 81.4466 55.6726 83.1207C48.7817 81.6594 42.1486 80.8101 36.0824 80.0365ZM81.9001 26.9676H70.965C70.965 26.415 70.9486 25.8624 70.9015 25.3139H81.7486C81.7486 25.4162 81.7486 25.5186 81.7486 25.625C81.7457 26.0769 81.7965 26.5276 81.9001 26.9676ZM69.6204 34.3804C69.8674 33.7094 70.0805 33.0263 70.2589 32.3338H86.7035V31.2532C88.0001 31.4261 89.3163 31.1401 90.4243 30.4448V32.342C90.4237 32.8879 90.2066 33.4113 89.8206 33.7973C89.4346 34.1833 88.9112 34.4004 88.3654 34.4009H69.6204V34.3804ZM87.426 30.2749C86.5063 30.2749 85.6073 30.0022 84.8426 29.4912C84.0779 28.9803 83.4819 28.2541 83.13 27.4044C82.7781 26.5548 82.686 25.6198 82.8654 24.7178C83.0448 23.8158 83.4877 22.9873 84.138 22.337C84.7883 21.6867 85.6168 21.2438 86.5188 21.0644C87.4208 20.885 88.3558 20.9771 89.2054 21.329C90.0551 21.681 90.7813 22.2769 91.2922 23.0416C91.8032 23.8063 92.0759 24.7053 92.0759 25.625C92.0743 26.8584 91.5833 28.0408 90.7107 28.9126C89.8382 29.7844 88.6553 30.2744 87.4219 30.2749H87.426ZM85.6556 31.0281V31.3125H70.4963C70.7244 30.2225 70.8708 29.117 70.9343 28.0052H82.2603C82.5891 28.7147 83.0601 29.3491 83.6442 29.8691C84.2282 30.3891 84.9129 30.7835 85.6556 31.0281ZM82.6041 42.88H71.6199C71.5271 42.4625 71.4337 42.0491 71.3395 41.6398H82.5959C82.5796 41.8117 82.5714 41.9836 82.5714 42.1576C82.5695 42.399 82.5831 42.6404 82.6123 42.88H82.6041ZM83.8567 40.6083C84.232 39.5054 85.0077 38.5836 86.0302 38.0253C87.0527 37.467 88.2475 37.3128 89.3782 37.5933C90.5089 37.8738 91.4932 38.5685 92.1362 39.54C92.7792 40.5115 93.0341 41.689 92.8504 42.8394C92.6668 43.9898 92.058 45.0294 91.1445 45.7525C90.231 46.4755 89.0794 46.8293 87.9175 46.7438C86.7557 46.6584 85.6682 46.1399 84.8703 45.291C84.0725 44.442 83.6223 43.3246 83.609 42.1596C83.6093 41.9866 83.6188 41.8138 83.6377 41.6418H83.6909C83.7101 41.3691 83.7723 41.1011 83.8751 40.8478C83.9119 40.7638 83.9508 40.6861 83.9917 40.6103L83.8567 40.6083ZM75.2793 70.3662H79.8862C79.8862 70.4685 79.8862 70.5708 79.8862 70.6773C79.8845 71.7381 80.1817 72.7779 80.7437 73.6776H73.0464C73.6392 73.3239 74.1467 72.8437 74.5327 72.2713C74.9186 71.6989 75.1736 71.0484 75.2793 70.3662ZM81.2574 69.3326H81.1101C81.4547 68.2101 82.2112 67.2595 83.2277 66.6717C84.2442 66.0839 85.4454 65.9025 86.5902 66.1638C87.7349 66.4251 88.7385 67.1099 89.3992 68.0806C90.0599 69.0512 90.329 70.236 90.1523 71.3968C89.9756 72.5577 89.3663 73.6087 88.4467 74.3388C87.527 75.0689 86.3652 75.4241 85.1946 75.333C84.0239 75.2419 82.931 74.7113 82.1354 73.8477C81.3398 72.9841 80.9004 71.8515 80.9054 70.6773C80.9054 70.5729 80.9054 70.4726 80.9177 70.3662H81.1224C81.0655 70.0159 81.1125 69.6566 81.2574 69.3326ZM64.4752 84.4203C63.6265 84.4192 62.813 84.0817 62.213 83.4816C61.6129 82.8816 61.2753 82.068 61.2742 81.2194V74.0562C61.8985 74.1831 62.5206 74.2977 63.1346 74.396V80.896H85.451V76.3566H85.5554C86.4537 76.3567 87.339 76.1427 88.1382 75.7324V81.2153C88.1371 82.0639 87.7995 82.8775 87.1995 83.4775C86.5994 84.0776 85.7859 84.4151 84.9373 84.4162L64.4752 84.4203ZM81.5624 74.7009C82.347 75.4823 83.343 76.0173 84.4277 76.24V79.8666H64.1661V74.7009H65.4493C66.2516 74.7766 67.0314 74.8217 67.7743 74.8217C68.4481 74.8233 69.1214 74.783 69.7902 74.7009H81.5624ZM73.1897 50.3216H86.0834V53.8254H73.8507C73.642 52.6711 73.4209 51.4963 73.1897 50.3216ZM74.0329 54.8671H87.1108V49.288H72.9891C72.9461 49.0834 72.9052 48.8787 72.8622 48.674H87.3216V47.7694C87.6294 47.8203 87.9408 47.8463 88.2528 47.8472C89.0735 47.8476 89.8845 47.6688 90.6289 47.3233V52.4992C90.6278 53.3478 90.2903 54.1613 89.6902 54.7614C89.0901 55.3614 88.2766 55.699 87.428 55.7001H74.1741L74.0329 54.8671ZM86.284 47.4993V47.6425H72.6473C72.3853 46.3859 72.1193 45.1416 71.8491 43.9218H82.8436C83.1118 44.7371 83.5604 45.4814 84.156 46.0994C84.7517 46.7174 85.479 47.1931 86.284 47.4911V47.4993ZM60.2448 74.443V81.2194C60.2456 81.879 60.4007 82.5292 60.6978 83.1181C60.9949 83.707 61.4257 84.2181 61.9558 84.6107C60.384 84.1931 58.8203 83.8097 57.2649 83.4605C57.6599 81.7577 58.9042 78.0635 60.2448 74.443ZM133.614 112.181C128.186 118.235 122.767 119.598 121.081 118.982C120.821 118.887 120.551 118.808 120.262 118.722C118.011 118.055 113.441 116.696 96.7033 102.813H140.914C138.542 106.112 135.851 109.698 133.614 112.181ZM142.081 101.16H94.7242L94.4561 100.941C86.1571 93.9576 76.499 88.8901 64.9397 85.4539H84.9352C86.0579 85.4528 87.1344 85.0063 87.9282 84.2124C88.7221 83.4185 89.1686 82.3421 89.1697 81.2194V75.057C89.8629 74.484 90.4101 73.7546 90.7664 72.9289C91.1227 72.1031 91.2778 71.2046 91.2191 70.3071C91.1604 69.4097 90.8895 68.539 90.4286 67.7668C89.9678 66.9945 89.3302 66.3426 88.5682 65.8648C87.8063 65.387 86.9418 65.0969 86.0459 65.0184C85.15 64.9398 84.2483 65.0751 83.4148 65.4131C82.5814 65.751 81.8401 66.282 81.2519 66.9624C80.6637 67.6427 80.2455 68.453 80.0315 69.3265H75.3959C75.621 66.2688 75.1483 61.7131 74.344 56.7213H87.4239C88.5466 56.7203 89.6231 56.2738 90.4169 55.4799C91.2108 54.686 91.6573 53.6096 91.6584 52.4869V46.695C92.3825 46.1548 92.9673 45.4497 93.3643 44.6382C93.7614 43.8268 93.9592 42.9323 93.9414 42.0291C93.9236 41.1259 93.6907 40.24 93.2619 39.4448C92.8332 38.6496 92.221 37.9682 91.4762 37.4569C90.7313 36.9457 89.8753 36.6195 88.9792 36.5053C88.083 36.3911 87.1726 36.4923 86.3234 36.8004C85.4742 37.1085 84.7106 37.6147 84.0962 38.2769C83.4818 38.9392 83.0341 39.7384 82.7904 40.6083H71.1042C70.6764 38.7663 70.2609 37.0144 69.8762 35.4406H88.3613C89.1811 35.4395 89.967 35.1133 90.5468 34.5336C91.1265 33.9539 91.4526 33.168 91.4537 32.3481V29.6282C92.071 29.0065 92.5362 28.2505 92.8128 27.4192C93.0895 26.588 93.1702 25.704 93.0485 24.8364C92.9269 23.9688 92.6063 23.141 92.1117 22.4179C91.6172 21.6947 90.9621 21.0958 90.1977 20.6678C89.4332 20.2398 88.5802 19.9944 87.7052 19.9507C86.8302 19.9071 85.9569 20.0664 85.1537 20.4162C84.3505 20.7659 83.639 21.2968 83.075 21.9671C82.5109 22.6374 82.1095 23.4292 81.9021 24.2804H70.7808C70.6307 23.2189 70.3559 22.1788 69.9621 21.1818C69.2587 19.4916 68.1587 17.9957 66.7551 16.8204H181.571V56.1667C181.278 56.9485 179.559 61.3181 175.727 66.7928C174.875 67.9742 173.926 69.0832 172.891 70.1083V66.3998C173.622 65.9147 174.234 65.2696 174.679 64.5133C175.124 63.757 175.391 62.9093 175.46 62.0345C175.529 61.1596 175.399 60.2805 175.078 59.4636C174.757 58.6468 174.255 57.9136 173.609 57.3195C172.963 56.7255 172.19 56.2862 171.349 56.0349C170.509 55.7836 169.622 55.7269 168.756 55.869C167.89 56.0111 167.067 56.3483 166.351 56.8552C165.634 57.3621 165.043 58.0252 164.62 58.7946H135.292C134.737 58.7946 134.204 59.0151 133.811 59.4077C133.418 59.8003 133.197 60.3328 133.197 60.8883V83.7715C133.197 84.3272 133.418 84.86 133.811 85.2529C134.204 85.6458 134.737 85.8667 135.292 85.8673H150.145C149.93 87.5046 149.799 88.6875 149.752 89.1194L146.753 94.3198C146.573 94.59 144.629 97.5453 142.081 101.16ZM162.813 64.6029C161.81 63.1191 159.584 61.9423 157.805 62.6791C156.958 63.029 156.168 63.8231 155.407 65.0695C154.208 63.6914 152.66 62.663 150.925 62.0932C149.19 61.5235 147.333 61.4336 145.551 61.8331C143.769 62.2326 142.128 63.1066 140.803 64.3626C139.477 65.6185 138.516 67.2096 138.02 68.9674C137.525 70.7252 137.515 72.5841 137.99 74.3474C138.465 76.1106 139.409 77.7125 140.72 78.9833C142.032 80.2542 143.662 81.1466 145.44 81.5662C147.217 81.9858 149.075 81.9169 150.816 81.3668C150.611 82.6132 150.439 83.79 150.294 84.8337H135.292C135.011 84.8332 134.741 84.7211 134.542 84.522C134.343 84.3229 134.231 84.0531 134.23 83.7715V60.8883C134.231 60.6067 134.343 60.3369 134.542 60.1378C134.741 59.9387 135.011 59.8266 135.292 59.8261H164.16C163.825 60.8731 163.796 61.9939 164.076 63.057C164.355 64.1201 164.932 65.0815 165.738 65.8287C166.544 66.5759 167.547 67.0778 168.628 67.2757C169.709 67.4737 170.824 67.3594 171.843 66.9463V71.1173C168.607 74.1729 164.749 76.9542 162.574 78.4462C163.171 75.6915 163.677 72.8815 163.765 70.0551C163.82 68.2745 163.837 66.142 162.813 64.6029ZM151.594 77.0525C151.389 78.0369 151.217 79.0152 151.051 79.9648C149.518 80.5754 147.845 80.7469 146.22 80.46C144.595 80.1731 143.081 79.4391 141.85 78.3404C140.618 77.2418 139.717 75.8218 139.247 74.2396C138.778 72.6575 138.758 70.9758 139.19 69.3831C139.623 67.7904 140.49 66.3496 141.696 65.2222C142.901 64.0949 144.396 63.3256 146.014 63.0005C147.633 62.6755 149.309 62.8075 150.856 63.3819C152.404 63.9563 153.76 64.9503 154.774 66.2525C153.603 68.6613 152.543 72.245 151.583 77.0525H151.594ZM165.136 61.5841C165.136 60.6846 165.402 59.8052 165.902 59.0571C166.401 58.3089 167.111 57.7257 167.942 57.3812C168.773 57.0367 169.687 56.9464 170.57 57.1216C171.452 57.2969 172.262 57.7298 172.899 58.3657C173.535 59.0016 173.968 59.8119 174.144 60.6941C174.319 61.5763 174.23 62.4908 173.885 63.3219C173.541 64.153 172.958 64.8633 172.21 65.3631C171.463 65.8629 170.583 66.1297 169.684 66.1297C168.477 66.1308 167.319 65.6526 166.464 64.8002C165.609 63.9479 165.128 62.7911 165.126 61.5841H165.136ZM189.954 88.927L189.908 88.9638C189.219 89.5676 173.028 103.788 170.507 108.407L170.279 108.828C162.16 102.371 150.669 98.0058 147.126 96.7533C147.762 95.8077 148.149 95.2306 148.149 95.204L151.362 89.6413L151.379 89.4632C151.847 84.6753 152.61 79.9209 153.663 75.2269C154.128 73.0624 154.73 70.9296 155.466 68.8414C155.982 67.4272 156.579 65.9332 157.607 64.8075C158.569 63.7556 160.267 64.1936 161.158 65.1043C162.191 66.1604 162.103 67.7649 162.117 69.1423C162.105 71.0964 161.92 73.0455 161.565 74.967C161.276 76.6882 160.908 78.3971 160.499 80.0958L160.425 80.4008C160.549 80.5687 160.694 80.7201 160.857 80.851C161.266 80.8715 161.786 80.6709 162.119 80.5583L162.709 80.3537C165.474 78.5117 173.402 72.9736 177.066 67.7383C180.257 63.1825 182.006 59.4229 182.743 57.6587H182.772C182.938 57.8634 184.219 59.3574 184.319 59.5273C186.399 63.0454 184.55 67.1141 182.627 70.2065C180.3 73.9437 177.637 77.515 174.235 80.3496C173.75 80.7589 173.233 81.1089 172.739 81.5018C171.934 82.1409 171.064 82.6944 170.144 83.1535C170.173 83.1842 170.2 83.2169 170.228 83.2497C170.936 83.4837 171.67 83.6294 172.414 83.6835C177.066 80.9308 182.082 75.1102 185.598 68.2623C185.917 67.6214 186.199 66.9626 186.442 66.2893C186.435 66.3148 186.435 66.3416 186.442 66.3671C186.442 66.3098 186.456 66.2525 186.462 66.1952C186.751 66.8398 187.09 67.6278 187.121 67.7097C187.314 68.2295 187.458 68.7659 187.553 69.3122C188.517 74.8544 184.63 79.9935 181.135 83.8432C179.569 85.5685 177.848 87.1382 176.135 88.7141L176.37 88.3417C176.139 88.3417 175.58 88.8963 175.382 89.0355C175.107 89.1883 174.862 89.3885 174.657 89.6269C175.339 90.0716 176.167 90.2338 176.966 90.0792L177.889 89.367C178.245 89.0423 178.619 88.6964 179.012 88.3294C183.859 83.8268 190.203 77.1753 189.321 69.9364C189.321 69.9098 189.321 69.8832 189.321 69.8566C189.794 70.6895 190.406 71.7599 190.437 71.8418C190.631 72.3613 190.776 72.8978 190.87 73.4443C191.834 78.9886 187.946 84.1277 184.452 87.9753C182.887 89.7006 181.165 91.2683 179.452 92.8463L179.688 92.4717C179.456 92.4717 178.898 93.0284 178.697 93.1676C178.423 93.3216 178.178 93.5217 177.973 93.7591C178.654 94.2037 179.482 94.3659 180.281 94.2114L181.206 93.4971C181.562 93.1717 181.937 92.8279 182.33 92.4615C185.31 89.6863 188.736 86.1845 190.809 82.2284C194.769 79.6149 196.462 78.9538 197.473 79.2137C198.179 79.3979 198.232 79.6599 198.248 79.7458C198.553 81.2992 194.176 85.7179 189.943 88.927H189.954Z" fill="#454545"/>
<path d="M46.0145 49.0076C45.9122 48.9373 45.7878 48.9067 45.6645 48.9217C45.5458 49.5357 45.7976 50.1333 46.1455 50.6674C46.8414 51.2561 47.4695 51.9206 48.0182 52.6486C47.7042 52.653 47.3963 52.7347 47.1214 52.8864C46.8466 53.0381 46.6133 53.2551 46.4422 53.5184C45.6236 54.7586 46.2008 56.4307 47.3203 57.2576C47.3351 57.269 47.3509 57.2792 47.3673 57.2883C47.6935 57.3472 48.0244 57.376 48.3558 57.3742C48.9479 57.2085 49.5146 56.9627 50.0402 56.6436C49.9641 56.5883 49.877 56.5502 49.7848 56.5318C49.6926 56.5134 49.5975 56.5152 49.506 56.5371C49.2372 56.6001 48.9576 56.6013 48.6882 56.5407C48.4188 56.4801 48.1666 56.3592 47.9506 56.1872C47.735 56.0064 47.5623 55.7799 47.4451 55.5241C47.3442 55.3098 47.2938 55.0753 47.2977 54.8385C47.2977 54.4496 47.4737 53.985 47.8831 53.8909C48.4336 53.766 48.9391 54.2204 49.2482 54.6236C49.335 54.7611 49.4708 54.8604 49.6282 54.9014C49.7855 54.9425 49.9526 54.9222 50.0955 54.8446C50.2349 54.7595 50.3359 54.6238 50.3775 54.4658C50.4191 54.3079 50.398 54.14 50.3186 53.9973C49.3113 52.0086 47.8338 50.2958 46.0145 49.0076Z" fill="#454545"/>
<path d="M67.1035 48.0106C67.8812 47.9164 68.401 46.9238 68.2639 45.7941C68.1268 44.6644 67.3859 43.8232 66.6082 43.9173C65.8305 44.0115 65.3086 45.0041 65.4457 46.1359C65.5828 47.2677 66.3258 48.1047 67.1035 48.0106Z" fill="#454545"/>
<path d="M153.346 12.5044C153.939 12.5048 154.519 12.3293 155.012 12.0001C155.506 11.6709 155.89 11.2028 156.117 10.6549C156.345 10.1071 156.404 9.50418 156.289 8.92243C156.173 8.34068 155.888 7.80624 155.469 7.38672C155.05 6.96719 154.515 6.68143 153.934 6.56558C153.352 6.44972 152.749 6.50897 152.201 6.73585C151.653 6.96272 151.185 7.34702 150.855 7.84013C150.526 8.33325 150.35 8.91302 150.35 9.50611C150.35 10.301 150.665 11.0633 151.227 11.6255C151.789 12.1877 152.551 12.5039 153.346 12.5044Z" fill="#454545"/>
<path d="M162.028 12.0904C162.621 12.0904 163.2 11.9145 163.694 11.5849C164.187 11.2554 164.571 10.787 164.798 10.239C165.025 9.69099 165.084 9.08803 164.968 8.50636C164.852 7.92469 164.567 7.39045 164.147 6.97121C163.727 6.55197 163.193 6.26657 162.611 6.15111C162.03 6.03566 161.427 6.09532 160.879 6.32257C160.331 6.54982 159.863 6.93444 159.534 7.42778C159.204 7.92111 159.029 8.501 159.029 9.0941C159.03 9.88894 159.346 10.651 159.908 11.2129C160.47 11.7747 161.233 12.0904 162.028 12.0904Z" fill="#454545"/>
<path d="M170.914 11.6763C171.507 11.6763 172.087 11.5004 172.58 11.1708C173.073 10.8413 173.458 10.3729 173.685 9.82492C173.911 9.27693 173.971 8.67397 173.855 8.0923C173.739 7.51063 173.453 6.97639 173.034 6.55715C172.614 6.13791 172.08 5.85251 171.498 5.73705C170.916 5.62159 170.313 5.68126 169.765 5.90851C169.218 6.13576 168.75 6.52038 168.42 7.01371C168.091 7.50705 167.916 8.08694 167.916 8.68004C167.917 9.47488 168.233 10.237 168.795 10.7988C169.357 11.3607 170.119 11.6763 170.914 11.6763Z" fill="#454545"/>
<path d="M97.8036 54.6594H168.381C169.134 54.6583 169.856 54.3586 170.389 53.8261C170.921 53.2936 171.221 52.5717 171.222 51.8187V29.6906C172.083 29.4171 172.868 28.9458 173.514 28.3146C174.16 27.6833 174.649 26.9096 174.942 26.0553C175.236 25.201 175.325 24.2899 175.203 23.395C175.081 22.5 174.751 21.6461 174.24 20.9015C173.728 20.1569 173.05 19.5423 172.259 19.107C171.467 18.6716 170.585 18.4276 169.682 18.3945C168.78 18.3614 167.882 18.54 167.061 18.9162C166.239 19.2923 165.518 19.8555 164.953 20.5606H97.8036C97.0504 20.5611 96.3281 20.8606 95.7955 21.3932C95.2629 21.9258 94.9634 22.6481 94.9629 23.4013V51.8187C94.964 52.5717 95.2636 53.2936 95.7961 53.8261C96.3286 54.3586 97.0505 54.6583 97.8036 54.6594ZM169.466 19.6294C170.365 19.6294 171.245 19.8961 171.993 20.3958C172.74 20.8955 173.323 21.6057 173.667 22.4367C174.012 23.2677 174.102 24.182 173.926 25.0642C173.751 25.9463 173.318 26.7566 172.682 27.3926C172.046 28.0286 171.235 28.4617 170.353 28.6372C169.471 28.8127 168.557 28.7226 167.726 28.3784C166.895 28.0342 166.185 27.4513 165.685 26.7035C165.185 25.9556 164.918 25.0764 164.918 24.177C164.92 22.9712 165.399 21.8151 166.252 20.9625C167.104 20.1099 168.26 19.6305 169.466 19.6294ZM96.197 23.4013C96.197 22.9768 96.3656 22.5698 96.6658 22.2696C96.9659 21.9695 97.373 21.8009 97.7975 21.8009H164.192C163.853 22.547 163.678 23.3573 163.678 24.177C163.68 25.7112 164.291 27.1818 165.376 28.2665C166.461 29.3511 167.932 29.9612 169.466 29.9628C169.641 29.9628 169.813 29.9546 169.982 29.9382V39.2442C169.19 42.089 166.767 44.5245 166.138 45.118C164.56 44.7087 163.619 42.5822 162.536 40.1365C161.454 37.6908 160.224 34.9136 158.017 33.442C155.236 31.5878 150.24 35.151 144.962 38.9229C141.35 41.5016 137.617 44.1663 134.524 45.1733C129.06 46.9456 127.701 44.9686 124.727 40.6605C123.736 39.2278 122.615 37.5905 121.123 35.7957C115.499 29.007 99.5514 38.8656 96.2113 41.037L96.197 23.4013ZM96.197 42.0256C97.8507 40.9265 115.026 29.7581 120.472 36.3216C121.941 38.094 123.051 39.7067 124.031 41.1271C126.325 44.4549 127.836 46.653 131.086 46.653C132.109 46.653 133.31 46.434 134.77 45.9633C137.993 44.9174 141.779 42.2159 145.441 39.6003C150.265 36.1579 155.252 32.5947 157.559 34.1338C159.564 35.4723 160.692 38.0224 161.781 40.4783C162.501 42.1033 163.828 46.4852 166.363 45.8835C167.645 45.5785 169.982 42.8135 169.982 41.475V51.8187C169.981 52.243 169.812 52.6497 169.512 52.9497C169.212 53.2498 168.806 53.4186 168.381 53.4191H97.8036C97.3793 53.4186 96.9725 53.2498 96.6725 52.9497C96.3725 52.6497 96.2037 52.243 96.2031 51.8187L96.197 42.0256Z" fill="#454545"/>
<path d="M125.652 55.9023C124.451 55.9027 123.282 56.2825 122.31 56.9875C121.339 57.6925 120.615 58.6866 120.242 59.8278H95.7689C95.1718 59.8278 94.5992 60.065 94.177 60.4872C93.7548 60.9093 93.5176 61.482 93.5176 62.079V83.8224C93.5176 84.4194 93.7548 84.9921 94.177 85.4143C94.5992 85.8365 95.1718 86.0736 95.7689 86.0736H126.192C126.789 86.0736 127.362 85.8365 127.784 85.4143C128.206 84.9921 128.443 84.4194 128.443 83.8224V66.5345C129.538 65.9182 130.398 64.9564 130.888 63.7996C131.377 62.6427 131.47 61.3561 131.151 60.141C130.832 58.9258 130.119 57.8507 129.124 57.0838C128.129 56.3168 126.908 55.9014 125.652 55.9023ZM101.991 85.0421H98.0631V68.0961H101.991V85.0421ZM109.223 85.0421H105.302V72.8484H109.229L109.223 85.0421ZM117.076 84.8375H113.149V77.6027H117.076V84.8375ZM124.722 84.8375H120.797V69.1276H124.722V84.8375ZM127.41 83.8142C127.41 84.1381 127.282 84.4489 127.054 84.6789C126.826 84.9089 126.516 85.0394 126.192 85.0421H125.756V68.0961H119.763V85.0421H118.11V76.5691H112.115V85.0421H110.257V71.8148H104.262V85.0421H103.022V67.0626H97.0296V85.0421H95.7689C95.4432 85.0421 95.1308 84.9128 94.9006 84.6825C94.6703 84.4522 94.5409 84.1399 94.5409 83.8142V62.0811C94.5409 61.7554 94.6703 61.4431 94.9006 61.2128C95.1308 60.9825 95.4432 60.8531 95.7689 60.8531H120.017C119.893 61.8039 120.011 62.7708 120.361 63.6636C120.711 64.5564 121.282 65.3459 122.019 65.9586C122.757 66.5712 123.638 66.987 124.58 67.1672C125.522 67.3474 126.494 67.286 127.406 66.9889L127.41 83.8142ZM125.652 66.2275C124.732 66.2275 123.833 65.9548 123.068 65.4439C122.304 64.933 121.708 64.2067 121.356 63.3571C121.004 62.5074 120.912 61.5725 121.091 60.6705C121.27 59.7685 121.713 58.9399 122.364 58.2896C123.014 57.6393 123.842 57.1965 124.744 57.017C125.646 56.8376 126.581 56.9297 127.431 57.2817C128.281 57.6336 129.007 58.2296 129.518 58.9943C130.029 59.7589 130.302 60.658 130.302 61.5776C130.302 62.8118 129.813 63.9957 128.941 64.8691C128.069 65.7426 126.886 66.2341 125.652 66.2357V66.2275Z" fill="#454545"/>
</svg>
