<svg width="200" height="198" viewBox="0 0 200 198" fill="none" xmlns="http://www.w3.org/2000/svg">
<g opacity="0.3">
<path d="M78.7041 27.5938C78.7041 27.5938 76.7819 44.2528 64.1808 47.0293C51.5798 49.8058 54.997 48.9515 54.997 48.9515C54.997 48.9515 53.502 67.7463 53.0748 69.4549C52.6477 71.1635 37.6973 75.0079 37.6973 75.0079L42.8231 35.9233C42.8231 35.9233 64.3944 34.2146 66.5302 32.7196C68.666 31.2246 78.7041 27.5938 78.7041 27.5938Z" fill="#454545"/>
</g>
<path d="M96.216 53.8642L157.085 27.167L160.93 25.0312C160.93 25.0312 150.251 30.1571 148.756 46.1754C147.261 62.1937 151.319 67.7467 151.319 68.3874C151.319 69.0282 157.94 77.5713 157.94 77.5713L139.359 72.4454C139.359 72.4454 138.077 71.3775 138.077 72.4454C138.077 73.5133 135.941 84.1922 135.941 84.1922L134.019 86.5415L129.961 87.823L120.35 85.9008L115.224 84.6193L116.719 80.9885C116.719 80.9885 119.923 79.9206 120.564 80.1342C121.205 80.3478 126.33 80.5613 126.33 80.5613H128.68L130.815 78.4256L132.524 69.0282L108.603 64.543L108.176 70.0961L105.4 68.601L104.545 63.9023L99.6332 61.1258L94.644 59.524C94.644 59.524 93.0123 54.9321 96.216 53.8642Z" fill="#FFA272"/>
<path d="M148.756 21.6157V6.87891L155.804 8.16037L156.445 20.975L148.756 21.6157Z" fill="#5EB5E6"/>
<g opacity="0.63">
<path d="M113.73 27.1682L113.944 12.645C113.944 12.645 114.798 10.082 119.07 10.082H137.438L136.797 25.0324L135.729 26.9546C135.729 26.9546 134.661 28.6633 133.807 28.6633H125.264L119.07 34.857L117.788 28.4497L114.521 27.9157L113.73 27.1682Z" fill="#FF7373"/>
</g>
<g opacity="0.37">
<path d="M35.6486 110.337C37.4187 112.02 39.2758 113.609 41.2123 115.097C39.4524 113.431 37.7609 111.695 36.1057 109.924L34.6875 109.438C35.0079 109.739 35.3261 110.04 35.6486 110.337Z" fill="#FFA272"/>
</g>
<g opacity="0.5">
<path d="M65.2114 125.945C61.0125 126.372 56.82 125.518 53.0162 123.724C51.0124 122.753 49.1064 121.592 47.3243 120.258C46.5875 119.717 45.8656 119.153 45.1565 118.579C42.5936 117.255 40.2763 115.48 38.0935 113.611C36.2909 112.069 34.578 110.431 32.8459 108.812L31.3359 108.293C31.4541 108.774 31.5737 109.253 31.6947 109.73C31.9818 110.447 32.3135 111.146 32.6879 111.821C34.168 114.523 36.1307 116.915 37.786 119.51C39.6804 122.472 41.7628 125.3 43.7896 128.173C44.7999 129.608 45.7866 131.058 46.7306 132.536C47.6746 134.014 48.5802 135.492 49.5626 136.934C50.0389 137.632 50.5793 138.292 51.0577 138.993C51.3545 139.435 51.6172 139.902 51.912 140.349C52.2497 140.881 52.6206 141.392 53.0226 141.878C53.3579 142.271 53.7359 142.702 54.2101 142.931C54.3272 142.989 54.4552 143.022 54.5858 143.027C54.7164 143.033 54.8467 143.011 54.9683 142.963C55.2826 142.861 55.5794 142.711 55.8482 142.519C56.5891 141.989 57.2613 141.369 57.8494 140.673C59.2847 139.078 60.517 137.312 61.76 135.567C62.2278 134.909 62.6891 134.247 63.1953 133.617C64.0603 132.549 64.9701 131.507 65.7966 130.398C66.8645 128.974 67.8683 127.515 68.9042 126.075C69.1477 125.74 69.3783 125.407 69.5983 125.067C68.1666 125.496 66.6979 125.79 65.2114 125.945Z" fill="#EDE793"/>
</g>
<g opacity="0.37">
<path d="M30.2854 107.913C30.1679 107.411 30.9411 107.198 31.0564 107.7C31.097 107.881 31.144 108.061 31.1931 108.238L31.3362 108.287C31.1547 107.544 30.9753 106.792 30.8065 106.051L28.9121 107.456L30.2897 107.928C30.2873 107.923 30.2859 107.918 30.2854 107.913Z" fill="#FFA272"/>
</g>
<g opacity="0.5">
<path d="M117.858 116.199C113.706 121.013 107.841 123.918 101.568 125.238C101.585 125.652 101.536 126.067 101.423 126.466C101.06 127.779 100.25 128.913 99.488 130.02C98.5504 131.382 97.9524 133.01 97.3522 134.537C96.0515 137.886 94.7679 141.239 93.416 144.564C90.7847 151.034 87.9911 157.479 84.1895 163.359C83.2941 164.799 82.3113 166.182 81.2464 167.5C80.1785 168.782 78.818 169.803 77.7522 171.095C77.0709 171.924 76.6459 172.902 76.2188 173.871C85.2595 176.3 95.3852 174.702 103.582 170.006C105.308 169.019 107 167.87 108.123 166.221C110.199 163.178 109.9 159.173 109.759 155.495C109.26 141.936 112.038 128.456 117.858 116.199Z" fill="#EDE793"/>
</g>
<g opacity="0.4">
<path d="M137.863 115.374L133.592 127.227L134.446 132.024L136.795 130.956L138.748 130.358L140.407 129.077L142.348 128.188C142.348 128.188 141.067 131.067 140.96 131.657C140.853 132.246 142.135 133.955 142.135 133.955L143.354 135.341H145.749L147.775 133.867L149.183 132.673L150.539 130.551L151.276 129.269L150.907 134.062L151.746 135.236L152.814 136.091L154.04 136.631L155.377 136.304L157.354 135.341L159.862 131.606L160.503 134.596L161.143 136.518C161.143 136.518 164.347 127.548 164.347 127.334V123.703L153.882 123.49L142.348 117.723L137.65 115.16" fill="#89DA3E"/>
</g>
<g opacity="0.4">
<path d="M69.3698 123.133L62.8984 135.025L64.291 137.24C64.291 137.24 64.6071 135.666 67.17 135.879C69.7329 136.093 72.9366 133.743 72.9366 133.743C72.9366 133.743 66.3157 143.568 72.5094 144.209C78.7032 144.849 80.6254 139.083 80.6254 139.083C80.6254 139.083 75.4995 147.412 81.4797 147.412C87.4598 147.412 87.887 143.995 87.887 143.995C87.887 143.995 83.1883 151.043 88.3141 152.752C93.44 154.46 94.2943 140.791 94.2943 140.791L69.3698 123.133Z" fill="#89DA3E"/>
</g>
<g opacity="0.5">
<path d="M23.1722 79.9219C23.1722 79.9219 9.50321 95.7266 19.9685 120.288C30.4338 144.849 53.7137 177.1 63.7518 172.828C73.79 168.556 96.1729 137.522 96.1729 137.522L84.6034 162.916L72.7221 180.944L63.3247 190.341L54.6962 191.977C54.6962 191.977 45.3842 186.89 45.3842 186.053C45.3842 185.215 38.8957 178.15 38.8957 178.15L17.192 179.022L17.8327 150.402C17.8327 150.402 -7.36939 117.939 4.80451 93.5908L23.1722 79.9219Z" fill="#EDE793"/>
</g>
<g opacity="0.4">
<path d="M77.6348 88.4638C77.6348 88.8909 77.8483 96.3662 77.8483 96.3662L79.9841 99.1427C79.9841 99.1427 83.1878 99.5698 83.4014 99.5698C83.6149 99.5698 84.6828 99.5698 84.6828 98.9291C84.6828 98.2883 84.8964 92.7353 84.8964 92.7353L85.11 88.2502L83.1878 86.9688L77.6348 88.4638Z" fill="#89DA3E"/>
</g>
<g opacity="0.4">
<path d="M30.648 75.8633L40.8997 85.6878L50.9379 91.0273H59.481L65.0553 89.9914H67.5243L68.6648 91.4544L75.2857 102.56H72.6864L69.9932 103.233L67.3833 98.9296L63.9661 102.988L60.7624 103.628L57.1978 98.746C57.1978 98.746 55.1026 102.881 54.6755 103.308C54.2483 103.735 51.0447 103.522 51.0447 103.522C51.0447 103.522 49.336 102.24 49.336 102.027C49.336 101.813 48.0546 100.959 48.0546 100.318C48.0546 99.6772 47.4139 97.9685 47.4139 97.9685C47.4139 97.9685 46.346 99.4636 46.1324 99.6772C45.9188 99.8907 45.7052 100.959 44.8509 100.959C43.9966 100.959 42.9287 101.172 42.5016 101.172C42.0744 101.172 41.6473 100.959 41.2201 100.745C40.793 100.531 39.7251 99.8907 39.7251 99.8907C39.7251 99.8907 39.2979 97.755 39.0843 97.5414C38.8708 97.3278 38.6572 96.0463 38.6572 96.0463L36.9486 96.9006C36.6561 97.1678 36.2766 97.3196 35.8807 97.3278C35.2399 97.3278 34.3856 97.7229 33.9585 97.5264C33.5313 97.3299 32.4634 96.9006 32.2499 96.9006C32.0363 96.9006 31.182 97.1142 30.7548 96.2599C30.4145 95.4981 30.129 94.713 29.9005 93.9106L30.3277 90.4933C30.3277 90.4933 29.2598 91.1341 28.8326 91.1341H26.9104C26.4833 91.1341 24.717 89.5557 24.717 89.5557C24.717 89.5557 23.7068 88.144 23.9203 87.7168L24.7747 86.0082C24.7747 86.0082 24.9882 85.581 24.3475 85.3675C23.7068 85.1539 22.6389 84.7267 22.6389 84.7267L21.3574 82.591L21.9982 81.3095L26.2697 79.1737L30.648 75.8633Z" fill="#89DA3E"/>
</g>
<g opacity="0.5">
<path d="M121.146 117.486L123.342 112.598L114.585 96.793C114.585 96.793 124.409 99.1423 126.972 108.54C129.535 117.937 121.206 164.497 135.515 161.934C149.825 159.371 163.046 129.338 163.046 129.338C163.046 129.338 149.184 189.823 126.225 177.587L119.875 170.815L116.49 163.196L113.528 153.886L111.834 142.881L116.067 131.454L118.607 121.72" fill="#EDE793"/>
</g>
<g opacity="0.3">
<path d="M160.93 25.0312C160.93 25.0312 179.511 49.3791 162.639 76.9305L154.95 75.2219C154.95 75.2219 136.582 43.1853 160.93 25.0312Z" fill="#454545"/>
</g>
<g opacity="0.3">
<path d="M176.736 58.9882L182.165 53.8047C182.165 53.8047 182.929 81.2002 169.474 85.8989C156.019 90.5976 145.382 74.4726 146.749 74.5281C148.116 74.5836 163.494 78.8509 163.494 78.8509L168.261 75.5789C168.261 75.5789 171.306 72.8622 171.678 71.9054C172.05 70.9485 176.736 58.9882 176.736 58.9882Z" fill="#454545"/>
</g>
<path d="M183.997 24.1775C182.983 24.1775 181.992 23.8769 181.149 23.3136C180.306 22.7504 179.649 21.9498 179.261 21.0132C178.873 20.0766 178.772 19.046 178.97 18.0516C179.167 17.0573 179.656 16.144 180.372 15.4271C181.089 14.7102 182.003 14.2221 182.997 14.0243C183.991 13.8265 185.022 13.928 185.959 14.316C186.895 14.7039 187.696 15.3609 188.259 16.2039C188.822 17.0468 189.123 18.0378 189.123 19.0516C189.123 20.4111 188.583 21.7149 187.621 22.6762C186.66 23.6375 185.356 24.1775 183.997 24.1775ZM183.997 15.6344C183.321 15.6344 182.66 15.8348 182.098 16.2103C181.536 16.5858 181.098 17.1195 180.84 17.7439C180.581 18.3683 180.514 19.0554 180.645 19.7183C180.777 20.3812 181.103 20.9901 181.581 21.468C182.059 21.9459 182.667 22.2714 183.33 22.4032C183.993 22.5351 184.68 22.4674 185.305 22.2088C185.929 21.9501 186.463 21.5121 186.838 20.9502C187.214 20.3882 187.414 19.7275 187.414 19.0516C187.414 18.1453 187.054 17.2761 186.413 16.6353C185.772 15.9944 184.903 15.6344 183.997 15.6344Z" fill="#454545"/>
<path opacity="0.4" d="M183.356 22.47C185.479 22.47 187.201 20.7488 187.201 18.6256C187.201 16.5024 185.479 14.7812 183.356 14.7812C181.233 14.7812 179.512 16.5024 179.512 18.6256C179.512 20.7488 181.233 22.47 183.356 22.47Z" fill="#FF897A"/>
<path d="M53.9286 50.1267C54.5773 50.1267 55.1033 49.6008 55.1033 48.952C55.1033 48.3033 54.5773 47.7773 53.9286 47.7773C53.2798 47.7773 52.7539 48.3033 52.7539 48.952C52.7539 49.6008 53.2798 50.1267 53.9286 50.1267Z" fill="#454545"/>
<path d="M54.605 46.2374C54.9787 45.8551 54.5665 45.1844 54.338 44.8256C53.7714 44.0045 53.0668 43.2877 52.2556 42.7069C51.9054 42.4442 50.453 41.4447 49.6607 41.4062C49.4471 42.0918 50.3014 42.4485 50.7286 42.8009C51.3656 43.3665 51.9717 43.9661 52.544 44.5971C52.9156 45.0008 53.7144 47.1365 54.605 46.2374Z" fill="#454545"/>
<path d="M73.4539 53.4196C75.6815 54.5216 80.3225 56.5357 84.7735 56.7108C85.2347 56.6367 85.6647 56.4313 86.0122 56.1192C86.1361 55.9892 86.2275 55.8319 86.2792 55.66L86.2258 54.8719C86.1905 54.8007 86.1467 54.734 86.0955 54.6733C80.3482 55.0086 73.2809 51.0425 73.1207 50.957L73.0844 51.0083L72.9178 51.2987C72.7794 51.6293 72.7408 51.9931 72.8068 52.3453C72.9028 52.7631 73.1295 53.1394 73.4539 53.4196Z" fill="#454545"/>
<path d="M84.8965 41.043C85.2183 42.182 85.5401 43.3211 85.8619 44.4602C86.0968 45.2889 86.3303 46.1176 86.5624 46.9462C86.6777 47.3542 87.0045 47.9949 86.8507 48.4413C86.8253 48.5194 86.7847 48.5917 86.7312 48.654C86.6776 48.7164 86.6123 48.7675 86.5389 48.8044C86.304 48.9368 86.1416 48.9325 86.1117 49.1952C86.1657 49.4565 86.2563 49.7089 86.3808 49.9449C86.4944 50.0022 86.6123 50.0507 86.7333 50.0901C87.1969 50.2257 87.6904 50.2203 88.1509 50.0747C88.6115 49.929 89.0183 49.6496 89.3197 49.2721L87.1625 41.626C87.0792 41.5684 86.9959 41.5128 86.9062 41.4616C86.2682 41.1983 85.5866 41.0564 84.8965 41.043Z" fill="#454545"/>
<path d="M89.7021 40.7298C90.5278 40.7298 91.1971 39.8214 91.1971 38.7009C91.1971 37.5803 90.5278 36.6719 89.7021 36.6719C88.8764 36.6719 88.207 37.5803 88.207 38.7009C88.207 39.8214 88.8764 40.7298 89.7021 40.7298Z" fill="#454545"/>
<path d="M78.8095 40.9447C79.6352 40.9447 80.3045 40.0363 80.3045 38.9157C80.3045 37.7951 79.6352 36.8867 78.8095 36.8867C77.9838 36.8867 77.3145 37.7951 77.3145 38.9157C77.3145 40.0363 77.9838 40.9447 78.8095 40.9447Z" fill="#454545"/>
<path d="M84.469 34.2673C84.9837 34.2673 85.3874 33.7867 85.3874 33.1716C85.3874 32.5565 84.9837 32.0781 84.469 32.0781C83.9543 32.0781 83.5527 32.5587 83.5527 33.1716C83.5527 33.7846 83.9649 34.2673 84.469 34.2673ZM84.469 33.1439C84.5153 33.1437 84.5611 33.1531 84.6035 33.1716C84.5618 33.1913 84.5162 33.2014 84.4701 33.2014C84.4239 33.2014 84.3783 33.1913 84.3366 33.1716C84.3783 33.1533 84.4234 33.1439 84.469 33.1439Z" fill="#454545"/>
<path d="M199.71 68.3993C198.99 67.199 197.661 66.5263 196.275 66.3853C194.584 66.2144 193.003 67.026 191.545 67.7885C192.14 67.1435 192.734 66.4978 193.328 65.8514C194.483 64.5998 195.987 63.4422 195.498 61.5392C195.133 60.1189 194.244 58.5491 192.871 57.8828C191.425 57.1887 189.364 57.6842 188.149 58.6154C188.33 57.0797 188.055 55.4501 187.156 54.19C186.256 52.9299 184.68 52.1162 183.143 52.3469C181.861 52.5369 180.793 53.3827 179.815 54.2178C179.149 54.7838 178.497 55.3668 177.85 55.9542C177.987 54.4591 178.064 52.947 178.064 51.4071C178.064 51.1316 178.064 50.8582 178.064 50.5827L191.162 50.4994L191.15 48.4704L177.991 48.5537C177.805 44.9494 177.176 41.3816 176.12 37.9304L190.075 35.1026L189.674 33.1121L175.454 35.9954C174.967 34.6908 174.391 33.4213 173.73 32.1958C170.821 26.8564 166.896 23.909 162.646 23.909C160.749 23.9265 158.899 24.4965 157.321 25.5493L96.9385 52.1141C95.0483 52.2785 93.6002 54.3951 93.6002 57.0669C93.6002 59.333 94.6404 61.1996 96.1098 61.8147V61.8361C96.4021 62.0996 96.7363 62.3125 97.0986 62.4662L99.0785 62.9766L103.35 64.0808L103.286 68.4826C102.66 68.536 102.038 68.6381 101.428 68.788L101.276 68.8308C99.8132 67.513 97.7223 67.0965 97.5856 67.0687L97.2845 67.0132L97.0025 67.1307C95.0259 67.9649 93.2251 69.1657 91.6951 70.6697C90.7426 70.5586 86.8064 69.8153 83.0965 69.0678C83.0623 67.9999 83.041 66.9726 83.0303 66.0308C84.8752 65.8773 86.6987 65.5286 88.4701 64.9906C89.0553 64.8497 91.0993 63.9975 92.6263 58.9058C94.2047 53.6475 94.7856 45.6341 94.367 35.0087C95.7403 37.5716 97.7351 38.663 99.3262 39.1222C102.667 40.0875 106.095 38.8744 107.361 37.7489C109.044 36.2538 108.777 32.3411 108.215 31.1579C107.788 30.2694 107.081 30.3035 106.874 30.3441C105.864 30.5064 105.625 31.7559 105.467 33.0203C105.253 34.6883 103.822 34.8741 102.987 34.8335C100.65 34.7246 97.3507 32.5824 97.2353 28.8427C97.1819 27.1341 96.554 21.2265 90.7234 16.5534C87.7632 14.1827 83.9807 12.5916 79.4828 11.8227C74.2544 10.93 68.0372 11.1585 61.0041 12.4997C54.3512 13.7705 49.0053 17.286 45.1161 22.9522C42.0491 27.4224 39.8898 33.2296 38.7087 40.2114C37.0706 49.8416 37.7263 58.9015 38.0552 62.1479C29.1875 61.5884 23.549 64.9671 20.3411 67.9807C18.35 69.8405 16.7308 72.0621 15.5698 74.5269H13.6689H13.5814C9.52341 74.8793 6.13608 77.0214 3.77605 80.7206C2.02898 83.4651 0.84363 87.1151 0.533943 90.7353C0.397254 92.3243 0.271243 95.9038 1.77269 96.8457C0.948283 99.2527 0 103.168 0 108.458C0 113.797 0.969641 119.434 2.88116 125.232C5.25827 132.445 9.11121 139.92 14.331 147.455C15.2665 148.805 16.1778 150.117 17.0648 151.391C17.3617 156.882 17.9533 170.782 16.768 177.685H13.6689V179.714H38.2474C38.8796 180.434 39.499 181.119 40.1055 181.768C44.0888 186.04 47.6107 188.844 51.0813 190.446H17.6201V192.368H114.798V190.446H63.4047C66.634 188.539 70.2157 184.978 74.2032 179.714H127.843C127.914 179.744 127.982 179.778 128.057 179.806C129.569 180.442 131.192 180.772 132.832 180.777C134.585 180.762 136.317 180.399 137.928 179.709H153.135V177.68H141.469C148.404 172.433 155.311 159.262 162.03 138.453C167.457 121.646 170.755 105.805 170.787 105.656L170.603 105.617C171.995 104.254 173.226 102.737 174.273 101.094C180.27 91.9334 182.023 89.9194 182.433 89.5072L182.647 89.3406C182.694 89.3 187.425 85.1545 191.856 80.6672C200.192 72.2138 200.504 69.7214 199.71 68.3993ZM177.461 59.1279C178.429 58.169 179.407 57.2207 180.407 56.2938C181.474 55.2942 182.807 54.2392 184.251 54.5061C185.46 54.7304 186.348 55.9008 186.496 57.1203C186.643 58.3398 186.163 59.57 185.445 60.5696C184.727 61.5691 183.783 62.3764 182.867 63.1945C182.226 63.7711 181.586 64.3606 180.964 64.9543C179.625 64.4759 178.121 63.9377 176.552 63.3803C176.927 61.9791 177.23 60.5599 177.461 59.1279ZM162.639 25.938C166.101 25.938 169.405 28.501 171.943 33.1655C172.509 34.2121 173.008 35.2935 173.438 36.4033L156.992 39.733L157.394 41.7235L174.119 38.3341C175.153 41.6556 175.77 45.0928 175.956 48.5665L157.614 48.684L157.626 50.713L176.03 50.5955C176.03 50.8668 176.03 51.1359 176.03 51.4071C176.048 55.2156 175.576 59.0105 174.627 62.6989L173.532 62.2996C160.392 57.65 159.863 57.65 159.551 57.65V59.679C159.522 59.6816 159.492 59.6816 159.463 59.679C160.262 59.805 166.909 62.1116 174.074 64.6511C173.52 66.379 172.81 68.0526 171.951 69.6509C169.414 74.3112 166.11 76.8783 162.648 76.8783C159.186 76.8783 155.882 74.3154 153.344 69.6509C150.702 64.7942 149.246 58.3163 149.246 51.4093C149.246 44.5022 150.702 38.0244 153.344 33.1676C155.873 28.5052 159.177 25.938 162.639 25.938ZM99.5911 61.0352C97.4553 60.2663 95.6292 59.6854 95.6292 57.0669C95.6292 53.844 99.0977 53.3784 101.458 52.3405L108.277 49.3397L129.569 39.9743L148.791 31.5188L153.203 29.5774C152.599 30.4137 152.05 31.2884 151.559 32.1958C148.757 37.3431 147.208 44.1668 147.208 51.4071C147.208 58.6474 148.757 65.4712 151.554 70.6291C152.461 72.3449 153.602 73.9262 154.944 75.3278L138.953 71.1822L139.43 68.5232L129.381 67.0559L128.999 68.6108L107.37 63.0236C104.779 62.3551 102.116 61.9386 99.5911 61.0352ZM127.655 80.7655C128.031 80.7655 128.83 78.2025 128.907 77.8629C129.182 76.6605 129.421 75.4495 129.671 74.2428C129.746 73.884 130.549 69.2771 130.912 69.3305L137.063 70.2276L135.568 78.5165C135.282 80.114 135.073 81.7479 134.714 83.3284C134.643 83.6403 134.533 83.9417 134.385 84.2254C132.745 87.3095 127.164 85.5282 124.507 85.1438C123.894 85.0541 116.128 83.5975 116 83.9072C116.374 82.9995 116.837 82.2947 117.423 81.8632C118.159 81.3208 119.155 81.1862 120.468 81.4489L120.611 81.4767C122.967 81.278 125.312 81.0538 127.655 80.7655ZM122.7 76.197C121.724 75.4265 120.703 74.7134 119.644 74.0613C117.873 72.9934 115.558 71.7375 113.407 72.1903C113.234 72.2285 113.062 72.2778 112.895 72.3377C111.8 71.7008 110.657 71.1488 109.478 70.6867V65.657L112.196 66.3597L121.545 68.7752L128.507 70.5714C128.197 71.8258 127.889 73.0788 127.583 74.3304C127.384 75.142 127.35 76.7865 126.912 77.4806C125.831 79.2149 123.642 76.9253 122.7 76.197ZM132.098 88.1424C132.739 87.9136 133.343 87.5912 133.889 87.1856C134.543 86.7478 135.47 86.3313 136.012 85.7653C136.555 85.1993 136.508 84.8939 136.653 84.0759L137.411 79.8385C137.809 77.6216 138.205 75.404 138.601 73.1856L141.324 73.8904L143.776 74.5311C144.229 80.3575 144.893 90.6114 144.453 93.1017C144.175 94.6822 140.342 104.678 136.149 115.335C135.395 108.321 134.265 99.776 132.768 93.6783C132.316 91.8205 131.697 90.0076 130.916 88.262C131.314 88.2872 131.713 88.2468 132.098 88.1424ZM107.457 65.1423V69.3369C106.801 68.9437 106.076 68.6791 105.321 68.5574L105.377 64.6019L107.457 65.1423ZM97.4852 69.134C98.0823 69.2909 98.6566 69.5242 99.1938 69.8282C96.7014 71.5368 94.2196 75.1014 91.7955 80.4643C90.6397 83.0444 89.6168 85.682 88.7307 88.3667C88.7307 88.702 88.7649 89.0992 89.1279 89.1398C89.491 89.1804 89.9822 88.781 90.2471 88.5995C90.4991 88.4238 90.7422 88.2356 90.9754 88.0356C93.1112 81.8419 97.4105 71.8422 101.902 70.7551C103.297 70.4155 104.486 70.3856 105.458 70.6611C105.364 70.7038 105.27 70.7487 105.176 70.7978C100.217 73.3458 96.5006 84.3429 95.1999 88.687C95.1999 88.6977 95.1999 88.7041 95.1999 88.7148C95.4562 89.7165 95.909 89.5947 96.695 89.142C96.8957 89.0266 97.0901 88.9049 97.2845 88.7853C98.8863 83.5569 102.318 74.5418 106.103 72.5983C106.441 72.404 106.817 72.2874 107.205 72.2567C107.594 72.226 107.984 72.2822 108.348 72.421C109.229 72.7532 110.091 73.134 110.93 73.5615C107.141 76.8634 103.628 85.1352 102.365 91.1496C102.68 91.3333 103.038 91.4301 103.402 91.4301C103.767 91.4301 104.125 91.3333 104.439 91.1496C106.122 83.5142 110.859 74.8045 113.837 74.1787C115.972 73.7302 120.165 76.6028 123.194 79.2106L120.729 79.4242C118.892 79.0846 117.418 79.3473 116.229 80.223C113.879 81.9487 113.074 85.7247 112.406 92.0872C111.59 99.8379 107.908 105.459 107.871 105.515L107.754 105.69L107.716 105.904C107.053 109.635 103.591 121.317 95.2469 138.861C86.6355 135.903 73.8892 125.832 70.6855 123.257L71.8965 121.364C78.8421 110.483 85.589 99.4577 85.6552 99.3488L85.8303 99.0648L85.8004 98.7316C85.7812 98.4967 83.9316 75.1761 97.4852 69.134ZM87.8571 143.999C86.9455 144.622 85.9993 145.192 85.023 145.708L84.8884 145.774C83.906 146.575 82.8125 147.224 81.5716 147.399C80.7173 147.521 79.5575 147.419 79.1347 146.545C78.7289 145.712 78.9723 144.467 79.1923 143.54C79.4477 142.48 79.8587 141.464 80.4118 140.524C80.4998 140.03 80.5519 139.531 80.5678 139.029C80.4204 138.947 80.2467 138.925 80.0833 138.968C79.9199 139.011 79.7796 139.116 79.6921 139.26C79.0099 140.342 78.1031 141.264 77.0331 141.964C76.5025 142.316 75.9345 142.607 75.3394 142.833C74.6987 143.07 73.949 143.271 73.2591 143.124C72.1315 142.884 71.3818 141.874 71.0422 140.8C70.6824 139.604 70.678 138.329 71.0294 137.131C71.2557 136.323 71.5966 135.552 72.0418 134.841C72.3554 134.522 72.6412 134.177 72.8961 133.81C73.0733 133.352 73.2677 132.823 72.5543 133.06C72.0375 133.231 71.5356 133.713 71.07 134.004C71.0657 134.009 71.0621 134.015 71.0593 134.021C70.0254 135.039 68.7006 135.711 67.2683 135.943C66.7694 136.018 66.2635 136.036 65.7604 135.997C65.337 135.976 64.925 135.852 64.5601 135.636C64.1778 135.341 64.1821 134.839 64.1821 134.354C64.1821 133.941 64.2078 133.529 64.259 133.12C65.7434 130.901 67.5032 128.218 69.5878 124.984C73.1011 127.831 85.4907 137.566 94.3627 140.71C92.3152 144.963 90.3076 148.961 88.3398 152.703C87.8813 152.364 87.5052 151.926 87.2399 151.421C86.5501 150.172 86.6334 148.645 86.99 147.273C87.1964 146.515 87.4489 145.769 87.7461 145.042C87.8187 144.781 87.8956 144.525 87.9725 144.275C87.9555 144.175 87.916 144.081 87.8571 143.999ZM83.7373 98.2809C83.2395 98.6039 82.656 98.7692 82.0628 98.7551C81.3454 98.742 80.6475 98.5193 80.0552 98.1143C79.3719 97.6478 78.8232 97.01 78.464 96.2648C78.4299 96.2032 78.3842 96.1488 78.3295 96.1046V89.6118C79.5853 89.3385 81.9603 88.7917 84.158 88.1296C83.7078 91.4934 83.567 94.8914 83.7373 98.2809ZM81.6634 100.015C82.0752 100.057 82.4909 100.04 82.8979 99.9639C81.9197 101.555 80.3029 104.174 78.3295 107.343V98.298C79.1976 99.2534 80.3815 99.8632 81.6634 100.015ZM40.3875 75.6674C50.8528 73.1664 51.1945 66.4579 51.203 66.1909C51.203 66.1909 51.9441 52.1098 51.9527 51.9646C51.9313 52.3682 53.2341 52.3682 53.4755 52.3298C53.9731 52.2508 54.8402 51.9026 54.8723 51.3153C54.8723 51.2213 54.5989 50.5806 54.5135 50.572C52.8048 50.4225 51.2415 49.4294 50.0946 48.1458C49.3032 47.2261 48.6361 46.2065 48.1104 45.113C47.5786 44.0622 46.9656 42.8683 47.2839 41.6573C47.6769 40.1473 49.456 39.5215 49.8981 39.387C51.8032 41.6509 54.7868 43.855 59.4044 44.7093C59.9059 44.8022 60.415 44.8487 60.9251 44.8482C69.7202 44.8482 78.7118 31.412 83.1584 24.7719C83.6305 24.0692 84.1089 23.3537 84.4954 22.7984C85.149 23.7958 86.4176 25.4148 88.9293 28.1379C90.1019 29.4193 91.2787 30.641 92.1607 31.5551C93.7562 59.7473 88.4189 62.8079 87.996 63.0044L87.9105 63.03C81.7851 64.9073 74.9635 64.3115 67.6207 61.2402C63.6921 59.5742 59.9882 57.4216 56.5958 54.8329L56.5019 54.7624C56.2883 55.0507 56.3502 55.48 56.5809 56.0439C56.9365 56.853 57.3968 57.612 57.9499 58.3014C58.4091 58.6089 58.8598 58.9015 59.3061 59.1813C59.3811 59.2961 59.4624 59.4066 59.5496 59.5124C60.8659 61.09 62.337 62.5317 63.9408 63.816C66.4268 65.8215 69.2802 67.6091 72.3664 68.6813C75.2668 69.6915 78.0881 69.7812 81.0718 69.7086C81.185 72.735 81.4349 76.1159 81.9646 78.3926C82.0387 78.4428 82.0995 78.5102 82.1418 78.5891C82.6224 79.4648 82.9577 78.3755 83.0944 77.88C83.2546 77.3034 83.3464 76.7011 83.4895 76.1201C83.5151 76.024 83.5408 75.9279 83.5642 75.8297C83.3827 74.4329 83.2588 72.8012 83.1734 71.1523C85.1105 71.5389 88.1263 72.1305 90.0634 72.4616C87.4492 75.7421 85.5783 80.1504 84.5595 85.5752L84.5019 85.887C81.9987 86.7008 78.637 87.4718 77.1035 87.7879L76.2919 87.9545V100.252L69.733 89.1932L60.1071 90.338H60.0622C52.3734 91.6024 45.3617 87.9737 40.8402 84.706C38.0828 82.6999 35.552 80.3997 33.2924 77.8459C35.6192 77.0022 37.9872 76.2773 40.3875 75.6738V75.6674ZM22.9596 82.6898C23.0117 82.4331 23.1047 82.1865 23.2351 81.9594C26.0116 80.6779 28.739 79.5502 31.2656 78.5976C33.7301 81.4974 36.533 84.0916 39.6143 86.3249C46.5577 91.3525 53.7382 93.4349 60.3804 92.3499L68.6651 91.3632L74.5726 101.314C74.2995 101.74 73.8899 102.062 73.4108 102.226C72.5095 102.533 71.5377 102.377 70.6642 102.053C69.2079 101.476 68.01 100.391 67.2918 98.9986C66.9065 98.2648 66.6706 97.4619 66.5977 96.6364C66.408 96.5197 66.196 96.444 65.9753 96.4142C65.7545 96.3844 65.5301 96.4012 65.3162 96.4634C65.3152 96.4812 65.3152 96.499 65.3162 96.5168C65.1881 98.6995 65.0065 101.382 63.0138 102.698C62.1937 103.238 61.2219 103.398 60.3633 102.99C59.5062 102.555 58.8411 101.816 58.4967 100.919C58.1417 99.9285 57.9962 98.8753 58.0695 97.826L58.0888 97.6124L58.0076 97.4736C57.8552 97.1833 57.6263 96.9403 57.3455 96.7709C57.1943 96.6941 57.031 96.6435 56.8628 96.6214C56.8265 97.0059 56.7966 97.3946 56.7817 97.7854C56.7184 98.8103 56.4618 99.8139 56.0256 100.743C55.5002 101.773 54.6587 102.646 53.5609 102.924C52.5383 103.144 51.47 102.952 50.5879 102.39C49.5931 101.775 48.8698 100.805 48.5653 99.6756C48.1887 98.2941 48.2311 96.8319 48.6871 95.4745C48.6957 95.4444 48.7021 95.4137 48.7063 95.3827C48.6442 95.1255 48.5057 94.8932 48.309 94.7163C48.1674 94.659 48.0099 94.6541 47.865 94.7027C47.7201 94.7513 47.5973 94.85 47.5188 94.9812C46.735 96.0875 46.6645 97.4672 46.2224 98.7081C46.055 99.2142 45.7522 99.6648 45.3467 100.011C45.1644 100.155 44.9675 100.281 44.7594 100.385C44.5281 100.5 44.2835 100.586 44.0311 100.641C43.5189 100.762 42.9858 100.764 42.4726 100.647C41.9594 100.53 41.4799 100.297 41.0709 99.9661C40.1769 99.2376 39.5712 98.2148 39.3623 97.0806C39.2324 96.3918 39.2252 95.6854 39.3409 94.994C39.6786 94.2901 39.9392 93.5518 40.1184 92.792C39.9176 92.2111 39.6229 91.801 39.1466 91.786C39.1022 91.827 39.0654 91.8755 39.0377 91.9291C38.6091 92.7702 38.3014 93.6675 38.1235 94.5946C37.9348 94.968 37.708 95.3209 37.4465 95.6475C36.6883 96.5873 35.5713 97.2835 34.3838 97.3561C33.8476 97.3987 33.3098 97.2966 32.8263 97.0608C32.3429 96.8249 31.9315 96.4637 31.6351 96.0149C31.0221 95.0779 30.7736 93.9488 30.9367 92.8411C30.9877 92.4581 31.0713 92.0801 31.1866 91.7113C31.2633 90.2424 31.6769 88.8108 32.3954 87.5273C32.2704 87.5146 32.1443 87.5368 32.0312 87.5915C31.9181 87.6462 31.8224 87.7312 31.7547 87.837C31.196 88.7378 30.4244 89.4874 29.5078 90.0198C28.6329 90.5618 27.6217 90.8433 26.5925 90.8314C26.1647 90.8225 25.7475 90.6969 25.3858 90.4683C25.2296 90.3594 25.0949 90.2225 24.9885 90.0646C24.8514 89.8319 24.7621 89.5741 24.7258 89.3064C24.6055 88.3456 24.8679 87.3759 25.4563 86.6068C25.5856 86.4322 25.7285 86.2679 25.8834 86.1156C25.8834 86.1028 25.8984 86.0878 25.9069 86.0729C26.2886 85.4701 26.7231 84.9026 27.2055 84.3771C27.2653 84.3044 27.4084 84.061 27.5451 83.8559C27.4036 83.8772 27.2609 83.8894 27.1179 83.8922C26.713 84.0166 26.326 84.1932 25.9667 84.4176C25.7149 84.4849 25.4576 84.5292 25.1978 84.55C24.8765 84.5806 24.5523 84.5524 24.241 84.4668C23.9756 84.3986 23.7251 84.282 23.502 84.1229C23.2851 83.96 23.1189 83.7388 23.0228 83.4851C22.9268 83.2313 22.9048 82.9555 22.9596 82.6898ZM18.8247 177.685C19.7943 171.559 19.5402 161.006 19.2519 154.524C26.238 164.49 31.7739 172.038 36.5046 177.685H18.8247ZM58.1229 190.072C58.0567 190.072 57.9884 190.072 57.9222 190.072C47.0297 189.645 37.7818 177.736 16.0012 146.289C9.65583 137.143 2.08451 123.169 2.02898 108.616C2.00122 101.438 3.84653 96.8863 4.50007 95.5044C4.58978 95.34 4.67948 95.1627 4.76705 94.9726C6.26209 91.7327 11.7104 87.6384 20.1275 83.4394C20.6401 83.1832 21.1548 82.9333 21.6674 82.6877C21.6266 83.074 21.6691 83.4645 21.7922 83.833C21.9153 84.2015 22.116 84.5392 22.3808 84.8234C22.9401 85.3779 23.6731 85.7232 24.4567 85.8016C23.7516 86.7251 23.3859 87.8631 23.4209 89.0245C23.4282 89.8053 23.712 90.5582 24.2218 91.1496C24.6539 91.5953 25.2122 91.898 25.8215 92.0167C27.103 92.2837 28.4101 91.9697 29.5719 91.4272C29.7214 91.3589 29.8666 91.282 29.9991 91.203C29.8883 91.5392 29.7998 91.8824 29.7342 92.2303C29.4411 93.6525 29.6613 95.1326 30.3557 96.4079C30.703 97.0348 31.2002 97.566 31.8028 97.9539C32.4055 98.3419 33.0948 98.5746 33.8093 98.6312C35.3043 98.7444 36.8143 98.0802 37.8673 97.055C37.9249 96.9995 37.9783 96.9418 38.0338 96.8863C38.2007 98.2838 38.8343 99.5842 39.8322 100.577C40.3166 101.066 40.8994 101.446 41.5419 101.693C42.1844 101.94 42.872 102.047 43.5591 102.008C44.9303 101.905 46.2502 101.245 46.9955 100.062C47.0881 99.9132 47.1709 99.7584 47.2433 99.5987C47.549 101.057 48.3788 102.353 49.5756 103.24C50.6757 104.048 52.0414 104.407 53.3965 104.246C54.868 104.048 56.0747 103.112 56.8585 101.878C56.9979 101.657 57.1235 101.428 57.2344 101.192C57.6395 102.363 58.445 103.354 59.509 103.99C60.0674 104.303 60.694 104.475 61.3341 104.49C61.9742 104.505 62.6081 104.362 63.1804 104.075C64.313 103.49 65.2053 102.528 65.7028 101.354C65.9335 100.824 66.1096 100.272 66.2282 99.7055C66.6245 100.438 67.1341 101.103 67.7382 101.677C69.2503 103.104 71.6018 104.139 73.682 103.486C74.2905 103.296 74.8405 102.955 75.2796 102.493L78.2462 107.49C76.0399 111.036 73.3937 115.252 70.6962 119.487C59.8251 136.55 56.5168 140.697 55.513 141.646C54.2102 140.512 49.4154 134.598 31.8166 106.967L31.603 106.623C31.1276 106.555 30.6481 106.519 30.1678 106.516C29.861 106.561 29.5587 106.633 29.2644 106.73C29.4459 107.012 29.7342 107.467 30.1187 108.056C32.4936 111.781 38.0509 120.506 43.3605 128.438C53.6762 143.833 54.7142 143.833 55.5493 143.833C56.2071 143.833 56.9867 143.833 62.9498 135.076C62.9888 135.516 63.1509 135.935 63.4175 136.287C64.1907 137.261 65.6793 137.37 66.8347 137.282C67.907 137.195 68.9518 136.899 69.9102 136.411C69.424 137.844 69.3624 139.386 69.733 140.853C70.1132 142.286 71.0144 143.643 72.4347 144.204C73.9874 144.819 75.7772 144.159 77.1505 143.388C77.4653 143.208 77.7698 143.011 78.0625 142.797C78.0411 142.874 78.0176 142.951 77.9984 143.03C77.6994 144.202 77.4303 145.625 77.8553 146.804C78.0677 147.441 78.5123 147.974 79.1005 148.299C79.6923 148.593 80.3468 148.74 81.0077 148.726C82.2636 148.726 83.4703 148.262 84.5232 147.6C84.9793 147.31 85.4159 146.99 85.8303 146.643C85.5303 147.617 85.3996 148.635 85.4437 149.653C85.481 150.441 85.689 151.213 86.0533 151.913C86.4176 152.614 86.9296 153.227 87.5539 153.711C87.6137 153.758 87.6756 153.8 87.7397 153.843C75.4205 177.091 64.8869 190.076 58.1186 190.076L58.1229 190.072ZM121.314 177.685C120.887 176.506 120.28 174.84 119.605 172.836C120.994 174.651 122.609 176.28 124.411 177.685H121.314ZM138.56 177.166C135.192 178.992 132.01 179.242 128.832 177.932C124.11 175.985 120.265 170.884 117.455 165.812C114.781 156.308 112.463 144.241 115.406 137.68C120.945 125.326 123.358 112.804 123.381 112.68L123.437 112.377L117.297 97.8538C116.656 97.4266 115.462 96.6471 114.678 96.8713L121.329 112.588C120.932 114.538 118.523 125.76 113.557 136.84C108.818 147.431 116.293 169.915 119.14 177.685H75.7003C76.4521 176.64 77.2174 175.538 77.9963 174.379C85.3177 163.486 92.385 149.582 97.026 139.837C106.977 118.938 109.347 108.11 109.672 106.465C110.345 105.397 113.621 99.8764 114.418 92.3072C114.665 89.9578 114.939 87.711 115.387 85.8678L121.818 86.8012L126.997 87.5551C127.424 87.617 127.926 87.7302 128.454 87.8455C129.478 89.8481 130.263 91.9643 130.793 94.1503C132.557 101.333 133.804 112.008 134.524 119.429C131.576 126.881 128.65 134.166 126.835 138.685C126.173 139.589 122.062 145.417 121.395 151.974C121.515 151.972 121.634 151.962 121.752 151.944C121.822 151.932 121.891 151.912 121.965 151.893C122.546 151.438 123.121 150.977 123.674 150.492C124.821 144.772 128.497 139.854 128.537 139.8L128.621 139.694L128.67 139.568C128.883 139.042 130.549 134.916 132.783 129.316C133.016 130.358 133.484 131.4 134.381 132.02C135.641 132.889 137.053 132.197 138.225 131.554C139.103 131.09 139.939 130.551 140.724 129.942C140.69 130.26 140.662 130.582 140.656 130.901C140.619 132.295 140.82 133.844 141.679 134.993C142.105 135.599 142.718 136.049 143.424 136.274C144.266 136.497 145.157 136.444 145.967 136.123C147.379 135.599 148.569 134.606 149.504 133.444C149.911 132.934 150.287 132.4 150.63 131.845C150.581 132.364 150.531 132.883 150.521 133.406C150.495 134.687 150.754 136.103 151.802 136.962C152.301 137.351 152.885 137.617 153.507 137.737C154.128 137.857 154.769 137.829 155.377 137.654C156.68 137.299 157.727 136.355 158.5 135.292C158.877 134.766 159.207 134.208 159.487 133.624C159.609 134.822 159.884 136 160.307 137.128C154.888 154.11 147.262 172.452 138.556 177.166H138.56ZM160.997 134.954C160.691 133.534 160.625 132.073 160.8 130.631C160.877 129.991 159.875 129.758 159.606 130.309C158.588 132.404 157.808 135.236 155.476 136.266C155.06 136.46 154.603 136.551 154.145 136.53C153.686 136.51 153.239 136.379 152.842 136.148C151.965 135.601 151.774 134.482 151.796 133.487C151.796 132.784 151.888 132.086 151.952 131.388L152.189 128.844C152.246 128.203 151.273 127.972 150.995 128.521C149.852 130.764 148.594 133.254 146.337 134.54C145.764 134.893 145.112 135.095 144.44 135.129C144.166 135.14 143.892 135.093 143.636 134.992C143.381 134.891 143.149 134.738 142.956 134.542C142.603 134.164 142.345 133.708 142.202 133.211C142.027 132.653 141.936 132.071 141.933 131.486C141.902 130.355 142.055 129.227 142.386 128.145C142.731 127.607 142.969 127.008 143.086 126.379C143.126 126.23 143.11 126.07 143.042 125.931C142.974 125.792 142.857 125.683 142.714 125.623C142.572 125.563 142.413 125.557 142.266 125.605C142.119 125.653 141.995 125.753 141.916 125.886C141.648 126.424 141.42 126.982 141.234 127.554C140.515 128.652 139.312 129.457 138.152 130.132C137.68 130.403 137.204 130.67 136.713 130.905C136.271 131.118 135.72 131.257 135.301 131.086C135.141 131.021 134.996 130.925 134.874 130.802C134.722 130.658 134.592 130.492 134.49 130.309C134.253 129.9 134.088 129.453 134.001 128.989C133.837 128.212 133.784 127.415 133.845 126.623C135.051 123.596 136.367 120.277 137.689 116.945C140.489 118.441 143.37 119.78 146.32 120.954C152.727 123.504 158.346 124.799 163.036 124.799C163.357 124.799 163.677 124.799 163.98 124.779C163.092 127.983 162.094 131.424 160.997 134.954ZM190.404 78.8518C186.109 83.1746 181.344 87.7665 181.301 87.8092C180.573 88.3944 178.685 90.6413 172.577 99.9831C169.877 104.097 166.956 106.51 164.134 106.937C162.643 107.188 161.113 106.854 159.863 106.004C159.613 107.595 161.61 108.78 163.173 109.041C163.578 109.041 163.982 109.011 164.382 108.951C165.792 108.725 167.137 108.201 168.329 107.413C167.688 110.322 166.381 115.899 164.546 122.699C154.722 123.37 142.018 116.963 138.441 115.032C142.411 104.923 146.147 95.1584 146.45 93.437C146.945 90.6263 146.247 80.2635 145.848 75.048L149.936 76.1031L154.011 77.156C155.078 80.1909 156.676 85.3296 156.405 87.3586C156.089 89.7378 158.453 90.244 160.354 90.6498C161.201 90.8146 162.036 91.0365 162.853 91.314C164.412 91.3674 166.056 91.4934 167.393 92.2751C165.74 89.7378 162.908 89.1291 160.772 88.6742C158.553 88.1979 158.361 88.0121 158.423 87.6362C158.726 85.3552 157.383 80.7783 156.375 77.7732L156.509 77.8095C158.891 78.4225 161.093 79.0291 163.609 78.8326C165.032 78.7086 166.408 78.2552 167.626 77.5084C170.83 80.3447 174.794 84.1293 176.101 86.3633C176.348 86.4741 176.607 86.5586 176.872 86.6153L177.786 86.2095C177.835 85.7824 177.594 85.1203 177.384 84.6269C175.627 82.1238 172.075 78.7536 169.311 76.2974C171.154 74.7276 172.639 72.6388 173.734 70.6227C174.644 68.9313 175.399 67.1605 175.988 65.3324L179.362 66.5348C176.849 69.0495 174.495 71.7187 172.314 74.5269C172.394 74.6056 172.444 74.7099 172.455 74.8216C172.545 75.4623 175.266 73.8199 175.678 73.5615L175.776 73.4996C177.583 71.3638 179.466 69.2892 181.425 67.2759L185.686 68.8115L186.374 66.9022L183.004 65.689C184.392 64.3193 185.816 62.9851 187.275 61.6866C188.01 61.0309 188.77 60.3752 189.68 59.9951C190.59 59.6149 191.683 59.5487 192.525 60.0613C193.708 60.781 193.789 62.3807 192.905 63.3375C190.188 66.2792 187.475 69.2237 184.766 72.1711L178.484 78.9928L178.192 79.3131C178.254 79.3943 178.318 79.4733 178.386 79.5481L178.711 79.8492C178.868 79.9708 179.053 80.0512 179.249 80.0833C179.445 80.1153 179.646 80.098 179.834 80.0329C180.194 79.9021 180.527 79.7066 180.817 79.4562L186.133 73.6683L186.22 73.7815C191.472 69.0273 194.742 68.1089 196.641 68.4655C196.919 68.5168 197.181 68.6297 197.41 68.796C197.638 68.9624 197.826 69.1779 197.961 69.4266C197.993 69.5804 198.42 70.7871 190.404 78.8518Z" fill="#454545"/>
<path d="M148.718 21.7208H155.614C155.798 21.7206 155.976 21.6518 156.112 21.5278C156.248 21.4038 156.333 21.2335 156.351 21.0502L156.633 21.1591C157.575 21.5305 158.58 21.721 159.593 21.7208H167.993C168.402 21.7196 168.805 21.6138 169.162 21.4132C169.519 21.2127 169.819 20.9241 170.033 20.575C170.247 20.2259 170.368 19.8278 170.385 19.4186C170.402 19.0095 170.313 18.6028 170.129 18.2374C170.584 18.0643 170.976 17.757 171.253 17.3562C171.53 16.9553 171.679 16.4798 171.679 15.9927C171.68 15.6057 171.586 15.2243 171.406 14.882C171.855 14.697 172.238 14.38 172.503 13.9729C172.769 13.5659 172.905 13.0879 172.893 12.6021C172.881 12.1162 172.722 11.6454 172.437 11.2517C172.152 10.858 171.755 10.56 171.297 10.3969C171.462 10.0653 171.548 9.69961 171.547 9.32904C171.546 8.69214 171.292 8.08165 170.842 7.63129C170.391 7.18093 169.781 6.92743 169.144 6.9263H164.324L164.964 5.0041C165.121 4.53684 165.182 4.0429 165.145 3.55149C165.107 3.06008 164.972 2.58119 164.746 2.14312C164.52 1.70506 164.209 1.31672 163.83 1.00107C163.452 0.685419 163.014 0.448867 162.542 0.305401L161.641 0.0320204C161.46 -0.0230882 161.265 -0.00662438 161.095 0.0780169C160.926 0.162658 160.796 0.309025 160.731 0.486941L159.317 4.3954C158.932 5.4535 158.172 6.33352 157.182 6.86863L156.272 7.36413C156.212 7.23575 156.117 7.12724 155.997 7.05151C155.877 6.97579 155.738 6.93603 155.597 6.93697H148.718C148.522 6.93697 148.334 7.01483 148.195 7.15342C148.056 7.292 147.979 7.47996 147.979 7.67595V20.9733C147.977 21.071 147.996 21.168 148.032 21.2587C148.069 21.3493 148.123 21.4318 148.192 21.5013C148.261 21.5709 148.343 21.6261 148.433 21.6637C148.523 21.7014 148.62 21.7208 148.718 21.7208ZM156.353 9.02149L157.906 8.16718C159.21 7.45851 160.21 6.29689 160.716 4.90158L161.889 1.64453L162.117 1.71287C162.4 1.7986 162.663 1.94036 162.891 2.12973C163.118 2.31911 163.305 2.55222 163.44 2.81522C163.575 3.07822 163.656 3.36574 163.678 3.66068C163.7 3.95562 163.662 4.25197 163.568 4.53209L162.594 7.42607C162.556 7.53718 162.546 7.65556 162.564 7.77144C162.581 7.88732 162.626 7.99737 162.694 8.09251C162.763 8.18765 162.853 8.26515 162.957 8.31861C163.061 8.37207 163.177 8.39996 163.294 8.39998H169.153C169.278 8.39396 169.403 8.4134 169.52 8.45711C169.637 8.50082 169.744 8.56788 169.835 8.65425C169.926 8.74062 169.998 8.84449 170.047 8.95956C170.096 9.07463 170.122 9.19851 170.122 9.3237C170.122 9.44889 170.096 9.57277 170.047 9.68784C169.998 9.80292 169.926 9.90678 169.835 9.99315C169.744 10.0795 169.637 10.1466 169.52 10.1903C169.403 10.234 169.278 10.2534 169.153 10.2474H165.776C165.587 10.2576 165.408 10.34 165.278 10.4777C165.147 10.6153 165.075 10.7978 165.075 10.9875C165.075 11.1771 165.147 11.3596 165.278 11.4973C165.408 11.6349 165.587 11.7173 165.776 11.7275H170.487C170.613 11.7215 170.737 11.7409 170.855 11.7846C170.972 11.8283 171.079 11.8954 171.17 11.9818C171.261 12.0682 171.333 12.172 171.382 12.2871C171.431 12.4022 171.457 12.526 171.457 12.6512C171.457 12.7764 171.431 12.9003 171.382 13.0154C171.333 13.1304 171.261 13.2343 171.17 13.3207C171.079 13.4071 170.972 13.4741 170.855 13.5178C170.737 13.5615 170.613 13.581 170.487 13.575H165.776C165.58 13.575 165.392 13.6528 165.253 13.7914C165.115 13.93 165.037 14.1179 165.037 14.3139C165.037 14.5099 165.115 14.6979 165.253 14.8365C165.392 14.9751 165.58 15.0529 165.776 15.0529H169.285C169.41 15.0469 169.535 15.0663 169.652 15.11C169.77 15.1537 169.877 15.2208 169.967 15.3072C170.058 15.3936 170.13 15.4974 170.18 15.6125C170.229 15.7276 170.254 15.8514 170.254 15.9766C170.254 16.1018 170.229 16.2257 170.18 16.3408C170.13 16.4558 170.058 16.5597 169.967 16.6461C169.877 16.7324 169.77 16.7995 169.652 16.8432C169.535 16.8869 169.41 16.9064 169.285 16.9004H165.776C165.58 16.9004 165.392 16.9782 165.253 17.1168C165.115 17.2554 165.037 17.4433 165.037 17.6393C165.037 17.8353 165.115 18.0233 165.253 18.1619C165.392 18.3005 165.58 18.3783 165.776 18.3783H167.993C168.118 18.3723 168.243 18.3917 168.36 18.4354C168.478 18.4791 168.585 18.5462 168.675 18.6326C168.766 18.719 168.838 18.8228 168.887 18.9379C168.937 19.053 168.962 19.1768 168.962 19.302C168.962 19.4272 168.937 19.5511 168.887 19.6662C168.838 19.7812 168.766 19.8851 168.675 19.9715C168.585 20.0578 168.478 20.1249 168.36 20.1686C168.243 20.2123 168.118 20.2318 167.993 20.2258H159.593C158.764 20.2263 157.943 20.0713 157.171 19.7687L156.353 19.4483V9.02149ZM149.459 8.41493H151.731V15.9542C151.731 16.1502 151.809 16.3382 151.948 16.4767C152.086 16.6153 152.274 16.6932 152.47 16.6932C152.666 16.6932 152.854 16.6153 152.993 16.4767C153.131 16.3382 153.209 16.1502 153.209 15.9542V8.40852H154.875V20.2258H149.459V8.41493Z" fill="#454545"/>
<path d="M116.08 29.6725H117.703V34.2773C117.701 34.6105 117.8 34.9364 117.988 35.212C118.175 35.4877 118.441 35.7002 118.751 35.8214C118.947 35.899 119.156 35.9388 119.366 35.9389C119.593 35.9389 119.817 35.8925 120.024 35.8025C120.232 35.7125 120.419 35.5808 120.573 35.4156L125.975 29.6725H132.651C134.23 29.6703 135.743 29.0422 136.859 27.926C137.975 26.8098 138.603 25.2966 138.606 23.718V12.8491C138.603 11.2705 137.975 9.75727 136.859 8.64107C135.743 7.52487 134.23 6.89679 132.651 6.89453H116.08C114.501 6.89679 112.988 7.52487 111.872 8.64107C110.755 9.75727 110.127 11.2705 110.125 12.8491V23.718C110.127 25.2966 110.755 26.8098 111.872 27.926C112.988 29.0422 114.501 29.6703 116.08 29.6725ZM112.047 12.8491C112.048 11.78 112.474 10.755 113.229 9.99902C113.985 9.24305 115.01 8.81786 116.08 8.81673H132.651C133.72 8.81786 134.745 9.24305 135.501 9.99902C136.257 10.755 136.682 11.78 136.683 12.8491V23.718C136.682 24.7871 136.257 25.8121 135.501 26.5681C134.745 27.324 133.72 27.7492 132.651 27.7504H125.654C125.494 27.7497 125.336 27.782 125.189 27.8452C125.042 27.9084 124.909 28.0011 124.8 28.1177L119.631 33.6173V28.9186C119.631 28.6095 119.508 28.3132 119.289 28.0947C119.071 27.8761 118.774 27.7531 118.465 27.7525H116.08C115.01 27.7514 113.985 27.3262 113.229 26.5702C112.474 25.8142 112.048 24.7892 112.047 23.7201V12.8491Z" fill="#454545"/>
<path d="M124.057 24.2364C124.097 24.2771 124.146 24.3093 124.199 24.3314C124.252 24.3534 124.309 24.3647 124.366 24.3647C124.424 24.3647 124.481 24.3534 124.534 24.3314C124.587 24.3093 124.635 24.2771 124.676 24.2364L129.981 18.929C130.58 18.3183 130.914 17.4959 130.91 16.6404C130.906 15.785 130.565 14.9657 129.96 14.3607C129.355 13.7556 128.536 13.4138 127.681 13.4093C126.825 13.4049 126.003 13.7383 125.392 14.3371L124.676 15.0526C124.635 15.0933 124.587 15.1255 124.534 15.1475C124.481 15.1696 124.424 15.1809 124.366 15.1809C124.309 15.1809 124.252 15.1696 124.199 15.1475C124.146 15.1255 124.097 15.0933 124.057 15.0526L123.352 14.3478C122.742 13.7391 121.916 13.3976 121.054 13.3984C120.192 13.3992 119.367 13.7423 118.758 14.352C118.149 14.9618 117.808 15.7884 117.809 16.6499C117.809 17.5115 118.152 18.3374 118.762 18.9461L124.057 24.2364Z" fill="#454545"/>
<path d="M31.161 51.3214L32.4851 49.788C30.9089 48.4253 23.0066 41.6079 22.3466 41.168L21.2168 42.8531C21.7358 43.214 27.5899 48.2395 31.161 51.3214Z" fill="#454545"/>
<path d="M35.0682 36.3461C33.4471 34.8789 19.2037 21.9852 18.3365 21.3359L17.1191 22.9591C17.7492 23.4354 27.3837 32.1259 33.7056 37.8497L35.0682 36.3461Z" fill="#454545"/>
<path d="M38.6981 24.6001C36.148 22.2892 29.4203 16.1766 28.9098 15.6641L27.4746 17.0993C28.126 17.74 36.9596 25.762 37.3355 26.1037L38.6981 24.6001Z" fill="#454545"/>
<path d="M135.129 184.953L134.2 185.882C134.094 185.987 133.95 186.047 133.8 186.047C133.65 186.047 133.506 185.987 133.399 185.882L132.485 184.968C132.101 184.55 131.636 184.214 131.118 183.981C130.601 183.748 130.042 183.622 129.474 183.61C128.907 183.599 128.343 183.702 127.817 183.914C127.29 184.126 126.812 184.443 126.411 184.844C126.01 185.246 125.695 185.725 125.484 186.251C125.273 186.778 125.17 187.342 125.183 187.91C125.195 188.477 125.322 189.036 125.557 189.553C125.791 190.07 126.127 190.534 126.545 190.918L133.41 197.782C133.462 197.835 133.525 197.877 133.593 197.906C133.662 197.934 133.736 197.949 133.81 197.949C133.885 197.949 133.958 197.934 134.027 197.906C134.096 197.877 134.158 197.835 134.211 197.782L141.09 190.903C141.878 190.114 142.321 189.044 142.32 187.928C142.32 186.813 141.877 185.743 141.088 184.955C140.299 184.166 139.23 183.723 138.114 183.722C136.999 183.722 135.929 184.165 135.14 184.953H135.129Z" fill="#454545"/>
<path d="M179.736 122.176L178.992 122.921C178.907 123.006 178.792 123.053 178.672 123.053C178.552 123.053 178.437 123.006 178.352 122.921L177.619 122.189C176.985 121.563 176.13 121.213 175.239 121.216C174.348 121.219 173.495 121.574 172.865 122.204C172.235 122.834 171.88 123.687 171.877 124.578C171.874 125.469 172.224 126.324 172.85 126.958L178.352 132.458C178.394 132.5 178.443 132.534 178.498 132.557C178.553 132.58 178.612 132.591 178.672 132.591C178.732 132.591 178.791 132.58 178.846 132.557C178.901 132.534 178.95 132.5 178.992 132.458L184.505 126.945C185.131 126.311 185.481 125.456 185.478 124.565C185.475 123.674 185.12 122.821 184.49 122.191C183.86 121.561 183.007 121.206 182.116 121.203C181.225 121.2 180.369 121.55 179.736 122.176Z" fill="#454545"/>
<path d="M178.601 117.775C178.654 117.826 178.724 117.855 178.798 117.855C178.871 117.855 178.941 117.826 178.994 117.775L182.362 114.414C182.737 114.025 182.945 113.504 182.94 112.964C182.935 112.424 182.718 111.907 182.335 111.525C181.953 111.143 181.436 110.927 180.896 110.922C180.356 110.917 179.836 111.125 179.447 111.5L178.994 111.953C178.968 111.979 178.938 111.999 178.904 112.013C178.87 112.027 178.834 112.035 178.798 112.035C178.761 112.035 178.725 112.027 178.691 112.013C178.658 111.999 178.627 111.979 178.601 111.953L178.155 111.507C177.763 111.152 177.25 110.96 176.721 110.973C176.193 110.985 175.689 111.2 175.315 111.574C174.94 111.947 174.724 112.45 174.71 112.979C174.696 113.507 174.885 114.021 175.239 114.414L178.601 117.775Z" fill="#454545"/>
</svg>
