<svg width="200" height="192" viewBox="0 0 200 192" fill="none" xmlns="http://www.w3.org/2000/svg">
<path opacity="0.4" d="M87.8441 98.6219C87.8597 98.7021 87.8708 98.7846 87.8842 98.8649C88.0113 95.4623 88.6624 92.1042 88.8831 88.7082C88.9688 87.4079 88.9022 86.1021 88.6847 84.8173C88.4617 83.4616 88.1941 82.1014 88.1451 80.7256C88.1005 79.526 88.2499 78.2974 88.959 77.294C89.7528 76.1791 91.0037 75.8981 92.3036 75.9048C93.0038 75.9048 93.7039 75.9673 94.4041 75.9405C95.2849 75.9048 96.1634 75.8223 97.0397 75.7175C98.9239 75.4945 100.799 75.2047 102.692 75.0887C104.585 74.9728 106.561 75.0508 108.49 75.1177C110.36 75.1846 112.229 75.2894 114.098 75.412C117.951 75.6662 121.797 75.9962 125.65 76.2438C129.503 76.4913 133.303 76.4065 137.127 76.2906C139.06 76.2326 140.991 76.1612 142.924 76.1033C144.311 76.0631 145.792 76.1144 146.976 75.2738C147.823 74.6718 148.416 73.7575 149.148 73.0329C150.17 72.0271 151.364 71.2116 152.673 70.6247C155.017 69.6114 157.598 69.2784 160.123 69.6637C160.076 69.6101 160.031 69.5611 159.984 69.5143C155.302 64.8317 126.983 65.0547 126.983 65.0547L126.315 67.9534L121.759 69.4161L114.836 70.89L107.81 71.53L99.3364 69.0772L89.5053 62.9453C89.5053 62.9453 67.0045 65.9555 55.1866 67.7393C43.3688 69.5232 38.9092 82.233 38.9092 82.233C38.9092 82.233 31.8207 108.306 31.1562 110.997C33.3468 110.409 35.5855 110.018 37.8456 109.829C41.2626 109.518 44.6998 109.497 48.1205 109.764C49.5051 109.869 50.9032 109.963 52.2857 110.112C53.6236 110.257 54.9993 110.48 56.2614 111.004C57.3629 111.45 58.4332 112.148 58.9371 113.274C59.6685 114.939 59.1713 116.951 58.6584 118.603C58.3685 119.533 58.0497 120.449 57.7977 121.392C57.5237 122.45 57.3601 123.532 57.3094 124.623C57.2202 126.256 57.2559 127.892 57.0864 129.516C59.0397 127.519 61.0257 125.555 63.0444 123.624C67.165 119.658 71.357 115.764 75.413 111.729C79.5604 107.599 83.6811 103.322 87.0748 98.5349C87.2688 98.2629 87.7772 98.2361 87.8441 98.6219Z" fill="#89DA3E"/>
<path opacity="0.19" d="M67.006 80.4492C67.006 80.4492 67.1175 81.0446 67.2936 82.0859C68.3706 88.4341 71.8892 111.399 67.6749 117.91C62.7694 125.491 54.7422 130.173 54.7422 130.173" fill="#454545"/>
<path opacity="0.4" d="M0.780123 22.9214C0.780123 22.4754 0.505859 15.6144 0.505859 15.6144C0.505859 15.6144 4.1248 12.4414 5.01671 12.4414C5.90863 12.4414 60.3154 12.6644 60.3154 12.6644C60.3154 12.6644 62.0992 13.5563 62.5452 14.2252C62.9911 14.8942 63.6601 17.7929 63.6601 18.4618C63.6601 19.1308 63.2141 21.1376 63.2141 21.1376L62.0992 21.8065L0.780123 22.9214Z" fill="#89DA3E"/>
<path opacity="0.4" d="M10.5918 36.2972L10.8148 29.3849L12.8216 27.6011C12.8216 27.6011 17.5041 26.4862 19.065 26.7092C20.6258 26.9322 68.3432 26.7092 68.3432 26.7092C68.3432 26.7092 71.2419 27.3781 71.4649 27.6011C71.6879 27.8241 72.8028 31.3917 72.8028 32.0607C72.8028 32.7296 72.8028 36.5202 72.1339 36.2972C71.4649 36.0743 10.5918 36.2972 10.5918 36.2972Z" fill="#FF897A"/>
<path opacity="0.39" d="M23.5253 57.9289C23.5253 57.9289 21.0725 48.5638 28.4308 48.1178C35.7891 47.6719 81.0537 47.6719 81.0537 47.6719C81.0537 47.6719 86.1332 51.4759 85.8232 54.2564C85.5133 57.037 83.7294 57.7059 83.7294 57.7059L23.5253 57.9289Z" fill="#0447F6"/>
<path d="M87.2969 84.2394H148.17C148.17 84.2394 149.508 83.3475 149.285 82.9015C149.062 82.4556 148.17 79.1109 148.17 79.1109L148.616 76.4351C148.616 76.4351 147.947 75.5432 147.055 75.3202C146.163 75.0973 91.3105 75.5432 91.3105 75.5432C91.3105 75.5432 87.5199 77.1041 87.2969 84.2394Z" fill="#FFA272"/>
<path opacity="0.4" d="M164.753 100.614C164.432 100.476 164.104 100.344 163.774 100.224C161.181 99.2716 158.465 98.5514 155.97 97.3585C154.07 96.4407 152.437 95.0502 151.227 93.3203C151.181 93.8198 151.129 94.317 151.087 94.8143C150.436 102.067 150.253 109.354 150.541 116.63C150.599 117.991 150.686 119.342 150.811 120.698C150.946 121.751 150.969 122.817 150.877 123.875C150.784 124.827 150.412 125.73 149.809 126.473C149.02 127.414 147.865 127.933 146.73 128.33C143.805 129.358 140.625 129.38 137.561 129.235C134.41 129.084 131.287 128.789 128.129 128.941C124.527 129.128 120.922 129.252 117.315 129.311C113.789 129.367 110.289 129.376 106.783 128.966H106.752C106.529 129.137 106.306 129.309 106.083 129.485C102.981 131.988 100.114 134.768 97.5164 137.791C96.2477 139.247 95.0637 140.763 93.8752 142.284C92.6555 143.845 91.3221 145.308 89.9597 146.744C87.4668 149.366 84.9962 152.035 82.1777 154.325C110.543 168.741 141.465 179.807 148.391 178.558C161.993 176.106 154.635 113.672 154.635 113.672L165.115 112.334C165.115 112.334 165.054 107.272 164.753 100.614Z" fill="#89DA3E"/>
<path d="M199.974 154.248C199.791 147.409 198.689 141.554 198.19 139.79C196.979 135.553 188.551 105.228 186.874 99.1876L186.843 99.0761C186.751 98.3805 185.926 92.0813 184.724 85.5436C182.992 76.1317 181.295 70.604 179.674 69.1145C179.362 68.6686 178.258 67.0899 176.693 65.1009C178.519 62.3761 180.218 59.8141 181.745 57.4884C190.178 44.6382 190.071 43.9938 189.967 43.3717C189.884 42.8789 189.322 41.2155 185.518 40.4551L184.811 40.3124L171.444 59.0582C167.889 55.4571 165.053 53.7067 162.774 53.7067C162.124 53.7022 161.483 53.8617 160.91 54.1705C160.364 54.4519 159.884 54.8468 159.502 55.3286C159.121 55.8104 158.847 56.3681 158.698 56.9644C158.29 58.5253 158.593 60.5321 159.59 62.9492C155.893 61.8677 150.575 61.1252 143.346 60.677C137.863 60.3359 132.572 60.2645 129.098 60.2645H127.686L127.664 58.2064C130.083 57.8073 131.99 56.8909 133.337 55.4794C135.544 53.1649 135.975 49.5816 136.108 46.0541C136.212 43.3649 136.111 40.6718 135.807 37.9979C138.322 35.1928 139.31 30.6128 138.96 27.7141C138.737 25.8233 137.963 25.0562 137.357 24.744C137.019 24.5691 136.645 24.4781 136.264 24.4787C136.195 24.4787 136.126 24.4787 136.057 24.4787C136.017 23.1185 135.874 21.7695 135.747 20.5743L135.729 20.4049C135.698 20.1306 135.651 19.8407 135.611 19.5843C135.504 19.0932 135.464 18.59 135.491 18.0881C135.568 17.9042 135.668 17.7311 135.789 17.5731C136.017 17.2673 136.204 16.9329 136.345 16.5786C136.626 15.7886 136.741 14.9489 136.681 14.1124C136.549 12.464 135.846 10.9131 134.695 9.72645C133.53 8.52071 131.992 7.74298 130.331 7.51896C130.304 7.51896 129.564 7.46099 128.719 7.46099C128.447 7.46099 128.19 7.46099 127.956 7.4766C127.597 5.32485 125.949 3.68596 124.612 2.95013C123.725 2.45407 122.728 2.1902 121.713 2.18308C121.521 2.18221 121.329 2.19263 121.138 2.2143C120.458 2.34789 119.797 2.56353 119.169 2.85648C118.541 1.83147 117.594 1.04158 116.473 0.608858C115.458 0.200906 114.374 -0.0058411 113.28 0.000125556C111.587 0.000125556 109.96 0.477299 108.82 1.30455C108.004 1.9048 107.308 2.65373 106.769 3.51204C106.017 2.86677 105.138 2.38733 104.189 2.10504L104.14 2.09389C103.347 1.93311 102.541 1.85095 101.732 1.84862C99.9791 1.84862 98.4539 2.29457 97.1985 3.20433C96.0372 4.06784 95.1423 5.24085 94.6165 6.58914C93.5664 5.90652 92.3391 5.5468 91.0867 5.55452H90.9507C89.1441 5.61924 87.411 6.28641 86.0273 7.44984C84.6315 8.59372 83.6883 10.7611 83.7351 12.7233C83.7416 13.3365 83.8681 13.9425 84.1075 14.5071C82.2085 15.551 80.7261 17.2161 79.9088 19.2231C79.5847 20.0621 79.4527 20.9632 79.5226 21.8599C79.5924 22.7567 79.8623 23.6264 80.3124 24.4051C80.7186 25.1133 81.2604 25.7346 81.9067 26.2335C80.2009 28.1489 79.8999 31.0097 80.3637 33.0232C81.5098 37.9711 86.5402 39.3759 88.7566 39.7572C88.7677 42.5756 88.7254 51.6642 87.8201 57.3725L86.0652 57.5687V52.0723C86.0635 50.6992 85.5175 49.3829 84.5471 48.4116C83.5766 47.4403 82.2607 46.8932 80.8877 46.8903H74.4748V30.6664C74.473 29.2925 73.9265 27.9755 72.9551 27.0041C71.9836 26.0326 70.6666 25.4861 69.2928 25.4843H64.6638V16.8417C64.662 15.4679 64.1155 14.1508 63.144 13.1794C62.1726 12.208 60.8556 11.6614 59.4817 11.6597H5.18202C3.80821 11.6614 2.49117 12.208 1.51973 13.1794C0.548299 14.1508 0.00177 15.4679 0 16.8417V62.2223C0.00177 63.5961 0.548299 64.9131 1.51973 65.8846C2.49117 66.856 3.80821 67.4025 5.18202 67.4043H9.81105V76.0469C9.81282 77.4207 10.3594 78.7378 11.3308 79.7092C12.3022 80.6806 13.6193 81.2272 14.9931 81.229H21.4059V97.4529C21.4049 98.7577 21.8965 100.015 22.7825 100.973C23.6684 101.931 24.8834 102.519 26.1844 102.619C22.775 115.965 18.4983 134.356 17.3968 146.461C16.5718 155.534 15.8493 165.069 16.8349 173.096C18.0501 182.907 21.6088 188.731 27.7162 190.874C28.8972 191.27 30.1364 191.465 31.382 191.449C33.9931 191.449 37.0969 190.723 40.6044 189.289C44.9926 187.505 50.0364 184.606 55.5952 180.729C65.2836 173.952 74.7089 165.332 78.6623 160.661C85.8779 152.132 103.215 133.011 103.393 132.811L105.507 130.068H105.522H146.443C147.817 130.066 149.134 129.52 150.106 128.548C151.077 127.577 151.624 126.26 151.625 124.886V93.223C151.781 94.0943 152.115 94.924 152.607 95.6597C153.099 96.3954 153.738 97.0212 154.484 97.4975C155.536 116.567 158.092 163.156 159.133 185.255V185.329L159.202 185.355C159.546 185.483 159.91 185.549 160.277 185.552C160.551 185.552 160.824 185.511 161.086 185.431C161.158 185.409 161.225 185.384 161.291 185.358L161.365 185.329V185.251C161.184 181.398 160.946 176.554 160.654 170.848C162.55 172.989 164.665 174.926 166.964 176.628C171.921 180.263 177.032 182.107 182.153 182.107C184.072 182.105 185.982 181.84 187.828 181.317C191.447 180.298 194.312 177.932 196.348 174.287C199.633 168.385 200.134 160.132 199.974 154.248ZM185.763 42.8008C186.611 43.0439 187.4 43.394 187.683 43.6504C186.76 45.8244 179.404 57.125 172.521 67.2861C170.96 67.3173 169.399 67.4779 168.048 67.634L185.763 42.8008ZM175.729 67.469C175.54 67.44 175.344 67.4154 175.145 67.3931L175.393 67.0275L175.729 67.469ZM160.852 57.5174C160.925 57.2175 161.062 56.9371 161.255 56.6959C161.448 56.4548 161.691 56.2587 161.967 56.1216C162.222 55.9879 162.507 55.9204 162.794 55.9254C164.409 55.9254 166.942 57.6445 170.121 60.8955L165.078 67.9684L164.915 67.9863L164.65 67.5626C163.408 65.5915 160.107 60.3582 160.85 57.5174H160.852ZM134.726 27.2436C134.98 26.9605 135.433 26.655 135.827 26.655C135.923 26.6529 136.017 26.6743 136.102 26.7174L136.14 26.7375L136.18 26.7263C136.208 26.7182 136.237 26.7137 136.267 26.7129C136.291 26.7127 136.314 26.718 136.336 26.7286C136.396 26.7665 136.639 27.0876 136.748 27.9817C136.982 29.9394 136.416 32.6642 135.359 34.7067C135.071 32.9229 134.69 31.0343 134.244 29.0787L134.347 28.9583L134.324 28.8981C134.259 28.732 134.227 28.5549 134.229 28.3764C134.258 27.9526 134.434 27.5522 134.726 27.2436ZM82.5489 32.526C81.978 30.0911 83.0595 27.7899 84.3974 27.0452C84.7926 26.8265 85.2367 26.7115 85.6884 26.7107C88.1055 26.7107 90.5092 29.8636 90.9685 30.5014C91.361 31.0432 91.7177 31.6162 92.0634 32.1893C92.8638 33.4937 93.6933 34.8427 95.0624 35.9398C95.8473 36.5686 96.5564 36.8875 97.1673 36.8875C97.4079 36.8892 97.6457 36.8366 97.863 36.7336C98.2042 36.5708 98.7728 36.1382 98.7728 35.0702C98.7728 33.1637 99.0493 25.1409 99.1719 21.6446C99.4752 21.6714 99.7784 21.6848 100.079 21.6848C102.67 21.6848 106.136 20.7661 107.995 16.4113C109.612 17.5864 112.749 19.455 116.35 19.455C118.218 19.4544 120.05 18.939 121.644 17.9655C122.926 17.2228 124.142 16.3717 125.278 15.4213C125.876 17.2319 127.14 19.6289 129.789 21.1296C130.585 23.696 131.241 26.0663 131.796 28.3719L131.749 28.4522L131.76 28.4945C131.78 28.586 131.798 28.6796 131.816 28.7777C131.834 28.8758 131.84 28.9182 131.856 29.0007C131.905 29.2198 131.966 29.4357 132.041 29.6473L132.072 29.7432L132.119 29.7655C133.482 35.8149 134.057 41.1151 133.872 45.9694C133.76 48.9104 133.426 52.157 131.716 53.9408C130.349 55.3724 127.907 56.1952 125.026 56.1952C124.741 56.1952 124.447 56.1952 124.157 56.1706C119.619 55.9142 114.691 54.8707 109.911 53.1582C105.725 51.6575 101.52 49.8581 99.0827 46.8747L99.0225 46.7988L98.94 46.8479C98.3469 47.1957 98.3647 48.1858 98.6836 48.935C98.9594 49.5554 99.3362 50.1257 99.7985 50.6229C100.73 51.3279 101.715 51.9579 102.746 52.5071C106.744 55.97 115.976 62.6838 125.466 60.5522L125.537 67.6161C124.679 68.0677 123.793 68.4654 122.886 68.8068L122.6 68.9228C119.297 70.3501 115.736 71.0847 112.138 71.0812C107.528 71.0914 103 69.8639 99.027 67.5269C97.0066 66.3317 95.0764 64.9903 93.2518 63.5133C93.0534 63.3528 92.846 63.19 92.6319 63.0228C91.4702 62.1063 90.1547 61.0695 89.615 59.8565C90.9395 54.3489 91.0087 43.4185 90.9975 40.0114C91.5585 39.9908 92.1094 39.8557 92.6163 39.6145L92.652 39.5989L92.6699 39.5632C93.0016 38.9652 93.1365 38.2778 93.0556 37.5988V37.572L92.6565 37.0145L92.5651 37.0792C91.6731 37.7169 91.1313 37.7771 91.0042 37.7816L90.8236 37.766C87.3563 37.5787 83.3717 36.1182 82.5399 32.526H82.5489ZM87.2314 59.6759C87.693 61.9569 89.6663 63.5111 91.2651 64.7709C91.4658 64.9292 91.6642 65.0853 91.8515 65.2369C93.7612 66.7836 95.7816 68.1884 97.8965 69.4401C102.215 71.9794 107.135 73.3138 112.145 73.3043C116.042 73.3093 119.898 72.5156 123.477 70.9719L123.684 70.8872H123.713C127.02 69.5493 127.776 69.0343 127.767 68.0911C127.767 68.0911 127.767 68.0911 127.711 62.5055H129.107C132.545 62.5055 137.785 62.5768 143.21 62.9135C151.683 63.4375 157.65 64.4052 160.97 65.7855C161.483 66.7153 162.001 67.5581 162.449 68.2739C160.513 68.4969 158.622 68.7711 156.827 69.0722C156.513 69.1257 156.123 69.1747 155.67 69.2327C152.722 69.6118 147.788 70.2473 147.458 74.0134C147.449 74.1552 147.449 74.2974 147.458 74.4393C147.128 74.3729 146.791 74.3393 146.454 74.3389H92.1436C90.7698 74.3407 89.4528 74.8872 88.4813 75.8587C87.5099 76.8301 86.9634 78.1471 86.9616 79.5209V97.0827C86.6407 97.3745 86.3501 97.698 86.0942 98.0482L82.9034 102.354C82.2077 103.255 81.4633 104.118 80.6736 104.938C80.4083 105.224 80.1429 105.509 79.882 105.797C76.6912 109.318 73.7992 112.19 73.3019 112.571C72.7802 112.87 71.6987 113.924 67.6673 117.858C64.8042 120.652 61.2566 124.112 57.7046 127.472C59.2231 120.861 62.0371 108.604 64.414 98.1998C66.4677 89.216 66.9091 83.6416 66.9158 80.5489V80.5176L66.8757 80.4463C66.7887 80.2991 66.704 80.152 66.6104 80.0003C66.5546 79.9156 66.4944 79.8309 66.4342 79.7461L66.3539 79.6324C66.3272 79.6012 66.2848 79.5522 66.2424 79.4986L66.0685 79.2957C65.8768 79.0861 65.6939 78.8988 65.5089 78.7249L65.3661 78.6023C65.2658 78.5175 65.0785 78.3592 65.0517 78.3302L64.9938 78.3726L65.0339 78.3057L64.7552 78.1206L64.5612 77.9935L64.5835 78.2165C64.7819 80.1252 64.9469 85.8446 62.2422 97.687C61.2321 102.1 60.1484 106.829 59.1205 111.353C54.4179 109.685 49.2158 108.84 43.6592 108.84C40.9118 108.844 38.1683 109.043 35.4491 109.436C32.3474 109.879 29.2844 110.559 26.2869 111.472C29.1031 99.8075 31.8948 89.7646 32.9763 85.9739C36.2987 74.2453 42.8565 67.0787 52.4646 64.6773C59.8697 62.8421 80.7539 60.405 87.2225 59.6759H87.2314ZM147.181 80.9056C147.279 81.6506 147.625 82.341 148.163 82.8656L89.1914 83.1443V79.4986C89.1926 78.716 89.504 77.9658 90.0574 77.4124C90.6108 76.859 91.361 76.5476 92.1436 76.5464H146.443C146.842 76.5471 147.236 76.6285 147.603 76.7856C147.969 76.9427 148.3 77.1723 148.575 77.4606C148.424 77.5767 148.282 77.7034 148.149 77.8397C147.766 78.244 147.479 78.7298 147.31 79.2608C147.14 79.7917 147.094 80.354 147.172 80.9056H147.181ZM87.1846 100.405V102.751C84.7965 104.548 82.6314 106.388 81.2155 107.634C84.1231 104.454 86.1277 102.026 87.1846 100.405ZM80.8877 49.1201C81.6703 49.1212 82.4205 49.4327 82.9739 49.986C83.5273 50.5394 83.8387 51.2897 83.8399 52.0723V55.4326L23.6357 55.718V52.0723C23.6369 51.2897 23.9483 50.5394 24.5017 49.986C25.0551 49.4327 25.8053 49.1212 26.588 49.1201H80.8877ZM69.2928 27.7141C70.0754 27.7153 70.8256 28.0267 71.379 28.5801C71.9324 29.1335 72.2438 29.8837 72.245 30.6664V34.0266L12.0408 34.312V30.6664C12.042 29.8837 12.3534 29.1335 12.9068 28.5801C13.4602 28.0267 14.2105 27.7153 14.9931 27.7141H69.2928ZM2.22978 16.8417C2.23096 16.0591 2.54238 15.3088 3.09578 14.7554C3.64917 14.2021 4.3994 13.8906 5.18202 13.8895H59.4817C60.2644 13.8906 61.0146 14.2021 61.568 14.7554C62.1214 15.3088 62.4328 16.0591 62.434 16.8417V20.202L2.22978 20.4874V16.8417ZM9.81105 30.6664V65.1745H5.18202C4.3994 65.1733 3.64917 64.8619 3.09578 64.3085C2.54238 63.7551 2.23096 63.0049 2.22978 62.2223V22.7172L62.434 22.4318V25.4843H14.9931C13.6193 25.4861 12.3022 26.0326 11.3308 27.0041C10.3594 27.9755 9.81282 29.2925 9.81105 30.6664ZM21.4059 52.0723V78.9992H14.9931C14.2105 78.998 13.4602 78.6866 12.9068 78.1332C12.3534 77.5798 12.042 76.8296 12.0408 76.0469V36.5418L72.245 36.2564V46.8903H26.588C25.2141 46.892 23.8971 47.4386 22.9257 48.41C21.9542 49.3814 21.4077 50.6985 21.4059 52.0723ZM23.6357 97.4529V57.9478L83.8399 57.6624V57.8162C74.6978 58.8776 58.4828 60.8889 51.9072 62.5322C51.1869 62.7128 50.4444 62.9291 49.6997 63.1788L35.4023 63.2257V65.4555L44.7317 65.4265C42.7397 66.5944 40.9135 68.0246 39.3022 69.6787L35.5673 69.6898V71.9196H37.3311C34.5171 75.4873 32.3207 80.0226 30.8 85.3897C30.2024 87.4991 28.6126 93.1761 26.7396 100.41H26.5746C25.7935 100.405 25.046 100.091 24.4954 99.5373C23.9448 98.9833 23.6357 98.2339 23.6357 97.4529ZM104.338 128.155L104.086 128.271L101.716 131.35C101.003 132.137 84.1164 150.771 76.9655 159.222C73.1057 163.785 63.8566 172.233 54.322 178.902C44.6737 185.65 36.7379 189.217 31.3708 189.217C30.3865 189.232 29.4066 189.081 28.4721 188.771C16.1815 184.468 18.2486 161.724 19.6176 146.662C20.3111 139.038 22.3447 128.061 25.6671 114.034C31.5007 112.113 37.6 111.12 43.7417 111.092C49.0932 111.092 54.0946 111.922 58.6077 113.559C56.9933 120.607 55.5506 126.882 54.788 130.204C50.4132 134.255 47.3049 136.893 45.5456 138.048C44.1208 138.983 42.7405 139.455 41.4472 139.455C40.6557 139.454 39.8746 139.275 39.1617 138.931C38.6978 138.709 38.2634 138.429 37.8684 138.1L37.7413 137.993L37.6923 138.153C37.6321 138.347 37.5853 138.546 37.5407 138.737L37.4961 138.934L37.5607 138.949C37.5607 139.056 37.5407 139.159 37.5407 139.226V139.328V139.348C37.5697 139.421 37.5943 139.496 37.6142 139.571C37.6392 139.644 37.66 139.719 37.6767 139.794V139.812L37.7057 139.861C37.7651 139.97 37.8231 140.079 37.8796 140.189C37.9665 140.354 38.0557 140.526 38.1538 140.688C38.2096 140.78 38.2698 140.869 38.3322 140.958L38.3746 141.021L38.738 141.188L38.7269 141.17C39.5938 141.516 40.5185 141.693 41.4517 141.694C43.1709 141.694 44.9569 141.094 46.7564 139.91C51.2806 136.947 62.5076 125.994 69.2148 119.447C71.5337 117.186 73.7234 115.048 74.2897 114.571C74.6643 114.381 75.2708 113.828 76.767 112.319C77.6233 111.456 78.5932 110.448 79.5654 109.42L79.8575 109.732H79.9177C81.793 109.391 83.3427 108.283 84.8411 107.21L84.9682 107.121C85.4141 106.807 85.8935 106.49 86.529 106.116C89.6151 103.647 93.9564 100.492 97.1116 99.4775C103.132 97.5443 107.576 96.5632 110.33 96.5632C112.236 96.5632 112.667 97.0448 112.754 97.1942C112.768 97.2499 112.763 97.3088 112.74 97.3614C112.446 98.3537 110.388 100.066 107.235 101.948C103.711 102.129 100.228 102.792 96.8841 103.919C91.468 105.734 88.0252 108.084 87.8825 108.183L87.7888 108.247L87.9137 108.428H87.9605C88.0163 108.428 88.0765 108.443 88.13 108.45H88.2281C88.4765 108.483 88.7268 108.499 88.9773 108.497H89.1758C89.9074 108.448 90.6297 108.305 91.3253 108.073C91.5617 108.006 91.7958 107.94 92.0277 107.879L94.2954 107.317C97.6757 105.857 102.965 104.115 108.97 104.115C111.726 104.108 114.47 104.487 117.122 105.242C117.443 105.386 120.284 106.72 121.135 108.923C121.231 109.174 121.299 109.435 121.338 109.701C119.363 108.769 116.774 108.296 113.641 108.296C110.938 108.296 107.779 108.649 104.247 109.342C100.297 110.13 96.4068 111.19 92.603 112.513L92.4982 112.551L92.7211 113.18L92.7724 113.195C93.1545 113.31 93.549 113.379 93.9475 113.4H94.4292C94.835 113.4 95.2453 113.387 95.631 113.376C96.2375 113.358 96.8618 113.324 97.5397 113.273H97.562C100.028 112.56 102.43 111.971 104.697 111.527C108.062 110.858 111.07 110.533 113.634 110.533C116.769 110.533 119.227 111.028 120.937 112.007L120.903 112.08L121.456 112.332C123.43 113.67 124.105 114.562 124.322 115.104C123.481 114.435 122.315 113.782 121.294 113.782C120.179 113.782 101.912 115.452 96.2264 119.488L96.0235 119.633L96.2665 119.688C96.4971 119.736 96.7314 119.763 96.9666 119.769C97.1205 119.769 97.2744 119.769 97.4304 119.769C98.027 119.765 98.6228 119.724 99.2143 119.646C99.9278 119.557 100.646 119.423 101.339 119.291C101.926 119.182 102.532 119.068 103.145 118.979C110.192 117.015 120.025 116.014 121.3 116.014C121.704 116.014 122.792 116.564 123.512 117.396C123.71 117.608 123.862 117.859 123.958 118.132C122.435 119.505 112.843 124.279 104.338 128.155ZM149.396 124.879C149.394 125.662 149.083 126.412 148.53 126.965C147.976 127.519 147.226 127.83 146.443 127.831H110.321C112.125 126.977 113.817 126.161 115.36 125.403C119.093 123.568 121.746 122.172 123.474 121.135L139.42 121.084V118.854L126.152 118.897C126.179 118.808 126.197 118.717 126.208 118.625C126.266 118.172 126.208 117.711 126.039 117.287C126.323 116.929 126.518 116.51 126.609 116.063C126.715 115.518 126.667 114.954 126.471 114.435L139.694 114.39V112.161L124.897 112.207C124.474 111.809 124.027 111.436 123.559 111.092C123.716 110.091 123.602 109.065 123.229 108.122C123.121 107.846 122.993 107.578 122.848 107.32L139.506 107.266V105.036L120.966 105.088C120.054 104.306 119.034 103.661 117.938 103.17L117.822 103.13C115.685 102.512 113.489 102.122 111.271 101.966C112.573 101.014 113.545 100.12 114.169 99.2902L139.506 99.2077V96.9779L115.003 97.0582C114.983 96.699 114.877 96.3498 114.696 96.0392C114.265 95.3011 113.347 94.3222 110.345 94.3222C107.344 94.3222 102.641 95.3323 96.4449 97.3235C95.3072 97.7114 94.2084 98.2049 93.1626 98.7974C92.7167 99.0761 92.2484 99.3259 91.7891 99.5645C91.5059 99.7139 91.2205 99.8633 90.9395 100.01L90.8637 100.055L90.8905 100.149C90.4133 100.456 89.9072 100.795 89.3831 101.157L89.2048 95.6334V85.3741L148.689 85.0932C148.69 85.7163 148.792 86.3352 148.99 86.926C149.102 87.252 149.242 87.5675 149.409 87.8692L149.396 124.879ZM156.785 98.7461C157.829 99.2635 159.015 99.7986 160.295 100.336C160.549 102.452 161.084 106.709 161.836 111.953C160.443 112.366 159 112.585 157.548 112.606C157.253 107.222 156.992 102.477 156.785 98.7461ZM194.399 173.188C192.665 176.296 190.25 178.316 187.222 179.159C185.553 179.631 183.827 179.872 182.093 179.875C169.892 179.875 161.046 167.874 160.464 167.058C159.764 153.65 158.836 136.178 157.686 115.122C159.213 115.091 160.729 114.86 162.197 114.437C164.447 129.553 167.963 149.014 172.093 156.15L172.104 156.168L172.119 156.181C172.236 156.288 172.372 156.372 172.521 156.428C172.585 156.44 172.647 156.464 172.701 156.5L172.741 156.538H172.786H172.866L172.895 156.469C172.93 156.399 172.977 156.335 173.034 156.281C173.515 155.757 173.194 154.669 173.005 154.02L172.953 153.842L172.862 153.521C172.576 152.513 172.282 151.472 172.008 150.435C170.019 144.76 167.994 135.839 165.965 123.92C164.386 114.602 163.225 105.808 162.658 101.281C167.194 103.012 171.709 104.314 175.386 104.949H175.426C176.409 104.762 177.689 104.22 178.325 103.259L178.427 103.103L178.24 103.085C170.746 102.416 159.434 97.9033 155.773 95.6646C154.022 94.5965 153.654 92.7369 153.67 91.3054C154.514 91.6458 155.383 91.9202 156.27 92.1259C163.671 93.8897 171.814 95.5219 174.971 96.1395H175L175.058 96.1217L175.112 96.1061C175.87 95.8385 176.385 95.3413 176.528 94.7459C176.562 94.5907 176.579 94.4321 176.577 94.2732V94.1795L176.487 94.1617C175.622 94.0123 169.022 92.6544 168.683 92.583C165.958 92.0166 163.47 91.4681 161.077 90.9419C160.744 90.8661 160.412 90.7918 160.081 90.7189C158.011 90.273 155.873 89.7936 153.893 88.9239L153.592 88.7411C152.477 88.0722 151.527 87.4902 151.09 86.2237C150.916 85.7068 150.858 85.1578 150.921 84.616C152.313 85.1782 153.751 85.6184 155.22 85.9316C157.54 86.4445 159.891 86.8102 162.257 87.0264L174.686 87.8291L174.715 87.8113C175.413 87.4055 175.854 86.7521 176.066 85.8045L176.095 85.6774L162.42 84.7855C160.16 84.5762 157.916 84.2285 155.699 83.7441C149.875 82.4263 149.42 80.9302 149.389 80.6448C149.347 80.4182 149.358 80.1849 149.422 79.9634C149.486 79.742 149.6 79.5385 149.757 79.3693C150.709 78.3748 153.026 78.2968 153.712 78.2968C153.9 78.2968 154.063 78.2968 154.185 78.3102C159.441 79.1129 165.943 79.2801 170.463 79.2801C171.644 79.2801 172.811 79.269 173.934 79.2467H173.963L173.99 79.2311C174.815 78.7294 175.613 77.8932 175.381 77.0637L175.373 76.9924H175.286C174.795 77.0057 173.007 77.0548 170.581 77.0548C166.045 77.0548 159.568 76.8898 154.475 76.1071L153.98 76.0358C151.929 75.7459 149.587 75.2732 149.683 74.1784C149.857 72.2006 153.677 71.71 155.96 71.4157C156.406 71.3577 156.852 71.3019 157.202 71.2417C160.065 70.7601 162.966 70.3855 165.829 70.1269C166.349 70.08 166.96 70.0087 167.613 69.9306C169.433 69.6874 171.266 69.5474 173.103 69.5114C175.529 69.5114 177.212 69.9061 178.104 70.6865C180.47 72.758 183.371 89.4167 184.646 99.4307L184.675 99.5801L184.704 99.6849C185.734 103.391 194.798 136.01 196.049 140.392C197.3 144.773 199.938 163.263 194.399 173.188Z" fill="#454545"/>
<path d="M72.3561 54.138C73.3413 54.138 74.1399 53.3393 74.1399 52.3541C74.1399 51.369 73.3413 50.5703 72.3561 50.5703C71.3709 50.5703 70.5723 51.369 70.5723 52.3541C70.5723 53.3393 71.3709 54.138 72.3561 54.138Z" fill="#454545"/>
<path d="M77.485 54.3606C78.4702 54.3606 79.2688 53.562 79.2688 52.5768C79.2688 51.5916 78.4702 50.793 77.485 50.793C76.4998 50.793 75.7012 51.5916 75.7012 52.5768C75.7012 53.562 76.4998 54.3606 77.485 54.3606Z" fill="#454545"/>
<path d="M67.4518 54.3606C68.437 54.3606 69.2356 53.562 69.2356 52.5768C69.2356 51.5916 68.437 50.793 67.4518 50.793C66.4666 50.793 65.668 51.5916 65.668 52.5768C65.668 53.562 66.4666 54.3606 67.4518 54.3606Z" fill="#454545"/>
<path d="M62.1777 41.6892L23.8145 41.8164L23.8218 44.0462L62.1851 43.919L62.1777 41.6892Z" fill="#454545"/>
<path d="M60.7623 32.7317C61.7475 32.7317 62.5462 31.9331 62.5462 30.9479C62.5462 29.9627 61.7475 29.1641 60.7623 29.1641C59.7772 29.1641 58.9785 29.9627 58.9785 30.9479C58.9785 31.9331 59.7772 32.7317 60.7623 32.7317Z" fill="#454545"/>
<path d="M65.8893 32.9544C66.8745 32.9544 67.6731 32.1557 67.6731 31.1705C67.6731 30.1854 66.8745 29.3867 65.8893 29.3867C64.9041 29.3867 64.1055 30.1854 64.1055 31.1705C64.1055 32.1557 64.9041 32.9544 65.8893 32.9544Z" fill="#454545"/>
<path d="M55.8561 32.9544C56.8413 32.9544 57.6399 32.1557 57.6399 31.1705C57.6399 30.1854 56.8413 29.3867 55.8561 29.3867C54.8709 29.3867 54.0723 30.1854 54.0723 31.1705C54.0723 32.1557 54.8709 32.9544 55.8561 32.9544Z" fill="#454545"/>
<path d="M50.9498 18.9075C51.935 18.9075 52.7337 18.1089 52.7337 17.1237C52.7337 16.1385 51.935 15.3398 50.9498 15.3398C49.9647 15.3398 49.166 16.1385 49.166 17.1237C49.166 18.1089 49.9647 18.9075 50.9498 18.9075Z" fill="#454545"/>
<path d="M56.0787 19.1302C57.0639 19.1302 57.8626 18.3315 57.8626 17.3463C57.8626 16.3611 57.0639 15.5625 56.0787 15.5625C55.0936 15.5625 54.2949 16.3611 54.2949 17.3463C54.2949 18.3315 55.0936 19.1302 56.0787 19.1302Z" fill="#454545"/>
<path d="M46.0455 19.1302C47.0307 19.1302 47.8294 18.3315 47.8294 17.3463C47.8294 16.3611 47.0307 15.5625 46.0455 15.5625C45.0604 15.5625 44.2617 16.3611 44.2617 17.3463C44.2617 18.3315 45.0604 19.1302 46.0455 19.1302Z" fill="#454545"/>
<path d="M166.915 9.28391L140.232 40L141.916 41.4623L168.598 10.7462L166.915 9.28391Z" fill="#454545"/>
<path d="M146.508 51.326L147.311 52.0952L148.098 52.8846L148.178 52.8065C148.401 52.5836 167.144 31.8087 175.196 22.8851L175.272 22.8025L173.615 21.3086L173.542 21.3911C164.4 31.5322 146.985 50.8243 146.584 51.2457L146.508 51.326Z" fill="#454545"/>
<path d="M179.586 29.0747L163.75 48.4297L165.467 49.8345L181.303 30.4795L179.586 29.0747Z" fill="#454545"/>
<path d="M123.976 37.0799L123.996 37.129L124.045 37.1446C124.481 37.2959 124.939 37.3765 125.4 37.3832C125.717 37.415 126.035 37.3293 126.292 37.1424L126.346 37.0933L126.324 37.0264C126.101 36.3575 125.494 34.7476 124.254 31.5857C123.918 30.9748 123.585 30.4463 123.271 29.9758C122.889 29.4967 122.419 29.0955 121.886 28.7941L121.842 28.7695L120.898 29.1419L120.939 29.2467C121.998 31.9514 123.418 35.5458 123.976 37.0799Z" fill="#454545"/>
<path d="M112.585 41.9522L112.598 41.97L112.616 41.9811C116.69 44.396 120.42 45.7985 123.721 46.1553H123.886H123.961C124.476 46.1219 125.339 46.0683 125.669 45.6068C125.892 45.2924 125.912 44.5409 125.705 44.0905L125.674 44.0236H125.348C121.95 44.0236 117.881 42.5966 113.256 39.787C113.033 39.6533 112.882 39.5641 112.75 39.4882L112.69 39.457L112.634 39.4949C111.95 39.9654 111.965 40.9934 112.38 41.6779C112.444 41.7728 112.512 41.8643 112.585 41.9522Z" fill="#454545"/>
<path d="M114.5 30.5619C114.983 30.5793 115.461 30.4517 115.872 30.1957C116.282 29.9396 116.607 29.5667 116.804 29.1248C117.001 28.6829 117.062 28.1922 116.978 27.7155C116.895 27.2389 116.671 26.7982 116.335 26.4498C115.999 26.1015 115.567 25.8614 115.093 25.7605C114.62 25.6595 114.128 25.7022 113.679 25.8832C113.23 26.0642 112.845 26.3751 112.575 26.7761C112.304 27.177 112.159 27.6498 112.159 28.1337C112.148 28.766 112.388 29.3767 112.827 29.8319C113.266 30.2871 113.868 30.5496 114.5 30.5619Z" fill="#454545"/>
<path d="M126.354 29.9443C126.952 29.9445 127.529 29.7265 127.978 29.3311C128.215 29.1158 128.403 28.8526 128.531 28.5589C128.659 28.2652 128.722 27.9477 128.718 27.6275C128.717 26.9999 128.468 26.3981 128.024 25.9545C127.579 25.5109 126.978 25.2617 126.35 25.2617C125.949 25.2602 125.556 25.3638 125.208 25.5622C124.86 25.7606 124.57 26.0468 124.368 26.3922C124.156 26.7438 124.041 27.1448 124.034 27.555C124.026 27.9651 124.127 28.37 124.325 28.7291C124.518 29.0994 124.81 29.409 125.168 29.6235C125.526 29.838 125.937 29.949 126.354 29.9443Z" fill="#454545"/>
<path d="M86.0257 28.2757C85.8793 28.2426 85.7298 28.2254 85.5797 28.2244C85.4323 28.2158 85.2847 28.2386 85.1467 28.2912C85.0087 28.3439 84.8835 28.4253 84.7792 28.5299C84.5429 28.7863 84.4426 29.1855 84.4805 29.7184V29.7853L84.5429 29.812C85.4348 30.1822 87.6222 31.277 88.5565 33.4354L88.5766 33.4778L88.6212 33.4957C88.8048 33.5637 88.9985 33.6006 89.1942 33.6049C89.3672 33.6097 89.5383 33.5677 89.6894 33.4833C89.8405 33.3989 89.966 33.2753 90.0527 33.1255C90.6971 32.0775 89.2567 30.6014 88.6412 29.9726C87.9522 29.2568 87.096 28.4965 86.0257 28.2757Z" fill="#454545"/>
<path d="M139.312 90.5396L100.949 90.6602L100.956 92.8899L139.319 92.7694L139.312 90.5396Z" fill="#454545"/>
<path d="M137.913 81.5637C138.898 81.5637 139.697 80.7651 139.697 79.7799C139.697 78.7947 138.898 77.9961 137.913 77.9961C136.928 77.9961 136.129 78.7947 136.129 79.7799C136.129 80.7651 136.928 81.5637 137.913 81.5637Z" fill="#454545"/>
<path d="M143.042 81.7864C144.027 81.7864 144.825 80.9878 144.825 80.0026C144.825 79.0174 144.027 78.2188 143.042 78.2188C142.056 78.2188 141.258 79.0174 141.258 80.0026C141.258 80.9878 142.056 81.7864 143.042 81.7864Z" fill="#454545"/>
<path d="M133.006 81.7864C133.992 81.7864 134.79 80.9878 134.79 80.0026C134.79 79.0174 133.992 78.2188 133.006 78.2188C132.021 78.2188 131.223 79.0174 131.223 80.0026C131.223 80.9878 132.021 81.7864 133.006 81.7864Z" fill="#454545"/>
</svg>
